<svg xmlns="http://www.w3.org/2000/svg" width="372" height="516" fill="none"><g clip-path="url(#a)"><rect width="372" height="515.579" fill="#F6F7FA" rx="17.785"/><g clip-path="url(#b)"><rect width="35.57" height="35.57" x="16.148" y="30.122" fill="#D8DBDF" rx="17.785" transform="rotate(-.054 16.148 30.122)"/><path fill="#A0616A" d="M34.272 53.324a5.773 5.773 0 1 0-.01-11.547 5.773 5.773 0 0 0 .01 11.547Z"/><path fill="#A0616A" d="m29.495 54.621 1.2-3.077 6.218-.942.674 6.808-6.285.14-1.807-2.929Z"/><path fill="#313740" d="M40.097 48.61c-.074.3-.225 1.015-.462 1.019-.193.003-.38-3.098-.188-3.611.22-.59-.363-1.334-.802-1.717-.79-.687-2.54.792-4.322.125-.048-.018-.038-.016-.6-.24-1.733-.689-1.824-.709-1.923-.719-.839-.082-1.862.606-2.28 1.443-.434.871-.07 1.617-.477 3.723-.047.245-.121.595-.24.6-.214.01-.425-1.139-.48-1.44-.233-1.26-.456-2.476-.004-3.842.049-.149.353-.702.959-1.802.872-1.585 1.311-2.38 1.438-2.523.91-1.026 2.568-1.962 3.96-1.565.705.201.579.525 1.443.84 1.538.56 2.875-.128 3.122.357.13.257-.235.47-.24.96-.008.844 1.059 1.087 1.683 1.92.336.449.91.453-.587 6.472Z"/><path fill="#1A96D4" d="M47.26 59.685c-.232.262-.473.518-.723.769a17.67 17.67 0 0 1-12.571 5.22 17.65 17.65 0 0 1-11.153-3.915l-.005-.005a17.745 17.745 0 0 1-1.214-1.072 19.648 19.648 0 0 1 .207-1.273c.555-2.79 7.899-5.725 8.09-5.802a.026.026 0 0 0 .004-.001s.948 3.484 5 3.435c2.759-.032 2.22-3.442 2.22-3.442l.097.02c.797.169 6.332 1.379 8.516 3.036.666.505 1.144 1.58 1.489 2.864l.043.166Z"/></g><path fill="#1D2229" d="m65.426 32.741.006 6.486c0 .363-.027.664-.082.9a2.1 2.1 0 0 1-.308.724c-.316.475-1.023.713-2.122.714-.893 0-1.494-.189-1.802-.568a1.68 1.68 0 0 1-.369-.794 8.58 8.58 0 0 1-.084-1.257h1.4c0 .49.063.833.19 1.03.127.19.356.285.688.285.34 0 .569-.076.688-.227.126-.15.189-.419.188-.806l-.006-6.485 1.613-.002Zm4.032 8.818c-1.391 0-2.088-.718-2.09-2.156l-.004-4.79 1.59-.002.003 4.53c0 .41.08.715.238.912.167.19.44.284.819.284.537 0 1.047-.254 1.529-.76l-.005-4.968 1.589-.002.006 6.782-1.031.001-.452-.818c-.616.657-1.347.986-2.192.987Zm7.156-6.338c.742-.523 1.5-.784 2.275-.785.783 0 1.348.192 1.697.58.348.378.522.904.523 1.576l.004 4.79-1.589.001-.004-4.624c0-.403-.076-.688-.226-.853-.142-.166-.395-.249-.759-.249-.57 0-1.099.18-1.588.535l.005 5.194-1.59.001-.006-6.782h.747l.51.616Zm6.604-.623 1.59-.002.005 6.782-1.588.002-.007-6.782Zm.794-.807c-.593 0-.89-.304-.89-.912 0-.617.295-.925.888-.926.609 0 .913.307.914.924 0 .609-.303.913-.912.914Zm4.242 5.936c.205.395.6.592 1.186.592.585 0 .98-.199 1.185-.594.205-.396.307-.977.306-1.744 0-.766-.104-1.347-.31-1.742-.205-.395-.6-.592-1.186-.592-.585 0-.98.199-1.185.594-.205.395-.307.977-.306 1.743 0 .767.104 1.348.31 1.743Zm4.266-1.747c.002 2.371-1.024 3.558-3.08 3.56-2.054.002-3.083-1.183-3.085-3.554-.002-2.371 1.024-3.558 3.08-3.56 2.054-.002 3.083 1.183 3.085 3.554Zm3.131 3.388-1.589.002-.006-6.782.747-.001.63 1.055c.544-.776 1.314-1.183 2.31-1.224l.002 1.364c-.933.024-1.633.31-2.098.855l.004 4.731Zm8.145-8.663 2.098-.002 2.664 8.653-1.553.002-.737-2.395-2.846.003-.721 2.395-1.565.002 2.66-8.658Zm1.045 1.529-1.052 3.51 2.11-.002-1.058-3.508Zm6.511 7.12h-1.589l-.008-8.915 1.588-.215.009 9.13Zm4.58.161c-1.091.001-1.87-.29-2.337-.875-.467-.593-.701-1.486-.702-2.679-.002-2.371.993-3.558 2.985-3.56 1.146 0 1.929.354 2.348 1.065.364.608.547 1.399.548 2.37v.428l-4.339.004c.008.743.131 1.268.369 1.576.237.3.629.45 1.174.45.877-.001 1.343-.318 1.398-.95l1.304.046c-.125 1.415-1.041 2.123-2.748 2.125Zm.908-5.502c-.198-.26-.522-.391-.973-.39-.451 0-.782.127-.996.38-.205.245-.339.64-.402 1.186l2.739-.003c-.048-.53-.171-.92-.368-1.173Zm3.935 5.332-1.601.001 2.285-3.405-2.185-3.377 1.743-.002 1.33 2.062 1.35-2.064 1.601-.002-2.155 3.298 2.268 3.484-1.743.002-1.425-2.18-1.468 2.183Zm8.154-6.956c1.723-.002 2.585.784 2.587 2.357l.004 4.588-1.031.002-.452-.83c-.632.664-1.37.997-2.216.998-.601 0-1.059-.165-1.376-.497-.308-.34-.463-.79-.464-1.35 0-.57.177-1.029.533-1.377.355-.348 1.019-.594 1.991-.737l1.422-.215v-.569c-.001-.766-.365-1.15-1.092-1.149-.688 0-1.094.35-1.22 1.045l-1.234-.367c.3-1.265 1.149-1.898 2.548-1.899Zm-.599 5.953c.537-.001 1.07-.266 1.6-.796l-.002-1.222-1.138.203c-.513.087-.853.226-1.019.416a.942.942 0 0 0-.248.64c0 .238.071.423.214.558.142.134.34.2.593.2Zm6.548-5.176c.742-.522 1.501-.784 2.275-.785.783 0 1.348.193 1.696.58.349.379.523.904.524 1.576l.004 4.79-1.589.002-.004-4.624c0-.404-.076-.688-.226-.854-.142-.166-.396-.248-.759-.248a2.65 2.65 0 0 0-1.588.535l.004 5.193-1.588.002-.007-6.782.747-.001.511.616Zm8.211 6.324c-1.525.001-2.289-1.184-2.291-3.555-.002-2.372.921-3.558 2.771-3.56a4.37 4.37 0 0 1 1.541.283l-.002-2.252 1.589-.12.009 9.034-1.032.001-.439-.841c-.656.672-1.371 1.009-2.146 1.01Zm.628-1.222c.49 0 .956-.254 1.398-.76l-.003-3.676a3.003 3.003 0 0 0-1.139-.236c-.569 0-.976.199-1.221.594-.244.396-.366.977-.365 1.743.001 1.557.444 2.336 1.33 2.335Zm7.564 1.214c-1.09.001-1.869-.29-2.336-.875-.467-.593-.701-1.486-.702-2.68-.002-2.37.992-3.557 2.984-3.559 1.147-.001 1.929.354 2.349 1.065.364.608.547 1.399.548 2.37v.428l-4.34.004c.009.743.132 1.268.37 1.576.237.3.628.45 1.174.45.877-.001 1.343-.318 1.398-.95l1.304.046c-.125 1.415-1.041 2.123-2.749 2.125Zm.908-5.502c-.198-.261-.522-.391-.972-.39-.451 0-.783.127-.996.38-.205.245-.339.64-.402 1.186l2.739-.003c-.048-.53-.171-.92-.369-1.173Zm5.014 5.33-1.588.002-.007-6.782h.747l.63 1.054c.544-.775 1.315-1.183 2.31-1.224l.002 1.364c-.933.025-1.632.31-2.098.856l.004 4.73Z"/><path fill="#6B727B" d="m64.212 58.433-1.97.002v-.795l1.97-.002c.381 0 .69-.061.926-.183.237-.122.409-.291.517-.507.11-.217.166-.463.166-.74a1.57 1.57 0 0 0-.168-.714 1.234 1.234 0 0 0-.517-.537c-.236-.138-.545-.207-.927-.206l-1.743.001.006 6.575-.977.001-.007-7.375 2.72-.003c.557 0 1.029.095 1.414.288.385.192.677.458.877.8.2.337.3.723.3 1.159 0 .473-.099.876-.298 1.21a1.91 1.91 0 0 1-.876.767c-.384.172-.855.259-1.413.26Zm6.856 1.95-.003-2.822c0-.217-.044-.404-.132-.563a.862.862 0 0 0-.385-.374 1.396 1.396 0 0 0-.639-.131c-.236 0-.444.04-.623.122a1.084 1.084 0 0 0-.415.32.7.7 0 0 0-.146.425l-.937.001c0-.196.05-.39.151-.583.101-.192.246-.366.435-.522.193-.159.422-.284.689-.375.27-.095.57-.143.901-.143.399 0 .75.067 1.054.202.308.134.548.339.72.612.176.27.264.61.265 1.018l.002 2.553c0 .182.016.377.046.583.034.205.083.383.147.531v.081l-.977.001a1.746 1.746 0 0 1-.112-.43 3.464 3.464 0 0 1-.04-.507Zm.16-2.387.01.659h-.947c-.266 0-.504.023-.714.067a1.59 1.59 0 0 0-.526.188.891.891 0 0 0-.324.32.847.847 0 0 0-.111.44c0 .172.039.33.117.471a.848.848 0 0 0 .35.34c.158.08.352.12.582.12a1.581 1.581 0 0 0 1.281-.63.96.96 0 0 0 .212-.51l.401.45a1.359 1.359 0 0 1-.192.47 2.252 2.252 0 0 1-1.038.888 2.014 2.014 0 0 1-.8.153c-.371 0-.697-.072-.978-.217a1.672 1.672 0 0 1-.649-.582 1.542 1.542 0 0 1-.228-.825c0-.294.056-.553.171-.776.115-.226.28-.413.496-.562.216-.152.476-.267.78-.345a4.116 4.116 0 0 1 1.018-.118h1.089Zm4.445 2.65c.223 0 .429-.046.618-.137.189-.091.344-.217.466-.375.121-.163.19-.347.207-.553h.891a1.671 1.671 0 0 1-.328.907 2.249 2.249 0 0 1-1.853.928 2.5 2.5 0 0 1-1.08-.216 2.14 2.14 0 0 1-.76-.598 2.67 2.67 0 0 1-.452-.87 3.673 3.673 0 0 1-.147-1.049v-.213a3.617 3.617 0 0 1 .145-1.043 2.66 2.66 0 0 1 .45-.877 2.14 2.14 0 0 1 .76-.598 2.5 2.5 0 0 1 1.078-.22c.43 0 .804.088 1.125.263.321.172.573.408.756.709.186.297.287.634.305 1.012l-.892.001a1.35 1.35 0 0 0-.193-.613 1.2 1.2 0 0 0-.446-.435 1.246 1.246 0 0 0-.654-.166c-.287 0-.528.057-.724.172a1.27 1.27 0 0 0-.46.457c-.112.19-.193.4-.243.633a3.51 3.51 0 0 0-.07.704v.213c0 .24.024.476.071.71.048.232.127.443.239.632.115.19.269.341.461.456.196.111.44.167.73.166Zm4.25-4.816.006 5.481h-.942l-.006-5.48.943-.001Zm-1.014-1.453c0-.152.045-.28.137-.385.094-.105.232-.157.415-.157.179 0 .316.052.41.156a.542.542 0 0 1 .148.385.53.53 0 0 1-.147.375c-.094.101-.231.152-.41.152-.183 0-.321-.05-.416-.151a.551.551 0 0 1-.137-.375Zm4.799 7.032c-.382 0-.728-.064-1.039-.192a2.354 2.354 0 0 1-.796-.551 2.457 2.457 0 0 1-.507-.84 3.083 3.083 0 0 1-.178-1.064v-.213c0-.446.065-.843.196-1.19.131-.352.31-.65.536-.893a2.3 2.3 0 0 1 .77-.553 2.21 2.21 0 0 1 .891-.188c.392 0 .73.067 1.013.202.288.135.522.324.705.567.183.24.318.523.406.85.088.324.132.679.133 1.064v.42l-4.093.004v-.765l3.155-.003v-.07a2.336 2.336 0 0 0-.153-.71 1.275 1.275 0 0 0-.405-.567c-.186-.148-.44-.222-.76-.222a1.275 1.275 0 0 0-1.048.533 1.99 1.99 0 0 0-.299.644c-.07.253-.106.545-.105.876v.213c0 .26.036.505.107.734.075.227.181.426.32.598.142.172.312.307.512.405.203.097.432.146.689.146.33 0 .611-.068.84-.204.23-.135.43-.316.603-.542l.568.45c-.118.18-.269.35-.45.512a2.153 2.153 0 0 1-.674.396 2.61 2.61 0 0 1-.937.153Zm4.16-4.416.004 4.31-.937.002-.005-5.482h.886l.052 1.17Zm-.222 1.363-.39-.015c.003-.375.058-.721.166-1.039.108-.32.26-.6.455-.836a2.031 2.031 0 0 1 1.606-.746c.27 0 .513.036.73.11.215.071.4.186.552.344.155.159.273.365.355.618.081.25.122.555.122.917l.004 3.591-.943.001L90.3 57.7c0-.287-.043-.517-.127-.69a.779.779 0 0 0-.37-.379 1.328 1.328 0 0 0-.598-.12c-.233 0-.446.049-.638.147a1.528 1.528 0 0 0-.491.405c-.135.173-.242.37-.32.593-.073.22-.11.453-.11.7Zm7.313-2.54v.72l-2.963.002v-.72l2.963-.002Zm-1.962-1.33.937-.001.005 5.455c0 .186.03.326.087.42a.412.412 0 0 0 .223.188c.091.03.189.045.294.045.077 0 .158-.007.243-.02.088-.017.153-.03.197-.041l.006.765a2.177 2.177 0 0 1-.294.066 2.234 2.234 0 0 1-.43.036c-.23 0-.441-.045-.634-.136a1.019 1.019 0 0 1-.461-.456c-.112-.216-.168-.506-.168-.87l-.005-5.451Zm5.34 6.91c-.381 0-.727-.064-1.038-.192a2.354 2.354 0 0 1-.796-.552 2.456 2.456 0 0 1-.507-.84 3.086 3.086 0 0 1-.179-1.064v-.213c0-.445.065-.842.197-1.19.131-.352.31-.649.536-.892a2.28 2.28 0 0 1 .77-.553c.286-.125.583-.188.89-.188.392 0 .73.066 1.014.201.287.135.522.324.705.567.182.24.318.523.406.85.088.325.132.68.132 1.064l.001.42-4.093.005-.001-.765 3.156-.003v-.071a2.336 2.336 0 0 0-.153-.71 1.274 1.274 0 0 0-.406-.566c-.186-.149-.439-.223-.76-.223a1.275 1.275 0 0 0-1.048.533 1.99 1.99 0 0 0-.298.644 3.26 3.26 0 0 0-.106.877v.212c0 .26.037.505.108.735.074.226.18.425.32.597.141.172.312.307.511.405.203.098.433.146.69.146.33 0 .61-.068.84-.203.23-.136.43-.316.603-.543l.567.45c-.118.18-.268.35-.45.512a2.152 2.152 0 0 1-.673.396 2.609 2.609 0 0 1-.938.153Z"/><rect width="340" height="139.853" x="16" y="89.228" fill="#fff" rx="5.928"/><path fill="#1A96D4" d="M40.804 109.357h2.252l.226 8.656h-1.589l-.13-6.664-1.933 5.632h-1.4l-1.742-5.442-.119 6.474h-1.588l.213-8.656h2.265l1.695 5.466 1.85-5.466Zm6.933 8.822c-1.09 0-1.87-.293-2.336-.878-.466-.593-.7-1.486-.7-2.679 0-2.372.997-3.557 2.989-3.557 1.146 0 1.928.355 2.347 1.067.364.608.546 1.399.546 2.371v.427h-4.34c.008.743.13 1.269.368 1.577.237.3.628.45 1.174.45.877 0 1.343-.316 1.399-.948l1.304.047c-.127 1.415-1.044 2.123-2.75 2.123Zm.913-5.502c-.198-.261-.522-.391-.972-.391-.45 0-.783.126-.996.379-.206.245-.34.641-.403 1.186h2.739c-.048-.53-.17-.921-.368-1.174Zm-1.458-2.015-.534-.854 2.312-1.577.712 1.138-2.49 1.293Zm3.87 1.6v-1.031h1.091v-1.233l1.59-.403v1.636h1.291v1.031h-1.292v3.83c0 .34.048.581.142.723a.51.51 0 0 0 .44.214c.197 0 .41-.032.64-.095l.2.984c-.465.174-.884.261-1.256.261-.364 0-.656-.044-.877-.131-.222-.087-.388-.185-.498-.296a1.132 1.132 0 0 1-.25-.474c-.086-.277-.13-.621-.13-1.032v-3.984h-1.09Zm6.87 5.751h-1.59v-6.782h.748l.628 1.055c.546-.775 1.316-1.182 2.312-1.221v1.363c-.932.024-1.632.309-2.098.854v4.731Zm3.24-6.782h1.588v6.782h-1.589v-6.782Zm.794-.807c-.593 0-.89-.304-.89-.912 0-.617.297-.925.89-.925.608 0 .913.308.913.925 0 .608-.305.912-.913.912Zm4.224 2.431c-.198.379-.297.968-.297 1.767 0 .798.1 1.387.297 1.766.205.38.557.569 1.055.569.506 0 .865-.102 1.079-.308.221-.205.34-.529.356-.972l1.244.059c-.047.806-.284 1.415-.71 1.826-.42.411-1.111.617-2.076.617-1.13 0-1.9-.368-2.312-1.103a3.888 3.888 0 0 1-.415-1.114 7.492 7.492 0 0 1-.106-1.34c0-.514.035-.965.106-1.352a3.71 3.71 0 0 1 .415-1.114c.403-.728 1.174-1.091 2.312-1.091.957 0 1.644.197 2.063.593.42.387.656.968.712 1.742l-1.233.166c-.016-.442-.135-.766-.356-.972-.213-.205-.573-.308-1.08-.308-.497 0-.849.19-1.054.569Zm7.542-1.79c1.723 0 2.585.786 2.585 2.359v4.589h-1.032l-.45-.83c-.633.664-1.372.996-2.217.996-.601 0-1.06-.166-1.376-.498-.308-.34-.462-.791-.462-1.352 0-.569.178-1.028.533-1.375.356-.348 1.02-.593 1.992-.735l1.423-.214v-.569c0-.767-.364-1.15-1.09-1.15-.689 0-1.096.348-1.222 1.043l-1.233-.367c.3-1.265 1.15-1.897 2.55-1.897Zm-.605 5.952c.538 0 1.071-.265 1.601-.795v-1.221l-1.138.202c-.514.087-.854.225-1.02.415a.945.945 0 0 0-.249.64c0 .237.071.423.213.557.143.135.34.202.593.202Zm10.146-.901c0 1.351-.949 2.027-2.846 2.027-.83 0-1.446-.178-1.85-.533-.403-.364-.656-.89-.758-1.577l1.233-.19c.087.759.557 1.138 1.41 1.138.862 0 1.293-.269 1.293-.806a.552.552 0 0 0-.26-.498c-.167-.111-.507-.225-1.02-.344l-.546-.13c-.703-.166-1.21-.407-1.517-.724-.3-.324-.45-.79-.45-1.399 0-1.343.916-2.015 2.75-2.015.79 0 1.38.182 1.766.545.396.356.64.878.736 1.565l-1.234.178c-.087-.751-.525-1.126-1.316-1.126-.782 0-1.173.268-1.173.806 0 .221.075.391.225.51.158.11.474.221.948.332l.617.154c.703.174 1.21.419 1.517.735.317.308.475.759.475 1.352ZM53.85 160.04c-.5 0-.922-.173-1.268-.519a1.722 1.722 0 0 1-.519-1.267v-13.225c0-.499.173-.921.52-1.267a1.724 1.724 0 0 1 1.267-.519h1.368v-1.33c0-.216.072-.397.217-.542a.737.737 0 0 1 .543-.218c.216 0 .397.073.542.218a.736.736 0 0 1 .218.542v1.33h7.486v-1.349c0-.21.071-.386.213-.528a.717.717 0 0 1 .528-.213c.21 0 .386.071.528.213a.717.717 0 0 1 .213.528v1.349h1.368c.5 0 .922.173 1.268.519.345.346.518.768.518 1.267v13.225c0 .499-.173.922-.518 1.267a1.724 1.724 0 0 1-1.268.519H53.85Zm0-1.482h13.224a.291.291 0 0 0 .21-.095.29.29 0 0 0 .094-.209v-9.272H53.545v9.272a.29.29 0 0 0 .096.209.292.292 0 0 0 .209.095Zm6.612-5.852a.84.84 0 0 1-.619-.256.84.84 0 0 1-.255-.618c0-.242.085-.448.255-.619a.844.844 0 0 1 .619-.255c.242 0 .448.085.618.255.17.171.256.377.256.619a.84.84 0 0 1-.256.618.84.84 0 0 1-.618.256Zm-3.952 0a.84.84 0 0 1-.619-.256.84.84 0 0 1-.255-.618c0-.242.085-.448.255-.619a.844.844 0 0 1 .619-.255c.242 0 .448.085.618.255.17.171.256.377.256.619a.84.84 0 0 1-.256.618.84.84 0 0 1-.618.256Zm7.904 0a.84.84 0 0 1-.618-.256.84.84 0 0 1-.256-.618c0-.242.085-.448.256-.619a.844.844 0 0 1 .618-.255c.242 0 .448.085.619.255.17.171.255.377.255.619a.84.84 0 0 1-.255.618.84.84 0 0 1-.619.256Zm-3.952 3.876a.84.84 0 0 1-.619-.256.84.84 0 0 1-.255-.618c0-.242.085-.448.255-.619a.844.844 0 0 1 .619-.255c.242 0 .448.085.618.255.17.171.256.377.256.619a.84.84 0 0 1-.256.618.84.84 0 0 1-.618.256Zm-3.952 0a.84.84 0 0 1-.619-.256.84.84 0 0 1-.255-.618c0-.242.085-.448.255-.619a.844.844 0 0 1 .619-.255c.242 0 .448.085.618.255.17.171.256.377.256.619a.84.84 0 0 1-.256.618.84.84 0 0 1-.618.256Zm7.904 0a.84.84 0 0 1-.618-.256.84.84 0 0 1-.256-.618c0-.242.085-.448.256-.619a.844.844 0 0 1 .618-.255c.242 0 .448.085.619.255.17.171.255.377.255.619a.84.84 0 0 1-.255.618.84.84 0 0 1-.619.256Z"/><path fill="#313740" d="M41.367 177.482c.806.206 1.383.498 1.731.878.348.379.522.948.522 1.707 0 .759-.261 1.368-.783 1.826-.521.451-1.288.676-2.3.676-1.012 0-1.743-.214-2.193-.64-.45-.435-.728-1.064-.83-1.886l1.292-.201c.047.466.206.83.474 1.091.277.253.66.379 1.15.379 1.052 0 1.577-.399 1.577-1.197 0-.34-.099-.597-.296-.771-.198-.174-.577-.332-1.138-.474l-.676-.166c-.79-.198-1.356-.49-1.696-.878-.34-.387-.51-.964-.51-1.731 0-.774.25-1.387.747-1.838.498-.45 1.234-.675 2.206-.675.98 0 1.683.217 2.11.652.435.426.704 1.051.806 1.873l-1.28.202c-.103-.981-.609-1.471-1.518-1.471-.498 0-.865.111-1.102.332-.237.214-.356.498-.356.854s.09.62.273.794c.181.174.53.328 1.043.463l.747.201Zm6.231 5.087c-1.09 0-1.87-.293-2.336-.878-.466-.592-.7-1.486-.7-2.679 0-2.371.997-3.557 2.989-3.557 1.146 0 1.928.356 2.347 1.067.364.609.546 1.399.546 2.371v.427h-4.34c.008.743.13 1.269.368 1.577.237.3.628.451 1.174.451.877 0 1.343-.317 1.399-.949l1.304.047c-.127 1.415-1.043 2.123-2.75 2.123Zm.913-5.502c-.198-.26-.522-.391-.972-.391-.45 0-.783.127-.996.38-.206.245-.34.64-.403 1.185h2.739c-.048-.529-.17-.921-.368-1.174Zm8.27 3.439c0 1.351-.949 2.027-2.846 2.027-.83 0-1.446-.178-1.85-.533-.403-.364-.656-.89-.758-1.577l1.233-.19c.087.759.557 1.138 1.41 1.138.862 0 1.293-.268 1.293-.806a.552.552 0 0 0-.26-.498c-.167-.111-.507-.225-1.02-.344l-.546-.13c-.703-.166-1.21-.407-1.517-.723-.3-.325-.451-.791-.451-1.4 0-1.343.917-2.015 2.75-2.015.791 0 1.38.182 1.767.545.396.356.64.878.736 1.565l-1.234.178c-.087-.751-.525-1.126-1.316-1.126-.782 0-1.173.269-1.173.806 0 .221.075.391.225.51.158.111.474.221.948.332l.617.154c.703.174 1.21.419 1.517.735.317.308.475.759.475 1.352Zm6.472 0c0 1.351-.948 2.027-2.845 2.027-.83 0-1.447-.178-1.85-.533-.403-.364-.656-.89-.759-1.577l1.233-.19c.087.759.558 1.138 1.411 1.138.862 0 1.293-.268 1.293-.806a.552.552 0 0 0-.261-.498c-.166-.111-.506-.225-1.02-.344l-.545-.13c-.704-.166-1.21-.407-1.518-.723-.3-.325-.45-.791-.45-1.4 0-1.343.916-2.015 2.75-2.015.79 0 1.38.182 1.767.545.395.356.64.878.735 1.565l-1.233.178c-.087-.751-.526-1.126-1.316-1.126-.783 0-1.174.269-1.174.806 0 .221.075.391.225.51.158.111.474.221.949.332l.616.154c.704.174 1.21.419 1.518.735.316.308.474.759.474 1.352Zm2.833.249c.205.395.6.593 1.185.593.585 0 .98-.198 1.186-.593.206-.395.308-.976.308-1.743 0-.767-.102-1.348-.308-1.743-.205-.395-.6-.593-1.186-.593-.585 0-.98.198-1.185.593-.206.395-.308.976-.308 1.743 0 .767.102 1.348.308 1.743Zm4.268-1.743c0 2.371-1.027 3.557-3.083 3.557-2.055 0-3.082-1.186-3.082-3.557s1.027-3.557 3.082-3.557c2.056 0 3.083 1.186 3.083 3.557Zm-.984-5.834c-.134.498-.304.854-.51 1.068-.197.213-.415.32-.652.32-.237 0-.541-.072-.913-.214-.371-.142-.616-.213-.735-.213-.23 0-.395.174-.498.521l-.89-.284c.135-.498.301-.854.499-1.067.205-.214.427-.32.664-.32.237 0 .541.071.913.213.38.142.628.214.747.214.229 0 .395-.174.498-.522l.877.284Zm4.87 9.391c-1.09 0-1.869-.293-2.335-.878-.466-.592-.7-1.486-.7-2.679 0-2.371.996-3.557 2.988-3.557 1.146 0 1.929.356 2.348 1.067.364.609.545 1.399.545 2.371v.427h-4.34c.009.743.131 1.269.368 1.577.237.3.629.451 1.174.451.877 0 1.344-.317 1.4-.949l1.303.047c-.126 1.415-1.043 2.123-2.75 2.123Zm.914-5.502c-.198-.26-.522-.391-.973-.391-.45 0-.782.127-.996.38-.205.245-.34.64-.403 1.185h2.74c-.048-.529-.17-.921-.368-1.174Zm8.27 3.439c0 1.351-.95 2.027-2.846 2.027-.83 0-1.447-.178-1.85-.533-.403-.364-.656-.89-.759-1.577l1.233-.19c.087.759.558 1.138 1.411 1.138.862 0 1.293-.268 1.293-.806a.552.552 0 0 0-.261-.498c-.166-.111-.506-.225-1.02-.344l-.545-.13c-.704-.166-1.21-.407-1.518-.723-.3-.325-.45-.791-.45-1.4 0-1.343.916-2.015 2.75-2.015.79 0 1.38.182 1.767.545.395.356.64.878.735 1.565l-1.233.178c-.087-.751-.526-1.126-1.316-1.126-.783 0-1.174.269-1.174.806 0 .221.075.391.225.51.158.111.475.221.949.332l.616.154c.704.174 1.21.419 1.518.735.316.308.474.759.474 1.352Z"/><path fill="#555C66" d="m59.182 203.283-.856-.22.422-4.197h4.325v.99h-3.416l-.254 2.293c.154-.089.349-.172.584-.249.24-.077.514-.116.822-.116.39 0 .74.067 1.048.203.309.131.571.32.788.567.22.247.387.544.503.891.116.348.174.736.174 1.164 0 .405-.056.778-.168 1.117-.108.34-.272.637-.492.892-.22.251-.498.446-.834.585-.332.139-.723.208-1.175.208-.34 0-.662-.046-.967-.139a2.478 2.478 0 0 1-.81-.434 2.358 2.358 0 0 1-.58-.729 2.935 2.935 0 0 1-.277-1.031h1.019c.046.317.139.583.278.799.139.216.32.38.544.492.228.108.492.162.793.162.255 0 .48-.044.677-.133.197-.089.363-.216.498-.382a1.71 1.71 0 0 0 .307-.602c.073-.236.11-.5.11-.793a2.4 2.4 0 0 0-.11-.741 1.7 1.7 0 0 0-.33-.597 1.445 1.445 0 0 0-.527-.393 1.684 1.684 0 0 0-.718-.145c-.359 0-.63.048-.816.145a3.09 3.09 0 0 0-.562.393Z"/><path fill="#1A96D4" d="m139.086 154.424 3.633-3.634a.748.748 0 0 1 .531-.225.727.727 0 0 1 .541.225.737.737 0 0 1 0 1.072l-4.08 4.08a.857.857 0 0 1-.625.267.859.859 0 0 1-.625-.267l-2.005-2.005a.74.74 0 0 1-.225-.531.727.727 0 0 1 .225-.541.737.737 0 0 1 1.072 0l1.558 1.559Zm-5.575 5.616c-.499 0-.921-.173-1.267-.519a1.722 1.722 0 0 1-.519-1.267v-13.225c0-.499.173-.921.519-1.267a1.723 1.723 0 0 1 1.267-.519h1.368v-1.33c0-.216.073-.397.218-.542a.737.737 0 0 1 .542-.218c.217 0 .398.073.543.218a.736.736 0 0 1 .217.542v1.33h7.487v-1.349a.72.72 0 0 1 .212-.528.718.718 0 0 1 .529-.213c.21 0 .386.071.528.213a.717.717 0 0 1 .213.528v1.349h1.368c.499 0 .921.173 1.267.519.346.346.519.768.519 1.267v13.225c0 .499-.173.922-.519 1.267a1.723 1.723 0 0 1-1.267.519h-13.225Zm0-1.482h13.225a.291.291 0 0 0 .209-.095.291.291 0 0 0 .095-.209v-9.272h-13.833v9.272c0 .076.032.146.095.209a.293.293 0 0 0 .209.095Z"/><path fill="#313740" d="M113.546 173.748h2.098l2.656 8.655h-1.553l-.735-2.395h-2.846l-.723 2.395h-1.565l2.668-8.655Zm1.043 1.529-1.055 3.51h2.11l-1.055-3.51Zm3.908 1.375v-1.031h1.091v-1.233l1.589-.403v1.636h1.292v1.031h-1.292v3.83c0 .34.047.581.142.723a.508.508 0 0 0 .439.214c.197 0 .411-.032.64-.095l.201.984c-.466.174-.885.261-1.256.261-.364 0-.656-.044-.878-.131-.221-.087-.387-.185-.498-.296a1.148 1.148 0 0 1-.249-.474c-.087-.277-.13-.621-.13-1.032v-3.984h-1.091Zm7.628 5.917c-1.091 0-1.869-.293-2.336-.878-.466-.592-.699-1.486-.699-2.679 0-2.371.996-3.557 2.988-3.557 1.146 0 1.928.356 2.347 1.067.364.609.546 1.399.546 2.371v.427h-4.34c.008.743.13 1.269.368 1.577.237.3.628.451 1.173.451.878 0 1.344-.317 1.399-.949l1.305.047c-.127 1.415-1.044 2.123-2.751 2.123Zm.913-5.502c-.198-.26-.522-.391-.972-.391-.451 0-.783.127-.996.38-.206.245-.34.64-.403 1.185h2.738c-.047-.529-.169-.921-.367-1.174Zm4.677-.83c.743-.521 1.502-.782 2.277-.782.782 0 1.347.194 1.695.581.348.379.522.905.522 1.577v4.79h-1.589v-4.624c0-.403-.075-.688-.225-.854-.143-.166-.396-.249-.759-.249a2.65 2.65 0 0 0-1.589.534v5.193h-1.589v-6.782h.747l.51.616Zm8.206 6.332c-1.526 0-2.288-1.186-2.288-3.557s.924-3.557 2.774-3.557a4.37 4.37 0 0 1 1.541.284v-2.252l1.589-.119v9.035h-1.031l-.439-.842c-.656.672-1.372 1.008-2.146 1.008Zm.628-1.221c.49 0 .957-.253 1.399-.759v-3.676a2.996 2.996 0 0 0-1.138-.237c-.569 0-.976.198-1.221.593-.245.395-.368.976-.368 1.743 0 1.557.443 2.336 1.328 2.336Zm5.216-5.727h1.589v6.782h-1.589v-6.782Zm.795-.806c-.593 0-.89-.305-.89-.913 0-.617.297-.925.89-.925.608 0 .913.308.913.925 0 .608-.305.913-.913.913Zm4.627 7.754c-1.526 0-2.288-1.186-2.288-3.557s.924-3.557 2.774-3.557a4.37 4.37 0 0 1 1.541.284v-2.252l1.589-.119v9.035h-1.031l-.439-.842c-.656.672-1.371 1.008-2.146 1.008Zm.628-1.221c.49 0 .957-.253 1.399-.759v-3.676a2.996 2.996 0 0 0-1.138-.237c-.569 0-.976.198-1.221.593-.245.395-.368.976-.368 1.743 0 1.557.443 2.336 1.328 2.336Zm7.6-5.893c1.723 0 2.584.786 2.584 2.359v4.589h-1.031l-.451-.83c-.632.664-1.371.996-2.217.996-.601 0-1.059-.166-1.375-.498-.309-.34-.463-.791-.463-1.352 0-.569.178-1.027.534-1.375.355-.348 1.019-.593 1.992-.735l1.422-.214v-.569c0-.767-.363-1.15-1.09-1.15-.688 0-1.095.348-1.222 1.043l-1.233-.367c.301-1.265 1.15-1.897 2.55-1.897Zm-.605 5.952c.537 0 1.071-.265 1.6-.795v-1.221l-1.138.202c-.514.087-.853.225-1.019.415a.947.947 0 0 0-.249.64c0 .237.071.423.213.557.142.135.34.202.593.202Zm10.145-.901c0 1.351-.948 2.027-2.845 2.027-.83 0-1.447-.178-1.85-.533-.403-.364-.656-.89-.759-1.577l1.233-.19c.087.759.558 1.138 1.411 1.138.862 0 1.293-.268 1.293-.806a.552.552 0 0 0-.261-.498c-.166-.111-.506-.225-1.02-.344l-.545-.13c-.704-.166-1.21-.407-1.518-.723-.3-.325-.45-.791-.45-1.4 0-1.343.916-2.015 2.75-2.015.791 0 1.38.182 1.767.545.395.356.64.878.735 1.565l-1.233.178c-.087-.751-.526-1.126-1.316-1.126-.783 0-1.174.269-1.174.806 0 .221.075.391.225.51.158.111.475.221.949.332l.616.154c.704.174 1.21.419 1.518.735.316.308.474.759.474 1.352Z"/><path fill="#555C66" d="M143.186 204.459v.88h-6.09v-.631l3.774-5.842h.875l-.938 1.691-2.496 3.902h4.875Zm-1.175-5.593v8.429h-1.071v-8.429h1.071Z"/><path fill="#1A96D4" d="m219.785 154.535-1.752 1.752a.715.715 0 0 1-.516.21.695.695 0 0 1-.526-.21.707.707 0 0 1-.214-.52.71.71 0 0 1 .214-.521l1.752-1.752-1.752-1.752a.72.72 0 0 1-.21-.516.699.699 0 0 1 .21-.525.712.712 0 0 1 .521-.215.71.71 0 0 1 .521.215l1.752 1.752 1.751-1.752a.715.715 0 0 1 .516-.21.701.701 0 0 1 .526.21.71.71 0 0 1 .215.521.708.708 0 0 1-.215.52l-1.752 1.752 1.752 1.752a.715.715 0 0 1 .21.516.699.699 0 0 1-.21.525.706.706 0 0 1-.521.215.708.708 0 0 1-.521-.215l-1.751-1.752Zm-6.613 5.505c-.499 0-.921-.173-1.267-.519a1.722 1.722 0 0 1-.519-1.267v-13.225c0-.499.173-.921.519-1.267a1.723 1.723 0 0 1 1.267-.519h1.368v-1.33c0-.216.073-.397.218-.542a.737.737 0 0 1 .542-.218c.217 0 .398.073.543.218a.736.736 0 0 1 .217.542v1.33h7.487v-1.349c0-.21.071-.386.213-.528a.717.717 0 0 1 .528-.213c.21 0 .386.071.528.213a.717.717 0 0 1 .213.528v1.349h1.368c.499 0 .922.173 1.267.519.346.346.519.768.519 1.267v13.225c0 .499-.173.922-.519 1.267a1.722 1.722 0 0 1-1.267.519h-13.225Zm0-1.482h13.225a.291.291 0 0 0 .209-.095.291.291 0 0 0 .095-.209v-9.272h-13.833v9.272c0 .076.032.146.095.209a.293.293 0 0 0 .209.095Z"/><path fill="#313740" d="M203.508 173.748h4.648v1.244h-3.035v2.396h2.644v1.233h-2.644v3.782h-1.613v-8.655Zm8.45 1.707c1.724 0 2.585.786 2.585 2.359v4.589h-1.031l-.451-.83c-.632.664-1.371.996-2.217.996-.601 0-1.059-.166-1.375-.498-.309-.34-.463-.791-.463-1.352 0-.569.178-1.027.534-1.375.355-.348 1.019-.593 1.992-.735l1.422-.214v-.569c0-.767-.363-1.15-1.09-1.15-.688 0-1.095.348-1.222 1.043l-1.233-.367c.301-1.265 1.15-1.897 2.549-1.897Zm-.604 5.952c.537 0 1.071-.265 1.6-.795v-1.221l-1.138.202c-.514.087-.854.225-1.019.415a.947.947 0 0 0-.249.64c0 .237.071.423.213.557.142.135.34.202.593.202Zm6.885.996h-1.589v-8.916l1.589-.214v9.13Zm1.224-5.751v-1.031h1.091v-1.233l1.589-.403v1.636h1.292v1.031h-1.292v3.83c0 .34.047.581.142.723a.508.508 0 0 0 .439.214c.197 0 .411-.032.64-.095l.201.984c-.466.174-.885.261-1.256.261-.364 0-.656-.044-.878-.131-.221-.087-.387-.185-.498-.296a1.148 1.148 0 0 1-.249-.474c-.087-.277-.13-.621-.13-1.032v-3.984h-1.091Zm7.664-1.197c1.723 0 2.584.786 2.584 2.359v4.589h-1.031l-.451-.83c-.632.664-1.371.996-2.217.996-.601 0-1.059-.166-1.375-.498-.309-.34-.463-.791-.463-1.352 0-.569.178-1.027.534-1.375.355-.348 1.019-.593 1.992-.735l1.422-.214v-.569c0-.767-.363-1.15-1.09-1.15-.688 0-1.095.348-1.222 1.043l-1.233-.367c.301-1.265 1.15-1.897 2.55-1.897Zm-.605 5.952c.537 0 1.071-.265 1.6-.795v-1.221l-1.138.202c-.514.087-.853.225-1.019.415a.947.947 0 0 0-.249.64c0 .237.071.423.213.557.142.135.34.202.593.202Zm10.145-.901c0 1.351-.948 2.027-2.845 2.027-.83 0-1.447-.178-1.85-.533-.403-.364-.656-.89-.759-1.577l1.233-.19c.087.759.558 1.138 1.411 1.138.862 0 1.293-.268 1.293-.806a.552.552 0 0 0-.261-.498c-.166-.111-.506-.225-1.02-.344l-.545-.13c-.704-.166-1.21-.407-1.518-.723-.3-.325-.45-.791-.45-1.4 0-1.343.916-2.015 2.75-2.015.791 0 1.38.182 1.767.545.395.356.64.878.735 1.565l-1.233.178c-.087-.751-.526-1.126-1.316-1.126-.783 0-1.174.269-1.174.806 0 .221.075.391.225.51.158.111.475.221.949.332l.616.154c.704.174 1.21.419 1.518.735.316.308.474.759.474 1.352Z"/><path fill="#555C66" d="M220.67 198.82v8.475h-1.071v-7.138l-2.159.788v-.967l3.063-1.158h.167Z"/><path fill="#1A96D4" d="M286.905 160.04c-.499 0-.921-.173-1.267-.519a1.722 1.722 0 0 1-.519-1.267v-13.225c0-.499.173-.921.519-1.267a1.723 1.723 0 0 1 1.267-.519h1.368v-1.33c0-.215.073-.396.219-.541a.737.737 0 0 1 .543-.219c.215 0 .396.073.541.219a.735.735 0 0 1 .217.541v1.33h7.487v-1.349c0-.21.071-.386.213-.528a.717.717 0 0 1 .528-.213c.21 0 .386.071.528.213a.717.717 0 0 1 .213.528v1.349h1.368c.499 0 .921.173 1.267.519.346.346.519.768.519 1.267v4.658c0 .21-.071.386-.213.527a.714.714 0 0 1-.528.214.714.714 0 0 1-.528-.214.713.713 0 0 1-.213-.527v-.705h-13.833v9.272c0 .076.032.146.095.209a.293.293 0 0 0 .209.095h6.044a.72.72 0 0 1 .529.213.72.72 0 0 1 .212.528.72.72 0 0 1-.212.528.72.72 0 0 1-.529.213h-6.044Zm12.731.988c-1.234 0-2.283-.432-3.149-1.298-.865-.865-1.297-1.914-1.297-3.148 0-1.234.432-2.283 1.297-3.148.866-.866 1.915-1.298 3.149-1.298s2.283.432 3.148 1.298c.865.865 1.298 1.914 1.298 3.148 0 1.234-.433 2.283-1.298 3.148-.865.866-1.914 1.298-3.148 1.298Zm.437-4.627v-2.289a.42.42 0 0 0-.131-.306.423.423 0 0 0-.612 0 .42.42 0 0 0-.131.306v2.276a.895.895 0 0 0 .268.641l1.507 1.506a.432.432 0 0 0 .303.134.413.413 0 0 0 .312-.134.424.424 0 0 0 .139-.307.424.424 0 0 0-.139-.308l-1.516-1.519Z"/><path fill="#313740" d="M265.396 173.748h4.885v1.244h-3.272v2.396h2.976v1.233h-2.976v2.537h3.509v1.245h-5.122v-8.655Zm9.919 1.707c.949 0 1.613.273 1.992.818.68-.545 1.403-.818 2.17-.818.774 0 1.348.194 1.719.581.372.379.557.905.557 1.577v4.79h-1.588v-4.529c0-.411-.076-.712-.226-.901-.15-.198-.415-.297-.794-.297-.538 0-1.032.186-1.482.557.016.158.023.285.023.38v4.79h-1.588v-4.529c0-.411-.079-.712-.237-.901-.159-.198-.463-.297-.913-.297-.443 0-.886.158-1.328.474v5.253h-1.589v-6.782h.842l.415.557c.64-.482 1.316-.723 2.027-.723Zm14.198 0c1.723 0 2.584.786 2.584 2.359v4.589h-1.031l-.451-.83c-.632.664-1.371.996-2.217.996-.601 0-1.059-.166-1.375-.498-.308-.34-.463-.791-.463-1.352 0-.569.178-1.027.534-1.375.356-.348 1.02-.593 1.992-.735l1.423-.214v-.569c0-.767-.364-1.15-1.091-1.15-.688 0-1.095.348-1.221 1.043l-1.233-.367c.3-1.265 1.15-1.897 2.549-1.897Zm-.605 5.952c.538 0 1.071-.265 1.601-.795v-1.221l-1.139.202c-.513.087-.853.225-1.019.415a.947.947 0 0 0-.249.64c0 .237.071.423.213.557.142.135.34.202.593.202Zm4.288-4.755v-1.031h1.091v-1.233l1.589-.403v1.636h1.292v1.031h-1.292v3.83c0 .34.047.581.142.723a.508.508 0 0 0 .439.214c.197 0 .411-.032.64-.095l.202.984c-.467.174-.886.261-1.257.261-.364 0-.656-.044-.878-.131-.221-.087-.387-.185-.498-.296a1.136 1.136 0 0 1-.248-.474c-.087-.277-.131-.621-.131-1.032v-3.984h-1.091Zm6.869 5.751h-1.588v-6.782h.747l.628 1.055c.545-.775 1.316-1.182 2.312-1.221v1.363c-.933.024-1.632.309-2.099.854v4.731Zm5.623-6.948c1.723 0 2.585.786 2.585 2.359v4.589h-1.032l-.45-.83c-.633.664-1.372.996-2.217.996-.601 0-1.06-.166-1.376-.498-.308-.34-.462-.791-.462-1.352 0-.569.178-1.027.533-1.375.356-.348 1.02-.593 1.992-.735l1.423-.214v-.569c0-.767-.364-1.15-1.091-1.15-.687 0-1.094.348-1.221 1.043l-1.233-.367c.3-1.265 1.15-1.897 2.549-1.897Zm-.605 5.952c.538 0 1.071-.265 1.601-.795v-1.221l-1.138.202c-.514.087-.854.225-1.02.415a.947.947 0 0 0-.249.64c0 .237.071.423.214.557.142.135.339.202.592.202Zm10.146-.901c0 1.351-.949 2.027-2.846 2.027-.83 0-1.446-.178-1.849-.533-.403-.364-.656-.89-.759-1.577l1.233-.19c.087.759.557 1.138 1.411 1.138.861 0 1.292-.268 1.292-.806a.552.552 0 0 0-.261-.498c-.166-.111-.506-.225-1.019-.344l-.546-.13c-.703-.166-1.209-.407-1.517-.723-.301-.325-.451-.791-.451-1.4 0-1.343.917-2.015 2.751-2.015.79 0 1.379.182 1.766.545.396.356.641.878.736 1.565l-1.234.178c-.086-.751-.525-1.126-1.316-1.126-.782 0-1.173.269-1.173.806 0 .221.075.391.225.51.158.111.474.221.948.332l.617.154c.703.174 1.209.419 1.518.735.316.308.474.759.474 1.352Zm2.832.249c.206.395.601.593 1.186.593s.98-.198 1.186-.593c.205-.395.308-.976.308-1.743 0-.767-.103-1.348-.308-1.743-.206-.395-.601-.593-1.186-.593s-.98.198-1.186.593c-.205.395-.308.976-.308 1.743 0 .767.103 1.348.308 1.743Zm4.269-1.743c0 2.371-1.028 3.557-3.083 3.557s-3.083-1.186-3.083-3.557 1.028-3.557 3.083-3.557 3.083 1.186 3.083 3.557Z"/><path fill="#555C66" d="M296.175 202.409v1.285c0 .691-.061 1.274-.185 1.749-.123.475-.301.857-.533 1.146-.231.29-.511.5-.839.631a2.975 2.975 0 0 1-1.1.191c-.324 0-.623-.04-.897-.121a2.139 2.139 0 0 1-.741-.388 2.337 2.337 0 0 1-.556-.707 3.758 3.758 0 0 1-.353-1.053 7.601 7.601 0 0 1-.122-1.448v-1.285c0-.691.062-1.27.185-1.737.128-.467.307-.841.539-1.123.231-.285.509-.49.833-.613a3.092 3.092 0 0 1 1.1-.186c.328 0 .63.041.904.122.277.077.524.203.741.376.216.17.399.398.55.683.154.282.272.628.353 1.037.081.409.121.889.121 1.441Zm-1.077 1.459v-1.638c0-.379-.023-.71-.069-.996a3.102 3.102 0 0 0-.191-.741 1.462 1.462 0 0 0-.324-.498 1.155 1.155 0 0 0-.446-.278 1.597 1.597 0 0 0-.562-.092c-.254 0-.48.048-.677.144a1.216 1.216 0 0 0-.498.446c-.131.205-.231.473-.301.805a6.042 6.042 0 0 0-.104 1.21v1.638c0 .378.021.712.064 1.002.046.289.113.54.202.752.089.209.197.38.324.516.128.135.274.235.44.301.17.061.357.092.562.092.262 0 .492-.05.689-.15.197-.101.361-.257.492-.469a2.45 2.45 0 0 0 .301-.828c.066-.34.098-.745.098-1.216Z"/><rect width="340" height="107.247" x="16" y="246.865" fill="#fff" rx="5.928"/><path fill="#1A96D4" d="M40.827 266.995h4.885v1.245H42.44v2.395h2.976v1.233H42.44v2.537h3.51v1.245h-5.123v-8.655Zm7.892 2.489c.743-.521 1.502-.782 2.276-.782.783 0 1.348.194 1.696.581.347.379.521.905.521 1.577v4.79h-1.588v-4.624c0-.403-.075-.688-.226-.854-.142-.166-.395-.249-.758-.249a2.65 2.65 0 0 0-1.59.534v5.193h-1.588v-6.782h.747l.51.616Zm7.802 1.008c-.197.38-.296.969-.296 1.767 0 .798.099 1.387.296 1.767.206.379.558.569 1.056.569.506 0 .865-.103 1.079-.309.22-.205.34-.529.355-.972l1.245.059c-.047.807-.284 1.415-.711 1.826-.42.411-1.11.617-2.075.617-1.13 0-1.901-.368-2.312-1.103a3.877 3.877 0 0 1-.415-1.114 7.492 7.492 0 0 1-.107-1.34c0-.514.036-.964.107-1.352a3.72 3.72 0 0 1 .415-1.114c.403-.727 1.174-1.091 2.312-1.091.956 0 1.644.198 2.063.593.419.387.656.968.711 1.743l-1.233.166c-.016-.443-.134-.767-.355-.973-.214-.205-.573-.308-1.08-.308-.497 0-.85.19-1.055.569Zm6.369 3.51c.206.395.6.593 1.186.593.585 0 .98-.198 1.185-.593.206-.395.309-.976.309-1.743 0-.767-.103-1.348-.309-1.743-.205-.395-.6-.593-1.185-.593-.585 0-.98.198-1.186.593-.206.395-.308.976-.308 1.743 0 .767.102 1.348.308 1.743Zm4.268-1.743c0 2.371-1.027 3.557-3.082 3.557-2.055 0-3.083-1.186-3.083-3.557s1.027-3.557 3.083-3.557c2.055 0 3.082 1.186 3.082 3.557Zm2.796-2.775c.743-.521 1.502-.782 2.277-.782.782 0 1.347.194 1.695.581.348.379.522.905.522 1.577v4.79h-1.589v-4.624c0-.403-.075-.688-.225-.854-.143-.166-.395-.249-.76-.249a2.65 2.65 0 0 0-1.588.534v5.193h-1.589v-6.782h.747l.51.616Zm5.597.415v-1.031h1.091v-1.233l1.589-.403v1.636h1.292v1.031h-1.292v3.83c0 .34.047.581.142.723a.508.508 0 0 0 .439.214c.198 0 .411-.032.64-.095l.202.984c-.467.174-.885.261-1.257.261-.364 0-.656-.044-.877-.131a1.433 1.433 0 0 1-.498-.296 1.134 1.134 0 0 1-.25-.474c-.086-.277-.13-.621-.13-1.032v-3.984h-1.09Zm6.87 5.751h-1.59v-6.782h.748l.628 1.055c.546-.774 1.316-1.182 2.312-1.221v1.363c-.933.024-1.632.309-2.099.854v4.731Zm4.448-1.648c.206.395.601.593 1.186.593s.98-.198 1.186-.593c.205-.395.308-.976.308-1.743 0-.767-.103-1.348-.308-1.743-.206-.395-.601-.593-1.186-.593s-.98.198-1.186.593c-.205.395-.308.976-.308 1.743 0 .767.103 1.348.308 1.743Zm4.269-1.743c0 2.371-1.028 3.557-3.083 3.557s-3.083-1.186-3.083-3.557 1.028-3.557 3.083-3.557 3.083 1.186 3.083 3.557Zm6.388 1.494c0 1.351-.948 2.027-2.846 2.027-.83 0-1.446-.178-1.85-.533-.402-.364-.655-.889-.758-1.577l1.233-.19c.087.759.557 1.138 1.411 1.138.862 0 1.293-.268 1.293-.806a.552.552 0 0 0-.261-.498c-.166-.111-.506-.225-1.02-.344l-.545-.13c-.704-.166-1.21-.407-1.518-.723-.3-.324-.45-.791-.45-1.399 0-1.344.916-2.016 2.75-2.016.79 0 1.38.182 1.767.545.395.356.64.878.735 1.565l-1.233.178c-.087-.751-.526-1.126-1.316-1.126-.783 0-1.174.269-1.174.806 0 .221.075.391.225.51.158.111.474.221.949.332l.616.154c.704.174 1.21.419 1.518.735.316.308.474.759.474 1.352Z"/><path fill="#313740" d="M44.48 307.435h-2.087l-2.562-8.656h1.613l1.992 7.091 1.992-7.091h1.624l-2.573 8.656Zm6.187-6.948c1.723 0 2.585.786 2.585 2.359v4.589H52.22l-.45-.83c-.632.664-1.372.996-2.217.996-.601 0-1.06-.166-1.376-.498-.308-.34-.462-.791-.462-1.352 0-.569.178-1.028.533-1.375.356-.348 1.02-.593 1.992-.736l1.423-.213v-.569c0-.767-.363-1.15-1.09-1.15-.688 0-1.095.348-1.222 1.043l-1.233-.367c.3-1.265 1.15-1.897 2.55-1.897Zm-.604 5.952c.537 0 1.07-.265 1.6-.795v-1.221l-1.138.202c-.514.087-.854.225-1.02.415a.945.945 0 0 0-.249.64c0 .237.072.423.214.557.142.134.34.202.593.202Zm6.884.996H55.36v-8.917l1.588-.213v9.13Zm3.442-1.648c.205.395.6.592 1.186.592.585 0 .98-.197 1.185-.592.206-.396.309-.977.309-1.743 0-.767-.103-1.348-.309-1.743-.205-.396-.6-.593-1.185-.593-.585 0-.98.197-1.186.593-.206.395-.308.976-.308 1.743 0 .766.102 1.347.308 1.743Zm4.268-1.743c0 2.371-1.027 3.557-3.082 3.557-2.056 0-3.083-1.186-3.083-3.557 0-2.372 1.028-3.557 3.083-3.557s3.082 1.185 3.082 3.557Zm3.128 3.391h-1.589v-6.782h.747l.629 1.055c.545-.775 1.316-1.182 2.312-1.221v1.363c-.933.024-1.633.308-2.099.854v4.731Zm9.682-6.948c1.818 0 2.727 1.185 2.727 3.557 0 2.371-.924 3.557-2.774 3.557a5.6 5.6 0 0 1-1.541-.238v2.502l-1.59.214v-9.426h.76l.415.509c.671-.45 1.34-.675 2.003-.675Zm-.438 1.221a2.18 2.18 0 0 0-1.15.332v4.173c.371.111.75.166 1.138.166.569 0 .976-.197 1.221-.592.245-.404.368-.985.368-1.743 0-1.558-.526-2.336-1.577-2.336Zm7.09-1.221c1.722 0 2.584.786 2.584 2.359v4.589H85.67l-.45-.83c-.633.664-1.372.996-2.217.996-.601 0-1.06-.166-1.376-.498-.308-.34-.462-.791-.462-1.352 0-.569.178-1.028.533-1.375.356-.348 1.02-.593 1.992-.736l1.423-.213v-.569c0-.767-.364-1.15-1.09-1.15-.689 0-1.096.348-1.222 1.043l-1.233-.367c.3-1.265 1.15-1.897 2.55-1.897Zm-.606 5.952c.538 0 1.071-.265 1.601-.795v-1.221l-1.138.202c-.514.087-.854.225-1.02.415a.945.945 0 0 0-.249.64c0 .237.071.423.214.557.142.134.34.202.592.202Zm6.897 1.162c-1.525 0-2.288-1.186-2.288-3.557 0-2.372.925-3.557 2.774-3.557.522 0 1.036.094 1.542.284v-2.253l1.588-.118v9.035h-1.031l-.439-.842c-.656.672-1.371 1.008-2.146 1.008Zm.629-1.222c.49 0 .956-.253 1.399-.758v-3.676a3 3 0 0 0-1.139-.237c-.569 0-.976.197-1.22.593-.246.395-.368.976-.368 1.743 0 1.557.442 2.335 1.328 2.335Zm6.804 1.056h-1.588v-6.782H97l.629 1.055c.545-.775 1.316-1.182 2.312-1.221v1.363c-.933.024-1.632.308-2.099.854v4.731Zm5.623-6.948c1.723 0 2.585.786 2.585 2.359v4.589h-1.032l-.45-.83c-.633.664-1.372.996-2.217.996-.601 0-1.06-.166-1.376-.498-.308-.34-.462-.791-.462-1.352 0-.569.178-1.028.533-1.375.356-.348 1.02-.593 1.992-.736l1.423-.213v-.569c0-.767-.364-1.15-1.091-1.15-.687 0-1.095.348-1.221 1.043l-1.233-.367c.3-1.265 1.15-1.897 2.549-1.897Zm-.605 5.952c.538 0 1.071-.265 1.601-.795v-1.221l-1.138.202c-.514.087-.854.225-1.02.415a.945.945 0 0 0-.249.64c0 .237.071.423.214.557.142.134.339.202.592.202Zm2.633-8.229c-.135.498-.305.854-.51 1.067-.198.214-.415.32-.652.32-.238 0-.542-.071-.913-.213-.372-.142-.617-.213-.735-.213-.23 0-.396.173-.498.521l-.89-.284c.135-.498.301-.854.498-1.067.206-.214.427-.321.664-.321.237 0 .542.072.913.214.38.142.629.213.747.213.229 0 .395-.174.498-.521l.878.284Zm3.873 7.577c.205.395.601.592 1.185.592.585 0 .981-.197 1.186-.592.206-.396.308-.977.308-1.743 0-.767-.102-1.348-.308-1.743-.205-.396-.601-.593-1.186-.593-.584 0-.98.197-1.185.593-.206.395-.308.976-.308 1.743 0 .766.102 1.347.308 1.743Zm4.268-1.743c0 2.371-1.027 3.557-3.083 3.557-2.055 0-3.082-1.186-3.082-3.557 0-2.372 1.027-3.557 3.082-3.557 2.056 0 3.083 1.185 3.083 3.557Z"/><path fill="#555C66" d="M40.691 323.898h2.79c.634 0 1.168.096 1.604.289.44.193.774.479 1.002.857.231.375.347.836.347 1.384 0 .386-.079.739-.237 1.059a2.253 2.253 0 0 1-.672.811 2.96 2.96 0 0 1-1.042.492l-.312.121h-2.623l-.012-.908h1.98c.402 0 .736-.07 1.002-.209a1.47 1.47 0 0 0 .602-.573c.135-.239.203-.504.203-.793 0-.324-.064-.608-.191-.851a1.276 1.276 0 0 0-.602-.562c-.27-.135-.62-.202-1.048-.202h-1.673v7.514H40.69v-8.429Zm4.927 8.429-2.05-3.821 1.164-.006 2.079 3.758v.069h-1.193Zm5.303-9.795v1.765h-.868v-1.765h.868Zm-.104 9.454v1.545h-.863v-1.545h.863Zm1.158-1.83c0-.231-.052-.44-.157-.625-.104-.185-.276-.355-.515-.51a4.218 4.218 0 0 0-.96-.428 5.602 5.602 0 0 1-1.263-.55 2.39 2.39 0 0 1-.816-.805c-.19-.32-.284-.708-.284-1.163 0-.475.102-.884.307-1.228a2.04 2.04 0 0 1 .868-.793c.375-.185.815-.278 1.32-.278.394 0 .745.06 1.054.18.309.116.57.289.781.521.217.231.38.515.493.851.115.336.173.724.173 1.163h-1.065c0-.258-.03-.495-.093-.712a1.624 1.624 0 0 0-.277-.561 1.23 1.23 0 0 0-.452-.371 1.364 1.364 0 0 0-.614-.133c-.324 0-.592.056-.804.168a1.06 1.06 0 0 0-.464.475c-.1.2-.15.434-.15.7 0 .247.05.463.15.649.1.185.27.353.51.503.243.147.577.292 1.001.435.498.158.92.345 1.268.561.348.212.612.475.793.787.182.309.272.693.272 1.153 0 .497-.111.918-.335 1.262a2.113 2.113 0 0 1-.944.775c-.405.178-.88.267-1.424.267-.328 0-.652-.045-.973-.133a2.485 2.485 0 0 1-.868-.435 2.166 2.166 0 0 1-.62-.804c-.154-.336-.231-.747-.231-1.233h1.077c0 .328.046.6.139.816.096.212.224.382.382.509.158.124.332.213.52.267.194.05.385.075.574.075.347 0 .64-.054.88-.162.243-.112.428-.27.556-.475.127-.205.19-.444.19-.718Zm8.875-6.304v8.475h-1.071v-7.138l-2.16.787v-.967l3.063-1.157h.168Zm4.504 4.463-.857-.22.423-4.197h4.324v.99H65.83l-.255 2.292c.154-.088.35-.171.585-.249a2.68 2.68 0 0 1 .822-.115c.39 0 .739.067 1.048.202.308.132.57.321.787.568.22.247.388.544.504.891.115.348.173.735.173 1.164 0 .405-.056.778-.168 1.117-.108.34-.272.637-.492.892-.22.251-.498.446-.833.585-.332.138-.724.208-1.176.208-.34 0-.662-.046-.966-.139a2.477 2.477 0 0 1-.81-.434 2.35 2.35 0 0 1-.58-.73 2.923 2.923 0 0 1-.278-1.03h1.02c.046.316.138.583.277.799.139.216.32.38.544.492.228.108.492.162.793.162.255 0 .48-.044.678-.133.197-.089.363-.216.498-.382a1.71 1.71 0 0 0 .306-.602c.074-.236.11-.5.11-.794 0-.266-.036-.513-.11-.741a1.705 1.705 0 0 0-.33-.596 1.448 1.448 0 0 0-.526-.394 1.698 1.698 0 0 0-.718-.144c-.36 0-.631.048-.817.144a3.149 3.149 0 0 0-.561.394Zm10.606-.874v1.285c0 .691-.062 1.274-.185 1.749-.124.474-.301.856-.533 1.146a2.03 2.03 0 0 1-.84.631c-.324.127-.69.191-1.1.191-.324 0-.623-.041-.897-.122a2.122 2.122 0 0 1-.74-.388 2.339 2.339 0 0 1-.556-.706 3.791 3.791 0 0 1-.354-1.053 7.604 7.604 0 0 1-.121-1.448v-1.285c0-.691.061-1.27.185-1.737.127-.467.307-.841.538-1.123.232-.286.51-.49.834-.614a3.114 3.114 0 0 1 1.1-.185c.328 0 .63.041.903.122a2.032 2.032 0 0 1 1.291 1.059c.155.282.272.627.353 1.036.081.41.122.89.122 1.442Zm-1.077 1.459v-1.639c0-.378-.023-.71-.07-.995a3.118 3.118 0 0 0-.19-.741 1.458 1.458 0 0 0-.325-.498 1.138 1.138 0 0 0-.445-.278 1.595 1.595 0 0 0-.562-.093c-.255 0-.48.049-.677.145a1.218 1.218 0 0 0-.498.446c-.131.204-.232.473-.301.805-.07.331-.104.735-.104 1.209v1.639c0 .378.02.712.063 1.001.047.29.114.541.203.753.089.208.197.38.324.515s.274.236.44.301c.17.062.357.093.562.093.262 0 .492-.05.689-.151.196-.1.36-.256.492-.469.135-.216.235-.492.3-.827.066-.34.1-.745.1-1.216Zm3.543 2.153v.863c0 .351-.088.722-.266 1.112a2.68 2.68 0 0 1-.747.984l-.608-.423c.124-.17.228-.343.313-.521.085-.173.148-.355.19-.544.047-.185.07-.382.07-.591v-.88h1.048Zm6.542-3.612v1.285c0 .691-.062 1.274-.185 1.749-.124.474-.301.856-.533 1.146a2.03 2.03 0 0 1-.84.631c-.323.127-.69.191-1.1.191-.323 0-.623-.041-.897-.122a2.122 2.122 0 0 1-.74-.388 2.339 2.339 0 0 1-.556-.706 3.788 3.788 0 0 1-.353-1.053 7.596 7.596 0 0 1-.122-1.448v-1.285c0-.691.062-1.27.185-1.737.128-.467.307-.841.539-1.123.231-.286.51-.49.833-.614a3.114 3.114 0 0 1 1.1-.185c.328 0 .63.041.903.122.278.077.525.202.742.376.216.17.399.397.55.683.154.282.272.627.353 1.036.08.41.121.89.121 1.442Zm-1.077 1.459v-1.639c0-.378-.023-.71-.07-.995a3.118 3.118 0 0 0-.19-.741 1.457 1.457 0 0 0-.324-.498 1.139 1.139 0 0 0-.446-.278 1.596 1.596 0 0 0-.562-.093c-.254 0-.48.049-.677.145a1.217 1.217 0 0 0-.498.446c-.131.204-.231.473-.301.805-.07.331-.104.735-.104 1.209v1.639c0 .378.021.712.064 1.001.046.29.113.541.202.753.089.208.197.38.324.515.128.135.274.236.44.301.17.062.357.093.562.093.262 0 .492-.05.689-.151.197-.1.36-.256.492-.469.135-.216.235-.492.3-.827.067-.34.1-.745.1-1.216Zm7.746-1.459v1.285c0 .691-.061 1.274-.185 1.749-.123.474-.3.856-.532 1.146a2.03 2.03 0 0 1-.84.631c-.324.127-.69.191-1.1.191-.324 0-.623-.041-.897-.122a2.122 2.122 0 0 1-.741-.388 2.34 2.34 0 0 1-.556-.706 3.788 3.788 0 0 1-.353-1.053 7.596 7.596 0 0 1-.122-1.448v-1.285c0-.691.062-1.27.186-1.737.127-.467.306-.841.538-1.123.231-.286.51-.49.834-.614a3.114 3.114 0 0 1 1.1-.185c.328 0 .629.041.903.122.278.077.525.202.74.376.217.17.4.397.55.683.155.282.273.627.354 1.036.081.41.121.89.121 1.442Zm-1.076 1.459v-1.639c0-.378-.024-.71-.07-.995a3.113 3.113 0 0 0-.19-.741 1.458 1.458 0 0 0-.325-.498 1.14 1.14 0 0 0-.446-.278 1.596 1.596 0 0 0-.561-.093c-.255 0-.48.049-.678.145a1.217 1.217 0 0 0-.498.446c-.13.204-.231.473-.3.805a6 6 0 0 0-.105 1.209v1.639c0 .378.021.712.064 1.001.046.29.114.541.202.753.09.208.197.38.325.515.127.135.274.236.44.301.17.062.357.093.561.093.263 0 .492-.05.69-.151.196-.1.36-.256.491-.469.135-.216.236-.492.301-.827a6.47 6.47 0 0 0 .099-1.216Z"/><path fill="#313740" d="M151.397 298.779h4.648v1.245h-3.035v2.395h2.644v1.233h-2.644v3.783h-1.613v-8.656Zm7.656 8.656h-1.589v-6.782h.747l.629 1.055c.545-.775 1.316-1.182 2.312-1.221v1.363c-.933.024-1.632.308-2.099.854v4.731Zm5.587.166c-1.09 0-1.869-.293-2.335-.878-.467-.593-.7-1.486-.7-2.679 0-2.372.996-3.557 2.988-3.557 1.146 0 1.929.355 2.348 1.067.363.608.545 1.399.545 2.371v.427h-4.34c.008.743.131 1.269.368 1.577.237.3.628.45 1.174.45.877 0 1.344-.316 1.399-.948l1.304.047c-.126 1.415-1.043 2.123-2.751 2.123Zm.913-5.502c-.197-.261-.521-.391-.972-.391-.45 0-.782.126-.996.379-.205.245-.34.641-.403 1.186h2.739c-.048-.53-.17-.921-.368-1.174Zm5.496-1.612c.743 0 1.414.205 2.015.616l.38-.45h.747v9.212l-1.589.214v-2.787c-.561.206-1.079.309-1.553.309-1.842 0-2.763-1.186-2.763-3.557 0-2.372.921-3.557 2.763-3.557Zm.426 5.892c.388 0 .763-.071 1.127-.213v-4.174a2.323 2.323 0 0 0-1.127-.284c-1.067 0-1.6.778-1.6 2.336 0 1.557.533 2.335 1.6 2.335Zm6.912 1.222c-1.391 0-2.087-.72-2.087-2.158v-4.79h1.589v4.529c0 .411.079.715.237.913.166.189.439.284.818.284.538 0 1.048-.253 1.53-.758v-4.968h1.588v6.782h-1.031l-.451-.819c-.616.657-1.347.985-2.193.985Zm8.253 0c-1.091 0-1.87-.293-2.336-.878-.466-.593-.699-1.486-.699-2.679 0-2.372.996-3.557 2.987-3.557 1.147 0 1.929.355 2.348 1.067.364.608.545 1.399.545 2.371v.427h-4.339c.008.743.13 1.269.368 1.577.237.3.628.45 1.173.45.878 0 1.344-.316 1.399-.948l1.305.047c-.127 1.415-1.044 2.123-2.751 2.123Zm.913-5.502c-.198-.261-.522-.391-.972-.391-.451 0-.783.126-.996.379-.206.245-.34.641-.403 1.186h2.738c-.047-.53-.17-.921-.367-1.174Zm-2.3-2.087-.569-.569 1.517-1.743h.723l1.518 1.743-.569.569-1.316-.996-1.304.996Zm6.977 1.257c.743-.522 1.502-.782 2.276-.782.783 0 1.348.193 1.696.581.348.379.522.905.522 1.577v4.79h-1.589v-4.624c0-.404-.075-.688-.225-.854-.143-.166-.396-.249-.759-.249-.569 0-1.099.178-1.589.533v5.194h-1.589v-6.782h.747l.51.616Zm7.803 1.008c-.198.379-.297.968-.297 1.767 0 .798.099 1.387.297 1.766.205.38.557.569 1.055.569.506 0 .865-.102 1.079-.308.221-.205.34-.53.355-.972l1.245.059c-.047.806-.284 1.415-.711 1.826-.419.411-1.111.617-2.075.617-1.13 0-1.901-.368-2.312-1.103a3.868 3.868 0 0 1-.415-1.115 7.488 7.488 0 0 1-.107-1.339c0-.514.036-.965.107-1.352.079-.395.217-.767.415-1.115.403-.727 1.174-1.09 2.312-1.09.957 0 1.644.197 2.063.592.419.388.656.969.712 1.743l-1.234.166c-.015-.442-.134-.766-.355-.972-.214-.205-.573-.308-1.079-.308-.498 0-.85.19-1.055.569Zm5.159-1.624h1.589v6.782h-1.589v-6.782Zm.794-.807c-.593 0-.889-.304-.889-.913 0-.616.296-.924.889-.924.609 0 .913.308.913.924 0 .609-.304.913-.913.913Zm5.41.641c1.723 0 2.585.786 2.585 2.359v4.589h-1.032l-.45-.83c-.633.664-1.372.996-2.218.996-.6 0-1.059-.166-1.375-.498-.308-.34-.462-.791-.462-1.352 0-.569.177-1.028.533-1.375.356-.348 1.02-.593 1.992-.736l1.423-.213v-.569c0-.767-.364-1.15-1.091-1.15-.688 0-1.095.348-1.221 1.043l-1.233-.367c.3-1.265 1.15-1.897 2.549-1.897Zm-.605 5.952c.538 0 1.071-.265 1.601-.795v-1.221l-1.138.202c-.514.087-.854.225-1.02.415a.945.945 0 0 0-.249.64c0 .237.071.423.213.557.143.134.34.202.593.202Z"/><path fill="#555C66" d="M156.506 331.447v.88h-5.517v-.77l2.762-3.074c.339-.378.602-.699.787-.961.189-.266.32-.504.394-.712a1.89 1.89 0 0 0 .115-.649c0-.277-.058-.528-.173-.752a1.3 1.3 0 0 0-.498-.544 1.5 1.5 0 0 0-.799-.203c-.375 0-.687.073-.938.22a1.361 1.361 0 0 0-.556.602 2.055 2.055 0 0 0-.185.892h-1.071c0-.475.104-.909.313-1.303.208-.394.517-.706.926-.938.409-.235.913-.353 1.511-.353.532 0 .988.095 1.366.284.378.185.668.447.869.787.204.336.306.73.306 1.181 0 .247-.042.498-.127.753a3.795 3.795 0 0 1-.342.752c-.142.251-.31.498-.503.741-.189.244-.392.483-.608.718l-2.258 2.449h4.226Zm6.108-.087 1.714-5.297h1.094l-2.252 6.264h-.718l.162-.967Zm-1.43-5.297 1.766 5.326.121.938h-.718l-2.269-6.264h1.1Zm7.787 6.38c-.436 0-.832-.073-1.187-.22a2.705 2.705 0 0 1-.909-.631 2.807 2.807 0 0 1-.579-.961 3.53 3.53 0 0 1-.203-1.216v-.243c0-.51.076-.963.226-1.361.151-.401.355-.741.614-1.018.258-.278.552-.489.88-.632a2.542 2.542 0 0 1 1.019-.214c.447 0 .833.077 1.158.232a2.1 2.1 0 0 1 .804.648c.209.274.363.599.464.973.1.37.15.776.15 1.216v.48h-4.678v-.874h3.607v-.081a2.645 2.645 0 0 0-.174-.811 1.457 1.457 0 0 0-.463-.648c-.212-.17-.502-.255-.868-.255a1.452 1.452 0 0 0-1.199.608c-.146.201-.26.446-.341.735-.081.29-.122.624-.122 1.002v.243c0 .297.041.577.122.84.085.258.206.486.365.683.162.197.357.351.584.463.232.112.494.168.788.168.378 0 .698-.077.961-.232a2.39 2.39 0 0 0 .689-.619l.648.515a3.016 3.016 0 0 1-.515.585 2.473 2.473 0 0 1-.77.451 2.976 2.976 0 0 1-1.071.174Zm8.354-.996v.88h-4.556v-.88h4.556Zm-.168-4.626-4.145 5.506h-.655v-.787l4.117-5.477h.683v.758Zm-.475-.758v.886h-4.278v-.886h4.278Zm4.365 6.38a3.08 3.08 0 0 1-1.187-.22 2.69 2.69 0 0 1-.908-.631 2.807 2.807 0 0 1-.579-.961 3.53 3.53 0 0 1-.203-1.216v-.243c0-.51.075-.963.226-1.361.15-.401.355-.741.613-1.018.259-.278.552-.489.88-.632a2.542 2.542 0 0 1 1.019-.214c.448 0 .834.077 1.158.232.328.154.597.37.805.648.208.274.363.599.463.973.1.37.151.776.151 1.216v.48h-4.678v-.874h3.607v-.081a2.705 2.705 0 0 0-.174-.811 1.465 1.465 0 0 0-.463-.648c-.213-.17-.502-.255-.869-.255-.243 0-.467.052-.671.157-.205.1-.38.25-.527.451a2.272 2.272 0 0 0-.342.735c-.081.29-.121.624-.121 1.002v.243c0 .297.04.577.121.84.085.258.207.486.365.683.162.197.357.351.585.463.231.112.494.168.787.168.378 0 .699-.077.961-.232.263-.154.492-.361.689-.619l.649.515a3.023 3.023 0 0 1-.516.585 2.461 2.461 0 0 1-.77.451 2.976 2.976 0 0 1-1.071.174Zm7.335-1.777a.895.895 0 0 0-.104-.429c-.065-.135-.202-.256-.411-.365-.204-.111-.513-.208-.926-.289a7.168 7.168 0 0 1-.944-.261 2.843 2.843 0 0 1-.712-.364 1.542 1.542 0 0 1-.446-.504 1.407 1.407 0 0 1-.156-.677c0-.247.054-.481.162-.701.112-.22.268-.415.469-.585.205-.169.45-.302.735-.399.286-.096.604-.145.956-.145.501 0 .93.089 1.285.267.355.177.627.415.816.712.189.293.284.619.284.978h-1.071a.916.916 0 0 0-.157-.504 1.154 1.154 0 0 0-.445-.411 1.442 1.442 0 0 0-.712-.162c-.298 0-.539.047-.724.139a.93.93 0 0 0-.4.342.858.858 0 0 0-.063.752.674.674 0 0 0 .22.249c.104.074.251.143.44.209.189.065.43.131.723.197.514.115.936.254 1.268.416.332.163.579.361.741.597.162.235.243.521.243.857a1.67 1.67 0 0 1-.665 1.343 2.46 2.46 0 0 1-.765.382 3.403 3.403 0 0 1-.99.133c-.551 0-1.018-.098-1.401-.295-.382-.197-.671-.452-.868-.765a1.823 1.823 0 0 1-.295-.989h1.077c.015.293.1.526.254.7.155.17.344.291.568.365.224.069.445.104.665.104.294 0 .539-.039.736-.116.2-.077.353-.183.457-.318a.74.74 0 0 0 .156-.463Zm6.49-3.399v7.469h-1.077v-8.673h.985l.092 1.204Zm4.221 1.876v.122c0 .455-.054.878-.162 1.267a3.153 3.153 0 0 1-.475 1.008 2.18 2.18 0 0 1-.759.666 2.195 2.195 0 0 1-1.036.237c-.397 0-.749-.066-1.054-.197a2.076 2.076 0 0 1-.775-.573 2.93 2.93 0 0 1-.51-.903 5.237 5.237 0 0 1-.254-1.187v-.648c.046-.464.133-.878.26-1.245.127-.367.295-.679.504-.938a2.07 2.07 0 0 1 .77-.596 2.46 2.46 0 0 1 1.042-.209c.393 0 .743.077 1.048.232.305.15.561.367.77.648.208.282.364.62.469 1.013.108.39.162.824.162 1.303Zm-1.077.122v-.122c0-.313-.033-.606-.099-.88a2.201 2.201 0 0 0-.306-.729 1.452 1.452 0 0 0-1.28-.684c-.27 0-.505.047-.706.139a1.524 1.524 0 0 0-.504.377 1.977 1.977 0 0 0-.341.532 3.037 3.037 0 0 0-.191.614v1.499c.077.271.185.525.324.765.139.235.324.426.556.573.231.143.522.214.874.214.289 0 .538-.06.747-.18a1.51 1.51 0 0 0 .521-.503 2.28 2.28 0 0 0 .306-.73c.066-.278.099-.573.099-.885Zm2.159 0v-.134c0-.451.066-.87.197-1.256.131-.39.32-.727.567-1.013.247-.289.547-.513.898-.672a2.787 2.787 0 0 1 1.181-.243c.44 0 .835.081 1.187.243.355.159.656.383.903.672.251.286.442.623.573 1.013.131.386.197.805.197 1.256v.134c0 .451-.066.87-.197 1.256a2.994 2.994 0 0 1-.573 1.013 2.628 2.628 0 0 1-.898.672 2.82 2.82 0 0 1-1.181.237c-.44 0-.835-.079-1.186-.237a2.69 2.69 0 0 1-.904-.672 3.05 3.05 0 0 1-.567-1.013 3.886 3.886 0 0 1-.197-1.256Zm1.071-.134v.134c0 .312.037.607.11.885.074.274.184.518.33.73.151.212.338.38.562.503.224.12.484.18.781.18.294 0 .55-.06.77-.18.224-.123.41-.291.556-.503.147-.212.257-.456.33-.73.077-.278.116-.573.116-.885v-.134c0-.308-.039-.6-.116-.874a2.23 2.23 0 0 0-.336-.735 1.59 1.59 0 0 0-.555-.509 1.555 1.555 0 0 0-.776-.186c-.293 0-.552.062-.776.186-.22.123-.405.293-.556.509a2.35 2.35 0 0 0-.33.735c-.073.274-.11.566-.11.874Zm7.046-2.084v5.28h-1.071v-6.264h1.042l.029.984Zm1.957-1.019-.006.996a2.963 2.963 0 0 0-.521-.046c-.247 0-.465.038-.654.116-.189.077-.35.185-.481.324a1.56 1.56 0 0 0-.312.498 2.355 2.355 0 0 0-.145.625l-.301.174c0-.379.036-.734.11-1.066.077-.332.195-.625.353-.88.158-.258.359-.459.602-.602a1.698 1.698 0 0 1 1.146-.191c.101.016.17.033.209.052Zm7.578 4.638a.907.907 0 0 0-.104-.429c-.066-.135-.203-.256-.411-.365-.205-.111-.514-.208-.927-.289a7.195 7.195 0 0 1-.943-.261 2.843 2.843 0 0 1-.712-.364 1.53 1.53 0 0 1-.446-.504 1.407 1.407 0 0 1-.156-.677c0-.247.054-.481.162-.701.112-.22.268-.415.469-.585.204-.169.449-.302.735-.399.285-.096.604-.145.955-.145.502 0 .93.089 1.285.267.355.177.628.415.817.712.189.293.283.619.283.978h-1.071a.923.923 0 0 0-.156-.504 1.15 1.15 0 0 0-.446-.411 1.439 1.439 0 0 0-.712-.162c-.297 0-.538.047-.724.139a.932.932 0 0 0-.399.342.86.86 0 0 0-.064.752.693.693 0 0 0 .22.249c.104.074.251.143.44.209.189.065.431.131.724.197.513.115.936.254 1.268.416.332.163.579.361.741.597.162.235.243.521.243.857a1.67 1.67 0 0 1-.666 1.343 2.454 2.454 0 0 1-.764.382 3.403 3.403 0 0 1-.99.133c-.552 0-1.019-.098-1.401-.295-.382-.197-.672-.452-.868-.765a1.824 1.824 0 0 1-.296-.989h1.077c.016.293.101.526.255.7a1.3 1.3 0 0 0 .567.365c.224.069.446.104.666.104.293 0 .538-.039.735-.116.201-.077.353-.183.458-.318a.74.74 0 0 0 .156-.463Zm5.077 1.777c-.436 0-.832-.073-1.187-.22a2.705 2.705 0 0 1-.909-.631 2.82 2.82 0 0 1-.578-.961 3.506 3.506 0 0 1-.203-1.216v-.243c0-.51.075-.963.226-1.361.15-.401.355-.741.613-1.018.259-.278.552-.489.88-.632a2.542 2.542 0 0 1 1.019-.214c.448 0 .834.077 1.158.232.328.154.596.37.805.648.208.274.363.599.463.973.1.37.151.776.151 1.216v.48h-4.678v-.874h3.607v-.081a2.705 2.705 0 0 0-.174-.811 1.465 1.465 0 0 0-.463-.648c-.213-.17-.502-.255-.869-.255-.243 0-.467.052-.671.157-.205.1-.38.25-.527.451a2.272 2.272 0 0 0-.342.735c-.081.29-.121.624-.121 1.002v.243c0 .297.04.577.121.84.085.258.207.486.365.683.162.197.357.351.585.463.231.112.494.168.787.168.378 0 .699-.077.961-.232.263-.154.492-.361.689-.619l.648.515a2.983 2.983 0 0 1-.515.585 2.461 2.461 0 0 1-.77.451 2.976 2.976 0 0 1-1.071.174Zm4.753-5.135v5.019h-1.077v-6.264h1.019l.058 1.245Zm-.22 1.65-.498-.018c.004-.428.06-.824.168-1.186a2.82 2.82 0 0 1 .481-.956c.212-.27.476-.478.793-.625a2.54 2.54 0 0 1 1.1-.226c.293 0 .563.043.81.128.247.081.462.21.643.388.181.177.322.405.423.683.1.278.15.613.15 1.007v4.174h-1.071v-4.122c0-.328-.056-.59-.168-.787a.96.96 0 0 0-.463-.429 1.681 1.681 0 0 0-.706-.139c-.317 0-.581.056-.793.168a1.348 1.348 0 0 0-.51.463 2.1 2.1 0 0 0-.278.678 3.79 3.79 0 0 0-.081.799Zm4.059-.591-.718.22c.004-.343.06-.673.168-.99a2.7 2.7 0 0 1 .48-.845c.212-.247.473-.442.782-.585.308-.146.662-.22 1.059-.22.336 0 .633.045.892.133.262.089.482.226.66.411.181.182.318.415.411.701.092.286.139.625.139 1.019v4.116h-1.077v-4.128c0-.351-.056-.623-.168-.816a.872.872 0 0 0-.463-.411 1.851 1.851 0 0 0-.706-.122c-.236 0-.444.041-.626.122a1.288 1.288 0 0 0-.457.336 1.467 1.467 0 0 0-.284.48 1.783 1.783 0 0 0-.092.579Zm9.187 2.889v-3.225c0-.247-.05-.461-.15-.642a.993.993 0 0 0-.44-.429 1.6 1.6 0 0 0-.73-.15c-.27 0-.507.046-.712.139-.2.092-.359.214-.474.365a.796.796 0 0 0-.168.486h-1.071c0-.224.057-.446.173-.666.116-.22.282-.419.498-.596.22-.182.483-.324.788-.429a3.1 3.1 0 0 1 1.03-.162c.455 0 .857.077 1.204.232.351.154.625.388.822.7.201.309.301.697.301 1.164v2.918c0 .208.018.43.052.666.039.235.095.438.168.608v.092h-1.117a1.953 1.953 0 0 1-.127-.492 3.95 3.95 0 0 1-.047-.579Zm.186-2.727.011.753h-1.082c-.305 0-.577.025-.817.075-.239.047-.44.118-.602.214a.968.968 0 0 0-.498.869c0 .197.045.376.133.538a.967.967 0 0 0 .4.388c.181.093.403.139.666.139a1.797 1.797 0 0 0 1.464-.718c.151-.201.232-.395.243-.585l.458.516c-.027.162-.1.341-.22.538s-.28.386-.481.567a2.554 2.554 0 0 1-.706.446c-.27.116-.575.174-.915.174-.424 0-.797-.083-1.117-.249a1.91 1.91 0 0 1-.741-.666 1.76 1.76 0 0 1-.261-.943c0-.336.066-.631.197-.886a1.71 1.71 0 0 1 .568-.643c.247-.174.544-.305.891-.394a4.744 4.744 0 0 1 1.164-.133h1.245Zm3.641-1.129v4.927h-1.071v-6.264h1.013l.058 1.337Zm-.255 1.558-.445-.018c.003-.428.067-.824.191-1.186.123-.367.297-.686.521-.956.223-.27.49-.478.799-.625.312-.15.658-.226 1.036-.226.309 0 .586.043.834.128.247.081.457.212.631.393.177.182.312.417.405.707.092.285.139.635.139 1.048v4.104h-1.077v-4.116c0-.328-.048-.591-.145-.787a.89.89 0 0 0-.422-.435 1.53 1.53 0 0 0-.684-.139c-.266 0-.509.056-.729.168a1.767 1.767 0 0 0-.562.463 2.322 2.322 0 0 0-.364.678 2.473 2.473 0 0 0-.128.799Zm9.431 2.298v-3.225c0-.247-.05-.461-.15-.642a.998.998 0 0 0-.44-.429 1.6 1.6 0 0 0-.73-.15c-.27 0-.507.046-.712.139a1.23 1.23 0 0 0-.475.365.796.796 0 0 0-.168.486h-1.071c0-.224.058-.446.174-.666.116-.22.282-.419.498-.596a2.49 2.49 0 0 1 .787-.429 3.11 3.11 0 0 1 1.031-.162c.455 0 .857.077 1.204.232.351.154.625.388.822.7.201.309.301.697.301 1.164v2.918c0 .208.018.43.052.666.039.235.095.438.168.608v.092h-1.117a1.992 1.992 0 0 1-.128-.492 4.083 4.083 0 0 1-.046-.579Zm.185-2.727.012.753H252.8c-.305 0-.577.025-.816.075-.239.047-.44.118-.602.214a1.023 1.023 0 0 0-.371.365.977.977 0 0 0-.127.504c0 .197.044.376.133.538a.967.967 0 0 0 .4.388c.181.093.403.139.666.139a1.797 1.797 0 0 0 1.464-.718c.151-.201.232-.395.243-.585l.458.516a1.568 1.568 0 0 1-.22.538c-.12.197-.28.386-.481.567a2.569 2.569 0 0 1-.706.446c-.27.116-.575.174-.915.174-.424 0-.797-.083-1.117-.249a1.903 1.903 0 0 1-.741-.666 1.76 1.76 0 0 1-.261-.943c0-.336.066-.631.197-.886.131-.259.32-.473.567-.643a2.7 2.7 0 0 1 .892-.394 4.738 4.738 0 0 1 1.164-.133h1.244Z"/><path fill="#6B727B" d="M312.924 284.905a.864.864 0 0 1-.636-.257.864.864 0 0 1-.257-.636V282.3c0-.241.047-.471.139-.689.092-.219.22-.409.382-.571l12.512-12.506c.149-.136.314-.241.495-.315.181-.074.37-.111.568-.111.198 0 .39.035.576.105.185.071.35.183.493.336l1.206 1.222c.154.143.263.307.328.494.065.186.098.372.098.558 0 .199-.034.389-.102.569a1.383 1.383 0 0 1-.324.495l-12.506 12.497c-.162.162-.352.29-.571.382a1.756 1.756 0 0 1-.689.139h-1.712Zm12.991-12.653 1.431-1.421-1.241-1.241-1.421 1.431 1.231 1.231Z"/><rect width="340" height="353.598" x="16" y="371.897" fill="#fff" rx="5.928"/><path fill="#1A96D4" d="M40.827 392.027h2.882c1.399 0 2.347.427 2.845 1.28.245.411.415.858.51 1.34a8.39 8.39 0 0 1 .142 1.613c0 .585-.027 1.079-.083 1.482a4.876 4.876 0 0 1-.32 1.185c-.15.38-.352.692-.605.937-.56.545-1.39.818-2.49.818h-2.88v-8.655Zm2.668 1.245H42.44v6.165h1.055c.846 0 1.419-.304 1.72-.913.252-.529.379-1.253.379-2.17 0-.916-.127-1.64-.38-2.169-.3-.609-.873-.913-1.719-.913Zm7.994.462c1.724 0 2.585.787 2.585 2.36v4.588h-1.032l-.45-.83c-.632.664-1.371.996-2.217.996-.6 0-1.06-.166-1.376-.498-.308-.34-.462-.79-.462-1.352 0-.569.178-1.027.534-1.375.355-.348 1.02-.593 1.992-.735l1.422-.213v-.57c0-.766-.363-1.15-1.09-1.15-.688 0-1.095.348-1.222 1.044l-1.233-.368c.3-1.264 1.15-1.897 2.55-1.897Zm-.604 5.952c.537 0 1.07-.265 1.6-.794v-1.221l-1.138.201c-.514.087-.854.225-1.02.415a.947.947 0 0 0-.249.64c0 .237.072.423.214.558.142.134.34.201.593.201Zm6.896 1.162c-1.525 0-2.288-1.186-2.288-3.557s.925-3.557 2.774-3.557c.522 0 1.036.095 1.542.285v-2.253l1.589-.119v9.035h-1.032l-.439-.842c-.656.672-1.371 1.008-2.146 1.008Zm.629-1.221c.49 0 .956-.253 1.399-.759v-3.675a2.984 2.984 0 0 0-1.138-.238c-.57 0-.977.198-1.222.593-.245.395-.367.976-.367 1.743 0 1.557.443 2.336 1.328 2.336Zm6.425-.593c.206.395.6.593 1.186.593.585 0 .98-.198 1.186-.593.205-.395.308-.976.308-1.743 0-.767-.103-1.348-.308-1.743-.206-.395-.601-.593-1.186-.593s-.98.198-1.186.593c-.205.395-.308.976-.308 1.743 0 .767.103 1.348.308 1.743Zm4.269-1.743c0 2.371-1.028 3.557-3.083 3.557s-3.083-1.186-3.083-3.557 1.028-3.557 3.083-3.557 3.083 1.186 3.083 3.557Zm6.388 1.494c0 1.352-.949 2.028-2.846 2.028-.83 0-1.446-.178-1.85-.534-.403-.364-.655-.889-.758-1.577l1.233-.19c.087.759.557 1.139 1.41 1.139.862 0 1.293-.269 1.293-.807a.552.552 0 0 0-.26-.498c-.167-.11-.507-.225-1.02-.343l-.546-.131c-.703-.166-1.21-.407-1.517-.723-.3-.324-.45-.791-.45-1.399 0-1.344.916-2.016 2.75-2.016.79 0 1.38.182 1.767.546.395.355.64.877.735 1.565l-1.234.177c-.087-.75-.525-1.126-1.316-1.126-.782 0-1.173.269-1.173.806 0 .222.075.392.225.51.158.111.474.222.948.332l.617.154c.703.174 1.21.419 1.518.735.316.309.474.759.474 1.352Zm6.489 2.063c-1.526 0-2.288-1.186-2.288-3.557s.924-3.557 2.774-3.557a4.35 4.35 0 0 1 1.541.285v-2.253l1.59-.119v9.035h-1.032l-.44-.842c-.655.672-1.37 1.008-2.145 1.008Zm.628-1.221c.49 0 .957-.253 1.4-.759v-3.675a2.983 2.983 0 0 0-1.139-.238c-.569 0-.976.198-1.221.593-.245.395-.368.976-.368 1.743 0 1.557.443 2.336 1.328 2.336Zm6.426-.593c.205.395.6.593 1.185.593.585 0 .98-.198 1.186-.593.206-.395.308-.976.308-1.743 0-.767-.102-1.348-.308-1.743-.206-.395-.6-.593-1.186-.593-.585 0-.98.198-1.185.593-.206.395-.309.976-.309 1.743 0 .767.103 1.348.309 1.743Zm4.268-1.743c0 2.371-1.028 3.557-3.083 3.557s-3.082-1.186-3.082-3.557 1.027-3.557 3.082-3.557c2.055 0 3.083 1.186 3.083 3.557Zm7.863-4.126c-.743 0-1.245.245-1.506.735-.26.482-.39 1.3-.39 2.454 0 1.147.13 1.965.39 2.455.261.49.763.735 1.506.735.577 0 .984-.158 1.221-.474.245-.317.376-.775.392-1.376l1.304.06c-.063 1.019-.308 1.79-.735 2.312-.419.521-1.146.782-2.182.782-1.352 0-2.284-.395-2.798-1.186a3.959 3.959 0 0 1-.557-1.375c-.103-.529-.154-1.174-.154-1.933 0-.758.051-1.399.154-1.92.11-.53.296-.992.557-1.388.514-.79 1.447-1.185 2.798-1.185.972 0 1.672.217 2.099.652.427.435.687 1.075.782 1.921l-1.304.201c-.047-.474-.194-.838-.439-1.091-.245-.252-.624-.379-1.138-.379Zm5.952 7.517h-1.589v-8.916l1.589-.213v9.129Zm2.232-6.782h1.589v6.782h-1.589V393.9Zm.794-.806c-.592 0-.889-.304-.889-.913 0-.617.297-.925.889-.925.609 0 .913.308.913.925 0 .609-.304.913-.913.913Zm5.375 7.754c-1.091 0-1.87-.292-2.336-.877-.466-.593-.7-1.486-.7-2.68 0-2.371.996-3.557 2.988-3.557 1.146 0 1.929.356 2.348 1.067.363.609.545 1.399.545 2.372v.426h-4.339c.008.743.13 1.269.367 1.577.237.301.629.451 1.174.451.877 0 1.344-.316 1.399-.949l1.304.048c-.126 1.415-1.043 2.122-2.75 2.122Zm.913-5.501c-.198-.261-.522-.392-.973-.392-.45 0-.782.127-.996.38-.205.245-.34.64-.403 1.185h2.739c-.047-.529-.17-.92-.367-1.173Zm4.677-.83c.743-.522 1.502-.783 2.276-.783.783 0 1.348.194 1.696.581.347.38.521.905.521 1.577v4.79h-1.588v-4.624c0-.403-.076-.688-.226-.854-.142-.166-.395-.249-.759-.249-.569 0-1.098.178-1.588.534v5.193h-1.589V393.9h.747l.51.617Zm5.597.415V393.9h1.091v-1.233l1.589-.403v1.636h1.292v1.032h-1.292v3.829c0 .34.047.581.142.724a.51.51 0 0 0 .439.213c.197 0 .411-.032.64-.095l.201.984c-.466.174-.885.261-1.256.261-.364 0-.656-.043-.878-.13a1.455 1.455 0 0 1-.498-.297 1.136 1.136 0 0 1-.249-.474c-.087-.277-.13-.62-.13-1.032v-3.983h-1.091Zm7.628 5.916c-1.091 0-1.869-.292-2.336-.877-.466-.593-.699-1.486-.699-2.68 0-2.371.996-3.557 2.988-3.557 1.146 0 1.928.356 2.347 1.067.364.609.546 1.399.546 2.372v.426h-4.34c.008.743.13 1.269.368 1.577.237.301.628.451 1.173.451.878 0 1.344-.316 1.399-.949l1.305.048c-.127 1.415-1.044 2.122-2.751 2.122Zm.913-5.501c-.198-.261-.522-.392-.972-.392-.451 0-.783.127-.996.38-.206.245-.34.64-.403 1.185h2.738c-.047-.529-.169-.92-.367-1.173Z"/><path fill="#6B727B" d="M297.499 409.937a.866.866 0 0 1-.637-.256.868.868 0 0 1-.257-.637v-1.712a1.783 1.783 0 0 1 .521-1.259l12.512-12.507c.15-.135.315-.24.495-.314.181-.074.37-.111.568-.111.198 0 .39.035.576.105.185.07.35.182.493.336l1.207 1.221c.153.143.262.308.327.494a1.668 1.668 0 0 1-.003 1.128 1.397 1.397 0 0 1-.324.495l-12.507 12.497a1.783 1.783 0 0 1-1.26.52h-1.711Zm12.991-12.652 1.43-1.422-1.241-1.24-1.421 1.43 1.232 1.232Z"/><path fill="#313740" d="M45.961 439.453h1.613v8.655h-1.707l-3.427-5.88v5.88h-1.613v-8.655h1.708l3.426 5.893v-5.893Zm5.05 7.007c.205.396.6.593 1.185.593.585 0 .98-.197 1.186-.593.205-.395.308-.976.308-1.743 0-.766-.103-1.347-.308-1.742-.206-.396-.601-.593-1.186-.593s-.98.197-1.186.593c-.205.395-.308.976-.308 1.742 0 .767.103 1.348.308 1.743Zm4.268-1.743c0 2.372-1.028 3.557-3.083 3.557s-3.083-1.185-3.083-3.557c0-2.371 1.028-3.557 3.083-3.557s3.083 1.186 3.083 3.557Zm4.823-3.557c.948 0 1.612.273 1.992.819.68-.546 1.403-.819 2.17-.819.774 0 1.347.194 1.719.581.371.38.557.905.557 1.577v4.79h-1.589v-4.529c0-.411-.075-.711-.225-.901-.15-.198-.415-.296-.794-.296-.538 0-1.032.185-1.483.557.016.158.024.284.024.379v4.79h-1.589v-4.529c0-.411-.079-.711-.237-.901-.158-.198-.462-.296-.913-.296-.442 0-.885.158-1.328.474v5.252h-1.588v-6.782h.841l.415.558c.64-.482 1.316-.724 2.028-.724Zm10.897 7.114c-1.091 0-1.87-.292-2.336-.877-.466-.593-.7-1.486-.7-2.68 0-2.371.996-3.557 2.988-3.557 1.146 0 1.929.356 2.348 1.068.363.608.545 1.399.545 2.371v.427h-4.34c.009.743.131 1.268.368 1.577.237.3.629.45 1.174.45.877 0 1.344-.316 1.4-.948l1.303.047c-.126 1.415-1.043 2.122-2.75 2.122Zm.913-5.501c-.198-.261-.522-.391-.973-.391-.45 0-.782.126-.996.379-.205.245-.34.64-.403 1.186h2.74c-.048-.53-.17-.921-.368-1.174Z"/><path fill="#555C66" d="M44.229 470.541v-5.969h1.111v5.969c0 .555-.114 1.024-.341 1.406a2.249 2.249 0 0 1-.944.875c-.398.196-.855.295-1.372.295-.517 0-.977-.089-1.378-.267a2.075 2.075 0 0 1-.944-.81c-.227-.363-.341-.82-.341-1.372h1.117c0 .355.066.646.197.874.131.228.313.396.544.504.236.108.504.162.805.162.293 0 .556-.062.787-.185.236-.128.42-.315.556-.562.135-.251.203-.558.203-.92Zm6.675 1.013v-4.817h1.076v6.264h-1.024l-.052-1.447Zm.202-1.32.446-.012c0 .417-.044.803-.133 1.158a2.492 2.492 0 0 1-.417.915 1.98 1.98 0 0 1-.758.608c-.313.142-.693.214-1.14.214-.306 0-.585-.045-.84-.133a1.684 1.684 0 0 1-.649-.411 1.88 1.88 0 0 1-.422-.724 3.488 3.488 0 0 1-.145-1.071v-4.041h1.071v4.052c0 .282.03.516.093.701.065.181.152.326.26.434a.962.962 0 0 0 .37.22c.14.043.282.064.43.064.455 0 .815-.087 1.082-.261.266-.177.457-.415.573-.712.12-.301.18-.635.18-1.001Zm3.578-2.16v4.927h-1.07v-6.264h1.012l.058 1.337Zm-.255 1.558-.445-.018c.003-.428.067-.824.19-1.187.124-.366.298-.685.522-.955a2.328 2.328 0 0 1 1.835-.851c.309 0 .587.043.834.127.247.082.457.213.63.394.178.182.313.417.406.706.092.286.139.635.139 1.048v4.105h-1.077v-4.116c0-.328-.048-.591-.145-.788a.894.894 0 0 0-.422-.434 1.526 1.526 0 0 0-.684-.139c-.266 0-.509.056-.729.168a1.742 1.742 0 0 0-.561.463 2.33 2.33 0 0 0-.365.678 2.475 2.475 0 0 0-.128.799Zm6.901-2.895v6.264h-1.076v-6.264h1.076Zm-1.158-1.662a.65.65 0 0 1 .157-.44c.108-.119.266-.179.474-.179.205 0 .361.06.47.179.111.12.167.267.167.44a.607.607 0 0 1-.168.429c-.108.116-.264.173-.468.173-.209 0-.367-.057-.475-.173a.633.633 0 0 1-.157-.429Zm2.594 4.863v-.133c0-.451.066-.87.197-1.256.131-.39.32-.728.567-1.013a2.53 2.53 0 0 1 .898-.672 2.787 2.787 0 0 1 1.18-.243c.44 0 .836.081 1.187.243.355.159.657.382.904.672.25.285.442.623.573 1.013.13.386.197.805.197 1.256v.133c0 .452-.066.871-.197 1.257a3.01 3.01 0 0 1-.573 1.013 2.631 2.631 0 0 1-.898.671 2.807 2.807 0 0 1-1.18.238c-.44 0-.836-.079-1.188-.238a2.691 2.691 0 0 1-.903-.671 3.064 3.064 0 0 1-.567-1.013 3.882 3.882 0 0 1-.197-1.257Zm1.071-.133v.133c0 .313.037.608.11.886.073.274.183.517.33.73.15.212.338.38.562.503.224.12.484.18.781.18.293 0 .55-.06.77-.18.224-.123.41-.291.556-.503.147-.213.257-.456.33-.73.077-.278.116-.573.116-.886v-.133c0-.309-.039-.6-.116-.874a2.246 2.246 0 0 0-.336-.735 1.604 1.604 0 0 0-.556-.51 1.564 1.564 0 0 0-.775-.185c-.294 0-.552.062-.776.185a1.68 1.68 0 0 0-.556.51 2.318 2.318 0 0 0-.33.735 3.38 3.38 0 0 0-.11.874Zm7.046-2.084v5.28h-1.071v-6.264h1.042l.029.984Zm1.957-1.019-.006.996a1.598 1.598 0 0 0-.255-.035 2.638 2.638 0 0 0-.266-.011c-.247 0-.465.038-.654.115a1.36 1.36 0 0 0-.481.325 1.566 1.566 0 0 0-.313.497c-.073.19-.121.398-.144.626l-.301.173c0-.378.036-.733.11-1.065a2.9 2.9 0 0 1 .353-.88c.158-.258.359-.459.602-.602a1.689 1.689 0 0 1 1.146-.191c.1.016.17.033.209.052Zm7.213-1.383-2.79 7.682h-1.14l3.212-8.429h.735l-.017.747Zm2.339 7.682-2.796-7.682-.018-.747h.736l3.224 8.429h-1.146Zm-.145-3.12v.914h-4.736v-.914h4.736Zm3.422-5.772v8.892h-1.077v-8.892h1.077Zm4.319 9.008c-.437 0-.832-.074-1.187-.22a2.7 2.7 0 0 1-.91-.631 2.808 2.808 0 0 1-.578-.961 3.528 3.528 0 0 1-.203-1.216v-.243c0-.51.076-.963.226-1.361.15-.401.355-.741.614-1.019a2.63 2.63 0 0 1 .88-.631 2.54 2.54 0 0 1 1.019-.214c.447 0 .833.077 1.157.232.329.154.597.37.805.648.209.274.363.598.463.973.1.37.15.775.15 1.215v.481h-4.677v-.874h3.607v-.081a2.674 2.674 0 0 0-.174-.811 1.458 1.458 0 0 0-.463-.648c-.212-.17-.502-.255-.868-.255a1.46 1.46 0 0 0-1.199.608 2.28 2.28 0 0 0-.341.735c-.081.29-.122.624-.122 1.002v.243c0 .297.04.577.122.839.085.259.206.487.364.684.162.196.357.351.585.463.232.112.494.168.787.168.379 0 .699-.078.962-.232.262-.154.492-.361.688-.619l.649.515a3.034 3.034 0 0 1-.515.585 2.466 2.466 0 0 1-.77.451 2.977 2.977 0 0 1-1.072.174Zm4.411-6.38 1.372 2.281 1.39-2.281h1.256l-2.05 3.091 2.114 3.173h-1.24l-1.447-2.35-1.447 2.35h-1.245l2.108-3.173-2.044-3.091h1.233Zm8.852 5.193v-3.225c0-.247-.05-.461-.151-.642a.983.983 0 0 0-.44-.429c-.196-.1-.44-.15-.729-.15-.27 0-.508.046-.712.139a1.238 1.238 0 0 0-.475.364.801.801 0 0 0-.168.487h-1.07c0-.224.057-.446.173-.666.116-.22.282-.419.498-.596.22-.182.482-.325.787-.429a3.106 3.106 0 0 1 1.031-.162c.455 0 .856.077 1.204.232.351.154.625.388.822.7.201.309.301.697.301 1.164v2.918c0 .208.017.43.052.665.039.236.095.439.168.608v.093h-1.117a2.017 2.017 0 0 1-.128-.492 3.962 3.962 0 0 1-.046-.579Zm.185-2.727.012.753h-1.083c-.305 0-.577.025-.816.075-.239.046-.44.118-.602.214a1.023 1.023 0 0 0-.371.365.968.968 0 0 0-.127.504c0 .196.044.376.133.538a.976.976 0 0 0 .399.388c.182.093.404.139.666.139a1.793 1.793 0 0 0 1.465-.718c.15-.201.232-.396.243-.585l.457.516c-.027.162-.1.341-.22.538a2.593 2.593 0 0 1-1.186 1.013c-.27.116-.575.174-.915.174-.425 0-.797-.083-1.117-.249a1.908 1.908 0 0 1-.741-.666 1.762 1.762 0 0 1-.26-.944c0-.335.065-.631.196-.885a1.71 1.71 0 0 1 .567-.643 2.69 2.69 0 0 1 .892-.394 4.735 4.735 0 0 1 1.163-.133h1.245Zm3.642-1.129v4.927h-1.071v-6.264h1.013l.058 1.337Zm-.255 1.558-.446-.018a3.79 3.79 0 0 1 .191-1.187c.124-.366.297-.685.521-.955a2.326 2.326 0 0 1 1.835-.851c.309 0 .587.043.834.127.247.082.457.213.631.394.178.182.313.417.405.706.093.286.139.635.139 1.048v4.105h-1.076v-4.116c0-.328-.049-.591-.145-.788a.897.897 0 0 0-.423-.434 1.525 1.525 0 0 0-.683-.139c-.266 0-.509.056-.729.168a1.733 1.733 0 0 0-.562.463 2.348 2.348 0 0 0-.492 1.477Zm9.686 2.153v-7.676h1.076v8.892h-.984l-.092-1.216Zm-4.215-1.847v-.121c0-.479.058-.913.174-1.303a3.15 3.15 0 0 1 .503-1.013 2.214 2.214 0 0 1 1.801-.88c.393 0 .737.07 1.03.209.297.135.548.333.753.596.208.258.372.571.492.938.12.366.203.781.249 1.244v.533a5.52 5.52 0 0 1-.249 1.239 2.94 2.94 0 0 1-.492.938 2.072 2.072 0 0 1-.753.596 2.496 2.496 0 0 1-1.042.203c-.367 0-.702-.079-1.007-.238a2.381 2.381 0 0 1-.782-.665 3.24 3.24 0 0 1-.503-1.008 4.427 4.427 0 0 1-.174-1.268Zm1.077-.121v.121c0 .313.031.606.092.88.066.274.166.516.301.724.135.208.307.373.516.492.208.116.457.174.746.174.356 0 .647-.075.875-.226.231-.15.416-.349.555-.596.139-.247.247-.516.325-.805v-1.395a3.135 3.135 0 0 0-.203-.614 1.878 1.878 0 0 0-.336-.532 1.452 1.452 0 0 0-.503-.377 1.645 1.645 0 0 0-.701-.139c-.293 0-.546.062-.758.186a1.468 1.468 0 0 0-.516.497 2.32 2.32 0 0 0-.301.73 4.04 4.04 0 0 0-.092.88Zm8.481 3.3c-.436 0-.832-.074-1.187-.22a2.705 2.705 0 0 1-.909-.631 2.807 2.807 0 0 1-.579-.961 3.53 3.53 0 0 1-.202-1.216v-.243c0-.51.075-.963.226-1.361.15-.401.355-.741.613-1.019.259-.278.552-.488.88-.631a2.542 2.542 0 0 1 1.019-.214c.448 0 .834.077 1.158.232.328.154.596.37.805.648.208.274.363.598.463.973.1.37.15.775.15 1.215v.481h-4.677v-.874h3.606v-.081a2.673 2.673 0 0 0-.173-.811 1.465 1.465 0 0 0-.463-.648c-.213-.17-.502-.255-.869-.255a1.457 1.457 0 0 0-1.198.608 2.272 2.272 0 0 0-.342.735c-.081.29-.121.624-.121 1.002v.243c0 .297.04.577.121.839.085.259.207.487.365.684.162.196.357.351.585.463.231.112.494.168.787.168.378 0 .699-.078.961-.232a2.39 2.39 0 0 0 .689-.619l.648.515a3.012 3.012 0 0 1-.515.585 2.461 2.461 0 0 1-.77.451 2.976 2.976 0 0 1-1.071.174Zm4.759-5.396v5.28h-1.071v-6.264h1.042l.029.984Zm1.957-1.019-.006.996a1.605 1.605 0 0 0-.255-.035 2.633 2.633 0 0 0-.266-.011c-.247 0-.465.038-.654.115-.189.078-.35.186-.481.325a1.566 1.566 0 0 0-.312.497c-.074.19-.122.398-.145.626l-.301.173c0-.378.036-.733.11-1.065.077-.332.195-.625.353-.88.158-.258.359-.459.602-.602a1.688 1.688 0 0 1 1.146-.191c.101.016.17.033.209.052Z"/><path fill="#313740" d="M40.827 497.13h2.882c1.399 0 2.347.427 2.845 1.281.245.411.415.857.51 1.34a8.38 8.38 0 0 1 .142 1.612c0 .585-.027 1.079-.083 1.482a4.883 4.883 0 0 1-.32 1.186 2.63 2.63 0 0 1-.605.937c-.56.545-1.39.818-2.49.818h-2.88v-8.656Zm2.668 1.245H42.44v6.166h1.055c.846 0 1.419-.305 1.72-.913.252-.53.379-1.253.379-2.17s-.127-1.64-.38-2.17c-.3-.608-.873-.913-1.719-.913Zm7.994.463c1.724 0 2.585.786 2.585 2.359v4.589h-1.032l-.45-.83c-.632.664-1.371.996-2.217.996-.6 0-1.06-.166-1.376-.498-.308-.34-.462-.791-.462-1.352 0-.569.178-1.028.534-1.375.355-.348 1.02-.593 1.992-.735l1.422-.214v-.569c0-.767-.363-1.15-1.09-1.15-.688 0-1.095.348-1.222 1.043l-1.233-.367c.3-1.265 1.15-1.897 2.55-1.897Zm-.604 5.952c.537 0 1.07-.265 1.6-.795v-1.221l-1.138.202c-.514.087-.854.225-1.02.415a.945.945 0 0 0-.249.64c0 .237.072.423.214.557.142.135.34.202.593.202Zm4.288-4.755v-1.031h1.09v-1.233l1.59-.404v1.637h1.292v1.031h-1.293v3.83c0 .34.048.581.143.723a.51.51 0 0 0 .439.214c.197 0 .41-.032.64-.095l.201.984c-.466.174-.885.261-1.256.261-.364 0-.657-.044-.878-.131a1.464 1.464 0 0 1-.498-.296 1.133 1.133 0 0 1-.249-.474c-.087-.277-.13-.621-.13-1.032v-3.984h-1.091Zm7.663-1.197c1.724 0 2.585.786 2.585 2.359v4.589H64.39l-.45-.83c-.633.664-1.372.996-2.218.996-.6 0-1.06-.166-1.375-.498-.309-.34-.463-.791-.463-1.352 0-.569.178-1.028.534-1.375.355-.348 1.02-.593 1.992-.735l1.422-.214v-.569c0-.767-.363-1.15-1.09-1.15-.688 0-1.095.348-1.222 1.043l-1.233-.367c.3-1.265 1.15-1.897 2.55-1.897Zm-.604 5.952c.537 0 1.07-.265 1.6-.795v-1.221l-1.138.202c-.514.087-.854.225-1.02.415a.945.945 0 0 0-.248.64c0 .237.07.423.213.557.142.135.34.202.593.202Zm10.162 1.162c-1.526 0-2.289-1.186-2.289-3.557 0-2.372.925-3.557 2.775-3.557a4.37 4.37 0 0 1 1.541.284v-2.252l1.589-.119v9.035h-1.032l-.438-.842c-.656.672-1.372 1.008-2.146 1.008Zm.628-1.222c.49 0 .956-.253 1.4-.758v-3.676a3.001 3.001 0 0 0-1.14-.237c-.568 0-.975.198-1.22.593-.245.395-.368.976-.368 1.743 0 1.557.443 2.335 1.328 2.335Zm7.564 1.222c-1.091 0-1.87-.293-2.336-.878-.466-.593-.7-1.486-.7-2.679 0-2.372.996-3.557 2.988-3.557 1.146 0 1.929.355 2.348 1.067.364.608.545 1.399.545 2.371v.427h-4.34c.009.743.131 1.269.368 1.577.237.3.629.45 1.174.45.878 0 1.344-.316 1.4-.948l1.303.047c-.126 1.415-1.043 2.123-2.75 2.123Zm.913-5.502c-.198-.261-.522-.391-.972-.391-.451 0-.783.126-.996.379-.206.245-.34.641-.404 1.186h2.74c-.048-.53-.17-.921-.368-1.174Zm7.942-.83c.743-.521 1.502-.782 2.276-.782.783 0 1.348.193 1.696.581.348.379.522.905.522 1.577v4.79h-1.59v-4.624c0-.404-.074-.688-.224-.854-.143-.166-.396-.249-.76-.249-.568 0-1.098.178-1.588.533v5.194h-1.589v-6.782h.747l.51.616Zm8.988-.782c1.723 0 2.585.786 2.585 2.359v4.589h-1.031l-.451-.83c-.632.664-1.371.996-2.217.996-.6 0-1.06-.166-1.376-.498-.308-.34-.462-.791-.462-1.352 0-.569.178-1.028.534-1.375.355-.348 1.02-.593 1.992-.735l1.422-.214v-.569c0-.767-.363-1.15-1.09-1.15-.688 0-1.095.348-1.222 1.043l-1.233-.367c.3-1.265 1.15-1.897 2.55-1.897Zm-.604 5.952c.537 0 1.07-.265 1.6-.795v-1.221l-1.138.202c-.514.087-.854.225-1.02.415a.945.945 0 0 0-.249.64c0 .237.072.423.214.557.142.135.34.202.593.202Zm10.145-.901c0 1.351-.948 2.027-2.846 2.027-.829 0-1.446-.178-1.849-.533-.403-.364-.656-.89-.759-1.577l1.233-.19c.087.759.557 1.138 1.411 1.138.862 0 1.292-.269 1.292-.806a.553.553 0 0 0-.26-.498c-.166-.111-.506-.225-1.02-.344l-.545-.13c-.704-.166-1.21-.407-1.518-.724-.3-.324-.451-.79-.451-1.399 0-1.343.917-2.015 2.751-2.015.79 0 1.379.181 1.767.545.395.356.64.877.735 1.565l-1.233.178c-.087-.751-.526-1.126-1.316-1.126-.783 0-1.174.268-1.174.806 0 .221.075.391.225.51.158.11.474.221.949.332l.616.154c.704.174 1.21.419 1.518.735.316.308.474.759.474 1.352Zm2.821-3.261c-.198.379-.297.968-.297 1.767 0 .798.099 1.387.297 1.766.205.38.557.569 1.055.569.506 0 .865-.102 1.079-.308.221-.205.34-.529.356-.972l1.245.059c-.048.806-.285 1.415-.712 1.826-.419.411-1.11.617-2.075.617-1.13 0-1.901-.368-2.312-1.103a3.898 3.898 0 0 1-.415-1.115 7.487 7.487 0 0 1-.106-1.339c0-.514.035-.965.106-1.352a3.74 3.74 0 0 1 .415-1.115c.403-.727 1.174-1.09 2.312-1.09.957 0 1.644.197 2.063.593.419.387.656.968.712 1.742l-1.233.166c-.016-.442-.135-.766-.356-.972-.214-.205-.573-.308-1.079-.308-.498 0-.85.19-1.055.569Zm5.159-1.624h1.589v6.782h-1.589v-6.782Zm.794-.807c-.593 0-.889-.304-.889-.913 0-.616.296-.924.889-.924.609 0 .913.308.913.924 0 .609-.304.913-.913.913Zm6.311.641c.949 0 1.613.272 1.992.818.68-.546 1.403-.818 2.17-.818.774 0 1.347.193 1.719.581.372.379.557.905.557 1.577v4.79h-1.589v-4.53c0-.411-.075-.711-.225-.901-.15-.197-.415-.296-.794-.296-.538 0-1.032.186-1.482.557.016.158.023.285.023.38v4.79h-1.588v-4.53c0-.411-.079-.711-.237-.901-.159-.197-.463-.296-.913-.296-.443 0-.886.158-1.328.474v5.253h-1.589v-6.782h.842l.415.557c.64-.482 1.316-.723 2.027-.723Zm10.897 7.114c-1.091 0-1.869-.293-2.336-.878-.466-.593-.699-1.486-.699-2.679 0-2.372.996-3.557 2.987-3.557 1.147 0 1.929.355 2.348 1.067.364.608.545 1.399.545 2.371v.427h-4.339c.008.743.13 1.269.368 1.577.237.3.628.45 1.173.45.878 0 1.344-.316 1.399-.948l1.305.047c-.127 1.415-1.044 2.123-2.751 2.123Zm.913-5.502c-.198-.261-.522-.391-.972-.391-.451 0-.783.126-.996.379-.206.245-.34.641-.403 1.186h2.738c-.047-.53-.17-.921-.367-1.174Zm4.677-.83c.743-.521 1.502-.782 2.276-.782.783 0 1.348.193 1.696.581.348.379.522.905.522 1.577v4.79h-1.589v-4.624c0-.404-.075-.688-.225-.854-.143-.166-.396-.249-.759-.249-.569 0-1.099.178-1.589.533v5.194h-1.589v-6.782h.747l.51.616Zm5.597.415v-1.031h1.091v-1.233l1.589-.404v1.637h1.292v1.031h-1.292v3.83c0 .34.047.581.142.723a.51.51 0 0 0 .439.214c.197 0 .411-.032.64-.095l.202.984c-.467.174-.886.261-1.257.261-.364 0-.656-.044-.877-.131a1.45 1.45 0 0 1-.498-.296 1.125 1.125 0 0 1-.249-.474c-.087-.277-.131-.621-.131-1.032v-3.984h-1.091Zm6.49 4.103c.206.395.601.592 1.186.592s.98-.197 1.185-.592c.206-.396.309-.977.309-1.743 0-.767-.103-1.348-.309-1.743-.205-.395-.6-.593-1.185-.593-.585 0-.98.198-1.186.593-.205.395-.308.976-.308 1.743 0 .766.103 1.347.308 1.743Zm4.268-1.743c0 2.371-1.027 3.557-3.082 3.557-2.055 0-3.083-1.186-3.083-3.557 0-2.372 1.028-3.557 3.083-3.557s3.082 1.185 3.082 3.557Zm48.699-62.942h1.613v8.655h-1.613v-8.655Zm5.445 8.821c-1.525 0-2.288-1.185-2.288-3.557 0-2.371.925-3.557 2.774-3.557.522 0 1.036.095 1.542.285v-2.253l1.588-.118v9.034h-1.031l-.439-.841c-.656.671-1.371 1.007-2.146 1.007Zm.629-1.221c.49 0 .956-.253 1.399-.759v-3.675a3.005 3.005 0 0 0-1.139-.237c-.569 0-.976.197-1.221.593-.245.395-.367.976-.367 1.742 0 1.558.442 2.336 1.328 2.336Zm7.599-5.893c1.723 0 2.585.787 2.585 2.36v4.588h-1.032l-.45-.83c-.633.664-1.372.996-2.218.996-.6 0-1.059-.166-1.375-.498-.308-.339-.462-.79-.462-1.351 0-.569.177-1.028.533-1.376.356-.347 1.02-.592 1.992-.735l1.423-.213v-.569c0-.767-.364-1.15-1.091-1.15-.688 0-1.095.347-1.221 1.043l-1.233-.368c.3-1.264 1.15-1.897 2.549-1.897Zm-.605 5.952c.538 0 1.071-.264 1.601-.794v-1.221l-1.138.201c-.514.087-.854.226-1.02.415a.948.948 0 0 0-.249.641c0 .237.071.423.213.557.143.134.34.201.593.201Zm6.897 1.162c-1.526 0-2.288-1.185-2.288-3.557 0-2.371.924-3.557 2.774-3.557a4.35 4.35 0 0 1 1.541.285v-2.253l1.589-.118v9.034h-1.031l-.439-.841c-.656.671-1.371 1.007-2.146 1.007Zm.628-1.221c.49 0 .957-.253 1.399-.759v-3.675a2.996 2.996 0 0 0-1.138-.237c-.569 0-.976.197-1.221.593-.245.395-.368.976-.368 1.742 0 1.558.443 2.336 1.328 2.336Zm7.564 1.221c-1.091 0-1.869-.292-2.336-.877-.466-.593-.699-1.486-.699-2.68 0-2.371.996-3.557 2.988-3.557 1.146 0 1.928.356 2.347 1.068.364.608.546 1.399.546 2.371v.427h-4.34c.008.743.13 1.268.368 1.577.237.3.628.45 1.173.45.878 0 1.344-.316 1.399-.948l1.305.047c-.127 1.415-1.044 2.122-2.751 2.122Zm.913-5.501c-.198-.261-.522-.391-.972-.391-.451 0-.783.126-.996.379-.206.245-.34.64-.403 1.186h2.738c-.047-.53-.169-.921-.367-1.174Z"/><path fill="#555C66" d="M209.879 470.164v.88h-6.09v-.631l3.774-5.841h.875l-.938 1.69-2.495 3.902h4.874Zm-1.175-5.592v8.429h-1.071v-8.429h1.071Zm6.258-.012h.093v.909h-.093c-.567 0-1.042.093-1.424.278a2.326 2.326 0 0 0-.909.735 3.014 3.014 0 0 0-.486 1.031c-.097.382-.145.77-.145 1.163v1.239c0 .375.044.707.133.996.089.286.211.527.365.724.154.197.328.345.521.445.197.101.401.151.614.151.247 0 .467-.046.66-.139.193-.096.355-.23.486-.399.135-.174.237-.379.307-.614.069-.236.104-.494.104-.776a2.79 2.79 0 0 0-.093-.724 1.928 1.928 0 0 0-.283-.625 1.369 1.369 0 0 0-.481-.434 1.343 1.343 0 0 0-.677-.162c-.297 0-.575.073-.834.22a1.9 1.9 0 0 0-.631.567 1.53 1.53 0 0 0-.278.759l-.567-.006c.054-.432.154-.801.301-1.106.15-.309.336-.56.556-.752a2.1 2.1 0 0 1 .747-.429c.277-.093.571-.139.879-.139.421 0 .784.079 1.089.238.305.158.556.37.752.636.197.263.342.56.435.892.096.328.144.666.144 1.013 0 .398-.056.77-.167 1.117-.112.348-.28.653-.504.915-.22.263-.492.467-.816.614a2.73 2.73 0 0 1-1.129.22c-.456 0-.853-.093-1.193-.278a2.547 2.547 0 0 1-.845-.753 3.426 3.426 0 0 1-.504-1.042 4.115 4.115 0 0 1-.168-1.163v-.504c0-.595.06-1.177.18-1.749a4.647 4.647 0 0 1 .619-1.551 3.176 3.176 0 0 1 1.233-1.106c.525-.274 1.195-.411 2.009-.411Zm9.309 7.37v-3.225c0-.247-.05-.461-.15-.642a.988.988 0 0 0-.44-.429 1.6 1.6 0 0 0-.73-.15c-.27 0-.507.046-.712.139-.2.092-.359.214-.474.364a.801.801 0 0 0-.168.487h-1.071c0-.224.058-.446.173-.666.116-.22.282-.419.498-.596.22-.182.483-.325.788-.429a3.1 3.1 0 0 1 1.03-.162c.456 0 .857.077 1.204.232.352.154.626.388.822.7.201.309.301.697.301 1.164v2.918c0 .208.018.43.053.665.038.236.094.439.167.608v.093h-1.117a2.022 2.022 0 0 1-.127-.492 3.97 3.97 0 0 1-.047-.579Zm.186-2.727.011.753h-1.082c-.305 0-.577.025-.817.075-.239.046-.44.118-.602.214a.968.968 0 0 0-.498.869c0 .196.045.376.134.538a.964.964 0 0 0 .399.388c.181.093.403.139.666.139a1.797 1.797 0 0 0 1.465-.718c.15-.201.231-.396.243-.585l.457.516c-.027.162-.1.341-.22.538a2.586 2.586 0 0 1-1.187 1.013c-.27.116-.575.174-.915.174-.424 0-.796-.083-1.117-.249a1.917 1.917 0 0 1-.741-.666 1.76 1.76 0 0 1-.26-.944c0-.335.065-.631.196-.885.132-.259.321-.473.568-.643.247-.174.544-.305.891-.394a4.75 4.75 0 0 1 1.164-.133h1.245Zm3.641-1.129v4.927h-1.071v-6.264h1.013l.058 1.337Zm-.255 1.558-.445-.018c.004-.428.067-.824.191-1.187.123-.366.297-.685.521-.955a2.326 2.326 0 0 1 1.835-.851c.309 0 .587.043.834.127.247.082.457.213.631.394.177.182.312.417.405.706.093.286.139.635.139 1.048v4.105h-1.077v-4.116c0-.328-.048-.591-.145-.788a.891.891 0 0 0-.422-.434 1.528 1.528 0 0 0-.683-.139c-.267 0-.51.056-.73.168a1.74 1.74 0 0 0-.561.463 2.324 2.324 0 0 0-.365.678 2.473 2.473 0 0 0-.128.799Zm5.454.306v-.133c0-.451.066-.87.197-1.256.131-.39.32-.728.567-1.013a2.53 2.53 0 0 1 .898-.672 2.784 2.784 0 0 1 1.181-.243c.44 0 .835.081 1.186.243.356.159.657.382.904.672.25.285.441.623.573 1.013.131.386.197.805.197 1.256v.133c0 .452-.066.871-.197 1.257a3.038 3.038 0 0 1-.573 1.013 2.635 2.635 0 0 1-.898.671 2.806 2.806 0 0 1-1.181.238 2.85 2.85 0 0 1-1.187-.238 2.694 2.694 0 0 1-.903-.671 3.06 3.06 0 0 1-.567-1.013 3.888 3.888 0 0 1-.197-1.257Zm1.071-.133v.133c0 .313.037.608.11.886.073.274.183.517.33.73.151.212.338.38.562.503.223.12.484.18.781.18.294 0 .55-.06.77-.18.224-.123.409-.291.556-.503.147-.213.257-.456.33-.73.077-.278.116-.573.116-.886v-.133c0-.309-.039-.6-.116-.874a2.23 2.23 0 0 0-.336-.735 1.606 1.606 0 0 0-.556-.51 1.562 1.562 0 0 0-.775-.185c-.294 0-.552.062-.776.185a1.68 1.68 0 0 0-.556.51 2.305 2.305 0 0 0-.33.735 3.38 3.38 0 0 0-.11.874Zm9.622 1.534a.906.906 0 0 0-.104-.428c-.066-.135-.203-.257-.411-.365-.205-.112-.514-.208-.927-.289a7.31 7.31 0 0 1-.943-.261 2.86 2.86 0 0 1-.712-.364 1.53 1.53 0 0 1-.446-.504 1.407 1.407 0 0 1-.156-.677c0-.247.054-.481.162-.701.112-.22.268-.415.469-.585.204-.17.449-.303.735-.399.285-.097.604-.145.955-.145.502 0 .93.089 1.285.266a2 2 0 0 1 .817.713c.189.293.283.619.283.978h-1.071a.92.92 0 0 0-.156-.504 1.15 1.15 0 0 0-.446-.411 1.439 1.439 0 0 0-.712-.162c-.297 0-.538.046-.724.139a.932.932 0 0 0-.399.342.86.86 0 0 0-.064.752.693.693 0 0 0 .22.249c.104.074.251.143.44.209.189.065.431.131.724.196.513.116.936.255 1.268.417.332.162.579.361.741.597.162.235.243.521.243.856a1.67 1.67 0 0 1-.666 1.344 2.454 2.454 0 0 1-.764.382 3.437 3.437 0 0 1-.99.133c-.552 0-1.019-.099-1.401-.295-.382-.197-.672-.452-.868-.765a1.825 1.825 0 0 1-.296-.99h1.077c.016.294.101.527.255.701a1.3 1.3 0 0 0 .567.365c.224.069.446.104.666.104.293 0 .538-.039.735-.116.201-.077.353-.183.458-.318a.742.742 0 0 0 .156-.464Z"/><path fill="#313740" d="M203.458 498.352v-1.222h6.154v1.222h-2.265v7.434h-1.612v-7.434h-2.277Zm8.882 7.6c-1.091 0-1.87-.293-2.336-.878-.466-.593-.7-1.486-.7-2.679 0-2.372.996-3.557 2.988-3.557 1.146 0 1.929.355 2.348 1.067.363.608.545 1.399.545 2.371v.427h-4.339c.008.743.13 1.269.367 1.577.237.3.629.45 1.174.45.878 0 1.344-.316 1.399-.948l1.304.047c-.126 1.415-1.043 2.123-2.75 2.123Zm.913-5.502c-.198-.261-.522-.391-.973-.391-.45 0-.782.126-.996.379-.205.245-.339.641-.403 1.186h2.739c-.047-.53-.17-.921-.367-1.174Zm5.009 5.336h-1.589v-8.916l1.589-.214v9.13Zm4.58.166c-1.091 0-1.87-.293-2.336-.878-.467-.593-.7-1.486-.7-2.679 0-2.372.996-3.557 2.988-3.557 1.146 0 1.929.355 2.348 1.067.363.608.545 1.399.545 2.371v.427h-4.339c.008.743.13 1.269.367 1.577.237.3.629.45 1.174.45.877 0 1.344-.316 1.399-.948l1.304.047c-.126 1.415-1.043 2.123-2.75 2.123Zm.913-5.502c-.198-.261-.522-.391-.973-.391-.45 0-.782.126-.996.379-.205.245-.34.641-.403 1.186h2.739c-.047-.53-.17-.921-.367-1.174Zm5.779-2.608c-.419 0-.628.233-.628.699v.463h1.28v1.031h-1.28v5.751h-1.589v-5.751h-.735v-1.031h.735v-.463c0-1.296.684-1.944 2.051-1.944.514 0 .965.071 1.352.213l-.391 1.198a2.073 2.073 0 0 0-.795-.166Zm3.007 6.296c.206.395.601.592 1.186.592s.98-.197 1.185-.592c.206-.396.309-.977.309-1.743 0-.767-.103-1.348-.309-1.743-.205-.395-.6-.593-1.185-.593-.585 0-.98.198-1.186.593-.206.395-.308.976-.308 1.743 0 .766.102 1.347.308 1.743Zm4.268-1.743c0 2.371-1.027 3.557-3.082 3.557-2.055 0-3.083-1.186-3.083-3.557 0-2.372 1.028-3.557 3.083-3.557s3.082 1.185 3.082 3.557Zm2.796-2.775c.743-.521 1.502-.782 2.277-.782.782 0 1.347.193 1.695.581.348.379.522.905.522 1.577v4.79h-1.589v-4.624c0-.404-.075-.688-.225-.854-.143-.166-.396-.249-.759-.249-.569 0-1.099.178-1.589.533v5.194h-1.589v-6.782h.747l.51.616Zm8.953 6.332c-1.091 0-1.87-.293-2.336-.878-.466-.593-.699-1.486-.699-2.679 0-2.372.996-3.557 2.987-3.557 1.147 0 1.929.355 2.348 1.067.364.608.545 1.399.545 2.371v.427h-4.339c.008.743.13 1.269.367 1.577.238.3.629.45 1.174.45.878 0 1.344-.316 1.399-.948l1.305.047c-.127 1.415-1.044 2.123-2.751 2.123Zm.913-5.502c-.198-.261-.522-.391-.972-.391-.451 0-.783.126-.996.379-.206.245-.34.641-.404 1.186h2.739c-.047-.53-.17-.921-.367-1.174Z"/><path fill="url(#c)" d="M0 246.765h372V550.59H0z"/></g><rect width="371.259" height="514.838" x=".371" y=".371" stroke="#D8DBDF" stroke-width=".741" rx="17.414"/><defs><clipPath id="a"><rect width="372" height="515.579" fill="#fff" rx="17.785"/></clipPath><clipPath id="b"><rect width="35.57" height="35.57" x="16.148" y="30.122" fill="#fff" rx="17.785" transform="rotate(-.054 16.148 30.122)"/></clipPath><linearGradient id="c" x1="186" x2="186" y1="246.765" y2="550.59" gradientUnits="userSpaceOnUse"><stop stop-color="#F6F7FA" stop-opacity="0"/><stop offset=".815" stop-color="#F6F7FA"/><stop offset="1" stop-color="#F6F7FA"/></linearGradient></defs></svg>