<svg xmlns="http://www.w3.org/2000/svg" width="738" height="595" fill="none"><path stroke="#6CCEE4" stroke-dasharray="10 10" stroke-linecap="round" stroke-linejoin="round" d="M714.276 280.014a62.777 62.777 0 0 1 1.474 8.949.5.5 0 0 0-.456.539 60.704 60.704 0 0 1 0 9.996.5.5 0 0 0 .456.539 62.753 62.753 0 0 1-1.474 8.949.5.5 0 0 0-.604.366 67.803 67.803 0 0 1-3.116 9.477.499.499 0 0 0 .27.651 77.643 77.643 0 0 1-3.996 8.139.5.5 0 0 0-.681.187 90.738 90.738 0 0 1-5.468 8.411.5.5 0 0 0 .108.698 107.762 107.762 0 0 1-5.707 7.077.5.5 0 0 0-.705.044 126.854 126.854 0 0 1-6.934 7.229.5.5 0 0 0-.014.706 149.737 149.737 0 0 1-6.738 6.067.5.5 0 0 0-.704-.059 173.297 173.297 0 0 1-7.871 6.241.5.5 0 0 0-.102.7 201.541 201.541 0 0 1-7.41 5.248.5.5 0 0 0-.694-.136 225.08 225.08 0 0 1-8.481 5.422.501.501 0 0 0-.167.687 256.495 256.495 0 0 1-7.864 4.574.5.5 0 0 0-.679-.194 284.773 284.773 0 0 1-8.855 4.717.5.5 0 0 0-.218.673 315.878 315.878 0 0 1-8.132 3.986.501.501 0 0 0-.666-.239 345.746 345.746 0 0 1-9.158 4.148.499.499 0 0 0-.259.658 376.487 376.487 0 0 1-8.379 3.514.5.5 0 0 0-.651-.277 401.34 401.34 0 0 1-9.407 3.662.5.5 0 0 0-.292.644 430.367 430.367 0 0 1-8.523 3.082.5.5 0 0 0-.636-.307 465.17 465.17 0 0 1-9.521 3.205.499.499 0 0 0-.321.629 489.4 489.4 0 0 1-8.671 2.717.5.5 0 0 0-.623-.334 530.128 530.128 0 0 1-9.703 2.828.5.5 0 0 0-.346.616 536.854 536.854 0 0 1-8.722 2.364.5.5 0 0 0-.61-.357 572.047 572.047 0 0 1-9.761 2.459.5.5 0 0 0-.368.604 612.757 612.757 0 0 1-8.873 2.073.5.5 0 0 0-.598-.378c-3.24.728-6.511 1.436-9.811 2.122a.5.5 0 0 0-.388.592c-2.943.609-5.91 1.202-8.9 1.777a.5.5 0 0 0-.585-.397c-3.286.63-6.599 1.24-9.939 1.828a.5.5 0 0 0-.406.579 695.081 695.081 0 0 1-8.914 1.502.501.501 0 0 0-.574-.414 707.993 707.993 0 0 1-9.961 1.532.5.5 0 0 0-.422.567c-2.982.435-5.983.853-9.001 1.255a.5.5 0 0 0-.561-.43c-3.303.437-6.628.854-9.973 1.251a.502.502 0 0 0-.438.556 759.72 759.72 0 0 1-9.046 1.012.5.5 0 0 0-.55-.445c-3.315.349-6.649.678-10.001.987a.5.5 0 0 0-.452.544c-3.002.274-6.018.533-9.048.775a.5.5 0 0 0-.538-.459c-3.335.264-6.686.509-10.054.733a.5.5 0 0 0-.465.532c-3.003.198-6.018.38-9.046.546a.5.5 0 0 0-.526-.472c-3.348.182-6.711.343-10.088.485a.5.5 0 0 0-.479.52c-3.003.124-6.018.232-9.044.324a.499.499 0 0 0-.515-.484c-3.347.099-6.708.18-10.081.24a.5.5 0 0 0-.491.508c-3.013.052-6.036.088-9.069.108a.499.499 0 0 0-.503-.497 850.688 850.688 0 0 1-10.115 0 .499.499 0 0 0-.502.497c-3.033-.02-6.056-.056-9.069-.108a.5.5 0 0 0-.491-.508c-3.373-.06-6.734-.141-10.081-.24a.499.499 0 0 0-.515.484c-3.026-.092-6.041-.2-9.044-.324a.5.5 0 0 0-.479-.52c-3.377-.142-6.74-.303-10.088-.485a.5.5 0 0 0-.526.472 818.468 818.468 0 0 1-9.046-.546.5.5 0 0 0-.465-.532 800.914 800.914 0 0 1-10.054-.733.5.5 0 0 0-.538.459c-3.03-.242-6.046-.501-9.048-.775a.5.5 0 0 0-.452-.544 774.965 774.965 0 0 1-10.001-.987.5.5 0 0 0-.55.445 759.72 759.72 0 0 1-9.046-1.012.502.502 0 0 0-.438-.556c-3.345-.397-6.67-.814-9.973-1.251a.5.5 0 0 0-.561.43c-3.018-.402-6.019-.82-9.001-1.255a.5.5 0 0 0-.422-.567 707.993 707.993 0 0 1-9.961-1.532.5.5 0 0 0-.573.414 692.309 692.309 0 0 1-8.915-1.502.5.5 0 0 0-.406-.579 666.506 666.506 0 0 1-9.939-1.828.5.5 0 0 0-.585.397 645.348 645.348 0 0 1-8.9-1.777.5.5 0 0 0-.387-.592 622.722 622.722 0 0 1-9.812-2.122.5.5 0 0 0-.598.378 612.757 612.757 0 0 1-8.873-2.073.5.5 0 0 0-.368-.604 572.047 572.047 0 0 1-9.761-2.459.5.5 0 0 0-.61.357 536.854 536.854 0 0 1-8.722-2.364.5.5 0 0 0-.346-.616 530.128 530.128 0 0 1-9.703-2.828.5.5 0 0 0-.623.334 489.4 489.4 0 0 1-8.671-2.717.5.5 0 0 0-.321-.629 465.17 465.17 0 0 1-9.521-3.205.5.5 0 0 0-.636.307 432.668 432.668 0 0 1-8.523-3.083.5.5 0 0 0-.292-.643 401.34 401.34 0 0 1-9.407-3.662.501.501 0 0 0-.651.276 373.75 373.75 0 0 1-8.379-3.514.499.499 0 0 0-.258-.657 344.364 344.364 0 0 1-9.159-4.148.5.5 0 0 0-.665.239 310.493 310.493 0 0 1-8.133-3.987.5.5 0 0 0-.218-.672 283.629 283.629 0 0 1-8.855-4.717.5.5 0 0 0-.68.194 257.694 257.694 0 0 1-7.863-4.574.5.5 0 0 0-.167-.687 225.547 225.547 0 0 1-8.481-5.422.5.5 0 0 0-.694.136 200.723 200.723 0 0 1-7.41-5.248.5.5 0 0 0-.102-.7 173.017 173.017 0 0 1-7.87-6.241.5.5 0 0 0-.705.059 149.6 149.6 0 0 1-6.738-6.067.5.5 0 0 0-.014-.706 126.632 126.632 0 0 1-6.934-7.229.5.5 0 0 0-.705-.044 107.795 107.795 0 0 1-5.707-7.077.5.5 0 0 0 .108-.698 90.611 90.611 0 0 1-5.468-8.411.5.5 0 0 0-.68-.187 77.709 77.709 0 0 1-3.997-8.139.499.499 0 0 0 .27-.651 67.727 67.727 0 0 1-3.116-9.477.5.5 0 0 0-.604-.366 62.706 62.706 0 0 1-1.474-8.949.5.5 0 0 0 .456-.539 60.792 60.792 0 0 1 0-9.996.5.5 0 0 0-.456-.539 62.668 62.668 0 0 1 1.474-8.949.5.5 0 0 0 .604-.366c.79-3.19 1.831-6.35 3.116-9.477a.5.5 0 0 0-.27-.651 77.688 77.688 0 0 1 3.996-8.139.5.5 0 0 0 .681-.187 90.611 90.611 0 0 1 5.468-8.411.5.5 0 0 0-.108-.698 107.795 107.795 0 0 1 5.707-7.077.5.5 0 0 0 .705-.044 126.632 126.632 0 0 1 6.934-7.229.5.5 0 0 0 .014-.706 149.05 149.05 0 0 1 6.738-6.067.5.5 0 0 0 .705.059 172.958 172.958 0 0 1 7.87-6.241.5.5 0 0 0 .102-.7 200.723 200.723 0 0 1 7.41-5.248.5.5 0 0 0 .694.136 225.547 225.547 0 0 1 8.48-5.422.5.5 0 0 0 .168-.687 257.694 257.694 0 0 1 7.864-4.574.5.5 0 0 0 .68.194 283.735 283.735 0 0 1 8.854-4.717.5.5 0 0 0 .218-.672 310.493 310.493 0 0 1 8.133-3.987c.117.25.415.357.665.239a344.364 344.364 0 0 1 9.159-4.148.499.499 0 0 0 .258-.657 373.75 373.75 0 0 1 8.379-3.514.501.501 0 0 0 .651.276 401.34 401.34 0 0 1 9.407-3.662.5.5 0 0 0 .292-.643c2.8-1.047 5.641-2.074 8.523-3.083a.5.5 0 0 0 .636.307 465.17 465.17 0 0 1 9.521-3.205.5.5 0 0 0 .321-.629 489.419 489.419 0 0 1 8.671-2.716.5.5 0 0 0 .623.333 522.342 522.342 0 0 1 9.703-2.827.502.502 0 0 0 .346-.617 536.854 536.854 0 0 1 8.722-2.364.5.5 0 0 0 .61.357 572.047 572.047 0 0 1 9.761-2.459.5.5 0 0 0 .368-.603c2.931-.709 5.889-1.4 8.873-2.074a.5.5 0 0 0 .598.378c3.24-.728 6.511-1.436 9.811-2.122a.5.5 0 0 0 .388-.591c2.943-.61 5.91-1.203 8.9-1.778a.5.5 0 0 0 .585.397c3.286-.63 6.599-1.24 9.939-1.828a.5.5 0 0 0 .406-.579 692.309 692.309 0 0 1 8.915-1.502.5.5 0 0 0 .573.414 707.993 707.993 0 0 1 9.961-1.532.5.5 0 0 0 .422-.567c2.982-.435 5.983-.853 9.001-1.255a.5.5 0 0 0 .561.43c3.303-.437 6.628-.854 9.973-1.251a.501.501 0 0 0 .438-.556 759.72 759.72 0 0 1 9.046-1.012.5.5 0 0 0 .55.445c3.315-.349 6.649-.678 10.001-.987a.5.5 0 0 0 .452-.543c3.002-.275 6.018-.534 9.048-.776a.5.5 0 0 0 .538.459c3.335-.264 6.686-.509 10.054-.733a.499.499 0 0 0 .465-.532c3.003-.198 6.018-.38 9.046-.546a.5.5 0 0 0 .526.472c3.348-.182 6.711-.343 10.088-.485a.5.5 0 0 0 .479-.52c3.003-.124 6.018-.232 9.044-.324a.499.499 0 0 0 .515.484c3.347-.099 6.708-.18 10.081-.24a.5.5 0 0 0 .491-.508c3.013-.052 6.036-.088 9.069-.108a.499.499 0 0 0 .503.497 850.688 850.688 0 0 1 10.115 0 .499.499 0 0 0 .502-.497c3.033.02 6.056.056 9.069.108a.5.5 0 0 0 .491.508c3.373.06 6.734.141 10.081.24a.499.499 0 0 0 .515-.484c3.026.092 6.041.2 9.044.324a.5.5 0 0 0 .479.52c3.377.142 6.74.303 10.088.485a.5.5 0 0 0 .526-.472c3.028.166 6.043.348 9.046.546a.499.499 0 0 0 .465.532c3.368.224 6.719.469 10.054.733a.5.5 0 0 0 .538-.459c3.03.242 6.046.501 9.048.776a.5.5 0 0 0 .452.543c3.352.309 6.686.638 10.001.987a.5.5 0 0 0 .55-.445c3.031.321 6.047.658 9.046 1.012a.501.501 0 0 0 .438.556c3.345.397 6.67.814 9.973 1.251a.5.5 0 0 0 .561-.43c3.018.402 6.019.82 9.001 1.255a.5.5 0 0 0 .422.567c3.344.49 6.665 1.001 9.961 1.532a.501.501 0 0 0 .574-.414c2.991.484 5.963.985 8.914 1.502a.5.5 0 0 0 .406.579c3.34.588 6.653 1.198 9.939 1.828a.5.5 0 0 0 .585-.397c2.99.575 5.957 1.168 8.9 1.777a.5.5 0 0 0 .388.592c3.3.686 6.571 1.394 9.811 2.122a.5.5 0 0 0 .598-.378c2.984.674 5.942 1.365 8.873 2.073a.5.5 0 0 0 .368.604c3.289.798 6.543 1.618 9.761 2.459a.5.5 0 0 0 .61-.357c2.938.77 5.845 1.558 8.722 2.364a.5.5 0 0 0 .346.616c3.275.921 6.51 1.864 9.703 2.828a.5.5 0 0 0 .623-.334 489.4 489.4 0 0 1 8.671 2.717.499.499 0 0 0 .321.629 465.17 465.17 0 0 1 9.521 3.205.5.5 0 0 0 .636-.307 430.367 430.367 0 0 1 8.523 3.082.5.5 0 0 0 .292.644 403.068 403.068 0 0 1 9.407 3.662.5.5 0 0 0 .651-.277 376.487 376.487 0 0 1 8.379 3.514.5.5 0 0 0 .258.658 344.364 344.364 0 0 1 9.159 4.148c.25.118.548.01.666-.239a315.878 315.878 0 0 1 8.132 3.986.5.5 0 0 0 .218.673 284.773 284.773 0 0 1 8.855 4.717.5.5 0 0 0 .679-.194 256.495 256.495 0 0 1 7.864 4.574.501.501 0 0 0 .167.687 225.08 225.08 0 0 1 8.481 5.422.5.5 0 0 0 .694-.136 201.541 201.541 0 0 1 7.41 5.248.5.5 0 0 0 .102.7 173.297 173.297 0 0 1 7.871 6.241.5.5 0 0 0 .704-.059 149.132 149.132 0 0 1 6.738 6.067.5.5 0 0 0 .014.706 126.854 126.854 0 0 1 6.934 7.229.5.5 0 0 0 .705.044 107.762 107.762 0 0 1 5.707 7.077.5.5 0 0 0-.108.698 90.738 90.738 0 0 1 5.468 8.411.5.5 0 0 0 .681.187 77.643 77.643 0 0 1 3.996 8.139.499.499 0 0 0-.27.651 67.803 67.803 0 0 1 3.116 9.477.5.5 0 0 0 .604.366Z"/><g filter="url(#a)"><mask id="b" fill="#fff"><path d="M141 38.562C141 26.102 151.101 16 163.562 16h409.876C585.899 16 596 26.101 596 38.562v52.645H141V38.562Z"/></mask><path fill="#fff" d="M141 38.562C141 26.102 151.101 16 163.562 16h409.876C585.899 16 596 26.101 596 38.562v52.645H141V38.562Z"/><path fill="#D8DBDF" d="M141 16h455-455Zm455 76.147H141v-1.88h455v1.88Zm-455-.94V16v75.207ZM596 16v75.207V16Z" mask="url(#b)"/><g clip-path="url(#c)"><rect width="45.124" height="45.124" x="171.083" y="31.041" fill="#D8DBDF" rx="22.562"/><path fill="#1D2229" d="M203.245 63.192h-11.281V47.925l9.755 5.343 1.526 9.924Z"/><path fill="#FFB6B6" d="M194.048 60.498a7.324 7.324 0 1 0 0-14.649 7.324 7.324 0 0 0 0 14.649Z"/><path fill="#FFB6B6" d="m189.844 61.58-.331-3.344L196.12 57l3.902 9.5-6.785 7.803-4.835-9.5 1.442-3.222Z"/><path fill="#1A96D4" d="M209.848 69.303a22.534 22.534 0 0 1-1.065 1.03c-4.156 3.77-9.489 5.832-15.139 5.832-5.209 0-10.148-1.753-14.143-4.98a18.735 18.735 0 0 1-.368-.304 8.1 8.1 0 0 1 .067-.18c1.285-3.348 3.823-4.986 5.363-5.703.764-.355 1.282-.485 1.282-.485l1.808-3.257 1.274 2.375.938 1.75 3.849 7.182 3.32-8.268 1.029-2.563.264-.657 1.255.976 1.187.924 2.391.528 1.94.428 2.634.582c1.066.868 1.714 2.518 2.076 4.57.014.072.026.146.038.22Z"/><path fill="#313740" d="M190.196 44.85a5.619 5.619 0 0 1 4.268-2.678 5.62 5.62 0 0 1 4.667 1.899c.678.787 1.123 1.752 1.784 2.554 1.423 1.725 3.848 2.734 4.47 4.883.271.937.136 1.938-.001 2.904l-.353 2.485c-.092.645-.179 1.324.062 1.928.284.71.962 1.174 1.401 1.8.746 1.063.692 2.62-.127 3.63-.355.437-.826.767-1.199 1.19-.372.423-.648 1.001-.492 1.543.298 1.037 1.925 1.286 2.104 2.35.091.545-.285 1.089-.778 1.338-.492.249-1.072.256-1.62.19-2.083-.254-4.011-1.555-5.025-3.392-1.014-1.836-1.088-4.162-.192-6.059.735-1.558 2.102-2.935 2.087-4.658-.008-.939-.439-1.815-.86-2.654l-2.585-5.152c-.461-.92-.997-1.911-1.947-2.306-.735-.306-1.568-.187-2.354-.062-.785.125-1.617.246-2.354-.054-.737-.3-1.293-1.192-.942-1.906"/><path fill="#313740" d="M191.479 44.928c-1.415-.465-3.002.283-3.96 1.423-.958 1.141-1.423 2.605-1.866 4.027l-.76 2.444-.716 2.3c-.281.901-.563 1.86-.333 2.775.166.662.595 1.263.604 1.945.009.713-.437 1.34-.828 1.935-.392.596-.759 1.305-.572 1.993.283 1.047 1.738 1.622 1.659 2.704-.027.36-.236.694-.232 1.056.005.46.365.859.788 1.042.422.184.897.194 1.358.186a21.03 21.03 0 0 0 4.201-.5c.53-.118 1.07-.263 1.511-.58.442-.317.771-.842.714-1.382-.09-.843-.995-1.32-1.452-2.033-.449-.7-.439-1.588-.632-2.397-.266-1.112-.923-2.083-1.416-3.114-1.854-3.878-1.205-8.82 1.587-12.088.247-.289.517-.58.62-.945.103-.366-.03-.832-.388-.96"/></g><path fill="#1D2229" d="M230.992 35.803h2.662l3.37 10.98h-1.971l-.932-3.038h-3.61l-.918 3.038h-1.985l3.384-10.98Zm1.324 1.94-1.339 4.452h2.677l-1.338-4.452Zm12.388 6.633c0 1.715-1.204 2.572-3.61 2.572-1.053 0-1.835-.225-2.347-.676-.511-.462-.832-1.128-.962-2l1.564-.242c.11.963.707 1.444 1.79 1.444 1.093 0 1.639-.34 1.639-1.022 0-.281-.11-.492-.331-.632-.21-.14-.641-.286-1.293-.436l-.692-.166c-.892-.21-1.534-.516-1.925-.917-.381-.412-.572-1.003-.572-1.775 0-1.705 1.163-2.557 3.49-2.557 1.002 0 1.75.23 2.241.692.501.45.812 1.113.932 1.985l-1.564.226c-.11-.953-.667-1.43-1.669-1.43-.993 0-1.49.342-1.49 1.024 0 .28.096.496.286.646.201.14.602.281 1.204.421l.782.196c.892.22 1.534.532 1.925.933.401.39.602.962.602 1.714Zm8.211 0c0 1.715-1.204 2.572-3.61 2.572-1.053 0-1.835-.225-2.347-.676-.511-.462-.832-1.128-.962-2l1.564-.242c.11.963.707 1.444 1.79 1.444 1.093 0 1.639-.34 1.639-1.022 0-.281-.11-.492-.331-.632-.21-.14-.641-.286-1.293-.436l-.692-.166c-.892-.21-1.534-.516-1.925-.917-.381-.412-.572-1.003-.572-1.775 0-1.705 1.163-2.557 3.49-2.557 1.002 0 1.75.23 2.241.692.501.45.812 1.113.932 1.985l-1.564.226c-.11-.953-.667-1.43-1.669-1.43-.993 0-1.49.342-1.49 1.024 0 .28.096.496.286.646.201.14.602.281 1.204.421l.782.196c.892.22 1.534.532 1.925.933.401.39.602.962.602 1.714Zm2.059-6.197h2.015v8.604h-2.015v-8.604Zm1.008-1.023c-.753 0-1.129-.386-1.129-1.158 0-.782.376-1.173 1.129-1.173.772 0 1.158.391 1.158 1.173 0 .773-.386 1.159-1.158 1.159Zm9.991 7.22c0 1.715-1.203 2.572-3.61 2.572-1.053 0-1.835-.225-2.346-.676-.512-.462-.833-1.128-.963-2l1.564-.242c.111.963.707 1.444 1.79 1.444 1.093 0 1.64-.34 1.64-1.022 0-.281-.111-.492-.331-.632-.211-.14-.642-.286-1.294-.436l-.692-.166c-.892-.21-1.534-.516-1.925-.917-.381-.412-.572-1.003-.572-1.775 0-1.705 1.164-2.557 3.49-2.557 1.003 0 1.75.23 2.241.692.502.45.812 1.113.933 1.985l-1.565.226c-.11-.953-.666-1.43-1.669-1.43-.993 0-1.489.342-1.489 1.024 0 .28.095.496.286.646.2.14.601.281 1.203.421l.782.196c.893.22 1.534.532 1.925.933.401.39.602.962.602 1.714Zm.781-4.888v-1.309h1.383v-1.564l2.016-.511v2.075h1.639v1.309h-1.639v4.858c0 .431.06.737.18.918.131.18.316.27.557.27.251 0 .521-.04.812-.12l.256 1.249c-.592.22-1.123.33-1.594.33-.462 0-.833-.055-1.114-.165-.28-.11-.491-.236-.631-.376a1.421 1.421 0 0 1-.316-.602c-.11-.35-.166-.787-.166-1.308v-5.054h-1.383Zm9.676 7.505c-1.383 0-2.371-.37-2.963-1.113-.591-.752-.887-1.885-.887-3.399 0-3.008 1.263-4.512 3.79-4.512 1.454 0 2.447.451 2.978 1.353.462.773.692 1.775.692 3.009v.541h-5.505c.01.943.166 1.61.467 2 .3.382.797.572 1.489.572 1.113 0 1.704-.4 1.775-1.203l1.654.06c-.16 1.795-1.324 2.692-3.49 2.692Zm1.159-6.979c-.251-.33-.662-.496-1.234-.496-.571 0-.992.16-1.263.481-.261.311-.431.813-.512 1.505h3.475c-.06-.672-.216-1.169-.466-1.49Zm5.933-1.053c.943-.661 1.905-.992 2.888-.992.993 0 1.71.245 2.151.737.441.481.662 1.148.662 2v6.077h-2.016v-5.866c0-.512-.095-.873-.286-1.083-.18-.21-.501-.316-.962-.316-.722 0-1.394.226-2.016.677v6.588h-2.015v-8.604h.947l.647.782Zm7.101.527v-1.309h1.384v-1.564l2.015-.511v2.075h1.64v1.309h-1.64v4.858c0 .431.06.737.181.918.13.18.316.27.556.27.251 0 .522-.04.813-.12l.255 1.249c-.591.22-1.123.33-1.594.33-.461 0-.832-.055-1.113-.165-.281-.11-.492-.236-.632-.376-.14-.15-.246-.35-.316-.602-.11-.35-.165-.787-.165-1.308v-5.054h-1.384Zm9.677 7.505c-1.384 0-2.372-.37-2.963-1.113-.592-.752-.888-1.885-.888-3.399 0-3.008 1.264-4.512 3.791-4.512 1.454 0 2.446.451 2.978 1.353.461.773.692 1.775.692 3.009v.541h-5.505c.01.943.165 1.61.466 2 .301.382.797.572 1.489.572 1.113 0 1.705-.4 1.775-1.203l1.654.06c-.16 1.795-1.323 2.692-3.489 2.692Zm1.158-6.979c-.251-.33-.662-.496-1.233-.496-.572 0-.993.16-1.264.481-.261.311-.431.813-.511 1.505h3.474c-.06-.672-.215-1.169-.466-1.49Z"/><path fill="#118541" d="M235.777 64.45v.59c0 .703-.088 1.333-.263 1.89a4.077 4.077 0 0 1-.758 1.42c-.33.39-.727.688-1.189.893a3.733 3.733 0 0 1-1.543.309c-.552 0-1.06-.103-1.523-.309a3.422 3.422 0 0 1-1.195-.893 4.177 4.177 0 0 1-.778-1.42c-.184-.557-.276-1.187-.276-1.89v-.59c0-.703.09-1.33.27-1.884.184-.556.443-1.03.778-1.42.334-.394.73-.694 1.188-.9a3.712 3.712 0 0 1 1.523-.308c.57 0 1.084.103 1.543.308.462.206.859.506 1.189.9a4 4 0 0 1 .764 1.42c.18.553.27 1.18.27 1.883Zm-1.227.59v-.604c0-.557-.058-1.05-.174-1.478a3.066 3.066 0 0 0-.494-1.08 2.14 2.14 0 0 0-.804-.661 2.437 2.437 0 0 0-1.067-.225c-.385 0-.734.075-1.047.225a2.21 2.21 0 0 0-.797.662 3.246 3.246 0 0 0-.508 1.08c-.12.428-.18.92-.18 1.477v.605c0 .56.06 1.058.18 1.49.12.429.292.79.515 1.087.227.29.494.511.803.662.313.15.662.224 1.047.224.403 0 .761-.075 1.074-.225a2.1 2.1 0 0 0 .79-.661c.218-.296.383-.658.495-1.087a6.02 6.02 0 0 0 .167-1.49Zm4.093-1.086v5.47h-1.188V62.47h1.124l.064 1.485Zm-.282 1.73-.495-.02a4.17 4.17 0 0 1 .212-1.317c.137-.407.33-.76.578-1.06a2.58 2.58 0 0 1 2.037-.945c.343 0 .652.047.926.14.274.09.508.236.7.438.197.201.347.463.45.784.103.317.154.705.154 1.163v4.556h-1.195v-4.569c0-.364-.053-.655-.161-.874a.986.986 0 0 0-.469-.482c-.205-.103-.458-.154-.758-.154-.296 0-.566.062-.81.186-.24.125-.447.296-.623.514a2.606 2.606 0 0 0-.546 1.64Zm7.66-6.131v9.87h-1.195v-9.87h1.195Zm3.2 2.917v6.953h-1.195V62.47h1.195Zm-1.285-1.844a.72.72 0 0 1 .173-.489c.12-.133.296-.199.527-.199.227 0 .401.066.521.2a.689.689 0 0 1 .186.488.673.673 0 0 1-.186.475c-.12.129-.294.193-.521.193-.231 0-.407-.064-.527-.193a.703.703 0 0 1-.173-.475Zm4.383 3.329v5.468h-1.189V62.47h1.124l.065 1.485Zm-.283 1.728-.495-.02c.004-.475.075-.914.212-1.316.137-.407.33-.76.579-1.06a2.576 2.576 0 0 1 2.037-.945c.342 0 .651.047.925.14.274.09.508.236.701.438.197.201.347.463.449.784.103.317.155.705.155 1.163v4.556h-1.196v-4.569c0-.364-.053-.655-.16-.874a.99.99 0 0 0-.469-.482 1.688 1.688 0 0 0-.759-.154 1.76 1.76 0 0 0-.809.186c-.24.125-.448.296-.624.514a2.606 2.606 0 0 0-.546 1.64Zm9.254 3.869c-.484 0-.923-.082-1.318-.244a2.984 2.984 0 0 1-1.008-.7 3.11 3.11 0 0 1-.643-1.068 3.911 3.911 0 0 1-.225-1.35v-.269c0-.566.084-1.069.251-1.51.167-.446.394-.823.681-1.131a2.91 2.91 0 0 1 .977-.7 2.805 2.805 0 0 1 1.131-.238c.497 0 .925.085 1.285.257.364.17.662.41.893.72.232.303.403.663.514 1.079.112.411.167.861.167 1.35v.533h-5.192v-.97h4.004v-.09a3.003 3.003 0 0 0-.193-.9 1.621 1.621 0 0 0-.514-.72c-.236-.188-.557-.283-.964-.283a1.62 1.62 0 0 0-1.331.675 2.541 2.541 0 0 0-.379.816 4.14 4.14 0 0 0-.135 1.112v.27c0 .33.045.64.135.932.094.287.229.54.405.758.18.219.396.39.649.514.257.124.549.187.874.187.42 0 .776-.086 1.067-.258.291-.17.546-.4.765-.687l.719.572c-.15.227-.34.443-.572.649a2.727 2.727 0 0 1-.854.501c-.334.129-.731.193-1.189.193Z"/><path fill="#6B727B" d="M558.396 67.27a2.714 2.714 0 0 1-1.991-.828 2.713 2.713 0 0 1-.829-1.992c0-.775.276-1.44.829-1.992a2.715 2.715 0 0 1 1.991-.828c.776 0 1.44.276 1.992.828a2.72 2.72 0 0 1 .829 1.992c0 .776-.277 1.44-.829 1.992a2.715 2.715 0 0 1-1.992.829Zm0-10.847a2.714 2.714 0 0 1-1.991-.828 2.713 2.713 0 0 1-.829-1.992c0-.775.276-1.44.829-1.991a2.714 2.714 0 0 1 1.991-.83c.776 0 1.44.277 1.992.83.552.552.829 1.216.829 1.991 0 .776-.277 1.44-.829 1.992a2.714 2.714 0 0 1-1.992.828Zm0-10.847a2.715 2.715 0 0 1-1.991-.828 2.714 2.714 0 0 1-.829-1.992c0-.776.276-1.44.829-1.992a2.714 2.714 0 0 1 1.991-.828c.776 0 1.44.276 1.992.828.552.553.829 1.216.829 1.992s-.277 1.44-.829 1.992a2.716 2.716 0 0 1-1.992.828Z"/><g clip-path="url(#d)"><path fill="#fff" d="M141 91.207h455v456.438c0 12.46-10.101 22.562-22.562 22.562H163.562c-12.461 0-22.562-10.102-22.562-22.562V91.207Z"/><rect width="129.731" height="36.041" x="431.485" y="136.331" fill="#1A96D4" rx="15.041"/><path fill="#fff" d="M456.001 154.167v.675c0 .803-.1 1.523-.301 2.16-.201.636-.49 1.177-.867 1.623a3.77 3.77 0 0 1-1.358 1.021c-.524.235-1.112.352-1.763.352a4.239 4.239 0 0 1-1.741-.352 3.921 3.921 0 0 1-1.366-1.021 4.753 4.753 0 0 1-.888-1.623c-.211-.637-.316-1.357-.316-2.16v-.675c0-.803.103-1.521.308-2.152.211-.637.507-1.178.889-1.623a3.8 3.8 0 0 1 1.359-1.028 4.235 4.235 0 0 1 1.74-.353c.652 0 1.239.118 1.763.353.529.235.982.577 1.359 1.028.382.445.673.986.874 1.623.205.631.308 1.349.308 2.152Zm-1.403.675v-.69c0-.636-.066-1.2-.198-1.689-.127-.49-.316-.901-.565-1.234a2.434 2.434 0 0 0-.919-.756 2.773 2.773 0 0 0-1.219-.258c-.44 0-.839.086-1.197.258a2.538 2.538 0 0 0-.911.756 3.707 3.707 0 0 0-.58 1.234c-.137.489-.205 1.053-.205 1.689v.69c0 .642.068 1.21.205 1.704.137.49.333.904.588 1.242.259.332.565.585.918.756.357.171.756.257 1.197.257.46 0 .869-.086 1.227-.257.357-.171.658-.424.903-.756.25-.338.438-.752.565-1.242.128-.494.191-1.062.191-1.704Zm4.796-6.272v11.281h-1.366V148.57h1.366Zm6.867 9.923v-4.091c0-.314-.063-.585-.191-.815a1.245 1.245 0 0 0-.558-.544c-.25-.127-.558-.191-.925-.191-.343 0-.644.059-.904.176a1.583 1.583 0 0 0-.602.463 1.015 1.015 0 0 0-.213.617h-1.359c0-.284.074-.566.221-.845a2.47 2.47 0 0 1 .631-.756c.279-.23.612-.411.999-.544a3.945 3.945 0 0 1 1.308-.205c.577 0 1.086.098 1.527.294.446.195.793.492 1.043.888.255.392.382.884.382 1.476v3.702c0 .264.022.546.066.845.049.298.12.555.213.771v.117h-1.417a2.492 2.492 0 0 1-.162-.624 5.053 5.053 0 0 1-.059-.734Zm.235-3.46.015.955h-1.373c-.387 0-.732.032-1.036.096a2.36 2.36 0 0 0-.764.271 1.305 1.305 0 0 0-.47.463 1.223 1.223 0 0 0-.161.639c0 .25.056.477.168.683.113.206.282.37.507.492.23.118.512.176.845.176.416 0 .783-.088 1.102-.264.318-.176.57-.392.756-.646.191-.255.294-.502.308-.742l.581.654a2.01 2.01 0 0 1-.279.683 3.274 3.274 0 0 1-.61.719c-.25.226-.548.414-.896.566-.343.147-.73.22-1.16.22-.539 0-1.012-.105-1.418-.316a2.424 2.424 0 0 1-.94-.844 2.24 2.24 0 0 1-.33-1.197c0-.426.083-.801.249-1.124.167-.328.407-.6.72-.815.313-.221.69-.387 1.131-.5a5.999 5.999 0 0 1 1.476-.169h1.579Zm-2.431-4.303 1.425-2.16h1.638l-1.968 2.16h-1.095Zm7.308-1.572-.096 7.675h-1.226l-.103-7.675h1.425Zm-1.469 10.01c0-.22.066-.406.198-.558.137-.152.338-.228.603-.228.259 0 .457.076.595.228a.79.79 0 0 1 .212.558.772.772 0 0 1-.212.544c-.138.152-.336.227-.595.227-.265 0-.466-.075-.603-.227a.802.802 0 0 1-.198-.544Z"/><path fill="#fff" fill-opacity=".8" d="M525.749 154.368v8.064h-1.019v-6.792l-2.055.749v-.92l2.914-1.101h.16Zm6.907.033h.088v.865h-.088c-.539 0-.991.088-1.355.264a2.214 2.214 0 0 0-.864.7c-.213.29-.368.616-.463.98a4.5 4.5 0 0 0-.138 1.107v1.179c0 .356.042.672.127.947.084.272.2.502.347.689.147.187.312.329.496.424.187.096.381.143.583.143.235 0 .445-.044.628-.132.184-.092.338-.218.463-.38.129-.165.226-.36.292-.584.066-.224.099-.47.099-.738 0-.239-.029-.468-.088-.689a1.834 1.834 0 0 0-.27-.594 1.294 1.294 0 0 0-1.102-.568c-.282 0-.547.07-.793.21a1.795 1.795 0 0 0-.6.539 1.467 1.467 0 0 0-.265.722l-.539-.006c.051-.411.147-.762.286-1.052a2.26 2.26 0 0 1 .529-.716c.213-.187.45-.323.71-.407a2.64 2.64 0 0 1 .838-.133c.4 0 .745.076 1.035.226.29.151.529.353.716.606.188.25.325.533.413.848a3.4 3.4 0 0 1 .138.964c0 .379-.053.733-.16 1.064a2.51 2.51 0 0 1-.479.87 2.16 2.16 0 0 1-.776.584 2.597 2.597 0 0 1-1.075.209c-.433 0-.811-.088-1.134-.264a2.437 2.437 0 0 1-.804-.716 3.283 3.283 0 0 1-.48-.992 3.935 3.935 0 0 1-.159-1.107v-.479c0-.566.056-1.12.17-1.664a4.443 4.443 0 0 1 .59-1.476 3.018 3.018 0 0 1 1.173-1.052c.499-.261 1.137-.391 1.911-.391Zm2.501 7.491a.62.62 0 0 1 .16-.435c.11-.121.268-.182.474-.182.205 0 .361.061.468.182a.61.61 0 0 1 .165.435.607.607 0 0 1-.165.43c-.107.117-.263.176-.468.176-.206 0-.364-.059-.474-.176a.616.616 0 0 1-.16-.43Zm.006-4.864c0-.172.053-.317.159-.435.111-.121.268-.182.474-.182.206 0 .362.061.468.182.11.118.166.263.166.435a.608.608 0 0 1-.166.43c-.106.117-.262.176-.468.176-.206 0-.363-.059-.474-.176a.62.62 0 0 1-.159-.43Zm7.695.755v1.223c0 .657-.059 1.212-.177 1.663-.117.452-.286.815-.506 1.091a1.939 1.939 0 0 1-.799.6 2.845 2.845 0 0 1-1.047.182c-.308 0-.593-.039-.853-.116a2.018 2.018 0 0 1-.705-.369 2.22 2.22 0 0 1-.529-.672 3.589 3.589 0 0 1-.336-1.002 7.232 7.232 0 0 1-.116-1.377v-1.223c0-.657.059-1.208.176-1.653.122-.444.292-.8.513-1.068.22-.272.484-.467.793-.584a2.94 2.94 0 0 1 1.046-.176c.313 0 .599.038.86.115.264.074.499.193.705.358.205.162.38.379.523.65.147.268.259.597.336.986.077.39.116.847.116 1.372Zm-1.025 1.388v-1.559c0-.36-.022-.676-.066-.947a2.932 2.932 0 0 0-.182-.705 1.376 1.376 0 0 0-.308-.474 1.092 1.092 0 0 0-.424-.264 1.52 1.52 0 0 0-.535-.089c-.242 0-.457.046-.644.138-.187.088-.345.23-.474.424-.125.195-.22.45-.286.766a5.72 5.72 0 0 0-.099 1.151v1.559c0 .36.02.677.06.953.044.275.109.514.193.716.084.198.187.362.308.49.122.129.261.224.419.287.162.058.34.088.534.088.25 0 .469-.048.656-.143a1.19 1.19 0 0 0 .468-.447 2.32 2.32 0 0 0 .287-.787 6.23 6.23 0 0 0 .093-1.157Zm7.37-1.388v1.223c0 .657-.058 1.212-.176 1.663-.118.452-.286.815-.507 1.091a1.93 1.93 0 0 1-.798.6 2.852 2.852 0 0 1-1.047.182 3.01 3.01 0 0 1-.854-.116 2.018 2.018 0 0 1-.705-.369 2.22 2.22 0 0 1-.529-.672 3.589 3.589 0 0 1-.336-1.002 7.239 7.239 0 0 1-.115-1.377v-1.223c0-.657.058-1.208.176-1.653.121-.444.292-.8.512-1.068.221-.272.485-.467.793-.584a2.945 2.945 0 0 1 1.047-.176c.312 0 .599.038.859.115.265.074.5.193.705.358.206.162.38.379.524.65.146.268.258.597.336.986.077.39.115.847.115 1.372Zm-1.024 1.388v-1.559c0-.36-.022-.676-.066-.947a2.98 2.98 0 0 0-.182-.705 1.392 1.392 0 0 0-.309-.474 1.085 1.085 0 0 0-.424-.264 1.518 1.518 0 0 0-.534-.089 1.45 1.45 0 0 0-.645.138c-.187.088-.345.23-.473.424-.125.195-.221.45-.287.766a5.72 5.72 0 0 0-.099 1.151v1.559c0 .36.02.677.061.953.044.275.108.514.193.716.084.198.187.362.308.49.121.129.261.224.419.287.161.058.339.088.534.088.25 0 .468-.048.655-.143.188-.096.344-.245.469-.447a2.32 2.32 0 0 0 .286-.787c.063-.323.094-.709.094-1.157Z"/><path fill="#1A96D4" d="M540.535 136.331h31.211c1.056 0 1.423 1.75.491 2.246-3.91 2.076-8.894 5.514-10.08 9.975-.85 3.193-.941 8.46-.941 8.46l-20.681-20.681Z"/><rect width="180.496" height="36.041" x="175.783" y="187.095" fill="#313740" rx="15.041"/><path fill="#fff" d="M200.299 204.931v.676c0 .803-.1 1.523-.301 2.159-.201.637-.49 1.178-.867 1.623-.377.446-.83.786-1.358 1.021-.524.235-1.112.353-1.763.353a4.24 4.24 0 0 1-1.741-.353 3.909 3.909 0 0 1-1.366-1.021c-.382-.445-.678-.986-.889-1.623-.21-.636-.315-1.356-.315-2.159v-.676c0-.803.103-1.52.308-2.152.211-.636.507-1.177.889-1.623.382-.45.835-.793 1.359-1.028a4.235 4.235 0 0 1 1.74-.353c.651 0 1.239.118 1.763.353.529.235.982.578 1.359 1.028.381.446.673.987.874 1.623.205.632.308 1.349.308 2.152Zm-1.403.676v-.691c0-.636-.066-1.199-.198-1.689-.127-.489-.316-.901-.566-1.234a2.423 2.423 0 0 0-.918-.756 2.787 2.787 0 0 0-1.219-.257c-.441 0-.84.086-1.197.257a2.53 2.53 0 0 0-.911.756 3.717 3.717 0 0 0-.58 1.234 6.289 6.289 0 0 0-.206 1.689v.691c0 .641.069 1.209.206 1.704.137.489.333.903.588 1.241.259.333.565.585.918.756.357.172.756.257 1.197.257.46 0 .869-.085 1.226-.257a2.39 2.39 0 0 0 .904-.756c.249-.338.438-.752.565-1.241a6.836 6.836 0 0 0 .191-1.704Zm4.796-6.272v11.281h-1.366v-11.281h1.366Zm6.867 9.922v-4.091c0-.313-.064-.585-.191-.815a1.25 1.25 0 0 0-.558-.544c-.25-.127-.558-.19-.925-.19-.343 0-.644.058-.904.176a1.58 1.58 0 0 0-.602.462 1.015 1.015 0 0 0-.213.617h-1.359c0-.284.074-.565.221-.844a2.47 2.47 0 0 1 .631-.757c.279-.23.612-.411.999-.543a3.943 3.943 0 0 1 1.307-.206c.578 0 1.087.098 1.528.294.446.196.793.492 1.043.889.255.391.382.883.382 1.476v3.701c0 .265.022.546.066.845.049.299.12.556.213.771v.118h-1.418a2.562 2.562 0 0 1-.161-.625 5.053 5.053 0 0 1-.059-.734Zm.235-3.459.015.955h-1.374c-.386 0-.732.031-1.035.095a2.36 2.36 0 0 0-.764.272 1.287 1.287 0 0 0-.47.462 1.229 1.229 0 0 0-.162.639c0 .25.057.478.169.683.113.206.282.37.507.493.23.117.512.176.845.176.416 0 .783-.088 1.101-.265.319-.176.571-.391.757-.646.191-.254.294-.502.308-.742l.581.654a1.986 1.986 0 0 1-.28.683 3.25 3.25 0 0 1-.609.72c-.25.225-.549.413-.896.565a2.92 2.92 0 0 1-1.161.221c-.538 0-1.011-.106-1.417-.316a2.419 2.419 0 0 1-.94-.845 2.237 2.237 0 0 1-.331-1.197c0-.426.084-.8.25-1.124.167-.328.406-.599.72-.815.313-.22.69-.387 1.131-.499a5.95 5.95 0 0 1 1.476-.169h1.579Zm-2.431-4.304 1.425-2.159h1.638l-1.969 2.159h-1.094Zm12.75 1.175v1.043h-4.296v-1.043h4.296Zm-2.842-1.931h1.358v7.909c0 .27.042.473.125.61a.6.6 0 0 0 .323.272c.133.044.275.066.426.066.113 0 .231-.01.353-.03.127-.024.223-.044.286-.058l.008 1.109a3.19 3.19 0 0 1-.426.095c-.172.034-.38.052-.625.052-.332 0-.638-.066-.918-.199a1.475 1.475 0 0 1-.668-.661c-.161-.313-.242-.734-.242-1.263v-7.902Zm9.298 8.042v-6.111h1.366v7.947h-1.3l-.066-1.836Zm.257-1.675.565-.015c0 .529-.056 1.019-.169 1.469a3.154 3.154 0 0 1-.528 1.161 2.502 2.502 0 0 1-.963.771c-.396.181-.878.272-1.446.272-.387 0-.742-.057-1.065-.169a2.13 2.13 0 0 1-.823-.522 2.37 2.37 0 0 1-.536-.918c-.122-.377-.184-.83-.184-1.359v-5.126h1.359v5.141c0 .358.039.654.118.889.083.23.193.414.33.551.142.132.299.225.47.279.176.054.358.081.544.081.577 0 1.035-.111 1.373-.331.338-.225.58-.526.727-.903.152-.382.228-.806.228-1.271Zm8.189 1.968v-9.738h1.366v11.281h-1.249l-.117-1.543Zm-5.347-2.342v-.155c0-.607.073-1.158.22-1.652.152-.5.365-.928.639-1.285.279-.358.61-.632.992-.823a2.82 2.82 0 0 1 1.292-.294c.5 0 .936.088 1.308.265.377.171.695.423.955.756.264.328.472.725.624 1.19a7.5 7.5 0 0 1 .316 1.579v.676a6.965 6.965 0 0 1-.316 1.571c-.152.465-.36.862-.624 1.19-.26.328-.578.58-.955.757-.377.171-.818.257-1.322.257-.465 0-.891-.101-1.278-.302a3.01 3.01 0 0 1-.992-.844 4.118 4.118 0 0 1-.639-1.278 5.626 5.626 0 0 1-.22-1.608Zm1.366-.155v.155c0 .396.039.768.118 1.116.083.348.21.654.382.918a1.9 1.9 0 0 0 .653.624c.265.147.58.221.948.221.45 0 .82-.096 1.109-.287.293-.191.528-.443.705-.756.176-.314.313-.654.411-1.021v-1.77a3.908 3.908 0 0 0-.257-.779 2.403 2.403 0 0 0-.426-.675 1.84 1.84 0 0 0-.639-.478 2.08 2.08 0 0 0-.889-.176c-.372 0-.693.078-.962.235a1.87 1.87 0 0 0-.653.632 2.89 2.89 0 0 0-.382.925c-.079.348-.118.72-.118 1.116Zm7.102.155v-.169c0-.573.083-1.104.25-1.594a3.76 3.76 0 0 1 .72-1.285 3.185 3.185 0 0 1 1.138-.852 3.53 3.53 0 0 1 1.498-.309c.558 0 1.06.103 1.506.309.45.2.832.484 1.146.852.318.362.56.79.727 1.285.166.49.249 1.021.249 1.594v.169a4.93 4.93 0 0 1-.249 1.593c-.167.49-.409.918-.727 1.286a3.329 3.329 0 0 1-1.139.851c-.44.201-.94.302-1.498.302s-1.06-.101-1.506-.302a3.4 3.4 0 0 1-1.145-.851 3.87 3.87 0 0 1-.72-1.286 4.903 4.903 0 0 1-.25-1.593Zm1.359-.169v.169c0 .396.046.771.139 1.123.093.348.233.656.419.926.191.269.428.482.712.639.284.151.615.227.992.227.372 0 .698-.076.977-.227.284-.157.519-.37.705-.639.186-.27.325-.578.418-.926.098-.352.147-.727.147-1.123v-.169c0-.392-.049-.762-.147-1.109a2.848 2.848 0 0 0-.426-.933 2.018 2.018 0 0 0-.705-.646 1.974 1.974 0 0 0-.984-.235 2 2 0 0 0-.984.235 2.108 2.108 0 0 0-.705.646c-.186.269-.326.58-.419.933a4.27 4.27 0 0 0-.139 1.109Zm11.303-7.227h1.366v9.738l-.118 1.543h-1.248v-11.281Zm6.735 7.241v.155a6.01 6.01 0 0 1-.206 1.608c-.137.49-.338.916-.602 1.278a2.806 2.806 0 0 1-.97.844 2.78 2.78 0 0 1-1.314.302c-.505 0-.948-.086-1.33-.257a2.616 2.616 0 0 1-.954-.757 3.91 3.91 0 0 1-.625-1.19 7.5 7.5 0 0 1-.315-1.571v-.676a7.502 7.502 0 0 1 .315-1.579 3.91 3.91 0 0 1 .625-1.19c.259-.333.577-.585.954-.756.377-.177.816-.265 1.315-.265s.943.098 1.329.294c.387.191.71.465.97.823.264.357.465.785.602 1.285.137.494.206 1.045.206 1.652Zm-1.366.155v-.155a5.36 5.36 0 0 0-.111-1.116 2.86 2.86 0 0 0-.352-.925 1.76 1.76 0 0 0-.639-.632c-.264-.157-.59-.235-.977-.235-.343 0-.641.059-.896.176-.25.118-.463.277-.639.478a2.516 2.516 0 0 0-.433.675c-.108.25-.189.509-.242.779v1.77c.078.343.205.673.381.991.182.314.421.571.72.771.304.201.678.302 1.124.302.367 0 .68-.074.94-.221.264-.152.477-.36.639-.624.166-.264.289-.57.367-.918.078-.348.118-.72.118-1.116Zm6.382 4.032a3.915 3.915 0 0 1-1.506-.279 3.415 3.415 0 0 1-1.153-.801 3.56 3.56 0 0 1-.734-1.219 4.457 4.457 0 0 1-.257-1.543v-.308c0-.646.095-1.222.286-1.726.191-.509.451-.94.779-1.293.328-.352.7-.619 1.116-.8a3.21 3.21 0 0 1 1.293-.272c.568 0 1.057.098 1.469.294.416.196.756.47 1.02.823.265.347.461.758.588 1.233.127.47.191.985.191 1.543v.609h-5.934v-1.109h4.575v-.103a3.382 3.382 0 0 0-.22-1.028 1.844 1.844 0 0 0-.588-.822c-.269-.216-.636-.323-1.101-.323a1.849 1.849 0 0 0-1.521.771c-.186.254-.33.565-.433.932a4.727 4.727 0 0 0-.154 1.271v.308c0 .378.051.732.154 1.065.108.328.262.617.463.867.205.25.453.446.742.588.293.142.626.213.998.213.48 0 .887-.098 1.22-.294.332-.196.624-.458.874-.786l.822.654a3.782 3.782 0 0 1-.654.741c-.264.235-.59.426-.976.573-.382.147-.835.221-1.359.221Zm6.03-6.515v6.368h-1.366v-7.947h1.292l.074 1.579Zm-.279 2.093-.632-.022a5.432 5.432 0 0 1 .213-1.505c.137-.465.34-.869.61-1.212a2.698 2.698 0 0 1 1.006-.793c.401-.191.866-.287 1.395-.287.372 0 .715.054 1.028.162.314.103.585.267.816.492.23.225.408.514.536.866.127.353.191.779.191 1.278v5.296h-1.359v-5.229c0-.417-.071-.75-.213-.999a1.218 1.218 0 0 0-.588-.544 2.125 2.125 0 0 0-.896-.176c-.401 0-.736.071-1.006.213a1.708 1.708 0 0 0-.646.587c-.162.25-.279.537-.353.86a4.839 4.839 0 0 0-.102 1.013Zm5.148-.749-.911.279c.005-.436.076-.854.213-1.256.142-.401.345-.759.61-1.072.269-.313.6-.561.991-.742a3.1 3.1 0 0 1 1.344-.279c.426 0 .803.057 1.131.169.333.113.612.287.838.522.23.23.404.526.521.888.118.363.176.793.176 1.293v5.222h-1.366v-5.237c0-.445-.071-.791-.213-1.035a1.11 1.11 0 0 0-.587-.522 2.349 2.349 0 0 0-.896-.154c-.299 0-.563.051-.793.154a1.642 1.642 0 0 0-.581.426c-.156.176-.276.38-.359.61-.079.23-.118.475-.118.734Zm9.922 2.013h-1.366c.005-.471.047-.855.125-1.154a2.46 2.46 0 0 1 .404-.829c.186-.25.433-.534.742-.852.225-.231.431-.446.617-.647.191-.205.345-.426.462-.661.118-.24.177-.526.177-.859a1.94 1.94 0 0 0-.184-.874 1.26 1.26 0 0 0-.529-.566c-.23-.132-.516-.198-.859-.198-.284 0-.553.052-.808.154-.254.103-.46.262-.617.478-.157.21-.237.487-.242.83h-1.359c.01-.554.147-1.028.411-1.425.27-.397.632-.7 1.087-.911a3.61 3.61 0 0 1 1.528-.316c.622 0 1.151.113 1.586.338.441.225.776.549 1.007.97.23.416.345.91.345 1.483 0 .441-.091.847-.272 1.219a4.654 4.654 0 0 1-.683 1.036 11.93 11.93 0 0 1-.889.925c-.269.25-.45.532-.543.845-.093.313-.14.651-.14 1.014Zm-1.425 2.328a.8.8 0 0 1 .206-.558c.137-.152.336-.228.595-.228.264 0 .465.076.602.228a.8.8 0 0 1 .206.558c0 .21-.069.391-.206.543-.137.152-.338.228-.602.228-.259 0-.458-.076-.595-.228a.784.784 0 0 1-.206-.543Z"/><path fill="#fff" fill-opacity=".8" d="M320.811 205.132v8.064h-1.019v-6.791l-2.054.749v-.92l2.914-1.102h.159Zm6.908.033h.088v.865h-.088c-.54 0-.992.088-1.355.264a2.217 2.217 0 0 0-.865.7c-.213.29-.367.617-.463.98a4.55 4.55 0 0 0-.137 1.108v1.178c0 .357.042.672.126.948.085.272.2.501.347.688.147.188.312.329.496.424.187.096.382.144.584.144.235 0 .444-.044.628-.133.183-.091.338-.218.463-.38.128-.165.225-.359.292-.583a2.61 2.61 0 0 0 .099-.739c0-.238-.03-.468-.088-.688a1.849 1.849 0 0 0-.27-.595 1.303 1.303 0 0 0-.458-.413 1.271 1.271 0 0 0-.644-.154c-.283 0-.547.069-.793.209a1.803 1.803 0 0 0-.601.54c-.154.22-.242.461-.264.721l-.54-.005c.052-.411.147-.762.287-1.052.143-.294.319-.533.528-.716a2 2 0 0 1 .711-.408 2.63 2.63 0 0 1 .837-.132c.4 0 .746.075 1.036.226.29.15.529.352.716.606.187.249.325.532.413.848.092.312.138.633.138.964 0 .378-.054.732-.16 1.063-.107.33-.266.621-.479.87-.21.25-.468.445-.777.584-.308.14-.666.209-1.074.209-.433 0-.812-.088-1.135-.264a2.437 2.437 0 0 1-.804-.716 3.247 3.247 0 0 1-.479-.992 3.895 3.895 0 0 1-.16-1.107v-.479c0-.565.057-1.12.171-1.663.114-.544.31-1.036.589-1.477.283-.44.674-.791 1.173-1.052.5-.26 1.137-.391 1.912-.391Zm2.501 7.491c0-.172.053-.317.159-.435.111-.121.268-.181.474-.181.206 0 .362.06.468.181.11.118.166.263.166.435a.606.606 0 0 1-.166.43c-.106.118-.262.176-.468.176-.206 0-.363-.058-.474-.176a.618.618 0 0 1-.159-.43Zm.005-4.863c0-.173.053-.318.16-.436.11-.121.268-.181.474-.181.205 0 .361.06.468.181.11.118.165.263.165.436a.603.603 0 0 1-.165.429c-.107.118-.263.177-.468.177-.206 0-.364-.059-.474-.177a.612.612 0 0 1-.16-.429Zm7.695.754v1.223c0 .657-.059 1.212-.176 1.664-.118.451-.286.815-.507 1.09a1.92 1.92 0 0 1-.799.601 2.844 2.844 0 0 1-1.046.181c-.309 0-.593-.038-.854-.115a2.018 2.018 0 0 1-.705-.369 2.245 2.245 0 0 1-.529-.672 3.608 3.608 0 0 1-.336-1.003 7.239 7.239 0 0 1-.115-1.377v-1.223c0-.657.058-1.208.176-1.652.121-.445.292-.801.512-1.069.22-.272.485-.466.793-.584a2.963 2.963 0 0 1 1.047-.176c.312 0 .598.039.859.116a1.929 1.929 0 0 1 1.229 1.008c.146.268.258.596.336.986.077.389.115.846.115 1.371Zm-1.024 1.388v-1.558c0-.36-.022-.676-.066-.948a3.006 3.006 0 0 0-.182-.705 1.402 1.402 0 0 0-.309-.474 1.085 1.085 0 0 0-.424-.264 1.518 1.518 0 0 0-.534-.088 1.45 1.45 0 0 0-.645.138 1.15 1.15 0 0 0-.473.424 2.27 2.27 0 0 0-.287.765c-.066.316-.099.7-.099 1.152v1.558c0 .36.02.678.061.953.044.276.108.514.193.716.084.199.187.362.308.491.121.128.261.224.419.286.161.059.339.088.534.088.25 0 .468-.048.655-.143.188-.095.344-.244.469-.446.128-.206.224-.468.286-.788.062-.323.094-.709.094-1.157Zm7.37-1.388v1.223c0 .657-.059 1.212-.176 1.664-.118.451-.287.815-.507 1.09a1.932 1.932 0 0 1-.799.601 2.845 2.845 0 0 1-1.047.181c-.308 0-.593-.038-.853-.115a2.018 2.018 0 0 1-.705-.369 2.245 2.245 0 0 1-.529-.672 3.608 3.608 0 0 1-.336-1.003 7.232 7.232 0 0 1-.116-1.377v-1.223c0-.657.059-1.208.176-1.652.122-.445.292-.801.513-1.069.22-.272.484-.466.793-.584a2.962 2.962 0 0 1 1.046-.176c.313 0 .599.039.86.116.264.073.499.193.705.358.205.161.38.378.523.65.147.268.259.596.336.986.077.389.116.846.116 1.371Zm-1.025 1.388v-1.558c0-.36-.022-.676-.066-.948a2.957 2.957 0 0 0-.182-.705 1.386 1.386 0 0 0-.308-.474 1.092 1.092 0 0 0-.424-.264 1.52 1.52 0 0 0-.535-.088c-.242 0-.457.046-.644.138a1.16 1.16 0 0 0-.474.424c-.125.194-.22.449-.286.765-.066.316-.099.7-.099 1.152v1.558c0 .36.02.678.06.953.044.276.109.514.193.716.085.199.187.362.309.491.121.128.26.224.418.286.162.059.34.088.534.088.25 0 .469-.048.656-.143a1.18 1.18 0 0 0 .468-.446c.129-.206.224-.468.287-.788a6.23 6.23 0 0 0 .093-1.157Z"/><path fill="#313740" d="M196.465 187.095h-31.212c-1.056 0-1.423 1.751-.49 2.246 3.909 2.077 8.893 5.514 10.08 9.975.85 3.193.94 8.461.94 8.461l20.682-20.682Z"/><rect width="323.388" height="57.041" x="175.783" y="230.339" fill="#313740" rx="15.041"/><path fill="#fff" d="M197.765 251.157c0-.25-.039-.47-.117-.661a1.266 1.266 0 0 0-.397-.529c-.186-.157-.446-.306-.778-.448a10.985 10.985 0 0 0-1.249-.433 11.512 11.512 0 0 1-1.432-.522 4.981 4.981 0 0 1-1.094-.668 2.629 2.629 0 0 1-.698-.859 2.442 2.442 0 0 1-.243-1.109 2.603 2.603 0 0 1 .992-2.071c.323-.265.707-.47 1.153-.617a4.745 4.745 0 0 1 1.491-.221c.803 0 1.483.155 2.042.463.563.304.991.703 1.285 1.197.294.49.441 1.014.441 1.572h-1.411c0-.402-.085-.757-.257-1.065a1.773 1.773 0 0 0-.778-.735c-.348-.181-.788-.271-1.322-.271-.504 0-.921.076-1.249.227-.328.152-.572.358-.734.617-.157.26-.235.556-.235.889 0 .225.046.431.139.617.098.181.248.35.448.507.206.156.466.301.779.433.318.132.698.259 1.138.382a9.86 9.86 0 0 1 1.572.573 4.3 4.3 0 0 1 1.087.712c.289.26.502.556.639.889.142.328.213.7.213 1.116 0 .436-.088.83-.264 1.183a2.587 2.587 0 0 1-.757.903c-.328.25-.722.443-1.182.58a5.486 5.486 0 0 1-1.528.199 5.3 5.3 0 0 1-1.462-.206 4.355 4.355 0 0 1-1.299-.617 3.225 3.225 0 0 1-.933-1.014c-.23-.406-.345-.876-.345-1.41h1.41c0 .368.071.683.213.948.142.259.335.475.58.646.25.171.531.299.845.382.318.078.648.117.991.117.495 0 .913-.068 1.256-.205.343-.137.602-.333.778-.588.182-.254.272-.555.272-.903Zm6.324 2.85a3.912 3.912 0 0 1-1.506-.28 3.413 3.413 0 0 1-1.153-.8 3.56 3.56 0 0 1-.734-1.219 4.457 4.457 0 0 1-.257-1.543v-.308c0-.646.095-1.222.286-1.726.191-.509.45-.94.778-1.293a3.352 3.352 0 0 1 1.117-.8 3.208 3.208 0 0 1 1.292-.272c.568 0 1.058.098 1.469.294.416.196.757.47 1.021.822.265.348.46.759.588 1.234.127.47.191.984.191 1.543v.609h-5.935v-1.109h4.576v-.103a3.412 3.412 0 0 0-.22-1.028 1.852 1.852 0 0 0-.588-.822c-.269-.216-.636-.324-1.102-.324a1.856 1.856 0 0 0-1.52.772c-.186.254-.33.565-.433.932a4.727 4.727 0 0 0-.154 1.271v.308c0 .377.051.732.154 1.065.108.328.262.617.463.867.205.25.452.446.741.588.294.142.627.213.999.213.48 0 .886-.098 1.219-.294.333-.196.625-.458.874-.786l.823.654a3.815 3.815 0 0 1-.654.741c-.264.235-.59.426-.977.573-.382.147-.834.221-1.358.221Zm4.715-8.094h1.366v8.894c0 .485-.078.896-.235 1.234a1.595 1.595 0 0 1-.691.764c-.303.176-.687.264-1.153.264a2.83 2.83 0 0 1-.426-.037 2.761 2.761 0 0 1-.418-.088l.007-1.094c.093.02.198.034.316.044.117.015.22.022.308.022.201 0 .37-.037.507-.11a.692.692 0 0 0 .309-.353c.073-.161.11-.377.11-.646v-8.894Zm-.14-2.108c0-.22.069-.406.206-.558.137-.152.335-.228.595-.228.264 0 .465.076.602.228a.804.804 0 0 1 .206.558.785.785 0 0 1-.206.544c-.137.147-.338.22-.602.22-.26 0-.458-.073-.595-.22a.785.785 0 0 1-.206-.544Zm8.388 8.696v-4.091c0-.313-.064-.585-.191-.815a1.258 1.258 0 0 0-.559-.544c-.249-.127-.558-.191-.925-.191-.343 0-.644.059-.903.177a1.567 1.567 0 0 0-.603.462 1.015 1.015 0 0 0-.213.617H212.3c0-.284.073-.565.22-.844.147-.279.357-.532.632-.757.279-.23.612-.411.999-.543a3.934 3.934 0 0 1 1.307-.206c.578 0 1.087.098 1.527.294.446.196.794.492 1.043.889.255.391.382.883.382 1.476v3.701c0 .265.022.546.066.845.049.299.12.556.213.771v.118h-1.417a2.513 2.513 0 0 1-.162-.625 5.044 5.044 0 0 1-.058-.734Zm.235-3.459.014.954h-1.373c-.387 0-.732.032-1.036.096a2.37 2.37 0 0 0-.764.272 1.294 1.294 0 0 0-.47.462 1.238 1.238 0 0 0-.161.639c0 .25.056.478.169.683.112.206.281.37.507.492.23.118.511.177.844.177a2.23 2.23 0 0 0 1.102-.265c.318-.176.57-.391.756-.646.191-.255.294-.502.309-.742l.58.654a1.962 1.962 0 0 1-.279.683 3.283 3.283 0 0 1-1.506 1.285 2.912 2.912 0 0 1-1.16.221c-.539 0-1.011-.106-1.418-.316a2.433 2.433 0 0 1-.94-.845 2.236 2.236 0 0 1-.33-1.197c0-.426.083-.801.25-1.124.166-.328.406-.6.719-.815.314-.22.691-.387 1.131-.499a5.953 5.953 0 0 1 1.477-.169h1.579Zm6.984-6.463h1.366v9.738l-.117 1.543h-1.249v-11.281Zm6.735 7.241v.154c0 .578-.069 1.114-.206 1.609a3.974 3.974 0 0 1-.602 1.278 2.803 2.803 0 0 1-.969.844 2.784 2.784 0 0 1-1.315.302c-.504 0-.948-.086-1.329-.258a2.606 2.606 0 0 1-.955-.756 3.887 3.887 0 0 1-.624-1.19 7.432 7.432 0 0 1-.316-1.572v-.675a7.437 7.437 0 0 1 .316-1.579c.156-.465.364-.862.624-1.19a2.52 2.52 0 0 1 .955-.757c.377-.176.815-.264 1.314-.264.5 0 .943.098 1.33.294.386.191.71.465.969.822.264.358.465.786.602 1.286.137.494.206 1.045.206 1.652Zm-1.366.154v-.154c0-.396-.037-.769-.11-1.116a2.9 2.9 0 0 0-.353-.926 1.749 1.749 0 0 0-.639-.631c-.264-.157-.59-.235-.977-.235-.342 0-.641.059-.896.176a1.969 1.969 0 0 0-.639.477c-.176.196-.32.422-.433.676-.108.25-.188.509-.242.779v1.77c.078.342.205.673.382.991.181.314.421.571.719.771.304.201.679.301 1.124.301.367 0 .681-.073.94-.22.265-.152.478-.36.639-.624a2.9 2.9 0 0 0 .367-.918c.079-.348.118-.72.118-1.117Zm6.382 4.033a3.906 3.906 0 0 1-1.505-.28 3.417 3.417 0 0 1-1.154-.8 3.56 3.56 0 0 1-.734-1.219 4.48 4.48 0 0 1-.257-1.543v-.308c0-.646.095-1.222.286-1.726.191-.509.451-.94.779-1.293.328-.352.7-.619 1.116-.8a3.21 3.21 0 0 1 1.293-.272c.568 0 1.057.098 1.469.294.416.196.756.47 1.021.822.264.348.46.759.587 1.234.127.47.191.984.191 1.543v.609h-5.934v-1.109h4.575v-.103a3.382 3.382 0 0 0-.22-1.028 1.842 1.842 0 0 0-.587-.822c-.27-.216-.637-.324-1.102-.324a1.85 1.85 0 0 0-1.52.772 2.882 2.882 0 0 0-.434.932 4.727 4.727 0 0 0-.154 1.271v.308c0 .377.051.732.154 1.065.108.328.262.617.463.867.206.25.453.446.742.588.294.142.626.213.999.213.479 0 .886-.098 1.219-.294.333-.196.624-.458.874-.786l.822.654a3.809 3.809 0 0 1-.653.741c-.265.235-.59.426-.977.573-.382.147-.835.221-1.359.221Zm6.03-6.515v6.368h-1.366v-7.947h1.292l.074 1.579Zm-.279 2.093-.632-.022a5.432 5.432 0 0 1 .213-1.505c.137-.466.34-.87.61-1.212a2.698 2.698 0 0 1 1.006-.793c.401-.191.867-.287 1.395-.287.372 0 .715.054 1.029.162.313.102.585.267.815.492.23.225.409.514.536.866.127.353.191.779.191 1.278v5.296h-1.359v-5.23c0-.416-.071-.749-.213-.998a1.22 1.22 0 0 0-.587-.544 2.132 2.132 0 0 0-.896-.176c-.402 0-.737.071-1.007.213a1.708 1.708 0 0 0-.646.587c-.161.25-.279.537-.352.86a4.772 4.772 0 0 0-.103 1.013Zm5.148-.749-.911.279c.005-.436.076-.854.213-1.256.142-.401.346-.759.61-1.072.269-.313.6-.561.992-.742.391-.186.839-.279 1.344-.279.426 0 .803.056 1.131.169.333.113.612.286.837.521.23.231.404.527.521.889.118.362.177.793.177 1.293v5.222h-1.366v-5.237c0-.445-.071-.791-.213-1.035a1.113 1.113 0 0 0-.588-.522 2.345 2.345 0 0 0-.896-.154c-.299 0-.563.051-.793.154-.23.103-.424.245-.58.426a1.841 1.841 0 0 0-.36.61c-.079.23-.118.475-.118.734Zm13.117 3.797 2.174-6.72h1.388l-2.857 7.947h-.91l.205-1.227Zm-1.814-6.72 2.24 6.757.154 1.19h-.91l-2.879-7.947h1.395Zm8.16 0v7.947h-1.366v-7.947h1.366Zm-1.469-2.108c0-.22.066-.406.198-.558.137-.152.338-.228.603-.228.259 0 .457.076.594.228a.787.787 0 0 1 .213.558.769.769 0 0 1-.213.544c-.137.147-.335.22-.594.22-.265 0-.466-.073-.603-.22a.802.802 0 0 1-.198-.544Zm5.009 3.805v6.25h-1.359v-7.947h1.285l.074 1.697Zm-.323 1.975-.566-.022a4.771 4.771 0 0 1 .243-1.505c.156-.466.377-.87.661-1.212a2.936 2.936 0 0 1 1.013-.793 2.993 2.993 0 0 1 1.315-.287c.391 0 .744.054 1.057.162.314.102.581.269.801.499.225.23.396.529.514.896.117.362.176.806.176 1.329v5.208h-1.366v-5.222c0-.416-.061-.749-.183-.999a1.133 1.133 0 0 0-.537-.551c-.235-.117-.523-.176-.866-.176-.338 0-.647.071-.926.213a2.224 2.224 0 0 0-.712.587 2.972 2.972 0 0 0-.624 1.873Zm12.287 2.732v-9.738h1.366v11.281h-1.249l-.117-1.543Zm-5.347-2.343v-.154c0-.607.074-1.158.22-1.652.152-.5.365-.928.639-1.286.28-.357.61-.631.992-.822a2.82 2.82 0 0 1 1.293-.294c.499 0 .935.088 1.307.264.377.172.695.424.955.757.264.328.472.725.624 1.19a7.5 7.5 0 0 1 .316 1.579v.675a6.908 6.908 0 0 1-.316 1.572c-.152.465-.36.862-.624 1.19-.26.328-.578.58-.955.756-.377.172-.818.258-1.322.258-.465 0-.891-.101-1.278-.302a3.02 3.02 0 0 1-.992-.844 4.14 4.14 0 0 1-.639-1.278 5.663 5.663 0 0 1-.22-1.609Zm1.366-.154v.154c0 .397.039.769.118 1.117.083.347.21.653.382.918a1.9 1.9 0 0 0 .653.624c.265.147.58.22.948.22.45 0 .82-.095 1.109-.286.293-.191.529-.443.705-.756.176-.314.313-.654.411-1.021v-1.77a3.908 3.908 0 0 0-.257-.779 2.422 2.422 0 0 0-.426-.676 1.849 1.849 0 0 0-.639-.477 2.08 2.08 0 0 0-.889-.176c-.372 0-.692.078-.962.235a1.875 1.875 0 0 0-.653.631 2.906 2.906 0 0 0-.382.926c-.079.347-.118.72-.118 1.116Zm12.148 2.681v-4.091c0-.313-.064-.585-.191-.815a1.26 1.26 0 0 0-.558-.544c-.25-.127-.558-.191-.926-.191-.342 0-.644.059-.903.177a1.563 1.563 0 0 0-.602.462 1.015 1.015 0 0 0-.213.617h-1.359c0-.284.073-.565.22-.844.147-.279.358-.532.632-.757.279-.23.612-.411.999-.543a3.938 3.938 0 0 1 1.307-.206c.578 0 1.087.098 1.528.294.445.196.793.492 1.043.889.254.391.382.883.382 1.476v3.701c0 .265.022.546.066.845.049.299.12.556.213.771v.118h-1.418a2.562 2.562 0 0 1-.161-.625 4.917 4.917 0 0 1-.059-.734Zm.235-3.459.015.954h-1.374c-.387 0-.732.032-1.035.096a2.352 2.352 0 0 0-.764.272 1.279 1.279 0 0 0-.47.462 1.229 1.229 0 0 0-.162.639c0 .25.056.478.169.683.113.206.282.37.507.492.23.118.511.177.844.177.417 0 .784-.088 1.102-.265.318-.176.571-.391.757-.646.191-.255.293-.502.308-.742l.58.654a1.962 1.962 0 0 1-.279.683 3.277 3.277 0 0 1-1.505 1.285 2.92 2.92 0 0 1-1.161.221c-.538 0-1.011-.106-1.417-.316a2.419 2.419 0 0 1-.94-.845 2.228 2.228 0 0 1-.331-1.197c0-.426.083-.801.25-1.124.166-.328.406-.6.72-.815.313-.22.69-.387 1.131-.499a5.94 5.94 0 0 1 1.476-.169h1.579Zm11.677 3.459v-4.091a1.65 1.65 0 0 0-.191-.815 1.25 1.25 0 0 0-.558-.544c-.249-.127-.558-.191-.925-.191-.343 0-.644.059-.903.177a1.567 1.567 0 0 0-.603.462 1.015 1.015 0 0 0-.213.617h-1.358c0-.284.073-.565.22-.844.147-.279.357-.532.632-.757.279-.23.612-.411.998-.543a3.944 3.944 0 0 1 1.308-.206c.577 0 1.087.098 1.527.294.446.196.794.492 1.043.889.255.391.382.883.382 1.476v3.701c0 .265.022.546.066.845.049.299.12.556.213.771v.118h-1.417a2.513 2.513 0 0 1-.162-.625 5.053 5.053 0 0 1-.059-.734Zm.235-3.459.015.954h-1.373c-.387 0-.732.032-1.036.096a2.37 2.37 0 0 0-.764.272 1.294 1.294 0 0 0-.47.462 1.238 1.238 0 0 0-.161.639c0 .25.056.478.169.683.112.206.281.37.506.492.231.118.512.177.845.177.416 0 .783-.088 1.102-.265.318-.176.57-.391.756-.646.191-.255.294-.502.309-.742l.58.654a1.962 1.962 0 0 1-.279.683 3.298 3.298 0 0 1-1.506 1.285 2.916 2.916 0 0 1-1.16.221c-.539 0-1.011-.106-1.418-.316a2.426 2.426 0 0 1-.94-.845 2.236 2.236 0 0 1-.33-1.197c0-.426.083-.801.249-1.124.167-.328.407-.6.72-.815.314-.22.691-.387 1.131-.499a5.95 5.95 0 0 1 1.476-.169h1.579Zm7.646-5.876h1.373l3.504 8.718 3.496-8.718h1.38l-4.348 10.694h-1.072l-4.333-10.694Zm-.448 0h1.212l.198 6.522v4.172h-1.41v-10.694Zm9.43 0h1.212v10.694h-1.41v-4.172l.198-6.522Zm4.972 2.747v7.947h-1.366v-7.947h1.366Zm-1.469-2.108c0-.22.067-.406.199-.558.137-.152.338-.228.602-.228.26 0 .458.076.595.228a.787.787 0 0 1 .213.558.769.769 0 0 1-.213.544c-.137.147-.335.22-.595.22-.264 0-.465-.073-.602-.22a.802.802 0 0 1-.199-.544Zm5.009 3.805v6.25h-1.358v-7.947h1.285l.073 1.697Zm-.323 1.975-.565-.022a4.771 4.771 0 0 1 .242-1.505c.157-.466.377-.87.661-1.212a2.94 2.94 0 0 1 1.014-.793 2.985 2.985 0 0 1 1.314-.287c.392 0 .744.054 1.058.162.313.102.58.269.8.499.226.23.397.529.514.896.118.362.177.806.177 1.329v5.208h-1.366v-5.222c0-.416-.062-.749-.184-.999a1.127 1.127 0 0 0-.536-.551c-.235-.117-.524-.176-.867-.176-.338 0-.646.071-.925.213a2.228 2.228 0 0 0-.713.587 2.97 2.97 0 0 0-.462.86 3.13 3.13 0 0 0-.162 1.013Zm12.287 2.732v-9.738h1.366v11.281h-1.248l-.118-1.543Zm-5.346-2.343v-.154c0-.607.073-1.158.22-1.652.152-.5.365-.928.639-1.286a2.9 2.9 0 0 1 .991-.822 2.82 2.82 0 0 1 1.293-.294c.499 0 .935.088 1.307.264.377.172.696.424.955.757.265.328.473.725.624 1.19a7.5 7.5 0 0 1 .316 1.579v.675a6.908 6.908 0 0 1-.316 1.572 3.682 3.682 0 0 1-.624 1.19c-.259.328-.578.58-.955.756-.377.172-.817.258-1.322.258-.465 0-.891-.101-1.278-.302a3.016 3.016 0 0 1-.991-.844 4.14 4.14 0 0 1-.639-1.278 5.628 5.628 0 0 1-.22-1.609Zm1.366-.154v.154c0 .397.039.769.117 1.117.083.347.211.653.382.918.171.264.389.472.654.624.264.147.58.22.947.22.451 0 .82-.095 1.109-.286.294-.191.529-.443.705-.756.177-.314.314-.654.412-1.021v-1.77a3.911 3.911 0 0 0-.258-.779 2.397 2.397 0 0 0-.425-.676 1.868 1.868 0 0 0-.639-.477 2.08 2.08 0 0 0-.889-.176c-.372 0-.693.078-.962.235a1.87 1.87 0 0 0-.654.631 2.929 2.929 0 0 0-.382.926c-.078.347-.117.72-.117 1.116Zm17.097 1.337c0-.25-.039-.47-.117-.661a1.266 1.266 0 0 0-.397-.529c-.186-.157-.445-.306-.778-.448a10.848 10.848 0 0 0-1.249-.433 11.512 11.512 0 0 1-1.432-.522 4.981 4.981 0 0 1-1.094-.668 2.642 2.642 0 0 1-.698-.859 2.455 2.455 0 0 1-.242-1.109c0-.417.085-.801.257-1.153.171-.353.416-.659.734-.918.323-.265.708-.47 1.153-.617a4.745 4.745 0 0 1 1.491-.221c.803 0 1.484.155 2.042.463.563.304.991.703 1.285 1.197.294.49.441 1.014.441 1.572h-1.41c0-.402-.086-.757-.257-1.065a1.78 1.78 0 0 0-.779-.735c-.347-.181-.788-.271-1.322-.271-.504 0-.92.076-1.248.227-.328.152-.573.358-.735.617-.156.26-.235.556-.235.889 0 .225.047.431.14.617.098.181.247.35.448.507.205.156.465.301.778.433.319.132.698.259 1.139.382a9.81 9.81 0 0 1 1.571.573 4.3 4.3 0 0 1 1.087.712c.289.26.502.556.639.889.142.328.213.7.213 1.116 0 .436-.088.83-.264 1.183a2.577 2.577 0 0 1-.757.903c-.328.25-.722.443-1.182.58a5.481 5.481 0 0 1-1.528.199c-.494 0-.981-.069-1.461-.206a4.361 4.361 0 0 1-1.3-.617 3.225 3.225 0 0 1-.933-1.014c-.23-.406-.345-.876-.345-1.41h1.41c0 .368.071.683.213.948.142.259.335.475.58.646.25.171.531.299.845.382.318.078.649.117.991.117.495 0 .913-.068 1.256-.205.343-.137.602-.333.779-.588.181-.254.271-.555.271-.903Zm7.712 1.344v-4.091c0-.313-.064-.585-.191-.815a1.25 1.25 0 0 0-.558-.544c-.25-.127-.558-.191-.925-.191-.343 0-.644.059-.904.177a1.57 1.57 0 0 0-.602.462 1.015 1.015 0 0 0-.213.617h-1.359c0-.284.074-.565.221-.844.146-.279.357-.532.631-.757.279-.23.612-.411.999-.543a3.938 3.938 0 0 1 1.307-.206c.578 0 1.087.098 1.528.294.446.196.793.492 1.043.889.254.391.382.883.382 1.476v3.701c0 .265.022.546.066.845.049.299.12.556.213.771v.118h-1.418a2.562 2.562 0 0 1-.161-.625 5.053 5.053 0 0 1-.059-.734Zm.235-3.459.015.954h-1.374c-.386 0-.732.032-1.035.096a2.36 2.36 0 0 0-.764.272 1.287 1.287 0 0 0-.47.462 1.229 1.229 0 0 0-.162.639c0 .25.057.478.169.683.113.206.282.37.507.492.23.118.512.177.845.177.416 0 .783-.088 1.101-.265.319-.176.571-.391.757-.646.191-.255.294-.502.308-.742l.58.654a1.962 1.962 0 0 1-.279.683 3.25 3.25 0 0 1-.609.72c-.25.225-.549.413-.896.565a2.92 2.92 0 0 1-1.161.221c-.538 0-1.011-.106-1.417-.316a2.419 2.419 0 0 1-.94-.845 2.228 2.228 0 0 1-.331-1.197c0-.426.084-.801.25-1.124.166-.328.406-.6.72-.815.313-.22.69-.387 1.131-.499.44-.113.933-.169 1.476-.169h1.579Zm5.288 4.818h-1.359v-8.784c0-.573.103-1.055.309-1.447.21-.397.511-.695.903-.896.392-.206.857-.309 1.396-.309.156 0 .313.01.47.03.161.019.318.049.47.088l-.074 1.109a2.209 2.209 0 0 0-.352-.052 5.44 5.44 0 0 0-.382-.014c-.289 0-.539.059-.749.176a1.104 1.104 0 0 0-.47.499c-.108.221-.162.493-.162.816v8.784Zm1.689-7.947v1.043h-4.304v-1.043h4.304Zm4.635 8.094a3.908 3.908 0 0 1-1.506-.28 3.403 3.403 0 0 1-1.153-.8 3.578 3.578 0 0 1-.735-1.219 4.48 4.48 0 0 1-.257-1.543v-.308c0-.646.096-1.222.287-1.726.191-.509.45-.94.778-1.293a3.342 3.342 0 0 1 1.117-.8 3.208 3.208 0 0 1 1.292-.272c.568 0 1.058.098 1.469.294.416.196.757.47 1.021.822.264.348.46.759.588 1.234.127.47.191.984.191 1.543v.609h-5.935v-1.109h4.576v-.103a3.412 3.412 0 0 0-.22-1.028 1.852 1.852 0 0 0-.588-.822c-.269-.216-.637-.324-1.102-.324a1.856 1.856 0 0 0-1.52.772c-.186.254-.33.565-.433.932a4.725 4.725 0 0 0-.155 1.271v.308c0 .377.052.732.155 1.065.107.328.262.617.462.867.206.25.453.446.742.588.294.142.627.213.999.213.48 0 .886-.098 1.219-.294.333-.196.624-.458.874-.786l.823.654c-.172.259-.39.506-.654.741s-.59.426-.977.573c-.382.147-.835.221-1.358.221Zm5.912-1.763v1.094c0 .446-.113.916-.338 1.41-.225.5-.541.916-.947 1.249l-.772-.536c.157-.216.289-.436.397-.661.108-.221.188-.451.242-.691.059-.235.088-.484.088-.749v-1.116h1.33Zm8.644.646c.323 0 .622-.066.896-.198s.5-.314.676-.544c.176-.235.277-.501.301-.8h1.293c-.025.47-.184.908-.478 1.314a3.247 3.247 0 0 1-1.138.977c-.47.245-.987.368-1.55.368-.597 0-1.119-.106-1.564-.316a3.11 3.11 0 0 1-1.102-.867 3.868 3.868 0 0 1-.654-1.263 5.368 5.368 0 0 1-.212-1.52v-.309c0-.534.071-1.038.212-1.513.147-.48.365-.903.654-1.27a3.087 3.087 0 0 1 1.102-.867c.445-.211.967-.316 1.564-.316.622 0 1.165.127 1.631.382a2.8 2.8 0 0 1 1.094 1.028c.269.431.416.921.441 1.469h-1.293a1.962 1.962 0 0 0-.279-.889 1.74 1.74 0 0 0-.646-.631 1.807 1.807 0 0 0-.948-.243c-.416 0-.766.084-1.05.25a1.84 1.84 0 0 0-.668.661 3.06 3.06 0 0 0-.353.918 5.016 5.016 0 0 0-.103 1.021v.309c0 .347.034.69.103 1.028.069.338.184.644.345.918.167.274.389.494.669.661.284.161.636.242 1.057.242Zm4.333-2.916v-.168c0-.573.084-1.105.25-1.594.167-.495.406-.923.72-1.285a3.194 3.194 0 0 1 1.138-.852 3.53 3.53 0 0 1 1.498-.309c.559 0 1.061.103 1.506.309.451.2.832.484 1.146.852.318.362.56.79.727 1.285.166.489.25 1.021.25 1.594v.168c0 .573-.084 1.105-.25 1.594a3.82 3.82 0 0 1-.727 1.285 3.319 3.319 0 0 1-1.139.852c-.44.201-.94.302-1.498.302s-1.06-.101-1.505-.302a3.384 3.384 0 0 1-1.146-.852 3.873 3.873 0 0 1-.72-1.285 4.932 4.932 0 0 1-.25-1.594Zm1.359-.168v.168c0 .397.047.772.14 1.124.093.348.232.656.418.926.191.269.429.482.713.638.284.152.614.228.991.228.372 0 .698-.076.977-.228.284-.156.519-.369.705-.638.186-.27.326-.578.419-.926.098-.352.147-.727.147-1.124v-.168c0-.392-.049-.762-.147-1.109a2.848 2.848 0 0 0-.426-.933 2.03 2.03 0 0 0-.705-.647 1.988 1.988 0 0 0-.985-.235c-.372 0-.7.079-.984.235a2.122 2.122 0 0 0-.705.647c-.186.269-.325.58-.418.933a4.27 4.27 0 0 0-.14 1.109Zm8.931-2.314v6.368h-1.366v-7.947h1.292l.074 1.579Zm-.279 2.093-.632-.022a5.432 5.432 0 0 1 .213-1.505c.137-.466.34-.87.61-1.212a2.698 2.698 0 0 1 1.006-.793c.401-.191.867-.287 1.395-.287.372 0 .715.054 1.029.162.313.102.585.267.815.492.23.225.409.514.536.866.127.353.191.779.191 1.278v5.296h-1.359v-5.23c0-.416-.071-.749-.213-.998a1.22 1.22 0 0 0-.587-.544 2.132 2.132 0 0 0-.896-.176c-.402 0-.737.071-1.007.213a1.708 1.708 0 0 0-.646.587c-.161.25-.279.537-.352.86a4.772 4.772 0 0 0-.103 1.013Zm5.148-.749-.911.279c.005-.436.076-.854.213-1.256.142-.401.346-.759.61-1.072.269-.313.6-.561.992-.742.391-.186.839-.279 1.344-.279.426 0 .803.056 1.131.169.333.113.612.286.837.521.23.231.404.527.521.889.118.362.177.793.177 1.293v5.222h-1.366v-5.237c0-.445-.071-.791-.213-1.035a1.113 1.113 0 0 0-.588-.522 2.345 2.345 0 0 0-.896-.154c-.299 0-.563.051-.793.154-.23.103-.424.245-.58.426a1.841 1.841 0 0 0-.36.61c-.079.23-.118.475-.118.734Zm6.61 1.138v-.168c0-.573.083-1.105.25-1.594a3.76 3.76 0 0 1 .72-1.285 3.185 3.185 0 0 1 1.138-.852 3.53 3.53 0 0 1 1.498-.309c.558 0 1.06.103 1.506.309.45.2.832.484 1.146.852.318.362.56.79.727 1.285.166.489.249 1.021.249 1.594v.168c0 .573-.083 1.105-.249 1.594a3.82 3.82 0 0 1-.727 1.285 3.319 3.319 0 0 1-1.139.852c-.44.201-.94.302-1.498.302s-1.06-.101-1.506-.302a3.39 3.39 0 0 1-1.145-.852 3.856 3.856 0 0 1-.72-1.285 4.905 4.905 0 0 1-.25-1.594Zm1.359-.168v.168c0 .397.046.772.139 1.124.093.348.233.656.419.926.191.269.428.482.712.638.284.152.615.228.992.228.372 0 .698-.076.977-.228.284-.156.519-.369.705-.638.186-.27.325-.578.418-.926.098-.352.147-.727.147-1.124v-.168c0-.392-.049-.762-.147-1.109a2.848 2.848 0 0 0-.426-.933 2.03 2.03 0 0 0-.705-.647 1.984 1.984 0 0 0-.984-.235c-.372 0-.7.079-.984.235a2.122 2.122 0 0 0-.705.647c-.186.269-.326.58-.419.933a4.27 4.27 0 0 0-.139 1.109Zm-220.78 18.635v9.474h-1.366v-11.002h1.248l.118 1.528Zm5.354 2.379v.154c0 .578-.069 1.114-.206 1.609a3.953 3.953 0 0 1-.602 1.278c-.259.362-.58.644-.962.844-.382.201-.82.302-1.315.302-.504 0-.949-.084-1.336-.25a2.64 2.64 0 0 1-.984-.727c-.27-.319-.485-.7-.647-1.146a6.68 6.68 0 0 1-.323-1.506v-.822a6.892 6.892 0 0 1 .331-1.579 3.91 3.91 0 0 1 .639-1.19c.269-.333.594-.585.976-.757.382-.176.823-.264 1.322-.264.5 0 .943.098 1.33.294.387.191.712.465.977.822.264.358.462.786.594 1.286.137.494.206 1.045.206 1.652Zm-1.366.154v-.154c0-.396-.042-.769-.125-1.116a2.826 2.826 0 0 0-.389-.926 1.856 1.856 0 0 0-.661-.631c-.269-.157-.59-.235-.962-.235-.343 0-.642.059-.896.176-.25.118-.463.277-.639.477a2.566 2.566 0 0 0-.434.676c-.107.25-.188.509-.242.779v1.902c.098.343.235.666.411.969.177.299.412.541.705.727.294.182.664.272 1.109.272.368 0 .683-.076.948-.228.269-.156.49-.369.661-.638a2.92 2.92 0 0 0 .389-.926c.083-.352.125-.727.125-1.124Zm2.739 0v-.168c0-.573.084-1.105.25-1.594.167-.495.407-.923.72-1.285a3.194 3.194 0 0 1 1.138-.852 3.531 3.531 0 0 1 1.499-.309c.558 0 1.06.103 1.505.309.451.2.833.484 1.146.852.318.362.56.79.727 1.285.166.489.25 1.021.25 1.594v.168c0 .573-.084 1.105-.25 1.594a3.82 3.82 0 0 1-.727 1.285 3.31 3.31 0 0 1-1.139.852c-.44.201-.94.302-1.498.302s-1.06-.101-1.505-.302a3.384 3.384 0 0 1-1.146-.852 3.891 3.891 0 0 1-.72-1.285 4.932 4.932 0 0 1-.25-1.594Zm1.359-.168v.168c0 .397.047.772.14 1.124.093.348.232.656.418.926.191.269.429.482.713.638.284.152.614.228.991.228.372 0 .698-.076.977-.228.284-.156.519-.369.705-.638.186-.27.326-.578.419-.926.098-.352.147-.727.147-1.124v-.168c0-.392-.049-.762-.147-1.109a2.848 2.848 0 0 0-.426-.933 2.03 2.03 0 0 0-.705-.647 1.984 1.984 0 0 0-.984-.235c-.373 0-.701.079-.985.235a2.122 2.122 0 0 0-.705.647c-.186.269-.325.58-.418.933a4.27 4.27 0 0 0-.14 1.109Zm12.588 2.511v-9.738h1.367v11.281h-1.249l-.118-1.543Zm-5.346-2.343v-.154c0-.607.073-1.158.22-1.652.152-.5.365-.928.639-1.286a2.813 2.813 0 0 1 2.284-1.116c.5 0 .935.088 1.307.264.377.172.696.424.955.757.265.328.473.725.624 1.19.152.465.258.991.316 1.579v.675a6.908 6.908 0 0 1-.316 1.572 3.682 3.682 0 0 1-.624 1.19c-.259.328-.578.58-.955.756-.377.172-.817.258-1.322.258-.465 0-.891-.101-1.277-.302a3.01 3.01 0 0 1-.992-.844 4.14 4.14 0 0 1-.639-1.278 5.628 5.628 0 0 1-.22-1.609Zm1.366-.154v.154c0 .397.039.769.117 1.117.084.347.211.653.382.918.172.264.389.472.654.624.264.147.58.22.947.22.451 0 .82-.095 1.109-.286.294-.191.529-.443.705-.756.177-.314.314-.654.412-1.021v-1.77a3.974 3.974 0 0 0-.257-.779 2.422 2.422 0 0 0-.426-.676 1.868 1.868 0 0 0-.639-.477 2.08 2.08 0 0 0-.889-.176c-.372 0-.693.078-.962.235a1.878 1.878 0 0 0-.654.631 2.952 2.952 0 0 0-.382.926c-.078.347-.117.72-.117 1.116Zm10.759 4.187a3.906 3.906 0 0 1-1.505-.28 3.403 3.403 0 0 1-1.153-.8 3.562 3.562 0 0 1-.735-1.219 4.48 4.48 0 0 1-.257-1.543v-.308c0-.646.096-1.222.287-1.726.191-.509.45-.94.778-1.293.328-.352.7-.619 1.116-.8a3.216 3.216 0 0 1 1.293-.272c.568 0 1.058.098 1.469.294.416.196.756.47 1.021.822.264.348.46.759.587 1.234.128.47.191.984.191 1.543v.609h-5.934v-1.109h4.576v-.103a3.384 3.384 0 0 0-.221-1.028 1.842 1.842 0 0 0-.587-.822c-.27-.216-.637-.324-1.102-.324a1.856 1.856 0 0 0-1.52.772 2.882 2.882 0 0 0-.434.932 4.768 4.768 0 0 0-.154 1.271v.308c0 .377.052.732.154 1.065.108.328.262.617.463.867.206.25.453.446.742.588.294.142.627.213.999.213.48 0 .886-.098 1.219-.294.333-.196.624-.458.874-.786l.823.654c-.172.259-.39.506-.654.741-.265.235-.59.426-.977.573-.382.147-.835.221-1.359.221Zm6.03-6.515v6.368h-1.366v-7.947h1.293l.073 1.579Zm-.279 2.093-.632-.022a5.432 5.432 0 0 1 .213-1.505c.137-.466.341-.87.61-1.212a2.706 2.706 0 0 1 1.006-.793c.402-.191.867-.287 1.396-.287.372 0 .714.054 1.028.162.313.102.585.267.815.492.23.225.409.514.536.866.127.353.191.779.191 1.278v5.296h-1.359v-5.23c0-.416-.071-.749-.213-.998a1.22 1.22 0 0 0-.587-.544 2.128 2.128 0 0 0-.896-.176c-.402 0-.737.071-1.006.213-.27.142-.485.338-.647.587-.161.25-.279.537-.352.86a4.772 4.772 0 0 0-.103 1.013Zm5.148-.749-.91.279c.005-.436.076-.854.213-1.256.142-.401.345-.759.609-1.072.27-.313.6-.561.992-.742.391-.186.839-.279 1.344-.279.426 0 .803.056 1.131.169.333.113.612.286.837.521.23.231.404.527.522.889.117.362.176.793.176 1.293v5.222h-1.366v-5.237c0-.445-.071-.791-.213-1.035a1.11 1.11 0 0 0-.588-.522 2.341 2.341 0 0 0-.896-.154c-.298 0-.563.051-.793.154-.23.103-.424.245-.58.426a1.841 1.841 0 0 0-.36.61c-.078.23-.118.475-.118.734Zm6.61 1.138v-.168c0-.573.084-1.105.25-1.594.167-.495.406-.923.72-1.285a3.194 3.194 0 0 1 1.138-.852 3.53 3.53 0 0 1 1.498-.309c.559 0 1.061.103 1.506.309.451.2.832.484 1.146.852.318.362.56.79.727 1.285.166.489.25 1.021.25 1.594v.168c0 .573-.084 1.105-.25 1.594a3.82 3.82 0 0 1-.727 1.285 3.319 3.319 0 0 1-1.139.852c-.44.201-.94.302-1.498.302s-1.06-.101-1.505-.302a3.384 3.384 0 0 1-1.146-.852 3.873 3.873 0 0 1-.72-1.285 4.932 4.932 0 0 1-.25-1.594Zm1.359-.168v.168c0 .397.047.772.14 1.124.093.348.232.656.418.926.191.269.429.482.713.638.284.152.614.228.991.228.372 0 .698-.076.977-.228.284-.156.519-.369.705-.638.186-.27.326-.578.419-.926.098-.352.147-.727.147-1.124v-.168c0-.392-.049-.762-.147-1.109a2.848 2.848 0 0 0-.426-.933 2.03 2.03 0 0 0-.705-.647 1.988 1.988 0 0 0-.985-.235c-.372 0-.7.079-.984.235a2.122 2.122 0 0 0-.705.647c-.186.269-.325.58-.418.933a4.27 4.27 0 0 0-.14 1.109Zm12.206 1.946c0-.196-.044-.377-.132-.544-.083-.171-.257-.325-.521-.462-.26-.142-.651-.265-1.175-.368a9.32 9.32 0 0 1-1.197-.33 3.628 3.628 0 0 1-.904-.463 1.932 1.932 0 0 1-.565-.639 1.783 1.783 0 0 1-.199-.859c0-.313.069-.61.206-.889.142-.279.34-.526.595-.742a2.88 2.88 0 0 1 .933-.506 3.752 3.752 0 0 1 1.212-.184c.636 0 1.18.113 1.63.338.45.225.796.526 1.036.903.239.372.359.786.359 1.242h-1.358c0-.221-.066-.434-.199-.639a1.455 1.455 0 0 0-.565-.522c-.245-.137-.546-.206-.903-.206-.378 0-.684.059-.919.177a1.17 1.17 0 0 0-.506.433 1.088 1.088 0 0 0-.081.955.883.883 0 0 0 .279.316c.132.093.318.181.558.264.24.083.546.166.918.25.651.147 1.188.323 1.609.529.421.205.734.457.94.756.205.299.308.661.308 1.087 0 .348-.073.666-.22.955a2.12 2.12 0 0 1-.624.749c-.27.205-.593.367-.97.485a4.353 4.353 0 0 1-1.256.169c-.7 0-1.292-.125-1.777-.375-.485-.25-.852-.573-1.102-.97a2.322 2.322 0 0 1-.374-1.255h1.366c.019.372.127.668.323.888.196.216.436.37.72.463.284.088.565.132.844.132.372 0 .683-.049.933-.147.255-.098.448-.232.58-.404a.935.935 0 0 0 .198-.587Zm10.202-5.839v1.043h-4.297v-1.043h4.297Zm-2.842-1.932h1.358v7.91c0 .27.042.473.125.61a.597.597 0 0 0 .323.272c.132.044.274.066.426.066.113 0 .23-.01.353-.03.127-.024.223-.044.286-.058l.008 1.109a3.19 3.19 0 0 1-.426.095c-.172.034-.38.052-.625.052a2.12 2.12 0 0 1-.918-.199 1.47 1.47 0 0 1-.668-.661c-.162-.313-.242-.734-.242-1.263v-7.903Zm7.733 10.026a3.906 3.906 0 0 1-1.505-.28 3.403 3.403 0 0 1-1.153-.8 3.547 3.547 0 0 1-.735-1.219 4.48 4.48 0 0 1-.257-1.543v-.308c0-.646.096-1.222.286-1.726.191-.509.451-.94.779-1.293.328-.352.7-.619 1.116-.8a3.213 3.213 0 0 1 1.293-.272c.568 0 1.058.098 1.469.294.416.196.756.47 1.021.822.264.348.46.759.587 1.234.128.47.191.984.191 1.543v.609h-5.934v-1.109h4.575v-.103a3.382 3.382 0 0 0-.22-1.028 1.842 1.842 0 0 0-.587-.822c-.27-.216-.637-.324-1.102-.324a1.85 1.85 0 0 0-1.52.772 2.882 2.882 0 0 0-.434.932 4.768 4.768 0 0 0-.154 1.271v.308c0 .377.052.732.154 1.065.108.328.262.617.463.867.206.25.453.446.742.588.294.142.627.213.999.213.479 0 .886-.098 1.219-.294.333-.196.624-.458.874-.786l.822.654a3.809 3.809 0 0 1-.653.741c-.265.235-.59.426-.977.573-.382.147-.835.221-1.359.221Zm13.095-1.506v-4.091a1.65 1.65 0 0 0-.191-.815 1.25 1.25 0 0 0-.558-.544c-.25-.127-.558-.191-.925-.191-.343 0-.644.059-.904.177a1.57 1.57 0 0 0-.602.462 1.015 1.015 0 0 0-.213.617h-1.359c0-.284.074-.565.221-.844.147-.279.357-.532.631-.757.279-.23.612-.411.999-.543a3.944 3.944 0 0 1 1.308-.206c.577 0 1.086.098 1.527.294.446.196.793.492 1.043.889.255.391.382.883.382 1.476v3.701c0 .265.022.546.066.845.049.299.12.556.213.771v.118h-1.417a2.513 2.513 0 0 1-.162-.625 5.053 5.053 0 0 1-.059-.734Zm.235-3.459.015.954h-1.373c-.387 0-.732.032-1.036.096a2.36 2.36 0 0 0-.764.272 1.294 1.294 0 0 0-.47.462 1.228 1.228 0 0 0-.161.639c0 .25.056.478.168.683.113.206.282.37.507.492.23.118.512.177.845.177.416 0 .783-.088 1.102-.265.318-.176.57-.391.756-.646.191-.255.294-.502.308-.742l.581.654a2.002 2.002 0 0 1-.279.683 3.298 3.298 0 0 1-1.506 1.285c-.343.147-.73.221-1.16.221-.539 0-1.012-.106-1.418-.316a2.426 2.426 0 0 1-.94-.845 2.236 2.236 0 0 1-.33-1.197c0-.426.083-.801.249-1.124.167-.328.407-.6.72-.815.313-.22.69-.387 1.131-.499a5.95 5.95 0 0 1 1.476-.169h1.579Zm3.298-3.129h1.366v8.894c0 .485-.078.896-.235 1.234a1.598 1.598 0 0 1-.69.764c-.304.176-.688.264-1.153.264a2.81 2.81 0 0 1-.426-.037 2.777 2.777 0 0 1-.419-.088l.007-1.094c.093.02.199.034.316.044.118.015.22.022.309.022.2 0 .369-.037.506-.11a.692.692 0 0 0 .309-.353c.073-.161.11-.377.11-.646v-8.894Zm-.14-2.108c0-.22.069-.406.206-.558.137-.152.335-.228.595-.228.264 0 .465.076.602.228a.804.804 0 0 1 .206.558.785.785 0 0 1-.206.544c-.137.147-.338.22-.602.22-.26 0-.458-.073-.595-.22a.785.785 0 0 1-.206-.544Zm8.564 8.219v-6.111h1.366v7.947h-1.3l-.066-1.836Zm.257-1.675.566-.015c0 .529-.057 1.019-.169 1.469a3.155 3.155 0 0 1-.529 1.161 2.506 2.506 0 0 1-.962.771c-.397.181-.879.272-1.447.272-.387 0-.742-.057-1.065-.169a2.137 2.137 0 0 1-.823-.522 2.37 2.37 0 0 1-.536-.918c-.122-.377-.183-.83-.183-1.359v-5.126h1.358v5.141c0 .357.039.654.118.889.083.23.193.413.33.551.142.132.299.225.47.279.177.054.358.08.544.08.578 0 1.035-.11 1.373-.33.338-.225.58-.526.727-.903.152-.382.228-.806.228-1.271Zm8.189 1.968v-9.738h1.366v11.281h-1.248l-.118-1.543Zm-5.347-2.343v-.154c0-.607.074-1.158.221-1.652.151-.5.364-.928.639-1.286.279-.357.609-.631.991-.822a2.82 2.82 0 0 1 1.293-.294c.499 0 .935.088 1.307.264.377.172.695.424.955.757.264.328.472.725.624 1.19a7.5 7.5 0 0 1 .316 1.579v.675a6.908 6.908 0 0 1-.316 1.572c-.152.465-.36.862-.624 1.19-.26.328-.578.58-.955.756-.377.172-.818.258-1.322.258-.465 0-.891-.101-1.278-.302a3.006 3.006 0 0 1-.991-.844 4.097 4.097 0 0 1-.639-1.278 5.628 5.628 0 0 1-.221-1.609Zm1.366-.154v.154c0 .397.04.769.118 1.117.083.347.21.653.382.918a1.9 1.9 0 0 0 .653.624c.265.147.581.22.948.22.45 0 .82-.095 1.109-.286.294-.191.529-.443.705-.756.176-.314.313-.654.411-1.021v-1.77a3.908 3.908 0 0 0-.257-.779 2.422 2.422 0 0 0-.426-.676 1.849 1.849 0 0 0-.639-.477 2.078 2.078 0 0 0-.888-.176c-.373 0-.693.078-.963.235a1.875 1.875 0 0 0-.653.631 2.906 2.906 0 0 0-.382.926c-.078.347-.118.72-.118 1.116Zm12.148 2.681v-4.091c0-.313-.064-.585-.191-.815a1.25 1.25 0 0 0-.558-.544c-.25-.127-.558-.191-.926-.191-.342 0-.643.059-.903.177a1.563 1.563 0 0 0-.602.462 1.015 1.015 0 0 0-.213.617h-1.359c0-.284.074-.565.22-.844.147-.279.358-.532.632-.757.279-.23.612-.411.999-.543a3.938 3.938 0 0 1 1.307-.206c.578 0 1.087.098 1.528.294.445.196.793.492 1.043.889.254.391.382.883.382 1.476v3.701c0 .265.022.546.066.845.049.299.12.556.213.771v.118h-1.418a2.562 2.562 0 0 1-.161-.625 5.053 5.053 0 0 1-.059-.734Zm.235-3.459.015.954h-1.374c-.387 0-.732.032-1.035.096a2.36 2.36 0 0 0-.764.272 1.287 1.287 0 0 0-.47.462 1.229 1.229 0 0 0-.162.639c0 .25.057.478.169.683.113.206.282.37.507.492.23.118.512.177.845.177.416 0 .783-.088 1.101-.265.318-.176.571-.391.757-.646.191-.255.293-.502.308-.742l.58.654a1.962 1.962 0 0 1-.279.683 3.277 3.277 0 0 1-1.505 1.285 2.92 2.92 0 0 1-1.161.221c-.538 0-1.011-.106-1.417-.316a2.419 2.419 0 0 1-.94-.845 2.228 2.228 0 0 1-.331-1.197c0-.426.083-.801.25-1.124.166-.328.406-.6.72-.815.313-.22.69-.387 1.131-.499a5.94 5.94 0 0 1 1.476-.169h1.579Zm4.62-1.88v6.698H312v-7.947h1.322l.037 1.249Zm2.482-1.293-.007 1.263a2.044 2.044 0 0 0-.323-.044 3.372 3.372 0 0 0-.338-.015c-.314 0-.59.049-.83.147-.24.098-.443.235-.61.412a1.962 1.962 0 0 0-.396.631 3.03 3.03 0 0 0-.184.793l-.382.221c0-.48.047-.931.14-1.352a3.67 3.67 0 0 1 .448-1.116c.2-.328.455-.583.763-.764.314-.186.686-.279 1.117-.279.098 0 .21.012.338.037a.961.961 0 0 1 .264.066Zm4.208 4.979h-1.366c.005-.47.047-.854.125-1.153.083-.303.218-.58.404-.83.186-.249.433-.533.742-.852.225-.23.431-.445.617-.646.191-.205.345-.426.463-.661.117-.24.176-.526.176-.859 0-.338-.061-.629-.184-.874a1.26 1.26 0 0 0-.529-.566c-.23-.132-.516-.198-.859-.198-.284 0-.553.051-.808.154-.254.103-.46.262-.617.478-.156.21-.237.487-.242.83h-1.359c.01-.554.147-1.029.411-1.425.27-.397.632-.7 1.087-.911a3.61 3.61 0 0 1 1.528-.316c.622 0 1.151.113 1.586.338a2.32 2.32 0 0 1 1.007.97c.23.416.345.91.345 1.483 0 .441-.091.847-.272 1.219a4.654 4.654 0 0 1-.683 1.036 11.93 11.93 0 0 1-.889.925c-.269.25-.45.532-.543.845-.093.313-.14.651-.14 1.013Zm-1.424 2.329c0-.221.068-.407.205-.559.137-.151.336-.227.595-.227.264 0 .465.076.602.227a.804.804 0 0 1 .206.559c0 .21-.069.391-.206.543-.137.152-.338.228-.602.228-.259 0-.458-.076-.595-.228a.783.783 0 0 1-.205-.543Z"/><path fill="#B6BCC3" d="M460.884 269.058v8.064h-1.019v-6.792l-2.055.749v-.92l2.914-1.101h.16Zm6.907.033h.088v.865h-.088c-.54 0-.991.088-1.355.264a2.231 2.231 0 0 0-.865.699 2.869 2.869 0 0 0-.462.981 4.5 4.5 0 0 0-.138 1.107v1.179c0 .356.042.672.127.947.084.272.2.502.347.689.146.187.312.329.495.424.188.095.382.143.584.143.235 0 .445-.044.628-.132.184-.092.338-.218.463-.38a1.75 1.75 0 0 0 .292-.584c.066-.224.099-.47.099-.738 0-.239-.029-.468-.088-.689a1.834 1.834 0 0 0-.27-.594 1.288 1.288 0 0 0-1.102-.568c-.283 0-.547.07-.793.209a1.809 1.809 0 0 0-.6.54 1.448 1.448 0 0 0-.265.722l-.54-.006c.052-.411.147-.762.287-1.052.143-.293.319-.532.529-.716.213-.187.45-.323.71-.407.265-.089.544-.133.837-.133.401 0 .746.076 1.036.226.29.151.529.353.716.606.187.25.325.533.413.848a3.4 3.4 0 0 1 .138.964c0 .379-.053.733-.16 1.063a2.505 2.505 0 0 1-.479.871c-.209.25-.468.444-.777.584a2.589 2.589 0 0 1-1.074.209c-.433 0-.811-.088-1.135-.264a2.437 2.437 0 0 1-.804-.716 3.281 3.281 0 0 1-.479-.992 3.941 3.941 0 0 1-.16-1.107v-.479c0-.566.057-1.12.171-1.664.114-.543.31-1.035.589-1.476a3.021 3.021 0 0 1 1.174-1.052c.499-.261 1.136-.391 1.911-.391Zm2.501 7.491a.62.62 0 0 1 .16-.435c.11-.121.268-.182.473-.182.206 0 .362.061.469.182a.61.61 0 0 1 .165.435.607.607 0 0 1-.165.43c-.107.117-.263.176-.469.176-.205 0-.363-.059-.473-.176a.616.616 0 0 1-.16-.43Zm.005-4.864c0-.172.054-.317.16-.435.11-.121.268-.182.474-.182.205 0 .362.061.468.182.11.118.165.263.165.435a.607.607 0 0 1-.165.43c-.106.117-.263.176-.468.176-.206 0-.364-.059-.474-.176a.62.62 0 0 1-.16-.43Zm7.695.755v1.223c0 .657-.058 1.211-.176 1.663-.117.452-.286.815-.507 1.091a1.93 1.93 0 0 1-.798.6 2.852 2.852 0 0 1-1.047.182 3.01 3.01 0 0 1-.854-.116c-.26-.077-.495-.2-.705-.369a2.218 2.218 0 0 1-.528-.672 3.589 3.589 0 0 1-.336-1.002 7.152 7.152 0 0 1-.116-1.377v-1.223c0-.658.059-1.208.176-1.653.121-.444.292-.8.512-1.068.221-.272.485-.467.794-.584a2.94 2.94 0 0 1 1.046-.176c.312 0 .599.038.859.115.265.074.5.193.706.358.205.162.38.379.523.65.147.268.259.597.336.986.077.39.115.847.115 1.372Zm-1.024 1.388v-1.559c0-.36-.022-.676-.066-.947a2.98 2.98 0 0 0-.182-.705 1.405 1.405 0 0 0-.308-.474 1.11 1.11 0 0 0-.425-.265 1.537 1.537 0 0 0-.534-.088c-.242 0-.457.046-.644.138a1.16 1.16 0 0 0-.474.424c-.125.195-.22.45-.286.766-.067.316-.1.699-.1 1.151v1.559c0 .36.021.677.061.953.044.275.108.514.193.716.084.198.187.362.308.49.121.129.261.224.419.287.161.058.34.088.534.088.25 0 .468-.048.656-.143a1.19 1.19 0 0 0 .468-.447 2.32 2.32 0 0 0 .286-.787c.063-.323.094-.709.094-1.157Zm7.37-1.388v1.223c0 .657-.059 1.211-.176 1.663-.118.452-.287.815-.507 1.091-.22.275-.487.475-.799.6a2.843 2.843 0 0 1-1.046.182c-.309 0-.593-.039-.854-.116a2.018 2.018 0 0 1-.705-.369 2.22 2.22 0 0 1-.529-.672 3.589 3.589 0 0 1-.336-1.002 7.232 7.232 0 0 1-.116-1.377v-1.223c0-.658.059-1.208.177-1.653.121-.444.292-.8.512-1.068a1.86 1.86 0 0 1 .793-.584 2.94 2.94 0 0 1 1.047-.176c.312 0 .598.038.859.115.264.074.499.193.705.358.206.162.38.379.523.65.147.268.259.597.336.986.077.39.116.847.116 1.372Zm-1.025 1.388v-1.559c0-.36-.022-.676-.066-.947a2.982 2.982 0 0 0-.181-.705 1.392 1.392 0 0 0-.309-.474 1.099 1.099 0 0 0-.424-.265 1.541 1.541 0 0 0-.534-.088c-.243 0-.457.046-.645.138-.187.088-.345.23-.473.424-.125.195-.221.45-.287.766a5.72 5.72 0 0 0-.099 1.151v1.559c0 .36.02.677.061.953.044.275.108.514.192.716.085.198.188.362.309.49.121.129.261.224.418.287.162.058.34.088.535.088.249 0 .468-.048.655-.143.188-.096.344-.245.468-.447a2.32 2.32 0 0 0 .287-.787 6.23 6.23 0 0 0 .093-1.157Z"/><mask id="e" fill="#fff"><path d="M141 487h455v83.045H141V487Z"/></mask><path fill="#D8DBDF" d="M141 487.94h455v-1.88H141v1.88Z" mask="url(#e)"/><rect width="318.688" height="52.023" x="164.032" y="502.511" stroke="#D8DBDF" stroke-width=".94" rx="26.011"/><path fill="#555C66" d="M191.573 523.329h1.374l3.503 8.718 3.496-8.718h1.381l-4.348 10.694h-1.072l-4.334-10.694Zm-.448 0h1.212l.199 6.522v4.172h-1.411v-10.694Zm9.431 0h1.212v10.694h-1.411v-4.172l.199-6.522Zm6.793 10.841a3.906 3.906 0 0 1-1.505-.279 3.405 3.405 0 0 1-1.153-.801 3.562 3.562 0 0 1-.735-1.219 4.48 4.48 0 0 1-.257-1.543v-.308c0-.646.096-1.222.287-1.726.19-.509.45-.94.778-1.293.328-.352.7-.619 1.116-.8a3.213 3.213 0 0 1 1.293-.272c.568 0 1.058.098 1.469.294.416.196.756.47 1.021.823.264.347.46.758.587 1.233.128.47.191.985.191 1.543v.609h-5.934v-1.109h4.576v-.103a3.414 3.414 0 0 0-.221-1.028 1.842 1.842 0 0 0-.587-.822c-.27-.216-.637-.323-1.102-.323-.308 0-.592.066-.852.198a1.81 1.81 0 0 0-.668.573 2.882 2.882 0 0 0-.434.932 4.768 4.768 0 0 0-.154 1.271v.308c0 .377.052.732.154 1.065.108.328.262.617.463.867.206.25.453.446.742.588.294.142.627.213.999.213.48 0 .886-.098 1.219-.294.333-.196.624-.458.874-.786l.822.654a3.809 3.809 0 0 1-.653.741c-.265.235-.59.426-.977.573-.382.147-.835.221-1.359.221Zm6.037-6.397v6.25h-1.358v-7.947h1.285l.073 1.697Zm-.323 1.975-.565-.022a4.771 4.771 0 0 1 .242-1.505c.157-.466.377-.869.661-1.212a2.94 2.94 0 0 1 1.014-.793 2.985 2.985 0 0 1 1.314-.287c.392 0 .744.054 1.058.162.313.103.58.269.8.499.226.23.397.529.514.896.118.363.177.806.177 1.33v5.207h-1.366v-5.222c0-.416-.062-.749-.184-.999a1.127 1.127 0 0 0-.536-.551c-.235-.117-.524-.176-.867-.176-.338 0-.646.071-.925.213a2.228 2.228 0 0 0-.713.587 2.97 2.97 0 0 0-.462.86 3.13 3.13 0 0 0-.162 1.013Zm11.905 2.167c0-.196-.044-.377-.132-.544-.083-.171-.257-.325-.521-.462-.26-.142-.651-.265-1.175-.368a9.32 9.32 0 0 1-1.197-.33 3.628 3.628 0 0 1-.904-.463 1.932 1.932 0 0 1-.565-.639 1.772 1.772 0 0 1-.199-.859c0-.313.069-.61.206-.889.142-.279.34-.526.595-.741.259-.216.57-.385.933-.507a3.75 3.75 0 0 1 1.211-.184c.637 0 1.18.113 1.631.338.45.225.796.526 1.036.903.239.372.359.786.359 1.242h-1.358c0-.221-.066-.434-.199-.639a1.455 1.455 0 0 0-.565-.522c-.245-.137-.546-.205-.904-.205-.377 0-.683.058-.918.176a1.17 1.17 0 0 0-.506.433 1.088 1.088 0 0 0-.081.955.883.883 0 0 0 .279.316c.132.093.318.181.558.264.24.083.546.167.918.25.651.147 1.188.323 1.609.529.421.205.734.457.94.756.205.299.308.661.308 1.087 0 .348-.073.666-.22.955a2.12 2.12 0 0 1-.624.749c-.27.206-.593.367-.97.485a4.353 4.353 0 0 1-1.256.169c-.7 0-1.292-.125-1.777-.375-.485-.25-.852-.573-1.102-.969a2.32 2.32 0 0 1-.374-1.256h1.366c.019.372.127.668.323.888.196.216.436.37.72.463.284.088.565.132.844.132.372 0 .683-.049.933-.147.255-.098.448-.232.58-.404a.935.935 0 0 0 .198-.587Zm7.83.749v-4.091c0-.313-.064-.585-.191-.815a1.258 1.258 0 0 0-.559-.544c-.249-.127-.558-.191-.925-.191-.343 0-.644.059-.903.177a1.577 1.577 0 0 0-.603.462 1.015 1.015 0 0 0-.213.617h-1.358c0-.284.073-.565.22-.844.147-.279.358-.531.632-.757.279-.23.612-.411.999-.543a3.934 3.934 0 0 1 1.307-.206c.578 0 1.087.098 1.527.294.446.196.794.492 1.043.889.255.391.382.883.382 1.476v3.701c0 .265.022.546.066.845.049.299.12.556.213.771v.118h-1.417a2.558 2.558 0 0 1-.162-.625 5.044 5.044 0 0 1-.058-.734Zm.235-3.459.014.955h-1.373c-.387 0-.732.031-1.036.095a2.355 2.355 0 0 0-.763.272 1.29 1.29 0 0 0-.471.462 1.238 1.238 0 0 0-.161.639c0 .25.056.478.169.683.112.206.281.37.507.493.23.117.511.176.844.176a2.23 2.23 0 0 0 1.102-.265c.318-.176.57-.391.756-.646.191-.255.294-.502.309-.742l.58.654a1.962 1.962 0 0 1-.279.683 3.283 3.283 0 0 1-1.506 1.285 2.912 2.912 0 0 1-1.16.221c-.539 0-1.011-.106-1.418-.316a2.433 2.433 0 0 1-.94-.845 2.236 2.236 0 0 1-.33-1.197c0-.426.083-.8.25-1.124a2.17 2.17 0 0 1 .719-.815c.314-.22.691-.387 1.131-.499a5.953 5.953 0 0 1 1.477-.169h1.579Zm8.409-3.129h1.234v7.778c0 .7-.142 1.297-.426 1.792a2.783 2.783 0 0 1-1.19 1.124c-.504.259-1.087.389-1.748.389-.274 0-.597-.044-.969-.132a3.91 3.91 0 0 1-1.087-.434 2.712 2.712 0 0 1-.889-.815l.712-.808c.333.402.681.681 1.043.837.367.157.73.235 1.087.235.431 0 .803-.08 1.117-.242.313-.162.555-.401.727-.72.176-.313.264-.7.264-1.16v-6.096l.125-1.748Zm-5.472 4.062v-.155c0-.607.071-1.158.213-1.652.147-.5.355-.928.625-1.285.274-.358.604-.632.991-.823a2.853 2.853 0 0 1 1.307-.294c.5 0 .936.088 1.308.265.377.171.695.423.954.756.265.328.473.725.625 1.19a7.5 7.5 0 0 1 .316 1.579v.676a6.965 6.965 0 0 1-.316 1.571c-.152.465-.36.862-.625 1.19-.259.328-.577.58-.954.757-.377.171-.818.257-1.322.257-.475 0-.906-.101-1.293-.302-.382-.2-.71-.482-.984-.844a4 4 0 0 1-.632-1.278 5.811 5.811 0 0 1-.213-1.608Zm1.359-.155v.155c0 .396.039.768.118 1.116.083.348.208.654.374.918.172.264.389.472.654.624.264.147.58.221.947.221.451 0 .823-.096 1.117-.287.293-.191.526-.443.697-.756.177-.314.314-.654.412-1.021v-1.77a3.649 3.649 0 0 0-.25-.779 2.403 2.403 0 0 0-.426-.675 1.84 1.84 0 0 0-.639-.478 2.128 2.128 0 0 0-.896-.176c-.372 0-.693.078-.962.235a1.872 1.872 0 0 0-.654.632 3.024 3.024 0 0 0-.374.925c-.079.348-.118.72-.118 1.116Zm10.708 4.187a3.906 3.906 0 0 1-1.505-.279 3.405 3.405 0 0 1-1.153-.801 3.547 3.547 0 0 1-.735-1.219 4.48 4.48 0 0 1-.257-1.543v-.308c0-.646.096-1.222.286-1.726.191-.509.451-.94.779-1.293.328-.352.7-.619 1.116-.8a3.213 3.213 0 0 1 1.293-.272c.568 0 1.058.098 1.469.294.416.196.756.47 1.021.823.264.347.46.758.587 1.233.128.47.191.985.191 1.543v.609h-5.934v-1.109h4.575v-.103a3.382 3.382 0 0 0-.22-1.028 1.842 1.842 0 0 0-.587-.822c-.27-.216-.637-.323-1.102-.323a1.849 1.849 0 0 0-1.52.771 2.882 2.882 0 0 0-.434.932 4.768 4.768 0 0 0-.154 1.271v.308c0 .377.052.732.154 1.065.108.328.262.617.463.867.206.25.453.446.742.588.294.142.627.213.999.213.479 0 .886-.098 1.219-.294.333-.196.624-.458.874-.786l.822.654a3.809 3.809 0 0 1-.653.741c-.265.235-.59.426-.977.573-.382.147-.835.221-1.359.221Zm6.03-6.515v6.368h-1.366v-7.947h1.293l.073 1.579Zm-.279 2.093-.632-.022a5.432 5.432 0 0 1 .213-1.505c.137-.466.341-.869.61-1.212a2.706 2.706 0 0 1 1.006-.793c.401-.191.867-.287 1.395-.287.373 0 .715.054 1.029.162.313.103.585.267.815.492.23.225.409.514.536.866.127.353.191.779.191 1.278v5.296h-1.359v-5.23c0-.416-.071-.749-.213-.998a1.22 1.22 0 0 0-.587-.544 2.132 2.132 0 0 0-.896-.176c-.402 0-.737.071-1.006.213-.27.142-.485.338-.647.587-.161.25-.279.537-.352.86a4.772 4.772 0 0 0-.103 1.013Zm5.148-.749-.91.279c.004-.436.075-.854.213-1.256.142-.401.345-.759.609-1.072.269-.313.6-.561.992-.742.391-.186.839-.279 1.344-.279.426 0 .803.056 1.131.169.333.113.612.287.837.522.23.23.404.526.521.888.118.363.177.793.177 1.293v5.222h-1.366v-5.237c0-.445-.071-.791-.213-1.035a1.11 1.11 0 0 0-.588-.522 2.345 2.345 0 0 0-.896-.154c-.299 0-.563.051-.793.154-.23.103-.424.245-.58.426-.157.176-.277.38-.36.61-.079.23-.118.475-.118.734Z"/><rect width="52.645" height="52.645" x="505.752" y="502.2" fill="#1A96D4" rx="26.322"/><path fill="#fff" d="M532.074 530.403c-.875 0-1.616-.303-2.223-.91-.607-.607-.91-1.348-.91-2.224v-7.52c0-.876.303-1.617.91-2.224.607-.607 1.348-.91 2.223-.91.876 0 1.617.303 2.224.91.607.607.91 1.348.91 2.224v7.52c0 .876-.303 1.617-.91 2.224-.607.607-1.348.91-2.224.91Zm-.94 8.147v-3.191c-1.865-.216-3.464-.982-4.797-2.3-1.332-1.318-2.112-2.924-2.34-4.818a.816.816 0 0 1 .21-.686.854.854 0 0 1 .66-.286.9.9 0 0 1 .67.276c.18.184.3.409.36.676.228 1.535.93 2.805 2.105 3.809 1.176 1.004 2.533 1.506 4.072 1.506 1.561 0 2.924-.507 4.089-1.522 1.165-1.014 1.861-2.279 2.089-3.793.06-.267.18-.492.36-.676a.9.9 0 0 1 .67-.276c.267 0 .487.096.66.286.174.19.244.419.21.686-.228 1.852-1.003 3.446-2.325 4.781-1.322 1.334-2.926 2.113-4.812 2.337v3.191c0 .267-.09.49-.271.67a.908.908 0 0 1-.67.27.907.907 0 0 1-.669-.27.906.906 0 0 1-.271-.67Z"/></g></g><g filter="url(#f)"><path fill="#fff" d="M226.182 348H29.818c-5.422 0-9.818 4.396-9.818 9.818v72.409c0 5.423 4.396 9.818 9.818 9.818h196.364c5.422 0 9.818-4.395 9.818-9.818v-72.409c0-5.422-4.396-9.818-9.818-9.818Z"/><path fill="#000" d="M54.03 371.711h3.476l4.398 14.334h-2.572l-1.218-3.966h-4.712l-1.198 3.966h-2.592l4.418-14.334Zm1.728 2.533-1.748 5.812h3.496l-1.748-5.812Zm6.472 2.278v-1.709h1.807v-2.042l2.631-.668v2.71h2.14v1.709h-2.14v6.342c0 .563.078.962.236 1.198.17.236.412.353.726.353.328 0 .68-.052 1.06-.157l.334 1.63c-.772.289-1.466.432-2.081.432-.602 0-1.087-.072-1.453-.216-.367-.143-.642-.308-.825-.491-.183-.196-.32-.458-.412-.785-.144-.458-.216-1.027-.216-1.709v-6.597H62.23Zm12.633 9.798c-1.806 0-3.096-.485-3.868-1.453-.773-.982-1.159-2.461-1.159-4.438 0-3.927 1.65-5.891 4.949-5.891 1.898 0 3.194.589 3.888 1.768.602 1.007.903 2.317.903 3.927v.707h-7.187c.013 1.231.216 2.101.609 2.611.393.497 1.04.747 1.944.747 1.453 0 2.225-.524 2.317-1.571l2.16.078c-.21 2.343-1.728 3.515-4.556 3.515Zm1.512-9.111c-.327-.432-.864-.648-1.61-.648-.746 0-1.296.21-1.65.628-.34.406-.562 1.061-.667 1.964h4.536c-.078-.878-.281-1.526-.609-1.944Zm7.746-1.375c1.23-.864 2.488-1.296 3.77-1.296 1.297 0 2.233.321 2.809.962.575.629.864 1.499.864 2.612v7.933h-2.632v-7.658c0-.668-.124-1.139-.373-1.414-.235-.275-.654-.412-1.257-.412-.942 0-1.82.294-2.63.884v8.6H82.04v-11.232h1.237l.844 1.021Zm13.59 10.486c-2.526 0-3.79-1.963-3.79-5.891 0-3.927 1.532-5.891 4.596-5.891a7.2 7.2 0 0 1 2.552.472v-3.731l2.632-.197v14.963h-1.709l-.726-1.394c-1.087 1.113-2.272 1.669-3.555 1.669Zm1.041-2.022c.812 0 1.584-.419 2.317-1.257v-6.087a4.961 4.961 0 0 0-1.885-.393c-.942 0-1.617.328-2.022.982-.406.654-.61 1.616-.61 2.886 0 2.579.734 3.869 2.2 3.869Zm8.639-9.485h2.631v11.232h-2.631v-11.232Zm1.315-1.335c-.981 0-1.472-.504-1.472-1.512 0-1.021.491-1.532 1.472-1.532 1.008 0 1.512.511 1.512 1.532 0 1.008-.504 1.512-1.512 1.512Zm10.452 1.06c1.571 0 2.67.452 3.299 1.355 1.126-.903 2.324-1.355 3.593-1.355 1.284 0 2.232.321 2.847.962.616.629.923 1.499.923 2.612v7.933h-2.631v-7.501c0-.681-.124-1.178-.373-1.492-.248-.328-.687-.491-1.316-.491-.89 0-1.708.308-2.454.923.027.261.039.471.039.628v7.933h-2.631v-7.501c0-.681-.13-1.178-.393-1.492-.261-.328-.766-.491-1.512-.491-.733 0-1.466.261-2.199.785v8.699h-2.631v-11.232h1.394l.687.923c1.061-.799 2.18-1.198 3.358-1.198Zm18.047 11.782c-1.807 0-3.097-.485-3.869-1.453-.772-.982-1.158-2.461-1.158-4.438 0-3.927 1.649-5.891 4.948-5.891 1.899 0 3.195.589 3.888 1.768.603 1.007.903 2.317.903 3.927v.707h-7.186c.013 1.231.216 2.101.608 2.611.393.497 1.041.747 1.944.747 1.453 0 2.225-.524 2.317-1.571l2.16.078c-.21 2.343-1.728 3.515-4.555 3.515Zm1.512-9.111c-.328-.432-.864-.648-1.61-.648-.747 0-1.296.21-1.65.628-.34.406-.563 1.061-.668 1.964h4.536c-.078-.878-.281-1.526-.608-1.944Zm7.746-1.375c1.23-.864 2.487-1.296 3.77-1.296 1.296 0 2.232.321 2.808.962.576.629.864 1.499.864 2.612v7.933h-2.631v-7.658c0-.668-.125-1.139-.373-1.414-.236-.275-.655-.412-1.257-.412-.942 0-1.82.294-2.631.884v8.6h-2.631v-11.232h1.237l.844 1.021Zm9.27.688v-1.709h1.806v-2.042l2.632-.668v2.71h2.14v1.709h-2.14v6.342c0 .563.078.962.235 1.198.171.236.413.353.727.353a3.98 3.98 0 0 0 1.06-.157l.334 1.63c-.772.289-1.467.432-2.081.432-.603 0-1.087-.072-1.453-.216-.367-.143-.642-.308-.825-.491-.183-.196-.321-.458-.413-.785-.143-.458-.216-1.027-.216-1.709v-6.597h-1.806Zm10.748 6.794c.34.654.994.982 1.964.982.968 0 1.622-.328 1.964-.982.34-.654.51-1.617.51-2.887s-.17-2.232-.51-2.886c-.342-.654-.996-.982-1.964-.982-.97 0-1.624.328-1.964.982-.341.654-.51 1.616-.51 2.886s.169 2.233.51 2.887Zm7.069-2.887c0 3.928-1.702 5.891-5.105 5.891-3.404 0-5.105-1.963-5.105-5.891 0-3.927 1.701-5.891 5.105-5.891 3.403 0 5.105 1.964 5.105 5.891Z"/><path fill="#1A96D4" d="M58.105 404.365c.368-1.13 1.967-1.13 2.335 0l.761 2.344c.165.506.636.848 1.168.848h2.464c1.189 0 1.683 1.521.722 2.22l-1.994 1.449c-.43.312-.61.866-.446 1.372l.761 2.344c.368 1.13-.926 2.071-1.888 1.372l-1.994-1.448a1.226 1.226 0 0 0-1.443 0l-1.994 1.448c-.962.699-2.256-.242-1.888-1.372l.761-2.344a1.227 1.227 0 0 0-.446-1.372l-1.993-1.449c-.962-.699-.468-2.22.721-2.22h2.464c.532 0 1.003-.342 1.168-.848l.761-2.344Zm19.637 0c.367-1.13 1.967-1.13 2.335 0l.761 2.344c.164.506.636.848 1.167.848h2.465c1.189 0 1.683 1.521.721 2.22l-1.994 1.449c-.43.312-.61.866-.446 1.372l.762 2.344c.367 1.13-.927 2.071-1.889 1.372l-1.993-1.448a1.226 1.226 0 0 0-1.443 0l-1.994 1.448c-.962.699-2.256-.242-1.889-1.372l.762-2.344a1.227 1.227 0 0 0-.446-1.372l-1.994-1.449c-.961-.699-.467-2.22.722-2.22h2.464c.532 0 1.003-.342 1.168-.848l.761-2.344Zm19.636 0c.368-1.13 1.967-1.13 2.335 0l.761 2.344c.165.506.636.848 1.168.848h2.464c1.189 0 1.683 1.521.721 2.22l-1.993 1.449a1.224 1.224 0 0 0-.446 1.372l.761 2.344c.368 1.13-.926 2.071-1.888 1.372l-1.994-1.448a1.226 1.226 0 0 0-1.443 0l-1.994 1.448c-.962.699-2.256-.242-1.888-1.372l.761-2.344a1.227 1.227 0 0 0-.446-1.372l-1.993-1.449c-.962-.699-.468-2.22.721-2.22h2.465c.531 0 1.002-.342 1.167-.848l.761-2.344Zm19.636 0c.368-1.13 1.968-1.13 2.335 0l.762 2.344c.163.506.635.848 1.167.848h2.465c1.188 0 1.682 1.521.721 2.22l-1.994 1.449c-.431.312-.61.866-.446 1.372l.761 2.344c.368 1.13-.926 2.071-1.889 1.372l-1.993-1.448a1.226 1.226 0 0 0-1.443 0l-1.993 1.448c-.962.699-2.256-.242-1.889-1.372l.762-2.344a1.227 1.227 0 0 0-.446-1.372l-1.994-1.449c-.962-.699-.468-2.22.721-2.22h2.465c.531 0 1.003-.342 1.167-.848l.761-2.344Zm19.637 0c.367-1.13 1.967-1.13 2.334 0l.763 2.344c.163.506.634.848 1.167.848h2.464c1.188 0 1.683 1.521.722 2.22l-1.995 1.449c-.43.312-.61.866-.445 1.372l.761 2.344c.368 1.13-.927 2.071-1.889 1.372l-1.993-1.448a1.226 1.226 0 0 0-1.443 0l-1.993 1.448c-.963.699-2.257-.242-1.889-1.372l.761-2.344a1.226 1.226 0 0 0-.446-1.372l-1.994-1.449c-.961-.699-.466-2.22.722-2.22h2.464c.533 0 1.004-.342 1.167-.848l.762-2.344Z"/></g><g filter="url(#g)"><mask id="h" width="69" height="69" x="649" y="197" maskUnits="userSpaceOnUse" style="mask-type:luminance"><path fill="#fff" d="M713.763 220.252 682.7 199.117a7.516 7.516 0 0 0-10.441 1.984l-21.143 31.059a7.513 7.513 0 0 0 1.984 10.439l31.062 21.136a7.518 7.518 0 0 0 10.442-1.985l21.143-31.059a7.513 7.513 0 0 0-1.984-10.439Z"/></mask><g mask="url(#h)"><path fill="#fff" d="M713.763 220.252 682.7 199.117a7.516 7.516 0 0 0-10.441 1.984l-21.143 31.059a7.513 7.513 0 0 0 1.984 10.439l31.062 21.136a7.518 7.518 0 0 0 10.442-1.985l21.143-31.059a7.513 7.513 0 0 0-1.984-10.439Z"/><mask id="i" width="43" height="43" x="662" y="210" maskUnits="userSpaceOnUse" style="mask-type:luminance"><path fill="#fff" d="m704.314 227.456-24.85-16.908-16.915 24.847 24.85 16.908 16.915-24.847Z"/></mask><g mask="url(#i)"><path fill="#555C66" d="M679.772 236.801a6.245 6.245 0 0 0 3.021 1.09 6.513 6.513 0 0 0 3.132-.489.693.693 0 0 0 .377-.575.626.626 0 0 0-.294-.618l-7.973-5.425a.627.627 0 0 0-.683-.047.689.689 0 0 0-.396.562 6.48 6.48 0 0 0 .706 3.1 6.264 6.264 0 0 0 2.11 2.402Zm2.057-9.921.214 1.131c.04.205.14.366.302.48a.708.708 0 0 0 .566.111.691.691 0 0 0 .481-.308.796.796 0 0 0 .111-.56l-.272-1.505a1.095 1.095 0 0 0-.471-.731 1.099 1.099 0 0 0-.856-.171l-1.515.288a.716.716 0 0 0-.59.873.732.732 0 0 0 .299.47.734.734 0 0 0 .557.132l1.174-.21Zm6.419 4.369.236 1.168c.046.194.15.349.312.464a.72.72 0 0 0 .568.111.725.725 0 0 0 .487-.303.723.723 0 0 0 .103-.565l-.288-1.516a1.086 1.086 0 0 0-.471-.731 1.096 1.096 0 0 0-.855-.172l-1.516.289a.769.769 0 0 0-.464.312.71.71 0 0 0-.111.567.723.723 0 0 0 .303.488c.16.11.349.144.565.102l1.131-.214Zm-11.51 10.013c-1.361-.926-2.464-2.054-3.309-3.385a12.003 12.003 0 0 1-1.693-4.227 11.987 11.987 0 0 1 .022-4.553c.298-1.549.91-3.003 1.835-4.362.926-1.361 2.055-2.464 3.387-3.309 1.33-.846 2.74-1.41 4.228-1.694a12.012 12.012 0 0 1 4.554.022c1.548.298 3.002.91 4.362 1.835a11.579 11.579 0 0 1 3.31 3.385 12.026 12.026 0 0 1 1.693 4.228 12.007 12.007 0 0 1-.022 4.553c-.299 1.547-.911 3.001-1.837 4.362-.926 1.36-2.054 2.463-3.385 3.309a12.015 12.015 0 0 1-4.228 1.693 12.018 12.018 0 0 1-4.555-.022c-1.548-.298-3.002-.91-4.362-1.835Zm1.055-1.554c2.312 1.573 4.817 2.104 7.515 1.591 2.697-.513 4.832-1.925 6.407-4.237 1.573-2.313 2.104-4.817 1.592-7.514-.513-2.696-1.925-4.832-4.237-6.405-2.313-1.573-4.818-2.103-7.516-1.591-2.696.513-4.833 1.926-6.406 4.237-1.574 2.312-2.105 4.817-1.592 7.513.512 2.697 1.925 4.832 4.237 6.406Z"/></g></g><path stroke="#D8DBDF" stroke-opacity=".4" d="m713.498 220.641-31.062-21.136a7.045 7.045 0 0 0-9.788 1.861l-21.143 31.058a7.043 7.043 0 0 0 1.859 9.787l31.063 21.135a7.046 7.046 0 0 0 9.788-1.86l21.143-31.059a7.041 7.041 0 0 0-1.86-9.786Z"/></g><defs><filter id="a" width="495" height="594.207" x="121" y="0" color-interpolation-filters="sRGB" filterUnits="userSpaceOnUse"><feFlood flood-opacity="0" result="BackgroundImageFix"/><feColorMatrix in="SourceAlpha" result="hardAlpha" values="0 0 0 0 0 0 0 0 0 0 0 0 0 0 0 0 0 0 127 0"/><feOffset dy="4"/><feGaussianBlur stdDeviation="10"/><feComposite in2="hardAlpha" operator="out"/><feColorMatrix values="0 0 0 0 0.113725 0 0 0 0 0.133333 0 0 0 0 0.160784 0 0 0 0.04 0"/><feBlend in2="BackgroundImageFix" result="effect1_dropShadow_423_388"/><feBlend in="SourceGraphic" in2="effect1_dropShadow_423_388" result="shape"/></filter><filter id="f" width="256" height="132.045" x="0" y="332" color-interpolation-filters="sRGB" filterUnits="userSpaceOnUse"><feFlood flood-opacity="0" result="BackgroundImageFix"/><feColorMatrix in="SourceAlpha" result="hardAlpha" values="0 0 0 0 0 0 0 0 0 0 0 0 0 0 0 0 0 0 127 0"/><feOffset dy="4"/><feGaussianBlur stdDeviation="10"/><feComposite in2="hardAlpha" operator="out"/><feColorMatrix values="0 0 0 0 0.113725 0 0 0 0 0.133333 0 0 0 0 0.160784 0 0 0 0.08 0"/><feBlend in2="BackgroundImageFix" result="effect1_dropShadow_423_388"/><feBlend in="SourceGraphic" in2="effect1_dropShadow_423_388" result="shape"/></filter><filter id="g" width="107.297" height="107.284" x="629.783" y="181.784" color-interpolation-filters="sRGB" filterUnits="userSpaceOnUse"><feFlood flood-opacity="0" result="BackgroundImageFix"/><feColorMatrix in="SourceAlpha" result="hardAlpha" values="0 0 0 0 0 0 0 0 0 0 0 0 0 0 0 0 0 0 127 0"/><feOffset dy="4"/><feGaussianBlur stdDeviation="10"/><feComposite in2="hardAlpha" operator="out"/><feColorMatrix values="0 0 0 0 0.113725 0 0 0 0 0.133333 0 0 0 0 0.160784 0 0 0 0.04 0"/><feBlend in2="BackgroundImageFix" result="effect1_dropShadow_423_388"/><feBlend in="SourceGraphic" in2="effect1_dropShadow_423_388" result="shape"/></filter><clipPath id="c"><rect width="45.124" height="45.124" x="171.083" y="31.041" fill="#fff" rx="22.562"/></clipPath><clipPath id="d"><path fill="#fff" d="M141 91.207h455v456.438c0 12.46-10.101 22.562-22.562 22.562H163.562c-12.461 0-22.562-10.102-22.562-22.562V91.207Z"/></clipPath></defs></svg>