<svg xmlns="http://www.w3.org/2000/svg" width="1852" height="1852" fill="none"><rect width="1769" height="1769" x="41.5" y="41.5" stroke="#0662A3" stroke-dasharray="10 10" stroke-linecap="round" rx="884.5"/><mask id="a" fill="#fff"><path d="M0 926C0 414.584 414.584 0 926 0c511.42 0 926 414.584 926 926 0 511.42-414.58 926-926 926-511.416 0-926-414.58-926-926Z"/></mask><path fill="#0662A3" fill-rule="evenodd" d="M919.994 1851.99c.333 0 .667 0 1 .01H926c-1.67 0-3.338 0-5.006-.01-.333-.01-.667-.01-1-.01-.333 0-.667 0-1-.01v.02h1Zm-20.967-.32 1.001.03c.332 0 .665.01.998.02a1099 1099 0 0 0 9.971.19c.334.01.667.01 1 .01.333.01.667.01 1 .02l.001-.03c-.334 0-.667-.01-1-.01-.334-.01-.667-.01-1-.02-3.328-.05-6.651-.12-9.971-.21l-.999-.03-1-.03v.01l-.001.05Zm-638.733-283.49 1.185 1.23a1036.71 1036.71 0 0 0 8.16 8.36 2.012 2.012 0 0 1-1.948 1.48c-.332-.33-.664-.67-.995-1-2.343-2.36-4.673-4.74-6.991-7.12-.323-.33-.646-.67-.968-1 0-.52.203-1.05.608-1.44.274-.26.603-.43.949-.51Zm-13.618-14.48 1.14 1.23c2.252 2.44 4.516 4.87 6.793 7.28l1.169 1.23a1.98 1.98 0 0 1-2.036 1.49c-.317-.33-.634-.66-.951-1a840.76 840.76 0 0 1-6.838-7.27l-.926-.99c0-.54.215-1.08.64-1.47.292-.27.644-.44 1.009-.5Zm-13.303-14.77c.364.41.729.83 1.095 1.24 2.198 2.48 4.409 4.96 6.634 7.42.374.41.748.82 1.123 1.24-.094.36-.292.7-.592.98-.433.39-.991.56-1.531.51a1014.215 1014.215 0 0 1-7.587-8.41c-.295-.33-.59-.66-.884-1 0-.55.227-1.1.672-1.49.311-.28.685-.44 1.07-.49Zm-12.984-15.04c.349.41.699.82 1.049 1.24 2.145 2.53 4.304 5.05 6.475 7.55.359.42.718.83 1.078 1.25-.097.38-.307.73-.626 1.01-.453.4-1.032.55-1.584.47l-.866-.99c-2.187-2.5-4.36-5.02-6.521-7.55l-.841-.99c.001-.57.24-1.13.704-1.52.332-.29.729-.44 1.132-.47Zm-12.659-15.32c.334.41.668.82 1.003 1.24 2.09 2.57 4.194 5.14 6.311 7.69.343.41.687.83 1.031 1.24-.099.4-.321.77-.66 1.05-.473.4-1.075.54-1.637.43-.274-.32-.549-.65-.824-.98-2.132-2.55-4.25-5.12-6.356-7.69-.266-.33-.532-.66-.798-.98 0-.58.251-1.16.736-1.55.352-.29.773-.44 1.194-.45Zm-12.325-15.58.957 1.23c2.034 2.62 4.082 5.23 6.144 7.83.328.41.657.82.985 1.24-.101.41-.336.8-.696 1.09-.493.39-1.116.51-1.687.38-.261-.32-.521-.65-.782-.97a988.82 988.82 0 0 1-6.19-7.83c-.252-.33-.505-.65-.757-.97 0-.6.265-1.19.77-1.58a1.97 1.97 0 0 1 1.256-.42Zm-11.993-15.85.91 1.23a938.46 938.46 0 0 0 6.916 9.19c-.103.43-.351.84-.733 1.13-.514.39-1.157.49-1.736.34-.247-.33-.494-.65-.74-.97a943.717 943.717 0 0 1-6.739-8.92c0-.61.278-1.21.804-1.6.395-.3.863-.43 1.318-.4Zm-11.642-16.08c.287.4.574.81.862 1.21 1.92 2.71 3.855 5.4 5.803 8.08l.891 1.23a1.98 1.98 0 0 1-.769 1.16c-.535.39-1.199.48-1.785.29-.233-.32-.466-.64-.699-.95a965.22 965.22 0 0 1-5.847-8.09c-.225-.31-.45-.63-.675-.94 0-.63.292-1.24.839-1.63.416-.3.908-.41 1.38-.36Zm-11.302-16.34.815 1.2c1.863 2.75 3.74 5.48 5.632 8.21.281.4.562.81.844 1.21-.106.47-.381.91-.807 1.2-.555.39-1.239.46-1.83.24-.22-.31-.439-.63-.659-.94a966.78 966.78 0 0 1-6.311-9.15 1.998 1.998 0 0 1 2.316-1.97Zm-10.942-16.57a810.182 810.182 0 0 0 6.218 9.51l.797 1.2c-.107.49-.396.94-.844 1.23-.577.39-1.281.43-1.876.19l-.618-.93a798.545 798.545 0 0 1-5.493-8.33c-.199-.3-.397-.61-.595-.91 0-.65.321-1.29.91-1.68.462-.3 1.002-.38 1.501-.28Zm-10.588-16.8.722 1.17c1.743 2.83 3.501 5.64 5.274 8.44.25.4.5.79.75 1.19a1.994 1.994 0 0 1-2.802 1.39c-.193-.3-.385-.6-.578-.91a819.98 819.98 0 0 1-5.318-8.45l-.556-.9c.001-.66.336-1.32.946-1.7.486-.3 1.05-.36 1.562-.23Zm-10.222-17.02c.225.39.451.77.677 1.15a784.28 784.28 0 0 0 5.084 8.54l.704 1.17a1.952 1.952 0 0 1-.923 1.3c-.619.38-1.36.38-1.959.07-.18-.3-.36-.59-.54-.89a806.452 806.452 0 0 1-5.127-8.56l-.518-.87c0-.68.352-1.35.983-1.72.509-.3 1.097-.35 1.619-.19Zm-9.854-17.23c.21.38.42.75.631 1.13 1.62 2.89 3.255 5.78 4.905 8.65.219.39.438.77.657 1.15a2.005 2.005 0 0 1-.962 1.34c-.64.37-1.4.34-1.997 0l-.502-.87a901.736 901.736 0 0 1-4.948-8.67c-.16-.29-.321-.57-.481-.86.001-.7.368-1.37 1.021-1.74.533-.3 1.144-.33 1.676-.13Zm-9.483-17.44a828.19 828.19 0 0 0 5.912 10.97 1.998 1.998 0 0 1-3.036 1.31l-.466-.84c-1.6-2.92-3.185-5.84-4.755-8.78a52.73 52.73 0 0 1-.445-.83c.001-.71.385-1.4 1.059-1.76.557-.3 1.192-.31 1.731-.07Zm-9.101-17.63c.181.35.361.71.542 1.07 1.493 2.96 3.002 5.92 4.526 8.86.189.36.378.73.568 1.09a1.997 1.997 0 0 1-1.043 1.41c-.683.36-1.477.28-2.068-.13-.143-.28-.286-.55-.429-.83a899.28 899.28 0 0 1-4.976-9.68c0-.73.402-1.43 1.097-1.78.581-.3 1.24-.28 1.783-.01Zm-8.728-17.84c.166.34.332.69.499 1.04 1.43 3 2.876 5.98 4.337 8.96.175.36.35.71.524 1.07-.108.6-.492 1.14-1.084 1.44-.704.34-1.514.24-2.099-.21-.131-.26-.263-.53-.394-.79a903.289 903.289 0 0 1-4.378-8.99l-.375-.78a2.01 2.01 0 0 1 1.136-1.8 1.978 1.978 0 0 1 1.834.06Zm-8.328-18 .457 1.02a891.84 891.84 0 0 0 4.138 9.03c.16.35.32.69.48 1.04a2.002 2.002 0 0 1-1.125 1.47 1.98 1.98 0 0 1-2.128-.28c-.12-.25-.24-.51-.36-.76a1010.696 1010.696 0 0 1-4.519-9.82c.001-.76.438-1.49 1.175-1.82a1.988 1.988 0 0 1 1.882.12ZM75.271 1288c.138.32.276.65.415.97 1.3 3.06 2.617 6.11 3.949 9.15l.439.99a1.99 1.99 0 0 1-1.168 1.51 1.99 1.99 0 0 1-2.153-.35c-.11-.25-.219-.49-.328-.74a895.19 895.19 0 0 1-3.986-9.17l-.31-.72a1.998 1.998 0 0 1 3.142-1.64Zm-7.545-18.34a888.356 888.356 0 0 0 4.516 11.11 1.999 1.999 0 0 1-3.387 1.11l-.296-.71a987.107 987.107 0 0 1-4.057-9.92c0-.8.475-1.55 1.255-1.86a2.03 2.03 0 0 1 1.969.27Zm-7.157-18.51.338.9a885.303 885.303 0 0 0 3.908 10.23 2.01 2.01 0 0 1-1.253 1.57c-.789.3-1.654.08-2.196-.51l-.266-.68a887.693 887.693 0 0 1-3.834-9.99c.001-.81.495-1.57 1.295-1.87a1.99 1.99 0 0 1 2.008.35Zm-6.75-18.64c.1.28.2.57.3.85a884.53 884.53 0 0 0 3.338 9.35c.107.3.214.59.321.89-.1.7-.577 1.33-1.295 1.6-.81.29-1.688.03-2.213-.59-.08-.22-.159-.43-.238-.65a886.672 886.672 0 0 1-3.592-10.01 1.999 1.999 0 0 1 3.378-1.44Zm-6.348-18.79.265.81a881.355 881.355 0 0 0 3.428 10.28 2.001 2.001 0 0 1-3.566.96c-.07-.2-.14-.41-.21-.61a962.075 962.075 0 0 1-3.173-9.47l-.195-.6c0-.84.534-1.62 1.376-1.9a2.006 2.006 0 0 1 2.075.53Zm-5.945-18.94c.077.26.154.51.232.77.962 3.17 1.94 6.34 2.935 9.5.084.26.167.53.251.79a2.002 2.002 0 0 1-3.62.91c-.06-.19-.122-.39-.183-.58a882.089 882.089 0 0 1-2.965-9.53c-.057-.19-.114-.37-.17-.56a2.003 2.003 0 0 1 3.52-1.3Zm-5.527-19.02.2.72a951.13 951.13 0 0 0 2.949 10.3c-.09.78-.631 1.46-1.426 1.69a1.991 1.991 0 0 1-2.244-.84l-.16-.54c-.935-3.19-1.855-6.39-2.757-9.59-.049-.18-.098-.35-.147-.52 0-.88.578-1.68 1.46-1.93.809-.23 1.641.08 2.125.71Zm-5.129-19.2a946.777 946.777 0 0 0 2.7 10.32l.188.69a2 2 0 0 1-3.717.8l-.136-.51a943.846 943.846 0 0 1-2.68-10.16c0-.89.599-1.7 1.501-1.93.834-.22 1.68.12 2.144.79Zm-4.697-19.22c.048.2.096.41.145.62a940.257 940.257 0 0 0 2.47 10.3 2.01 2.01 0 0 1-1.512 1.75c-.912.22-1.83-.22-2.248-1.01-.039-.16-.077-.32-.116-.47-.796-3.23-1.574-6.46-2.336-9.7l-.105-.44c0-.91.622-1.73 1.544-1.95.859-.2 1.718.19 2.158.9Zm-4.295-19.38a886.008 886.008 0 0 0 2.361 10.9 2.009 2.009 0 0 1-1.556 1.77 2.01 2.01 0 0 1-2.244-1.1c-.033-.14-.065-.29-.097-.43-.727-3.25-1.438-6.51-2.13-9.77l-.087-.41c0-.93.645-1.76 1.585-1.96.884-.18 1.755.24 2.168 1Zm-3.87-19.43.097.51a935.248 935.248 0 0 0 2 10.28 2.002 2.002 0 0 1-1.6 1.8c-.95.19-1.878-.33-2.238-1.19l-.079-.39a930.99 930.99 0 0 1-1.91-9.77l-.07-.37c0-.94.668-1.78 1.628-1.97a2 2 0 0 1 2.173 1.1ZM14.555 1079a930.38 930.38 0 0 0 1.762 10.27c.03.16.058.32.087.49a2.005 2.005 0 0 1-1.644 1.82 2.009 2.009 0 0 1-2.227-1.28c-.02-.11-.042-.23-.062-.35-.586-3.27-1.154-6.56-1.705-9.84l-.055-.33c0-.96.693-1.81 1.671-1.97.932-.16 1.822.36 2.173 1.19Zm-3.037-19.6c.02.13.038.27.058.4a930.94 930.94 0 0 0 1.538 10.25c-.058.91-.744 1.7-1.688 1.84a1.994 1.994 0 0 1-2.212-1.36c-.016-.1-.032-.2-.048-.31-.513-3.28-1.01-6.56-1.488-9.86l-.041-.28c0-.98.717-1.83 1.713-1.98.956-.14 1.852.42 2.168 1.3Zm-2.612-19.63.042.34c.403 3.3.824 6.58 1.262 9.86l.05.38a2 2 0 0 1-1.731 1.87 2.012 2.012 0 0 1-2.195-1.46l-.036-.26c-.442-3.3-.868-6.6-1.276-9.9l-.03-.25c0-.99.742-1.86 1.756-1.98.98-.12 1.88.49 2.158 1.4Zm-2.201-19.75.028.28c.335 3.31.686 6.62 1.055 9.92l.036.32a2 2 0 0 1-3.948.35l-.025-.23c-.373-3.31-.729-6.63-1.067-9.96l-.02-.2c0-1.02.767-1.88 1.798-1.99 1.003-.1 1.907.56 2.143 1.51Zm-1.77-19.69.017.22c.263 3.3.542 6.6.84 9.89l.022.26a1.995 1.995 0 0 1-1.818 1.91 1.992 1.992 0 0 1-2.148-1.63l-.016-.18c-.3-3.31-.583-6.62-.848-9.93l-.013-.16a2 2 0 0 1 3.963-.38Zm-1.359-19.809.01.166c.193 3.32.403 6.636.63 9.947l.014.196a2 2 0 0 1-3.98.218l-.01-.139a933.966 933.966 0 0 1-.644-10.107 2 2 0 0 1 3.98-.281Zm-.937-19.782.004.106c.122 3.303.261 6.602.418 9.897l.006.136a2 2 0 0 1-3.995.054 939.172 939.172 0 0 1-.422-9.939l-.003-.075a2 2 0 0 1 3.992-.179Zm-.52-19.812v.045c.053 3.321.123 6.637.21 9.949l.002.076a2.001 2.001 0 0 1-3.997.084l-.001-.054a941.526 941.526 0 0 1-.212-9.992v-.032a2 2 0 0 1 3.998-.076Zm-.105-9.93v.015a2 2 0 0 1-4 .006 947.856 947.856 0 0 1 0-10.035 2 2 0 0 1 4 .006m.317-19.985-.002.076a944.062 944.062 0 0 0-.21 9.995 2 2 0 0 1-3.999-.077v-.032c.054-3.335.124-6.665.213-9.992l.001-.053a2 2 0 0 1 3.997.083Zm.736-19.88-.006.136a939.067 939.067 0 0 0-.418 9.897l-.004.105a2 2 0 0 1-3.992-.179l.003-.074a936.802 936.802 0 0 1 .427-10.035 2 2 0 0 1 3.99.15Zm1.163-19.953-.013.196a936.05 936.05 0 0 0-.631 9.948l-.01.165a2 2 0 0 1-3.98-.28l.007-.118c.195-3.334.407-6.664.637-9.989l.01-.14a2 2 0 0 1 3.98.218Zm1.584-19.867-.023.256a933.212 933.212 0 0 0-.857 10.114 2 2 0 0 1-3.963-.382l.013-.16c.265-3.315.548-6.625.848-9.931l.016-.182a2 2 0 0 1 3.966.285Zm2.01-19.84-.036.315a929.38 929.38 0 0 0-1.083 10.206 2.001 2.001 0 0 1-3.941-.482l.02-.203c.338-3.326.693-6.647 1.066-9.963l.026-.224a2 2 0 0 1 3.947.351Zm2.436-19.809-.05.374a927.422 927.422 0 0 0-1.305 10.201 2 2 0 0 1-3.913-.581l.03-.244c.408-3.306.833-6.606 1.276-9.901l.036-.266a2 2 0 0 1 3.926.417Zm2.854-19.702-.067.431c-.507 3.267-.998 6.54-1.471 9.818l-.058.4a2 2 0 0 1-3.881-.68l.041-.285a939.79 939.79 0 0 1 1.487-9.859l.049-.308a2 2 0 0 1 3.9.483Zm3.29-19.707c-.03.162-.058.325-.087.487a925.59 925.59 0 0 0-1.762 10.265 2 2 0 0 1-3.844-.776l.055-.327a925.692 925.692 0 0 1 1.767-10.197 2 2 0 0 1 3.87.548Zm3.701-19.564-.108.542a919.697 919.697 0 0 0-1.987 10.249 2 2 0 0 1-3.801-.87l.07-.367c.62-3.265 1.256-6.524 1.91-9.776l.078-.389a2 2 0 0 1 3.838.611Zm4.135-19.536-.132.596a924.605 924.605 0 0 0-2.11 9.735l-.119.567a2.001 2.001 0 0 1-3.754-.962l.087-.407a921.706 921.706 0 0 1 2.131-9.773l.096-.429a2 2 0 0 1 3.801.673Zm4.55-19.407-.16.648a926.795 926.795 0 0 0-2.312 9.658l-.144.62a2 2 0 0 1-3.702-1.051l.105-.447c.762-3.238 1.54-6.469 2.336-9.695l.115-.467a2 2 0 0 1 3.761.734Zm4.97-19.313c-.064.233-.126.466-.189.7-.86 3.207-1.702 6.42-2.529 9.641l-.171.67a2.002 2.002 0 0 1-3.645-1.136l.125-.485a909.768 909.768 0 0 1 2.691-10.183 2 2 0 0 1 3.717.793Zm5.388-19.208-.218.749a923.278 923.278 0 0 0-2.73 9.558l-.2.721a2 2 0 0 1-3.585-1.22l.147-.523a920.862 920.862 0 0 1 2.757-9.593l.16-.543a2 2 0 0 1 3.67.851Zm5.797-19.06-.251.795a923.549 923.549 0 0 0-3.168 10.266 2 2 0 0 1-3.52-1.3l.17-.559c.972-3.184 1.96-6.361 2.966-9.531l.183-.579a2 2 0 0 1 3.62.908Zm6.22-18.968-.286.841a919.99 919.99 0 0 0-3.142 9.439l-.266.814a2 2 0 0 1-3.45-1.376l.195-.594a911.96 911.96 0 0 1 3.173-9.471l.21-.614a2 2 0 0 1 3.566.961Zm6.614-18.785-.322.884a914.996 914.996 0 0 0-3.638 10.206 2 2 0 0 1-3.379-1.448l.222-.629a919.64 919.64 0 0 1 3.608-10.026 2 2 0 0 1 3.509 1.013Zm7.037-18.682-.36.925a929.552 929.552 0 0 0-3.886 10.2 2.002 2.002 0 0 1-3.303-1.517l.25-.662a920.258 920.258 0 0 1 3.85-10.008 2.001 2.001 0 0 1 3.449 1.062Zm7.426-18.493-.398.964a926.955 926.955 0 0 0-3.742 9.202l-.376.94a1.999 1.999 0 0 1-3.223-1.581l.279-.693a914.883 914.883 0 0 1 4.074-9.942 2 2 0 0 1 3.386 1.11Zm7.832-18.344-.438.999a922.28 922.28 0 0 0-4.365 10.119 2 2 0 0 1-3.141-1.641l.31-.724a919.703 919.703 0 0 1 3.986-9.167l.327-.741a2 2 0 0 1 3.322 1.155Zm8.224-18.164-.48 1.034a916.302 916.302 0 0 0-4.139 9.039l-.456 1.013a2 2 0 0 1-3.057-1.698l.342-.753a929.05 929.05 0 0 1 4.177-9.062l.36-.769a1.999 1.999 0 0 1 3.253 1.196Zm8.613-17.977-.524 1.065a921.799 921.799 0 0 0-4.338 8.96l-.498 1.045a2 2 0 0 1-2.97-1.748l.375-.781a910.372 910.372 0 0 1 4.378-8.981l.394-.797a2 2 0 0 1 3.183 1.237Zm9.004-17.797-.568 1.094a921.274 921.274 0 0 0-4.526 8.857l-.542 1.076a2 2 0 0 1-2.88-1.795l.409-.807a913.823 913.823 0 0 1 4.567-8.876l.429-.823a1.998 1.998 0 0 1 2.067-.133c.568.295.934.824 1.044 1.407Zm9.377-17.582-.613 1.121a917.97 917.97 0 0 0-4.714 8.754l-.586 1.104a2.002 2.002 0 0 1-2.789-1.838l.444-.831a949.558 949.558 0 0 1 4.756-8.772l.465-.846a2 2 0 0 1 3.037 1.308Zm9.764-17.395-.658 1.144a930.453 930.453 0 0 0-4.905 8.657l-.63 1.13a1.994 1.994 0 0 1-1.676-.132 1.998 1.998 0 0 1-1.021-1.743l.481-.854a923.915 923.915 0 0 1 4.947-8.673l.503-.868a1.998 1.998 0 0 1 2.959 1.339Zm10.126-17.161-.704 1.166a927.676 927.676 0 0 0-5.085 8.54l-.676 1.152a1.992 1.992 0 0 1-1.619-.185 1.997 1.997 0 0 1-.984-1.721l.518-.876a943.266 943.266 0 0 1 5.668-9.444 2 2 0 0 1 2.882 1.368Zm10.503-16.957-.751 1.185a938.09 938.09 0 0 0-5.996 9.612 1.999 1.999 0 0 1-2.507-1.934l.556-.896a922.216 922.216 0 0 1 5.318-8.452l.578-.908a2 2 0 0 1 2.802 1.393Zm10.857-16.714-.797 1.201a921.564 921.564 0 0 0-6.218 9.508 2 2 0 0 1-2.412-1.957l.595-.914a927.727 927.727 0 0 1 5.494-8.329l.618-.925a1.999 1.999 0 0 1 2.72 1.416Zm11.218-16.483-.844 1.214a937.627 937.627 0 0 0-5.632 8.208l-.816 1.205a1.992 1.992 0 0 1-1.441-.322 1.996 1.996 0 0 1-.874-1.653l.634-.93a935.34 935.34 0 0 1 5.677-8.216l.658-.941a1.995 1.995 0 0 1 1.831.238c.426.296.7.728.807 1.197Zm11.567-16.235a921.31 921.31 0 0 0-7.556 10.522 1.992 1.992 0 0 1-1.38-.36 1.995 1.995 0 0 1-.839-1.628l.675-.945a932.825 932.825 0 0 1 6.546-9.041c.586-.186 1.25-.1 1.785.291.403.294.664.71.769 1.161Zm11.912-15.982-.939 1.233a927.618 927.618 0 0 0-5.977 7.959l-.91 1.227a1.99 1.99 0 0 1-1.318-.394 1.993 1.993 0 0 1-.804-1.602l.715-.959a933.43 933.43 0 0 1 6.764-8.929 1.995 1.995 0 0 1 1.736.34c.382.291.629.692.733 1.125Zm12.253-15.725-.985 1.239a931.225 931.225 0 0 0-6.145 7.826l-.956 1.234a1.991 1.991 0 0 1-1.256-.423 1.995 1.995 0 0 1-.77-1.577l.757-.97a932.3 932.3 0 0 1 6.972-8.805 1.997 1.997 0 0 1 2.383 1.476Zm12.584-15.454-1.032 1.241a930.56 930.56 0 0 0-7.313 8.931 1.997 1.997 0 0 1-1.931-1.998l.799-.979a936.127 936.127 0 0 1 6.356-7.694l.824-.985a1.997 1.997 0 0 1 2.297 1.484Zm12.916-15.186-1.078 1.242a930.88 930.88 0 0 0-7.524 8.798 1.999 1.999 0 0 1-1.836-1.993l.841-.987c2.16-2.53 4.334-5.049 6.52-7.556l.867-.992a1.997 1.997 0 0 1 2.21 1.488Zm13.234-14.901-1.124 1.24a932.698 932.698 0 0 0-7.729 8.656 2.001 2.001 0 0 1-1.741-1.983l.883-.993a938 938 0 0 1 6.679-7.413l.909-.996a1.99 1.99 0 0 1 1.531.511c.3.272.498.614.592.978Zm13.552-14.617-1.168 1.236a934.46 934.46 0 0 0-6.793 7.274l-1.14 1.237a1.99 1.99 0 0 1-1.009-.503 1.992 1.992 0 0 1-.64-1.466l.926-.996a920.488 920.488 0 0 1 6.837-7.27l.952-1a2 2 0 0 1 2.035 1.488Zm13.861-14.322-1.213 1.229a933.987 933.987 0 0 0-8.131 8.359 1.986 1.986 0 0 1-.949-.514 1.994 1.994 0 0 1-.609-1.437l.969-.998a938.921 938.921 0 0 1 6.991-7.121l.994-1.001a1.994 1.994 0 0 1 1.422.578c.262.26.438.573.526.905ZM918.992.014v.012A960.994 960.994 0 0 1 926 0h-2a946.587 946.587 0 0 0-5.008.013Zm-5.996.05V.09a941.91 941.91 0 0 0-13.969.297l-.001-.004V.33a945.241 945.241 0 0 1 13.97-.266Zm-19.92.443.004.065v.005a941.528 941.528 0 0 0-13.914.592v-.007a1.522 1.522 0 0 1-.003-.096 1071.141 1071.141 0 0 1 1.996-.093 938.465 938.465 0 0 1 11.917-.466Zm-19.891.864c.003.035.007.071.009.107v.009a926.728 926.728 0 0 0-13.959.893l-.001-.012a1.596 1.596 0 0 1-.005-.138 936.198 936.198 0 0 1 13.956-.86Zm-19.919 1.29c.007.05.013.1.017.15l.001.014a1231.958 1231.958 0 0 0-1.993.158 924.966 924.966 0 0 0-11.901 1.031 1.83 1.83 0 0 1-.011-.2 1214.86 1214.86 0 0 1 1.985-.177 931.207 931.207 0 0 1 11.902-.976ZM833.461 4.37c.012.062.022.126.028.191l.003.022a932.368 932.368 0 0 0-13.918 1.493 2.102 2.102 0 0 1-.016-.251 728.557 728.557 0 0 1 1.975-.22 929.846 929.846 0 0 1 11.928-1.235Zm-19.873 2.144a1.964 1.964 0 0 1 .046.264 695.617 695.617 0 0 0-1.984.243 918.967 918.967 0 0 0-11.861 1.545l-.005-.038a1.996 1.996 0 0 1-.018-.266A995.652 995.652 0 0 1 801.731 8a929.268 929.268 0 0 1 11.857-1.487ZM793.84 9.076c.025.088.045.18.059.273l.005.042a962.628 962.628 0 0 0-1.979.286 920.233 920.233 0 0 0-11.811 1.8 2.021 2.021 0 0 1-.033-.36l1.013-.157.94-.146a925.462 925.462 0 0 1 11.806-1.738Zm-19.727 2.992a2.003 2.003 0 0 1 .087.368 845.7 845.7 0 0 0-1.972.329c-3.281.55-6.556 1.119-9.825 1.704l-.983.177-.985.178a2.002 2.002 0 0 1-.044-.416 902.998 902.998 0 0 1 1.939-.344 925.315 925.315 0 0 1 11.783-1.996Zm-19.648 3.417a2.024 2.024 0 0 1 .112.42 1133.697 1133.697 0 0 0-1.964.372 917.892 917.892 0 0 0-10.73 2.108c-.327.066-.655.132-.982.2a2.101 2.101 0 0 1-.057-.474c.34-.069.681-.137 1.021-.204l.903-.18a919.121 919.121 0 0 1 11.697-2.242Zm-19.554 3.837c.054.122.096.252.125.388l.016.086a668.673 668.673 0 0 0-1.955.414 915.022 915.022 0 0 0-11.699 2.57 2.038 2.038 0 0 1-.073-.533l1.027-.228a922.505 922.505 0 0 1 11.535-2.484c.341-.072.683-.143 1.024-.213Zm-19.505 4.268c.066.132.117.275.152.425l.022.103-.977.228-.968.228c-3.231.761-6.455 1.54-9.672 2.335l-.964.24c-.325.08-.649.16-.974.242a2.017 2.017 0 0 1-.09-.593l1.033-.254.854-.209a920.537 920.537 0 0 1 10.554-2.508l1.03-.238Zm-19.353 4.676a1.973 1.973 0 0 1 .209.583 866.659 866.659 0 0 0-1.933.497 914.402 914.402 0 0 0-10.61 2.814l-.97.264a2.03 2.03 0 0 1-.11-.654l1.04-.28.826-.22c3.216-.86 6.439-1.701 9.669-2.526l.842-.215 1.037-.263Zm-19.318 5.114a2.002 2.002 0 0 1 .248.637l-.968.271-.952.268a916.684 916.684 0 0 0-11.482 3.32 1.99 1.99 0 0 1-.133-.716 598.067 598.067 0 0 1 1.843-.537 918.393 918.393 0 0 1 10.399-2.953l1.045-.29Zm-19.153 5.518a1.998 1.998 0 0 1 .29.69l-.964.294-.942.287a906.696 906.696 0 0 0-10.444 3.262l-.961.307a2.031 2.031 0 0 1-.158-.78l1.058-.333.761-.24a923.637 923.637 0 0 1 9.525-2.934l.781-.236 1.054-.317Zm-19.06 5.943a2.03 2.03 0 0 1 .335.743l-.959.315-.932.307a923.783 923.783 0 0 0-9.447 3.172l-.925.317-.956.329a1.987 1.987 0 0 1-.186-.843l1.068-.363.725-.245a920.008 920.008 0 0 1 11.277-3.732Zm-18.914 6.351a2.009 2.009 0 0 1 .385.796l-.955.336-.92.325a912.918 912.918 0 0 0-11.218 4.055 2.033 2.033 0 0 1-.218-.906l1.082-.394.685-.249a915.12 915.12 0 0 1 10.083-3.588l1.076-.375Zm-18.772 6.76a1.993 1.993 0 0 1 .437.848l-.95.358-.907.343a927.555 927.555 0 0 0-9.304 3.581l-.898.352-.947.373a1.995 1.995 0 0 1-.251-.97c.365-.143.73-.285 1.096-.426l.642-.25c3.1-1.2 6.209-2.384 9.326-3.553l.667-.25 1.089-.406Zm-18.634 7.172a2 2 0 0 1 .492.898l-.946.38-.891.36a920.226 920.226 0 0 0-10.088 4.143l-.943.394a2.004 2.004 0 0 1-.288-1.034 1308.423 1308.423 0 0 1 1.708-.706 922.427 922.427 0 0 1 9.851-3.995l1.105-.44Zm-18.453 7.565a2.004 2.004 0 0 1 .55.948l-.942.402-.875.375a930.208 930.208 0 0 0-10.945 4.784 1.971 1.971 0 0 1-.328-1.097 536.494 536.494 0 0 1 1.676-.737 910.184 910.184 0 0 1 9.168-3.956c.191-.08.382-.162.572-.243l1.124-.476Zm-18.316 7.978a1.978 1.978 0 0 1 .612.995 972.445 972.445 0 0 0-1.795.815 911.705 911.705 0 0 0-10.819 5.01 2.006 2.006 0 0 1-.371-1.16l1.158-.54.486-.225a916.695 916.695 0 0 1 9.065-4.147l.518-.233 1.146-.515Zm-18.109 8.359c.224.18.412.413.544.69.056.115.099.233.131.352l-.936.448-.836.402a926.395 926.395 0 0 0-8.957 4.375l-.824.408-.932.464a1.996 1.996 0 0 1-.417-1.223l1.189-.585c.14-.07.281-.138.421-.207a922.123 922.123 0 0 1 10.617-5.124Zm-17.956 8.764a1.994 1.994 0 0 1 .742 1.087l-.933.472-.814.414a946.92 946.92 0 0 0-8.852 4.563l-.801.419-.929.487a2.006 2.006 0 0 1-.467-1.284l1.231-.639.344-.178a933.33 933.33 0 0 1 10.479-5.34Zm-17.742 9.142a1.995 1.995 0 0 1 .81 1.129l-.93.497-.791.423a932.252 932.252 0 0 0-8.747 4.752l-.776.427-.927.512a1.994 1.994 0 0 1-.519-1.344l1.292-.707.247-.135a947.975 947.975 0 0 1 8.778-4.726l.304-.161 1.259-.667Zm-17.553 9.529a1.99 1.99 0 0 1 .881 1.171l-.928.521-.764.431a919.642 919.642 0 0 0-8.649 4.943l-.749.434-.925.537a1.998 1.998 0 0 1-.575-1.403c.478-.276.957-.551 1.435-.825l.068-.039a900.784 900.784 0 0 1 8.68-4.918l.184-.103 1.342-.749Zm-17.34 9.905a1.99 1.99 0 0 1 .955 1.209l-.927.548-.737.437a907.613 907.613 0 0 0-8.53 5.122l-.719.438c-.309.188-.617.375-.925.564a1.994 1.994 0 0 1-.634-1.461 955.844 955.844 0 0 1 10.028-5.984l1.489-.873Zm-17.121 10.276a1.99 1.99 0 0 1 1.029 1.246l-.926.575-.706.44a904.388 904.388 0 0 0-8.428 5.311l-.689.44-.924.591a1.99 1.99 0 0 1-.696-1.516l1.426-.904a921.17 921.17 0 0 1 9.914-6.183Zm-16.903 10.648a1.988 1.988 0 0 1 1.106 1.28l-.926.604-.674.439a930.465 930.465 0 0 0-8.304 5.487l-.655.438-.925.621a1.997 1.997 0 0 1-.761-1.571l1.387-.921a941.021 941.021 0 0 1 9.752-6.377Zm-16.662 11.004a1.993 1.993 0 0 1 1.185 1.313l-.928.633-.639.437a924.17 924.17 0 0 0-8.809 6.102l-.928.651a1.996 1.996 0 0 1-.829-1.621l1.347-.937a893.11 893.11 0 0 1 8.229-5.649l1.372-.929Zm-16.434 11.368a1.992 1.992 0 0 1 1.266 1.343l-.931.665-.601.43a913.339 913.339 0 0 0-8.062 5.84l-.578.424-.933.685a1.997 1.997 0 0 1-.899-1.671l1.306-.951a932.113 932.113 0 0 1 8.1-5.82l1.332-.945Zm-16.175 11.713a1.991 1.991 0 0 1 1.348 1.37l-.937.7-.56.419a928.568 928.568 0 0 0-7.938 6.014l-.536.41-.938.721a1.991 1.991 0 0 1-.563-.504 1.981 1.981 0 0 1-.41-1.212l1.265-.964a897.285 897.285 0 0 1 9.269-6.954Zm-15.932 12.066a1.99 1.99 0 0 1 1.432 1.394l-.944.738-.516.403a932.016 932.016 0 0 0-7.804 6.181l-.489.391-.947.761a1.997 1.997 0 0 1-.613-.514 1.987 1.987 0 0 1-.436-1.247l1.223-.973a931.9 931.9 0 0 1 7.845-6.165l1.249-.969Zm-15.662 12.401a2 2 0 0 1 1.515 1.416l-.954.78-.467.381a931.312 931.312 0 0 0-7.669 6.346l-.437.366-.96.804a2.004 2.004 0 0 1-1.128-1.8c.394-.328.787-.656 1.182-.983a919.061 919.061 0 0 1 7.71-6.331l1.208-.979Zm-15.397 12.738a1.994 1.994 0 0 1 1.6 1.436l-.969.826-.412.352a914.62 914.62 0 0 0-7.532 6.51l-.38.331-.977.856a1.998 1.998 0 0 1-1.21-1.838l1.14-.99a956.18 956.18 0 0 1 8.74-7.483Zm-15.121 13.066c.468.056.917.277 1.254.657.21.236.354.509.433.794l-.99.882-.35.313a914.095 914.095 0 0 0-7.702 6.952l-1.002.916a1.991 1.991 0 0 1-1.294-1.871l1.097-.995a937.541 937.541 0 0 1 8.554-7.648Zm-14.836 13.387c.483.038.954.25 1.31.634.227.244.381.53.463.831l-1.022.95-.277.258a954.264 954.264 0 0 0-7.246 6.825l-.23.219-1.043.995a1.997 1.997 0 0 1-1.379-1.902l1.054-.997a920.303 920.303 0 0 1 7.289-6.815l1.081-.998Zm-14.549 13.705a1.999 1.999 0 0 1 1.861 1.475l-1.078 1.047-.178.173a915.83 915.83 0 0 0-7.193 7.071l-1.134 1.13a1.998 1.998 0 0 1-1.468-1.928l1.011-.999a920.25 920.25 0 0 1 8.179-7.969Zm-9.19 1325.552a1.996 1.996 0 0 1 1.468-1.92c.378.37.756.75 1.134 1.13l.095.09c2.354 2.34 4.72 4.66 7.098 6.98.059.05.118.11.178.17l1.078 1.05c-.085.31-.25.61-.494.87-.375.38-.867.58-1.366.6-.346-.33-.692-.66-1.038-1a852.585 852.585 0 0 1-7.141-6.97c-.338-.33-.675-.66-1.012-1Zm14.315 13.87c0-.5.182-.99.548-1.38.238-.25.525-.43.832-.52l1.043.99c.076.07.153.15.229.22 2.403 2.29 4.819 4.56 7.246 6.82.093.09.185.18.277.26.341.32.681.64 1.022.95-.082.3-.236.59-.463.83-.356.39-.827.6-1.31.64a867.253 867.253 0 0 1-8.37-7.82l-1.054-.99Zm14.609 13.55c0-.48.172-.96.52-1.34.22-.25.487-.42.774-.53.334.31.668.61 1.002.92.104.09.208.19.313.28 2.451 2.24 4.914 4.46 7.389 6.67.117.1.233.21.35.31.33.3.66.59.991.88a2.01 2.01 0 0 1-.433.8c-.338.38-.787.6-1.254.65l-1.123-.99c-2.489-2.2-4.967-4.42-7.432-6.65-.366-.34-.731-.67-1.097-1Zm14.893 13.24c0-.47.161-.94.491-1.31.204-.24.451-.42.719-.53.325.29.651.57.976.86l.38.33c2.499 2.18 5.01 4.35 7.532 6.51.138.11.275.23.412.35.323.27.646.55.97.82-.076.28-.21.53-.404.76-.319.38-.747.61-1.197.68l-1.166-.99a878.555 878.555 0 0 1-7.574-6.49l-1.139-.99Zm15.176 12.92c0-.46.152-.91.463-1.28.189-.23.417-.4.666-.53a814.025 814.025 0 0 0 1.396 1.18c2.545 2.12 5.101 4.24 7.669 6.34.156.13.311.26.467.38l.954.78c-.071.26-.196.5-.375.72-.301.37-.707.61-1.14.7-.403-.33-.805-.65-1.208-.98-2.581-2.1-5.152-4.21-7.71-6.33-.394-.33-.788-.66-1.182-.98Zm15.445 12.58c0-.44.142-.88.436-1.24.174-.22.383-.39.614-.52.315.26.631.51.946.76l.489.39c2.59 2.08 5.192 4.14 7.805 6.18.171.14.343.27.515.41.314.24.629.49.944.73-.068.25-.184.48-.348.69-.284.36-.668.6-1.083.71-.417-.32-.834-.65-1.25-.97-2.626-2.04-5.241-4.1-7.844-6.16-.409-.33-.816-.65-1.224-.98Zm15.715 12.26c0-.43.133-.85.41-1.22.159-.2.351-.37.563-.5l.938.72c.179.14.357.28.536.41a889.428 889.428 0 0 0 8.498 6.44c.312.23.625.46.937.7-.064.22-.171.44-.322.65-.266.35-.629.6-1.026.72l-1.291-.96c-2.67-1.99-5.33-3.99-7.978-6l-1.265-.96Zm15.971 11.91a2.003 2.003 0 0 1 .9-1.67l.932.69.578.42c2.677 1.96 5.364 3.91 8.062 5.84.2.14.4.29.601.43.31.22.621.44.932.67-.061.21-.16.42-.297.61-.25.35-.592.6-.97.73-.444-.32-.888-.63-1.331-.95a731.689 731.689 0 0 1-8.1-5.82c-.436-.31-.872-.63-1.307-.95Zm16.224 11.57a2.02 2.02 0 0 1 .829-1.62c.309.22.618.43.928.65.206.15.412.29.618.43 2.72 1.91 5.45 3.8 8.191 5.67.213.15.426.29.639.44l.929.63c-.057.21-.148.4-.272.58-.234.35-.555.59-.914.74l-1.372-.93a893.209 893.209 0 0 1-8.229-5.65c-.449-.31-.898-.63-1.347-.94Zm16.471 11.22a2.001 2.001 0 0 1 .761-1.57c.308.21.617.42.926.62.218.15.436.29.654.44 2.758 1.84 5.526 3.67 8.304 5.49.224.14.449.29.674.44l.927.6a1.997 1.997 0 0 1-1.107 1.28c-.471-.3-.942-.61-1.412-.91-2.79-1.81-5.57-3.63-8.34-5.47-.462-.3-.925-.61-1.387-.92Zm16.702 10.86a1.977 1.977 0 0 1 .696-1.51c.308.19.616.39.925.59.229.14.458.29.688.44 2.799 1.78 5.608 3.55 8.428 5.31.235.14.471.29.706.44l.927.57c-.05.18-.125.35-.226.51-.203.33-.484.58-.804.74l-1.451-.9a906.833 906.833 0 0 1-8.462-5.28c-.476-.31-.952-.61-1.427-.91Zm16.945 10.51a2 2 0 0 1 .289-1.04c.097-.16.214-.3.344-.42.308.18.617.37.925.56.24.15.48.29.72.44 2.833 1.72 5.676 3.43 8.529 5.12.246.15.492.29.737.44l.927.54c-.046.17-.114.33-.205.48a1.92 1.92 0 0 1-.749.73l-1.489-.87a742.538 742.538 0 0 1-8.564-5.1c-.488-.29-.976-.59-1.464-.88Zm17.147 10.13c0-.34.086-.69.268-1 .087-.15.191-.29.307-.41l.926.54c.249.14.499.29.749.43 2.873 1.67 5.756 3.31 8.648 4.95.255.14.51.28.765.43.309.17.618.34.928.52-.043.15-.104.3-.185.44-.173.31-.415.56-.696.73l-1.342-.75c-.062-.03-.123-.07-.185-.1-2.903-1.63-5.796-3.27-8.68-4.92-.022-.01-.045-.03-.067-.04-.479-.27-.957-.55-1.436-.82Zm17.382 9.76a2.013 2.013 0 0 1 .519-1.34l.928.51c.258.14.517.29.776.43 2.906 1.6 5.822 3.18 8.747 4.75l.79.42c.31.17.62.33.93.5a2.016 2.016 0 0 1-.81 1.13c-.42-.22-.839-.45-1.259-.67-.101-.05-.202-.11-.303-.16a923.257 923.257 0 0 1-8.778-4.73c-.083-.04-.165-.09-.248-.13-.431-.24-.861-.47-1.292-.71Zm17.569 9.38c-.001-.31.072-.63.226-.92.068-.13.149-.25.24-.36.31.16.62.32.93.49.267.14.534.27.801.41 2.941 1.54 5.892 3.06 8.852 4.57.271.14.542.27.814.41.311.16.621.32.932.47-.035.13-.084.26-.147.39-.146.28-.351.52-.594.7-.403-.2-.807-.41-1.21-.61-.129-.06-.258-.13-.388-.19-2.969-1.5-5.93-3.01-8.881-4.54l-.345-.18c-.41-.21-.82-.42-1.23-.64Zm17.782 9.01c0-.3.066-.6.207-.89.06-.12.131-.23.211-.33.31.15.621.3.932.46.274.14.549.27.824.41 2.976 1.47 5.962 2.93 8.957 4.37.278.14.557.27.836.4l.935.45a1.86 1.86 0 0 1-.13.35c-.133.28-.321.51-.545.69-.391-.18-.783-.37-1.174-.55-.152-.08-.305-.15-.458-.22a1285.27 1285.27 0 0 1-8.985-4.35l-.421-.21c-.396-.19-.793-.39-1.189-.58Zm17.964 8.61c0-.28.06-.57.188-.84a2.3 2.3 0 0 1 .183-.32c.312.15.624.3.935.44.282.14.564.27.845.4 3.004 1.41 6.017 2.8 9.038 4.17l.857.39c.312.14.625.29.938.43-.028.11-.066.21-.114.32-.12.27-.292.49-.497.67l-1.146-.51-.519-.24c-3.03-1.36-6.052-2.74-9.064-4.14-.162-.08-.324-.15-.486-.23l-1.158-.54Zm18.148 8.23c0-.27.055-.54.17-.81.046-.1.099-.2.158-.29l.94.42c.288.13.576.26.864.38 3.039 1.35 6.086 2.67 9.142 3.99.292.12.583.25.875.37.314.14.628.27.942.4-.025.1-.058.2-.099.3-.109.25-.264.47-.451.65-.375-.16-.749-.32-1.124-.47-.191-.09-.382-.17-.573-.25a968.9 968.9 0 0 1-9.167-3.95l-.544-.24c-.378-.17-.755-.33-1.133-.5Zm18.33 7.83a1.983 1.983 0 0 1 .288-1.03c.314.13.629.26.943.4l.882.36c3.06 1.28 6.129 2.54 9.206 3.78l.891.36c.315.13.631.25.946.38-.022.09-.051.18-.086.26a1.95 1.95 0 0 1-.406.64c-.368-.15-.737-.3-1.105-.44-.207-.09-.415-.17-.622-.25a767.989 767.989 0 0 1-9.23-3.75l-.595-.24c-.371-.16-.742-.31-1.112-.47Zm18.478 7.43c0-.24.043-.48.136-.72.034-.09.072-.17.115-.25.316.13.631.25.947.38.299.11.599.23.898.35 3.093 1.21 6.195 2.4 9.304 3.58.302.11.604.23.906.34l.951.36a2.059 2.059 0 0 1-.437.85c-.363-.14-.726-.27-1.089-.41-.223-.08-.445-.17-.667-.25a984.269 984.269 0 0 1-9.327-3.55c-.214-.08-.428-.17-.642-.25-.365-.14-.73-.28-1.095-.43Zm18.666 7.04a1.962 1.962 0 0 1 .218-.9c.317.11.634.23.951.35l.913.33c3.11 1.14 6.228 2.26 9.354 3.37l.92.33.955.33c-.017.07-.038.14-.062.22-.077.21-.187.41-.323.58-.359-.13-.717-.25-1.076-.38l-.708-.24c-3.133-1.1-6.258-2.22-9.375-3.35l-.686-.24c-.36-.13-.72-.27-1.081-.4Zm18.769 6.62c0-.21.035-.43.108-.65.023-.06.049-.13.079-.19l.956.33c.308.1.617.21.925.31 3.142 1.08 6.291 2.13 9.447 3.17.311.11.621.21.932.31.32.11.64.21.959.32-.014.06-.031.12-.052.18-.067.21-.163.39-.284.56-.354-.12-.709-.23-1.064-.35l-.746-.24a998.74 998.74 0 0 1-9.466-3.14c-.242-.08-.483-.17-.725-.25l-1.069-.36Zm18.952 6.22c0-.2.03-.4.094-.6.019-.06.04-.12.064-.18.32.1.641.21.961.31l.937.3c3.161 1 6.33 1.99 9.507 2.96.314.1.628.19.942.29.322.1.643.19.964.29a2.007 2.007 0 0 1-.29.69c-.351-.1-.703-.21-1.054-.31l-.781-.24c-3.182-.96-6.357-1.94-9.525-2.94-.254-.07-.507-.15-.761-.23-.353-.12-.706-.23-1.058-.34Zm19.045 5.8c0-.19.026-.37.081-.56.015-.05.032-.11.052-.16.321.1.643.19.965.29.315.09.631.18.947.28a1010.692 1010.692 0 0 0 10.522 3.02l.968.27c-.01.05-.021.1-.035.15-.05.17-.122.34-.213.49-.348-.1-.697-.19-1.045-.29-.271-.07-.542-.15-.813-.23-3.202-.89-6.398-1.8-9.586-2.72-.265-.08-.53-.16-.795-.23-.35-.11-.699-.21-1.048-.31Zm19.191 5.39c0-.17.023-.35.069-.52.013-.04.026-.09.042-.13.323.08.646.17.969.26.319.09.637.17.956.26 3.211.87 6.429 1.72 9.654 2.55.32.09.641.17.961.25.324.09.648.17.972.25l-.027.12c-.043.17-.104.32-.182.46-.345-.08-.691-.17-1.037-.26l-.842-.21c-3.23-.83-6.453-1.67-9.669-2.53-.275-.07-.55-.15-.826-.22-.347-.09-.693-.19-1.04-.28Zm19.296 4.97a1.971 1.971 0 0 1 .09-.59l.974.24.964.24c3.218.8 6.442 1.57 9.672 2.34.323.07.646.15.968.22.326.08.651.16.977.23-.006.04-.014.07-.022.11-.035.15-.086.29-.151.42l-1.031-.24a27.84 27.84 0 0 1-.869-.2 788.21 788.21 0 0 1-9.685-2.31c-.285-.06-.569-.13-.854-.2-.344-.09-.689-.17-1.033-.26Zm19.391 4.55a1.968 1.968 0 0 1 .072-.53c.326.07.652.15.978.22.323.07.647.15.971.22 3.244.73 6.494 1.44 9.75 2.13l.975.21c.327.07.653.14.98.2l-.016.09c-.029.14-.071.27-.125.39l-1.024-.21c-.298-.07-.596-.13-.893-.19-3.261-.68-6.515-1.39-9.762-2.1-.294-.07-.587-.13-.88-.2-.342-.07-.684-.15-1.026-.23Zm19.518 4.14a1.912 1.912 0 0 1 .058-.47c.327.06.654.13.981.2.326.06.651.13.977.19 3.245.66 6.496 1.29 9.753 1.91.327.07.654.13.98.19l.984.18a2.124 2.124 0 0 1-.112.43c-.34-.07-.68-.13-1.019-.19-.305-.06-.61-.12-.915-.17a793.304 793.304 0 0 1-10.665-2.07c-.341-.06-.681-.13-1.022-.2Zm19.548 3.7c0-.11.01-.23.031-.35l.013-.06c.328.06.656.12.985.17l.982.18c3.269.59 6.544 1.15 9.825 1.71.329.05.657.11.985.16.329.05.658.11.987.16l-.008.06a1.9 1.9 0 0 1-.078.31c-.339-.05-.677-.11-1.015-.16-.311-.05-.623-.11-.934-.16-3.284-.54-6.562-1.1-9.834-1.67-.308-.06-.615-.11-.923-.17l-1.016-.18Zm19.69 3.29c0-.1.008-.2.024-.31l.008-.05c.33.06.659.11.989.16.328.05.657.1.986.16 3.273.51 6.552 1 9.837 1.48l.988.15c.33.04.661.09.991.14l-.006.04a1.84 1.84 0 0 1-.059.27c-.337-.04-.674-.09-1.011-.14-.317-.04-.634-.09-.95-.13-3.287-.47-6.569-.96-9.844-1.46l-.941-.15c-.338-.05-.675-.1-1.012-.16Zm19.684 2.86a2.226 2.226 0 0 1 .024-.31c.33.05.661.09.991.14.33.04.66.09.99.13 3.288.45 6.581.87 9.879 1.28l.992.12.993.12-.004.03c-.01.08-.024.16-.042.24l-1.008-.12-.964-.12c-3.301-.4-6.596-.82-9.885-1.25-.319-.04-.638-.08-.957-.13-.336-.04-.672-.09-1.009-.13Zm19.792 2.44c0-.08.004-.15.013-.23l.003-.03.994.12c.331.04.662.07.993.11 3.308.37 6.622.73 9.941 1.07.332.03.663.06.995.1.331.03.663.06.995.1l-.002.02c-.007.06-.016.13-.029.19-.335-.03-.67-.07-1.005-.1l-.976-.09c-3.321-.33-6.636-.68-9.947-1.04-.323-.04-.646-.08-.969-.11-.335-.04-.671-.08-1.006-.11Zm19.822 2.01c0-.06.003-.12.008-.18l.002-.02.996.09.996.09c3.298.3 6.601.58 9.909.85.332.02.664.05.997.08.332.02.664.05.997.07l-.001.02c-.004.05-.01.1-.018.15-.335-.03-.669-.05-1.003-.08-.329-.02-.657-.05-.986-.07-3.309-.26-6.614-.54-9.913-.83-.327-.03-.653-.05-.98-.08l-1.004-.09Zm19.849 1.58c0-.05.002-.09.005-.14l.001-.01c.332.02.665.05.998.07.332.02.664.05.997.07 3.318.23 6.641.44 9.968.64l.998.06c.333.02.666.03.999.05l-.001.01c-.002.04-.005.07-.009.11l-1.002-.06c-.331-.01-.661-.03-.992-.05-3.328-.19-6.652-.39-9.971-.61-.33-.03-.659-.05-.988-.07-.335-.02-.669-.05-1.003-.07Zm33.848 1.72.003-.06.001-.01-1-.03c-.333-.01-.666-.03-.999-.04-3.31-.12-6.616-.26-9.918-.42-.333-.02-.666-.03-.999-.05-.333-.02-.666-.03-.998-.05l-.001.01-.002.09c.334.02.667.04 1.001.05.331.02.663.03.995.05 3.302.15 6.608.28 9.919.4l.997.03 1.001.03ZM2.01 921.629a944.248 944.248 0 0 0 .003 9.368m-.003-9.368.003-.624Z" clip-rule="evenodd" mask="url(#a)"/></svg>