<svg xmlns="http://www.w3.org/2000/svg" width="372" height="246" fill="none"><g clip-path="url(#a)"><rect width="372" height="245.182" fill="#F6F7FA" rx="9.223"/><path fill="#1A96D4" d="M15.943 13.248h.94v5.05h-.995l-2-3.432v3.431h-.94v-5.05h.996l1.999 3.439v-3.438Zm2.946 4.088c.12.23.35.346.691.346.342 0 .572-.116.692-.346.12-.23.18-.57.18-1.017 0-.447-.06-.786-.18-1.017-.12-.23-.35-.346-.692-.346-.341 0-.572.116-.691.346-.12.23-.18.57-.18 1.017 0 .447.06.786.18 1.017Zm2.49-1.017c0 1.384-.6 2.075-1.799 2.075-1.199 0-1.798-.691-1.798-2.075 0-1.383.6-2.075 1.798-2.075 1.2 0 1.799.691 1.799 2.075Zm2.648 1.978h-1.031l-1.342-3.956h.934l.92 2.863.927-2.863h.934l-1.342 3.956Zm2.725-.961c.12.23.35.346.691.346.341 0 .572-.116.692-.346.12-.23.18-.57.18-1.017 0-.447-.06-.786-.18-1.017-.12-.23-.35-.346-.692-.346-.341 0-.572.116-.691.346-.12.23-.18.57-.18 1.017 0 .447.06.786.18 1.017Zm2.49-1.017c0 1.384-.6 2.075-1.799 2.075-1.199 0-1.798-.691-1.798-2.075 0-1.383.6-2.075 1.798-2.075 1.2 0 1.799.691 1.799 2.075Zm2.803-3.071h1.68c.817 0 1.37.249 1.66.747.144.24.243.5.298.781.056.282.083.595.083.941 0 .341-.016.63-.048.865a2.849 2.849 0 0 1-.187.692 1.533 1.533 0 0 1-.353.546c-.327.318-.811.477-1.453.477h-1.68v-5.05Zm1.556.726h-.616v3.597h.616c.493 0 .828-.178 1.003-.533.148-.309.221-.73.221-1.265 0-.535-.073-.957-.221-1.266-.175-.355-.51-.533-1.003-.533Zm3.98 3.362c.12.23.35.346.69.346.342 0 .573-.116.693-.346.12-.23.18-.57.18-1.017 0-.447-.06-.786-.18-1.017-.12-.23-.35-.346-.692-.346-.341 0-.572.116-.692.346-.12.23-.18.57-.18 1.017 0 .447.06.786.18 1.017Zm2.49-1.017c0 1.384-.6 2.075-1.8 2.075-1.198 0-1.798-.691-1.798-2.075 0-1.383.6-2.075 1.799-2.075 1.199 0 1.798.691 1.798 2.075Zm1.596-1.03c-.115.22-.173.564-.173 1.03 0 .466.058.81.173 1.03.12.222.325.333.616.333.295 0 .505-.06.63-.18.128-.12.197-.31.207-.567l.726.034c-.028.47-.166.826-.415 1.066-.244.24-.648.36-1.21.36-.66 0-1.11-.215-1.35-.644a2.27 2.27 0 0 1-.242-.65 4.367 4.367 0 0 1-.062-.782c0-.3.02-.563.062-.789.047-.23.127-.447.242-.65.236-.424.685-.636 1.35-.636.557 0 .959.115 1.203.346.244.226.383.565.415 1.017l-.72.096c-.009-.258-.078-.447-.207-.567-.124-.12-.334-.18-.63-.18-.29 0-.495.111-.615.332Zm4.158 3.105c-.811 0-1.217-.42-1.217-1.259v-2.794h.927v2.642c0 .24.046.417.138.533.097.11.256.166.477.166.314 0 .611-.148.893-.443v-2.898h.927v3.956h-.602l-.263-.477c-.36.383-.786.574-1.28.574Zm5.362-4.15c.553 0 .94.159 1.162.477.396-.318.818-.477 1.266-.477.451 0 .786.113 1.003.339.216.221.325.528.325.92v2.794h-.927v-2.642c0-.24-.044-.415-.132-.526-.087-.115-.242-.173-.463-.173a1.33 1.33 0 0 0-.865.325c.01.093.014.166.014.222v2.794h-.927v-2.642c0-.24-.046-.415-.138-.526-.093-.115-.27-.173-.533-.173-.258 0-.516.093-.775.277v3.064h-.927v-3.956h.492l.242.325c.373-.282.768-.422 1.183-.422Zm6.357 4.15c-.636 0-1.09-.17-1.363-.512-.272-.346-.408-.867-.408-1.563 0-1.383.581-2.075 1.743-2.075.669 0 1.126.207 1.37.622.212.355.318.817.318 1.384v.249h-2.532c.005.433.076.74.215.92.138.175.366.263.685.263.511 0 .784-.185.816-.554l.76.028c-.073.826-.608 1.238-1.604 1.238Zm.533-3.21c-.116-.152-.305-.228-.568-.228-.263 0-.456.074-.58.222-.12.143-.199.373-.236.691h1.598c-.028-.309-.1-.537-.214-.684Zm2.728-.484c.434-.304.877-.456 1.328-.456.457 0 .787.113.99.339.203.221.304.528.304.92v2.794H62.5V15.6c0-.236-.044-.402-.131-.498-.083-.097-.23-.146-.443-.146-.332 0-.641.104-.927.312v3.03h-.927V14.34h.436l.297.36Zm3.266.242v-.601h.636v-.72l.927-.235v.955h.754v.601h-.754v2.235c0 .198.028.339.083.422.06.083.145.124.256.124.115 0 .24-.018.374-.055l.117.574a2.126 2.126 0 0 1-.733.152c-.212 0-.383-.025-.512-.076a.847.847 0 0 1-.29-.173.658.658 0 0 1-.146-.276 2.035 2.035 0 0 1-.076-.602v-2.325h-.636Zm3.786 2.394c.12.23.35.346.692.346.341 0 .572-.116.692-.346.12-.23.18-.57.18-1.017 0-.447-.06-.786-.18-1.017-.12-.23-.35-.346-.692-.346-.341 0-.572.116-.692.346-.12.23-.18.57-.18 1.017 0 .447.06.786.18 1.017Zm2.49-1.017c0 1.384-.6 2.075-1.798 2.075-1.2 0-1.799-.691-1.799-2.075 0-1.383.6-2.075 1.799-2.075 1.199 0 1.798.691 1.798 2.075Z"/><g clip-path="url(#b)"><rect width="21.521" height="21.521" x="12.297" y="39.828" fill="#D8DBDF" rx="10.76"/><path fill="#1D2229" d="M27.637 54.844h-5.38v-7.282l4.652 2.549.728 4.733Z"/><path fill="#FFB6B6" d="M23.25 53.559a3.493 3.493 0 1 0 0-6.986 3.493 3.493 0 0 0 0 6.986Z"/><path fill="#FFB6B6" d="m21.245 54.075-.158-1.595 3.151-.589 1.861 4.53-3.236 3.722-2.306-4.53.688-1.538Z"/><path fill="#1A96D4" d="m30.786 57.758-.12.121a10.682 10.682 0 0 1-7.609 3.152 10.677 10.677 0 0 1-6.92-2.52c.01-.03.021-.058.032-.086.613-1.597 1.823-2.378 2.558-2.72a3.71 3.71 0 0 1 .611-.231l.863-1.554.607 1.133.447.835 1.836 3.425 1.584-3.943.49-1.223.126-.313.599.466.566.44 1.14.252.925.204 1.257.278c.508.414.817 1.2.99 2.179l.018.105Z"/><path fill="#313740" d="M21.413 46.096a2.68 2.68 0 0 1 2.035-1.277 2.68 2.68 0 0 1 2.226.906c.324.375.536.835.851 1.218.679.823 1.835 1.304 2.132 2.329.13.447.065.924 0 1.385l-.169 1.185c-.044.307-.085.631.03.92.135.338.459.56.668.857.356.508.33 1.25-.06 1.732-.17.208-.395.366-.572.567-.178.202-.31.478-.235.736.142.495.918.614 1.003 1.121.044.26-.136.52-.37.638-.236.119-.512.122-.774.09a3.23 3.23 0 0 1-2.396-1.617 3.229 3.229 0 0 1-.092-2.89c.351-.742 1.003-1.4.996-2.221-.004-.448-.21-.866-.41-1.266l-1.233-2.457c-.22-.439-.476-.911-.929-1.1-.35-.145-.748-.089-1.122-.03-.375.06-.772.118-1.123-.025s-.617-.568-.45-.909"/><path fill="#313740" d="M22.025 46.133c-.675-.222-1.432.135-1.889.679-.457.544-.678 1.242-.89 1.92l-.362 1.166-.341 1.097c-.134.43-.27.887-.16 1.323.08.316.284.603.289.928.004.34-.209.639-.395.923-.187.284-.362.622-.273.95.135.5.83.774.791 1.29-.013.172-.112.331-.11.504.002.22.174.41.375.497.202.087.428.092.648.088a10.035 10.035 0 0 0 2.004-.238c.253-.057.51-.126.72-.277.211-.151.368-.401.34-.66-.042-.4-.474-.629-.692-.969-.214-.334-.209-.757-.301-1.143-.127-.53-.44-.993-.675-1.485-.885-1.85-.575-4.206.756-5.765.118-.138.247-.276.296-.45.05-.175-.014-.398-.185-.459"/></g><path fill="#1D2229" d="M40.834 41.01h2.241c1.088 0 1.826.333 2.213.997.191.32.323.667.397 1.042.074.375.11.793.11 1.254 0 .455-.02.84-.064 1.153a3.801 3.801 0 0 1-.249.923 2.046 2.046 0 0 1-.47.728c-.437.425-1.082.637-1.937.637h-2.241V41.01Zm2.075.97h-.82v4.795h.82c.658 0 1.104-.236 1.337-.71.197-.412.295-.974.295-1.688 0-.713-.098-1.276-.295-1.688-.233-.473-.68-.71-1.337-.71Zm5.6 5.764h-1.235v-5.276h.58l.49.82c.424-.602 1.023-.918 1.798-.95V43.4c-.725.018-1.27.24-1.632.664v3.68Zm4.374-5.405c1.34 0 2.011.612 2.011 1.835v3.57h-.802l-.35-.646c-.493.517-1.067.775-1.725.775-.468 0-.824-.13-1.07-.388-.24-.264-.36-.614-.36-1.051 0-.443.138-.8.415-1.07.277-.27.793-.461 1.55-.572l1.106-.166v-.442c0-.597-.283-.895-.848-.895-.535 0-.852.27-.95.811l-.96-.285c.234-.984.895-1.476 1.983-1.476Zm-.47 4.63c.418 0 .833-.206 1.245-.618v-.95l-.885.157c-.4.067-.664.175-.793.323a.737.737 0 0 0-.194.498c0 .184.055.329.166.433.11.105.264.157.461.157Zm4.895.609a.342.342 0 0 1-.203.175.967.967 0 0 1-.397.064.665.665 0 0 1-.415-.12.515.515 0 0 1-.184-.248 1.657 1.657 0 0 1-.028-.323c0-.123.006-.219.018-.286a.75.75 0 0 1 .083-.23c.074-.16.259-.24.554-.24.307 0 .498.08.572.24a.9.9 0 0 1 .101.423c0 .148-.006.256-.018.323a.763.763 0 0 1-.083.222Zm6.25-2.223h-1.07v2.389h-1.253V41.01h2.324c.811 0 1.383.221 1.715.664.29.4.434.904.434 1.512 0 .603-.145 1.101-.434 1.495-.332.448-.904.673-1.715.673Zm-1.07-.969h.877c.726 0 1.088-.4 1.088-1.199 0-.805-.362-1.208-1.088-1.208h-.876v2.407Zm6.104-2.047c1.34 0 2.01.612 2.01 1.835v3.57H69.8l-.35-.646c-.493.517-1.067.775-1.725.775-.468 0-.824-.13-1.07-.388-.24-.264-.36-.614-.36-1.051 0-.443.138-.8.415-1.07.277-.27.793-.461 1.55-.572l1.106-.166v-.442c0-.597-.282-.895-.848-.895-.535 0-.852.27-.95.811l-.96-.285c.234-.984.895-1.476 1.984-1.476Zm-.47 4.63c.417 0 .832-.206 1.244-.618v-.95l-.885.157c-.4.067-.664.175-.793.323a.737.737 0 0 0-.194.498c0 .184.055.329.166.433.11.105.264.157.461.157Zm5.65.904c-1.082 0-1.623-.56-1.623-1.679v-3.726h1.236v3.523c0 .32.061.557.184.71.13.148.341.222.637.222.418 0 .814-.197 1.19-.59v-3.865h1.235v5.276h-.802l-.35-.637c-.48.51-1.049.766-1.707.766Zm5.83-.13h-1.236v-6.935l1.236-.166v7.102Zm3.59-5.404c1.34 0 2.01.612 2.01 1.835v3.57H84.4l-.35-.646c-.492.517-1.067.775-1.725.775-.467 0-.824-.13-1.07-.388-.24-.264-.36-.614-.36-1.051 0-.443.139-.8.416-1.07.276-.27.793-.461 1.549-.572l1.107-.166v-.442c0-.597-.283-.895-.849-.895-.535 0-.851.27-.95.811l-.959-.285c.234-.984.895-1.476 1.983-1.476Zm-.47 4.63c.418 0 .833-.206 1.245-.618v-.95l-.886.157c-.4.067-.664.175-.793.323a.737.737 0 0 0-.194.498c0 .184.056.329.166.433.111.105.265.157.462.157Zm10.653-5.958h1.254v6.733h-1.328l-2.665-4.575v4.575H89.38V41.01h1.329l2.665 4.584V41.01Zm4.518 6.862c-1.082 0-1.624-.56-1.624-1.679v-3.726h1.236v3.523c0 .32.062.557.185.71.129.148.341.222.636.222.418 0 .815-.197 1.19-.59v-3.865h1.236v5.276h-.802l-.35-.637c-.48.51-1.05.766-1.707.766Zm5.571-4.925c.578-.406 1.168-.61 1.771-.61.609 0 1.048.151 1.319.453.27.295.406.704.406 1.227v3.726h-1.236v-3.597c0-.314-.059-.535-.175-.664-.111-.13-.308-.194-.591-.194-.442 0-.854.138-1.236.415v4.04h-1.236v-5.276h.582l.396.48Zm6.964 4.925c-.848 0-1.454-.228-1.817-.683-.362-.46-.544-1.156-.544-2.084 0-1.845.775-2.767 2.325-2.767.891 0 1.5.277 1.826.83.283.473.424 1.088.424 1.845v.332h-3.376c.006.578.102.987.286 1.226.185.234.489.35.913.35.683 0 1.046-.245 1.089-.737l1.014.037c-.098 1.1-.811 1.65-2.14 1.65Zm.711-4.28c-.154-.203-.406-.304-.757-.304-.35 0-.608.098-.774.295-.16.19-.265.498-.314.922h2.131c-.037-.412-.133-.716-.286-.913Zm6.433 2.675c0 1.051-.738 1.577-2.214 1.577-.646 0-1.125-.138-1.439-.415-.313-.283-.51-.692-.59-1.227l.959-.147c.068.59.434.885 1.098.885.67 0 1.005-.209 1.005-.627a.43.43 0 0 0-.203-.387c-.129-.086-.393-.175-.793-.268l-.424-.101c-.548-.13-.941-.317-1.181-.563-.234-.252-.35-.615-.35-1.088 0-1.045.713-1.568 2.139-1.568.615 0 1.073.141 1.375.424.307.277.498.683.571 1.218l-.959.138c-.067-.584-.409-.876-1.024-.876-.608 0-.913.209-.913.627 0 .172.059.304.176.397.123.086.368.172.737.258l.48.12c.547.135.941.326 1.181.572.246.24.369.59.369 1.051Z"/><path fill="#6B727B" d="M42.351 57.505h-1.313v-.53h1.313c.255 0 .46-.04.618-.122a.758.758 0 0 0 .345-.337 1.06 1.06 0 0 0 .111-.494 1.05 1.05 0 0 0-.111-.476.823.823 0 0 0-.345-.358c-.157-.092-.363-.138-.618-.138H41.19v4.384h-.652v-4.918h1.813c.372 0 .686.064.943.193.256.128.451.306.584.533.133.225.2.483.2.774 0 .315-.067.584-.2.807a1.274 1.274 0 0 1-.584.51c-.257.115-.571.172-.943.172Zm4.584.96a.52.52 0 0 0-.061-.25.517.517 0 0 0-.24-.213c-.12-.066-.3-.122-.54-.17a4.275 4.275 0 0 1-.55-.151 1.688 1.688 0 0 1-.416-.213.892.892 0 0 1-.26-.294.92.92 0 0 1 .003-.804c.065-.128.157-.242.274-.34.119-.1.262-.178.429-.234.166-.056.352-.084.557-.084.293 0 .543.051.75.155.207.104.366.242.476.416.11.17.166.36.166.57h-.625a.53.53 0 0 0-.092-.294.674.674 0 0 0-.26-.24.84.84 0 0 0-.415-.094.946.946 0 0 0-.422.081.542.542 0 0 0-.233.2.502.502 0 0 0-.038.438c.025.052.068.1.129.146.06.043.146.083.257.121.11.039.25.077.422.115.3.068.546.149.74.243.193.095.337.21.432.348a.86.86 0 0 1 .142.5.974.974 0 0 1-.389.784 1.424 1.424 0 0 1-.446.223 1.991 1.991 0 0 1-.577.077c-.322 0-.595-.057-.818-.172a1.263 1.263 0 0 1-.506-.446 1.067 1.067 0 0 1-.172-.577h.628a.646.646 0 0 0 .148.408c.09.1.2.17.331.213.131.04.26.061.389.061.171 0 .314-.023.429-.068a.597.597 0 0 0 .267-.185.43.43 0 0 0 .09-.27Zm2.124-2.686v3.655h-.628v-3.655h.628Zm-.675-.97c0-.1.03-.186.091-.256.063-.07.155-.104.277-.104.12 0 .21.034.274.104.065.07.097.156.097.257 0 .097-.032.18-.097.25-.064.067-.155.101-.274.101-.122 0-.214-.034-.277-.101a.368.368 0 0 1-.091-.25Zm3.141 4.179c.149 0 .286-.03.412-.091a.85.85 0 0 0 .31-.25.696.696 0 0 0 .14-.368h.594a1.114 1.114 0 0 1-.22.604 1.5 1.5 0 0 1-1.236.618 1.67 1.67 0 0 1-.72-.145 1.426 1.426 0 0 1-.506-.398 1.782 1.782 0 0 1-.3-.581 2.451 2.451 0 0 1-.099-.7v-.141c0-.246.033-.478.098-.696a1.81 1.81 0 0 1 .3-.585c.136-.168.305-.301.508-.398.205-.097.444-.145.719-.145.286 0 .536.058.75.175.214.115.382.273.503.473.124.198.191.423.203.676h-.595a.901.901 0 0 0-.128-.409.83.83 0 0 0-.733-.402.942.942 0 0 0-.483.115.848.848 0 0 0-.307.304 1.42 1.42 0 0 0-.163.422c-.031.153-.047.31-.047.47v.142c0 .16.016.317.047.472.032.156.085.296.16.422a.882.882 0 0 0 .307.304.96.96 0 0 0 .486.112Zm1.993-1.34v-.079c0-.263.038-.507.115-.733.076-.227.186-.424.33-.59.145-.17.32-.3.524-.392.205-.095.435-.142.69-.142.256 0 .487.047.692.142.207.092.382.223.526.391.147.167.258.364.335.592.077.225.115.469.115.732v.078c0 .264-.038.508-.115.733a1.754 1.754 0 0 1-.334.591 1.533 1.533 0 0 1-1.213.53c-.257 0-.488-.046-.693-.138a1.568 1.568 0 0 1-.526-.392 1.786 1.786 0 0 1-.331-.591 2.265 2.265 0 0 1-.115-.733Zm.625-.079v.078c0 .183.021.355.064.517.043.16.107.302.192.425a.976.976 0 0 0 .328.294.95.95 0 0 0 .456.105c.171 0 .32-.035.45-.105a.942.942 0 0 0 .323-.294c.086-.123.15-.265.193-.425a1.92 1.92 0 0 0 .068-.517v-.078c0-.18-.023-.35-.068-.51a1.31 1.31 0 0 0-.196-.429.91.91 0 0 0-.777-.405.921.921 0 0 0-.452.108.972.972 0 0 0-.325.297 1.35 1.35 0 0 0-.192.43c-.043.16-.064.33-.064.51Zm.662-2.33.655-.993h.753l-.905.993h-.503Zm3.502-.993v5.188h-.628v-5.188h.628Zm.838 3.401v-.078c0-.263.038-.507.115-.733.076-.227.187-.424.33-.59.145-.17.32-.3.524-.392.205-.095.435-.142.69-.142.256 0 .487.047.692.142.207.092.383.223.527.391.146.167.257.364.334.592.077.225.115.469.115.732v.078c0 .264-.038.508-.115.733a1.754 1.754 0 0 1-.334.591 1.533 1.533 0 0 1-1.213.53 1.67 1.67 0 0 1-.692-.138 1.568 1.568 0 0 1-.527-.392 1.786 1.786 0 0 1-.331-.591 2.265 2.265 0 0 1-.115-.733Zm.625-.078v.078c0 .183.021.355.064.517.043.16.107.302.192.425a.974.974 0 0 0 .328.294.95.95 0 0 0 .456.105c.171 0 .32-.035.45-.105a.942.942 0 0 0 .324-.294 1.36 1.36 0 0 0 .192-.425c.045-.162.068-.334.068-.517v-.078c0-.18-.023-.35-.068-.51a1.314 1.314 0 0 0-.196-.429.909.909 0 0 0-.777-.405.921.921 0 0 0-.452.108.971.971 0 0 0-.325.297 1.35 1.35 0 0 0-.192.43c-.043.16-.064.33-.064.51Zm5.853-1.79h.568v3.577c0 .322-.066.597-.196.824-.13.228-.313.4-.547.517-.232.12-.5.18-.804.18-.126 0-.275-.021-.446-.062a1.798 1.798 0 0 1-.5-.199 1.25 1.25 0 0 1-.409-.375l.328-.371c.153.184.313.313.48.385.168.072.335.108.5.108.198 0 .369-.038.513-.112a.777.777 0 0 0 .334-.33c.081-.145.122-.323.122-.534v-2.804l.057-.804Zm-2.516 1.868v-.07c0-.28.032-.533.098-.76.067-.23.163-.428.287-.592a1.289 1.289 0 0 1 1.057-.513c.23 0 .43.04.601.121.174.08.32.195.44.348.121.151.217.334.286.547.07.214.119.456.146.727v.31a3.187 3.187 0 0 1-.146.723 1.7 1.7 0 0 1-.287.547 1.192 1.192 0 0 1-.439.348 1.458 1.458 0 0 1-.608.118 1.27 1.27 0 0 1-.594-.138 1.353 1.353 0 0 1-.453-.389 1.838 1.838 0 0 1-.29-.587 2.671 2.671 0 0 1-.098-.74Zm.625-.07v.07c0 .183.018.354.054.514.038.16.095.3.172.422a.872.872 0 0 0 .3.287.884.884 0 0 0 .436.101.925.925 0 0 0 .514-.132.953.953 0 0 0 .32-.347c.082-.145.145-.301.19-.47v-.814a1.654 1.654 0 0 0-.115-.358 1.101 1.101 0 0 0-.196-.31.847.847 0 0 0-.294-.22.974.974 0 0 0-.412-.081.864.864 0 0 0-.442.108.861.861 0 0 0-.301.29 1.393 1.393 0 0 0-.172.426c-.036.16-.054.33-.054.513Zm5.563 1.232v-1.881a.762.762 0 0 0-.088-.375.575.575 0 0 0-.257-.25.93.93 0 0 0-.425-.088.999.999 0 0 0-.416.081.725.725 0 0 0-.277.213.466.466 0 0 0-.098.283h-.625c0-.13.034-.26.102-.388.067-.128.164-.244.29-.348.128-.106.282-.189.46-.25.18-.063.38-.094.6-.094.266 0 .5.045.703.135.205.09.365.226.48.408.117.18.175.407.175.68v1.702c0 .121.01.25.03.388.023.138.056.256.099.355v.054h-.652a1.166 1.166 0 0 1-.074-.287 2.316 2.316 0 0 1-.027-.338Zm.108-1.59.006.438h-.631c-.178 0-.337.015-.476.044a1.1 1.1 0 0 0-.352.125.563.563 0 0 0-.29.507c0 .115.026.22.078.314.051.094.129.17.233.226a.847.847 0 0 0 .388.081 1.055 1.055 0 0 0 .855-.419.64.64 0 0 0 .141-.34l.267.3a.91.91 0 0 1-.128.314 1.502 1.502 0 0 1-.692.591 1.343 1.343 0 0 1-.534.101c-.248 0-.465-.048-.652-.145a1.115 1.115 0 0 1-.432-.388 1.028 1.028 0 0 1-.152-.55c0-.197.038-.369.115-.518a.997.997 0 0 1 .33-.374c.145-.102.318-.178.52-.23.203-.052.43-.078.68-.078h.726Zm6.279.651h.648a2.07 2.07 0 0 1-.267.834 1.56 1.56 0 0 1-.611.585c-.263.142-.592.212-.986.212-.288 0-.55-.054-.787-.162a1.749 1.749 0 0 1-.605-.46c-.169-.2-.3-.44-.392-.718a3.07 3.07 0 0 1-.135-.94v-.49c0-.344.045-.656.135-.935.093-.281.224-.522.396-.723.173-.2.381-.354.624-.462a2 2 0 0 1 .821-.162c.372 0 .686.07.943.209a1.5 1.5 0 0 1 .597.58c.144.246.233.531.267.855h-.648a1.809 1.809 0 0 0-.176-.59.914.914 0 0 0-.365-.386c-.157-.09-.363-.135-.618-.135-.218 0-.41.042-.577.125a1.161 1.161 0 0 0-.416.355 1.65 1.65 0 0 0-.25.55 2.8 2.8 0 0 0-.084.713v.496c0 .241.025.468.074.68.052.211.13.397.233.557.104.16.235.286.395.378.16.09.35.135.568.135.277 0 .497-.044.662-.132a.862.862 0 0 0 .371-.378 1.92 1.92 0 0 0 .183-.591Zm2.12-3.624v5.188h-.627v-5.188h.628Zm1.68 1.533v3.655h-.625v-3.655h.624Zm-.646-.533.656-.993h.753l-.905.993h-.504Zm2.31 1.313v2.875h-.624v-3.655h.59l.035.78Zm-.148.91-.26-.011c.002-.25.04-.48.111-.692.072-.214.174-.4.304-.558a1.355 1.355 0 0 1 1.071-.496c.18 0 .342.024.486.074a.883.883 0 0 1 .369.23c.103.105.182.243.236.412.054.166.081.37.081.611v2.395h-.628v-2.402c0-.191-.028-.344-.085-.459a.52.52 0 0 0-.246-.253.884.884 0 0 0-.399-.081.925.925 0 0 0-.425.098 1.017 1.017 0 0 0-.328.27 1.357 1.357 0 0 0-.287.861Zm4.026-1.69v3.655h-.628v-3.655h.628Zm-.675-.97c0-.1.03-.186.09-.256.064-.07.156-.104.278-.104.12 0 .21.034.273.104a.36.36 0 0 1 .098.257.35.35 0 0 1-.098.25c-.063.067-.154.101-.273.101-.122 0-.214-.034-.277-.101a.368.368 0 0 1-.091-.25Zm3.14 4.179c.15 0 .287-.03.413-.091a.849.849 0 0 0 .31-.25.695.695 0 0 0 .14-.368h.594a1.115 1.115 0 0 1-.22.604 1.498 1.498 0 0 1-1.236.618c-.275 0-.515-.048-.72-.145a1.426 1.426 0 0 1-.506-.398 1.778 1.778 0 0 1-.3-.581 2.451 2.451 0 0 1-.099-.7v-.141c0-.246.033-.478.098-.696a1.81 1.81 0 0 1 .3-.585c.136-.168.305-.301.507-.398.205-.097.445-.145.72-.145.286 0 .536.058.75.175.214.115.381.273.503.473.124.198.191.423.203.676h-.595a.9.9 0 0 0-.128-.409.83.83 0 0 0-.733-.402.942.942 0 0 0-.483.115.847.847 0 0 0-.308.304 1.42 1.42 0 0 0-.162.422c-.031.153-.047.31-.047.47v.142c0 .16.016.317.047.472.032.156.085.296.16.422a.882.882 0 0 0 .306.304.967.967 0 0 0 .487.112Zm4.314-.179v-1.881a.762.762 0 0 0-.088-.375.574.574 0 0 0-.257-.25.93.93 0 0 0-.425-.088.999.999 0 0 0-.415.081.725.725 0 0 0-.277.213.466.466 0 0 0-.098.283h-.625c0-.13.034-.26.101-.388.068-.128.164-.244.29-.348.129-.106.282-.189.46-.25.18-.063.38-.094.601-.094.266 0 .5.045.703.135.205.09.364.226.48.408.116.18.175.407.175.68v1.702c0 .121.01.25.03.388.023.138.055.256.098.355v.054h-.652a1.166 1.166 0 0 1-.074-.287 2.317 2.317 0 0 1-.027-.338Zm.108-1.59.007.438h-.632c-.178 0-.336.015-.476.044-.14.027-.257.069-.351.125a.564.564 0 0 0-.29.507c0 .115.025.22.077.314s.13.17.233.226a.848.848 0 0 0 .388.081 1.054 1.054 0 0 0 .855-.419.64.64 0 0 0 .142-.34l.267.3a.91.91 0 0 1-.129.314 1.502 1.502 0 0 1-.692.591 1.343 1.343 0 0 1-.534.101c-.247 0-.465-.048-.652-.145a1.115 1.115 0 0 1-.432-.388 1.028 1.028 0 0 1-.152-.55c0-.197.038-.369.115-.518a.997.997 0 0 1 .33-.374c.145-.102.318-.178.521-.23.203-.052.429-.078.679-.078h.726Zm261.643-38.551-2.6 2.6a.372.372 0 0 1-.267.109.362.362 0 0 1-.273-.11.369.369 0 0 1-.111-.27.37.37 0 0 1 .111-.27l2.6-2.599-2.6-2.6a.373.373 0 0 1-.109-.267.366.366 0 0 1 .109-.272.367.367 0 0 1 .27-.112c.106 0 .196.037.27.112l2.6 2.6 2.599-2.6a.371.371 0 0 1 .267-.11.362.362 0 0 1 .273.11.368.368 0 0 1 .111.27.368.368 0 0 1-.111.27l-2.6 2.6 2.6 2.599a.37.37 0 0 1 .109.267.366.366 0 0 1-.109.273.367.367 0 0 1-.27.111.367.367 0 0 1-.27-.111l-2.599-2.6Z"/><rect width="347.405" height="21.521" x="12.297" y="80.88" fill="#fff" rx="3.074"/><path fill="#555C66" d="M25.595 94.653a.375.375 0 0 1-.274-.11.372.372 0 0 1-.11-.275c0-.109.037-.2.11-.273a.372.372 0 0 1 .274-.11h3.293c.535 0 .995-.177 1.38-.53.386-.354.58-.79.58-1.309 0-.519-.194-.954-.58-1.305a1.979 1.979 0 0 0-1.38-.527h-3.597l1.155 1.156a.368.368 0 0 1 .112.27.368.368 0 0 1-.111.27.362.362 0 0 1-.273.108.371.371 0 0 1-.267-.109l-1.756-1.755a.425.425 0 0 1-.131-.325.425.425 0 0 1 .131-.324l1.756-1.756a.367.367 0 0 1 .27-.111.37.37 0 0 1 .27.111c.074.075.11.165.108.273a.371.371 0 0 1-.108.267l-1.156 1.156h3.597c.75 0 1.392.25 1.926.75.535.5.802 1.118.802 1.852 0 .733-.267 1.351-.802 1.853a2.714 2.714 0 0 1-1.926.753h-3.293Z"/><path fill="#B6BCC3" d="M51.568 90.214h-3.597c-.535 0-.995.175-1.38.527a1.696 1.696 0 0 0-.58 1.305c0 .52.194.955.58 1.308.385.354.845.53 1.38.53h3.293a.375.375 0 0 1 .384.385c0 .108-.037.2-.11.273a.372.372 0 0 1-.274.11H47.97c-.75 0-1.392-.25-1.926-.752a2.443 2.443 0 0 1-.802-1.854c0-.733.267-1.35.802-1.85a2.719 2.719 0 0 1 1.926-.751h3.597l-1.155-1.156a.371.371 0 0 1-.11-.267.362.362 0 0 1 .11-.273.367.367 0 0 1 .27-.111.37.37 0 0 1 .27.111l1.755 1.756a.425.425 0 0 1 .131.324.425.425 0 0 1-.131.324l-1.756 1.757a.371.371 0 0 1-.267.108.362.362 0 0 1-.273-.109.368.368 0 0 1-.11-.27.37.37 0 0 1 .11-.27l1.156-1.155Z"/><rect width="49.438" height="15.372" x="193.504" y="83.954" fill="#F0F1F2" rx="3.074"/><path fill="#555C66" d="M206.597 89.769v4.371h-.582l-2.201-3.371v3.371h-.58v-4.37h.58l2.21 3.38v-3.38h.573Zm.796 2.783v-.069c0-.234.034-.451.102-.651.068-.203.166-.378.294-.526.128-.15.283-.266.465-.348.182-.084.387-.126.613-.126.228 0 .433.042.615.126.184.082.341.198.469.348.13.148.229.323.297.526.068.2.102.417.102.651v.07c0 .233-.034.45-.102.65a1.56 1.56 0 0 1-.297.526 1.364 1.364 0 0 1-1.078.471 1.47 1.47 0 0 1-.616-.123 1.39 1.39 0 0 1-.468-.348 1.589 1.589 0 0 1-.294-.525 2.014 2.014 0 0 1-.102-.652Zm.555-.069v.07c0 .161.019.314.057.459.038.142.095.268.171.378.078.11.175.197.291.261a.852.852 0 0 0 .406.093.821.821 0 0 0 .399-.093.837.837 0 0 0 .288-.261 1.21 1.21 0 0 0 .171-.379c.041-.144.061-.297.061-.459v-.069c0-.16-.02-.311-.061-.453a1.167 1.167 0 0 0-.174-.382.808.808 0 0 0-.69-.36.825.825 0 0 0-.403.096.864.864 0 0 0-.288.264 1.21 1.21 0 0 0-.171.382 1.75 1.75 0 0 0-.057.453Zm3.654-1.08v2.737h-.556v-3.248h.541l.015.51Zm1.015-.53-.003.517a1.41 1.41 0 0 0-.271-.024.89.89 0 0 0-.339.06.703.703 0 0 0-.249.168.81.81 0 0 0-.162.259 1.242 1.242 0 0 0-.075.324l-.156.09c0-.196.019-.38.057-.552.04-.173.101-.325.183-.457a.897.897 0 0 1 .312-.312.877.877 0 0 1 .703-.072Zm1.066.664v2.603h-.559v-3.248h.529l.03.645Zm-.115.856-.258-.009a2.22 2.22 0 0 1 .087-.615c.056-.19.139-.356.25-.496.11-.14.247-.248.411-.324.164-.078.354-.117.57-.117.152 0 .292.022.421.066a.847.847 0 0 1 .333.201c.094.092.167.21.219.354.052.144.078.319.078.523v2.164h-.555v-2.137a.825.825 0 0 0-.087-.409.5.5 0 0 0-.241-.222.866.866 0 0 0-.366-.072.874.874 0 0 0-.411.087.696.696 0 0 0-.264.24c-.066.103-.115.22-.145.352-.028.13-.042.268-.042.414Zm2.105-.306-.372.114a1.63 1.63 0 0 1 .087-.513c.058-.165.141-.31.249-.439.11-.128.245-.229.405-.303a1.27 1.27 0 0 1 .55-.114c.174 0 .328.023.462.069.136.046.25.117.342.213a.895.895 0 0 1 .214.363c.048.148.072.325.072.529v2.134h-.559V92c0-.182-.029-.323-.087-.424a.454.454 0 0 0-.24-.213.96.96 0 0 0-.366-.063.792.792 0 0 0-.325.063.67.67 0 0 0-.237.174.76.76 0 0 0-.147.25.925.925 0 0 0-.048.3Zm4.765 1.498v-1.672a.679.679 0 0 0-.078-.334.51.51 0 0 0-.228-.222.834.834 0 0 0-.379-.078.887.887 0 0 0-.369.072.643.643 0 0 0-.246.19.415.415 0 0 0-.087.252h-.556c0-.117.03-.232.09-.346a.999.999 0 0 1 .259-.309 1.29 1.29 0 0 1 .408-.222c.16-.056.338-.084.534-.084.236 0 .445.04.625.12.182.08.324.201.426.363.104.16.156.362.156.604v1.513c0 .108.009.223.027.345.02.122.049.227.087.315v.048h-.579a1.039 1.039 0 0 1-.066-.255 2.06 2.06 0 0 1-.024-.3Zm.096-1.414.006.39h-.562a2 2 0 0 0-.423.04.965.965 0 0 0-.312.11.502.502 0 0 0-.258.45c0 .103.023.196.069.28a.502.502 0 0 0 .207.201.752.752 0 0 0 .345.072.932.932 0 0 0 .76-.372.57.57 0 0 0 .126-.303l.237.267a.807.807 0 0 1-.114.279 1.337 1.337 0 0 1-.616.525c-.14.06-.298.09-.474.09a1.24 1.24 0 0 1-.579-.129.986.986 0 0 1-.385-.345.915.915 0 0 1-.135-.49.99.99 0 0 1 .102-.459.88.88 0 0 1 .295-.333c.128-.09.282-.158.462-.204.18-.046.381-.07.603-.07h.646Zm1.936-2.642v4.611h-.558v-4.61h.558Zm8.943 4.278.978-.979a.29.29 0 0 1 .207-.087.28.28 0 0 1 .21.087.285.285 0 0 1 0 .417l-1.152 1.152a.32.32 0 0 1-.243.099.32.32 0 0 1-.243-.098l-1.152-1.153a.288.288 0 0 1-.088-.207.281.281 0 0 1 .088-.21.284.284 0 0 1 .208-.09c.079 0 .149.03.208.09l.979.979Zm0-4.946-.979.979a.288.288 0 0 1-.206.087.279.279 0 0 1-.21-.087.285.285 0 0 1 0-.417l1.152-1.152a.319.319 0 0 1 .243-.099.319.319 0 0 1 .243.098l1.152 1.153a.288.288 0 0 1 .088.206.281.281 0 0 1-.088.21.288.288 0 0 1-.417 0l-.978-.978Z"/><rect width="41.438" height="15.372" x="250.628" y="83.954" fill="#F0F1F2" rx="3.074"/><path fill="#555C66" d="M260.938 89.769v4.371h-.58v-4.37h.58Zm1.831 1.966v.475h-1.957v-.474h1.957Zm.298-1.966v.474h-2.255v-.474h2.255Zm.393 2.783v-.069c0-.234.034-.451.102-.651.068-.203.166-.378.294-.526.128-.15.283-.266.466-.348.182-.084.386-.126.612-.126.228 0 .433.042.615.126a1.3 1.3 0 0 1 .469.348c.13.148.229.323.297.526.068.2.102.417.102.651v.07c0 .233-.034.45-.102.65a1.56 1.56 0 0 1-.297.526 1.354 1.354 0 0 1-.466.348 1.46 1.46 0 0 1-.612.123 1.48 1.48 0 0 1-.615-.123 1.385 1.385 0 0 1-.469-.348 1.589 1.589 0 0 1-.294-.525 2.014 2.014 0 0 1-.102-.652Zm.555-.069v.07c0 .161.019.314.057.459.038.142.095.268.171.378.079.11.176.197.292.261a.845.845 0 0 0 .405.093.821.821 0 0 0 .399-.093.85.85 0 0 0 .289-.261 1.21 1.21 0 0 0 .171-.379c.04-.144.06-.297.06-.459v-.069c0-.16-.02-.311-.06-.453a1.167 1.167 0 0 0-.174-.382.808.808 0 0 0-.691-.36.819.819 0 0 0-.402.096.877.877 0 0 0-.289.264 1.21 1.21 0 0 0-.171.382 1.75 1.75 0 0 0-.057.453Zm3.654-.898v2.555h-.555v-3.248h.525l.03.693Zm-.132.808-.231-.009c.002-.222.035-.427.099-.615a1.54 1.54 0 0 1 .27-.496 1.204 1.204 0 0 1 .952-.441c.16 0 .304.022.432.066.128.042.237.11.327.204a.9.9 0 0 1 .211.366c.048.148.072.33.072.544v2.128h-.559v-2.134a.936.936 0 0 0-.075-.409.462.462 0 0 0-.219-.225.786.786 0 0 0-.354-.072.829.829 0 0 0-.67.327 1.21 1.21 0 0 0-.255.766Zm4.335-1.501v.426h-1.756v-.426h1.756Zm-1.162-.79h.556v3.234c0 .11.017.193.051.249a.244.244 0 0 0 .132.111.544.544 0 0 0 .174.027.9.9 0 0 0 .144-.012l.117-.024.003.453a1.418 1.418 0 0 1-.429.06.865.865 0 0 1-.375-.08.604.604 0 0 1-.273-.27 1.14 1.14 0 0 1-.1-.517v-3.23Zm9.827 3.705.978-.979a.29.29 0 0 1 .207-.087.28.28 0 0 1 .21.087.285.285 0 0 1 0 .417l-1.152 1.152a.32.32 0 0 1-.243.099.32.32 0 0 1-.243-.098l-1.152-1.153a.288.288 0 0 1-.088-.207.281.281 0 0 1 .088-.21.284.284 0 0 1 .208-.09c.079 0 .149.03.208.09l.979.979Zm0-4.946-.979.979a.288.288 0 0 1-.206.087.279.279 0 0 1-.21-.087.285.285 0 0 1 0-.417l1.152-1.152a.319.319 0 0 1 .243-.099.319.319 0 0 1 .243.098l1.152 1.153a.288.288 0 0 1 .088.206.281.281 0 0 1-.088.21.288.288 0 0 1-.417 0l-.978-.978Zm25.29 5.856a.75.75 0 0 1-.551-.227.752.752 0 0 1-.227-.552v-5.232c0-.216.076-.4.227-.551a.75.75 0 0 1 .551-.228h1.713c.522 0 .994.163 1.416.488.422.325.633.763.633 1.314 0 .383-.092.695-.277.936a1.799 1.799 0 0 1-.598.526c.263.09.514.27.753.538.239.267.359.628.359 1.081 0 .655-.242 1.136-.724 1.445-.483.308-.97.462-1.46.462h-1.815Zm.323-1.021h1.451c.403 0 .688-.112.855-.336.167-.224.251-.439.251-.644 0-.206-.084-.421-.251-.645-.167-.224-.46-.336-.879-.336h-1.427v1.96Zm0-2.95h1.33c.311 0 .558-.09.74-.267a.86.86 0 0 0 .274-.64.82.82 0 0 0-.289-.647 1.045 1.045 0 0 0-.709-.251h-1.346v1.805Zm16.813 3.971a.446.446 0 0 1-.329-.135.446.446 0 0 1-.134-.329c0-.13.044-.24.134-.329a.446.446 0 0 1 .329-.134h1.492l1.661-4.936h-1.493a.448.448 0 0 1-.329-.135.45.45 0 0 1-.134-.329c0-.13.045-.24.134-.329a.448.448 0 0 1 .329-.134h3.764c.13 0 .239.045.329.135.089.09.134.2.134.33a.449.449 0 0 1-.134.328.448.448 0 0 1-.329.134h-1.335l-1.66 4.936h1.335c.129 0 .239.045.329.135.089.09.134.2.134.33a.449.449 0 0 1-.134.328.45.45 0 0 1-.329.134h-3.764Zm18.342.768a.374.374 0 0 1-.384-.385.374.374 0 0 1 .384-.383h6.05c.109 0 .2.037.274.11a.371.371 0 0 1 .111.274.37.37 0 0 1-.111.274.373.373 0 0 1-.274.11h-6.05Zm3.025-1.842c-.797 0-1.419-.242-1.866-.726-.447-.484-.67-1.132-.67-1.945v-3.579c0-.129.048-.24.143-.332a.468.468 0 0 1 .337-.139c.129 0 .24.047.332.139a.455.455 0 0 1 .138.332v3.626c0 .518.137.933.413 1.245.275.312.666.468 1.173.468s.899-.156 1.174-.468c.275-.312.413-.727.413-1.245v-3.626c0-.129.047-.24.143-.332a.468.468 0 0 1 .337-.139c.129 0 .24.047.332.139a.455.455 0 0 1 .138.332v3.58c0 .812-.224 1.46-.671 1.944-.447.484-1.069.726-1.866.726Z"/><rect width="347.405" height="124.128" x="12.297" y="108.55" fill="#fff" rx="3.074"/><path fill="#6B727B" d="M24.667 123.065h.576c-.03.276-.109.523-.237.741a1.386 1.386 0 0 1-.543.519c-.234.127-.527.19-.877.19-.256 0-.49-.048-.7-.144a1.57 1.57 0 0 1-.537-.409 1.908 1.908 0 0 1-.348-.639 2.73 2.73 0 0 1-.12-.835v-.435c0-.307.04-.584.12-.832.082-.25.199-.464.351-.642a1.56 1.56 0 0 1 .556-.412c.216-.096.459-.144.73-.144.33 0 .609.062.837.186.228.124.405.297.531.517.128.218.207.471.237.759h-.576a1.603 1.603 0 0 0-.156-.525.81.81 0 0 0-.324-.342c-.14-.08-.324-.12-.55-.12-.194 0-.365.037-.513.111-.146.074-.27.179-.37.315a1.464 1.464 0 0 0-.222.489c-.05.19-.075.402-.075.634v.441c0 .214.022.415.066.604.046.188.115.353.207.495.093.142.21.254.352.336.142.08.31.12.504.12.246 0 .442-.039.589-.117a.765.765 0 0 0 .33-.336c.076-.146.13-.321.162-.525Zm1.135-.199v-.069c0-.234.034-.451.102-.651.068-.202.166-.377.294-.526.128-.15.283-.266.465-.348.183-.084.387-.126.613-.126.228 0 .433.042.615.126.185.082.34.198.469.348.13.149.229.324.297.526.068.2.102.417.102.651v.069c0 .235-.034.452-.102.652-.068.2-.167.375-.297.525a1.377 1.377 0 0 1-.466.349 1.46 1.46 0 0 1-.612.123 1.49 1.49 0 0 1-.616-.123 1.41 1.41 0 0 1-.468-.349 1.586 1.586 0 0 1-.294-.525 2.01 2.01 0 0 1-.102-.652Zm.555-.069v.069c0 .162.02.316.057.46.038.142.095.268.171.378.078.11.176.197.292.261a.847.847 0 0 0 .405.093.824.824 0 0 0 .4-.093.838.838 0 0 0 .288-.261c.076-.11.133-.236.17-.378.04-.144.06-.298.06-.46v-.069c0-.16-.02-.311-.06-.453a1.165 1.165 0 0 0-.174-.381.84.84 0 0 0-.288-.265.809.809 0 0 0-.402-.096.82.82 0 0 0-.402.096.878.878 0 0 0-.289.265c-.076.11-.133.237-.17.381a1.746 1.746 0 0 0-.058.453Zm3.651-.945v2.603h-.558v-3.249h.528l.03.646Zm-.114.855-.258-.009a2.18 2.18 0 0 1 .087-.615c.056-.19.139-.356.25-.496.11-.14.246-.248.41-.324a1.32 1.32 0 0 1 .57-.117c.153 0 .293.022.421.066a.848.848 0 0 1 .553.556c.052.144.078.318.078.522v2.165h-.556v-2.138a.823.823 0 0 0-.087-.408.5.5 0 0 0-.24-.223.867.867 0 0 0-.366-.072.876.876 0 0 0-.412.087.706.706 0 0 0-.264.241 1.081 1.081 0 0 0-.144.351c-.028.13-.042.268-.042.414Zm2.105-.306-.373.114c.002-.178.031-.349.087-.513a1.4 1.4 0 0 1 .25-.439 1.18 1.18 0 0 1 .405-.303c.16-.076.343-.114.55-.114.174 0 .328.023.462.069.136.046.25.117.342.213a.89.89 0 0 1 .213.364c.048.148.072.324.072.528v2.135h-.558v-2.141a.86.86 0 0 0-.087-.423.456.456 0 0 0-.24-.214.961.961 0 0 0-.367-.063.788.788 0 0 0-.324.063.672.672 0 0 0-.237.175.758.758 0 0 0-.147.249.922.922 0 0 0-.048.3Zm4.197 2.114c-.226 0-.431-.038-.616-.114a1.413 1.413 0 0 1-.471-.328c-.13-.14-.23-.306-.3-.498a1.826 1.826 0 0 1-.105-.631v-.126c0-.264.039-.499.117-.705.078-.208.184-.385.318-.529.134-.144.286-.253.456-.327.17-.074.347-.111.529-.111.232 0 .432.04.6.12.17.08.31.192.418.336.108.142.188.311.24.505.052.192.078.402.078.63v.249h-2.426v-.453h1.87v-.042a1.381 1.381 0 0 0-.09-.42.764.764 0 0 0-.24-.337c-.11-.088-.26-.132-.45-.132a.757.757 0 0 0-.622.316 1.178 1.178 0 0 0-.177.381 1.93 1.93 0 0 0-.063.519v.126c0 .155.021.3.063.436.044.134.107.252.19.354a.907.907 0 0 0 .303.24c.12.058.256.087.408.087.196 0 .362-.04.498-.12.136-.08.256-.187.358-.321l.336.267a1.55 1.55 0 0 1-.267.303 1.278 1.278 0 0 1-.4.235c-.156.06-.341.09-.555.09Zm3.212-.457a.832.832 0 0 0 .367-.081.755.755 0 0 0 .276-.222.618.618 0 0 0 .123-.327h.528a.99.99 0 0 1-.195.537 1.345 1.345 0 0 1-1.099.55 1.49 1.49 0 0 1-.64-.129 1.28 1.28 0 0 1-.45-.355 1.582 1.582 0 0 1-.267-.516 2.18 2.18 0 0 1-.087-.622v-.126c0-.218.03-.424.087-.618.06-.196.15-.369.267-.52.12-.15.27-.268.45-.354a1.49 1.49 0 0 1 .64-.129c.255 0 .477.052.667.156.19.102.34.242.447.42.11.177.17.377.18.601h-.528a.8.8 0 0 0-.114-.363.739.739 0 0 0-.651-.358.837.837 0 0 0-.43.102.763.763 0 0 0-.273.271 1.26 1.26 0 0 0-.144.375 2.063 2.063 0 0 0-.042.417v.126c0 .142.014.283.042.421.028.138.075.263.14.375.069.112.16.202.274.27.116.066.26.099.432.099Zm3.267.457a1.6 1.6 0 0 1-.616-.114 1.413 1.413 0 0 1-.471-.328c-.13-.14-.23-.306-.3-.498a1.828 1.828 0 0 1-.105-.631v-.126c0-.264.039-.499.117-.705.078-.208.184-.385.318-.529.134-.144.286-.253.456-.327.17-.074.347-.111.529-.111.232 0 .432.04.6.12.17.08.31.192.418.336.108.142.188.311.24.505.052.192.078.402.078.63v.249h-2.426v-.453h1.87v-.042a1.384 1.384 0 0 0-.09-.42.764.764 0 0 0-.24-.337c-.11-.088-.26-.132-.45-.132a.756.756 0 0 0-.622.316 1.178 1.178 0 0 0-.177.381c-.042.15-.063.323-.063.519v.126c0 .155.021.3.063.436.044.134.107.252.19.354a.906.906 0 0 0 .303.24c.12.058.256.087.408.087.196 0 .362-.04.498-.12a1.25 1.25 0 0 0 .358-.321l.336.267a1.55 1.55 0 0 1-.267.303 1.278 1.278 0 0 1-.4.235c-.156.06-.341.09-.555.09Zm5.353-.616v-1.672a.677.677 0 0 0-.078-.333.513.513 0 0 0-.228-.223.828.828 0 0 0-.379-.078.888.888 0 0 0-.369.072.645.645 0 0 0-.246.19.414.414 0 0 0-.087.252h-.555c0-.116.03-.231.09-.345a1 1 0 0 1 .258-.31 1.29 1.29 0 0 1 .408-.222 1.61 1.61 0 0 1 .535-.084c.236 0 .444.04.624.12.182.08.324.201.426.363.104.161.157.362.157.604v1.513c0 .108.008.223.026.345.02.122.05.227.087.316v.048h-.579a1.05 1.05 0 0 1-.066-.256 2.057 2.057 0 0 1-.024-.3Zm.096-1.414.006.39h-.561c-.159 0-.3.013-.424.039a.969.969 0 0 0-.312.111.5.5 0 0 0-.258.451.57.57 0 0 0 .069.279.502.502 0 0 0 .207.201c.094.048.21.072.345.072a.938.938 0 0 0 .76-.372.568.568 0 0 0 .126-.303l.237.267a.808.808 0 0 1-.114.279 1.335 1.335 0 0 1-.615.526c-.14.06-.299.09-.475.09-.22 0-.413-.043-.58-.129a1 1 0 0 1-.383-.346.912.912 0 0 1-.136-.489c0-.174.035-.327.102-.459a.882.882 0 0 1 .295-.334c.128-.09.282-.158.462-.204a2.44 2.44 0 0 1 .604-.069h.645Zm4.206 2.03c-.226 0-.431-.038-.615-.114a1.412 1.412 0 0 1-.472-.328c-.13-.14-.23-.306-.3-.498a1.826 1.826 0 0 1-.105-.631v-.126c0-.264.04-.499.117-.705.078-.208.184-.385.319-.529.134-.144.286-.253.456-.327a1.31 1.31 0 0 1 .528-.111c.232 0 .433.04.6.12.17.08.31.192.418.336.108.142.188.311.24.505.052.192.078.402.078.63v.249H51.17v-.453h1.87v-.042a1.381 1.381 0 0 0-.09-.42.764.764 0 0 0-.24-.337c-.11-.088-.26-.132-.45-.132a.757.757 0 0 0-.622.316 1.178 1.178 0 0 0-.177.381 1.93 1.93 0 0 0-.063.519v.126c0 .155.02.3.063.436.044.134.107.252.189.354a.907.907 0 0 0 .303.24c.12.058.256.087.408.087.197 0 .363-.04.499-.12.136-.08.255-.187.357-.321l.336.267c-.07.106-.159.207-.267.303a1.278 1.278 0 0 1-.4.235c-.155.06-.34.09-.555.09Zm3.804-.922a.467.467 0 0 0-.054-.222.46.46 0 0 0-.213-.189 1.78 1.78 0 0 0-.48-.151 3.814 3.814 0 0 1-.49-.135 1.483 1.483 0 0 1-.369-.189.792.792 0 0 1-.231-.261.819.819 0 0 1 .003-.715.973.973 0 0 1 .243-.303c.106-.088.233-.157.381-.207.148-.05.314-.075.496-.075.26 0 .482.046.666.138.184.092.325.215.424.369a.921.921 0 0 1 .147.508H56.1a.476.476 0 0 0-.08-.261.6.6 0 0 0-.232-.214.746.746 0 0 0-.37-.084.841.841 0 0 0-.374.072.483.483 0 0 0-.208.178.446.446 0 0 0-.033.39c.022.046.06.089.114.129.054.038.13.074.229.108.098.034.223.068.375.102.266.06.485.132.657.216a.96.96 0 0 1 .385.31c.084.122.126.27.126.444a.865.865 0 0 1-.345.696 1.27 1.27 0 0 1-.397.199 1.772 1.772 0 0 1-.513.069c-.287 0-.529-.051-.727-.153a1.132 1.132 0 0 1-.45-.397.947.947 0 0 1-.153-.513h.558a.574.574 0 0 0 .132.363c.08.088.178.151.294.189.117.036.232.054.346.054.152 0 .279-.02.381-.06a.531.531 0 0 0 .237-.165.382.382 0 0 0 .081-.24Zm2.585.465a.833.833 0 0 0 .367-.081.755.755 0 0 0 .276-.222.617.617 0 0 0 .123-.327h.528a.99.99 0 0 1-.195.537 1.346 1.346 0 0 1-1.099.55 1.49 1.49 0 0 1-.64-.129 1.281 1.281 0 0 1-.45-.355 1.58 1.58 0 0 1-.267-.516 2.176 2.176 0 0 1-.087-.622v-.126c0-.218.03-.424.087-.618.06-.196.15-.369.267-.52.12-.15.27-.268.45-.354a1.49 1.49 0 0 1 .64-.129c.255 0 .477.052.667.156.19.102.34.242.447.42.11.177.17.377.18.601h-.528a.798.798 0 0 0-.114-.363.739.739 0 0 0-.652-.358.837.837 0 0 0-.429.102.762.762 0 0 0-.273.271 1.258 1.258 0 0 0-.144.375 2.055 2.055 0 0 0-.042.417v.126c0 .142.014.283.042.421.028.138.075.263.14.375.069.112.16.202.274.27.116.066.26.099.432.099Zm2.474-2.342v2.739h-.555v-3.249h.54l.015.51Zm1.015-.528-.003.516a1.405 1.405 0 0 0-.27-.024.893.893 0 0 0-.34.06.72.72 0 0 0-.249.169.808.808 0 0 0-.162.258 1.24 1.24 0 0 0-.075.324l-.156.09c0-.196.019-.38.057-.552.04-.172.101-.325.183-.457a.897.897 0 0 1 .313-.312.878.878 0 0 1 .702-.072Zm1.801 3.327a1.6 1.6 0 0 1-.615-.114 1.412 1.412 0 0 1-.471-.328c-.13-.14-.23-.306-.3-.498a1.828 1.828 0 0 1-.106-.631v-.126c0-.264.04-.499.117-.705.078-.208.184-.385.319-.529.134-.144.286-.253.456-.327a1.31 1.31 0 0 1 .528-.111c.233 0 .433.04.6.12.17.08.31.192.418.336.108.142.188.311.24.505a2.4 2.4 0 0 1 .078.63v.249h-2.425v-.453h1.87v-.042a1.384 1.384 0 0 0-.09-.42.764.764 0 0 0-.24-.337c-.11-.088-.26-.132-.45-.132a.756.756 0 0 0-.622.316 1.178 1.178 0 0 0-.177.381c-.042.15-.063.323-.063.519v.126c0 .155.02.3.063.436.044.134.107.252.189.354a.906.906 0 0 0 .303.24c.12.058.256.087.408.087.197 0 .363-.04.499-.12.136-.08.255-.187.357-.321l.336.267a1.55 1.55 0 0 1-.267.303 1.275 1.275 0 0 1-.4.235c-.155.06-.34.09-.555.09Zm2.859-.562.888-2.747h.568l-1.168 3.249h-.373l.085-.502Zm-.742-2.747.916 2.762.063.487h-.373l-1.176-3.249h.57Zm4.038 3.309c-.226 0-.431-.038-.615-.114a1.412 1.412 0 0 1-.472-.328c-.13-.14-.23-.306-.3-.498a1.826 1.826 0 0 1-.105-.631v-.126c0-.264.039-.499.117-.705.078-.208.184-.385.318-.529.134-.144.287-.253.457-.327a1.31 1.31 0 0 1 .528-.111c.232 0 .432.04.6.12.17.08.31.192.418.336.108.142.188.311.24.505.052.192.078.402.078.63v.249h-2.426v-.453h1.87v-.042a1.381 1.381 0 0 0-.09-.42.764.764 0 0 0-.24-.337c-.11-.088-.26-.132-.45-.132a.757.757 0 0 0-.621.316 1.178 1.178 0 0 0-.178.381 1.93 1.93 0 0 0-.063.519v.126c0 .155.021.3.063.436.044.134.108.252.19.354a.907.907 0 0 0 .303.24c.12.058.256.087.408.087.196 0 .362-.04.499-.12.136-.08.255-.187.357-.321l.336.267a1.55 1.55 0 0 1-.267.303 1.278 1.278 0 0 1-.4.235c-.155.06-.34.09-.555.09Zm2.468-2.799v2.739h-.555v-3.249h.54l.015.51Zm1.015-.528-.003.516a1.407 1.407 0 0 0-.27-.024.893.893 0 0 0-.34.06.718.718 0 0 0-.249.169.807.807 0 0 0-.162.258 1.236 1.236 0 0 0-.075.324l-.156.09c0-.196.019-.38.057-.552.04-.172.101-.325.183-.457a.896.896 0 0 1 .312-.312.878.878 0 0 1 .703-.072Zm3.954 2.711v-1.672a.677.677 0 0 0-.078-.333.513.513 0 0 0-.228-.223.828.828 0 0 0-.379-.078.888.888 0 0 0-.369.072.645.645 0 0 0-.246.19.414.414 0 0 0-.087.252h-.556c0-.116.03-.231.09-.345a1 1 0 0 1 .259-.31 1.29 1.29 0 0 1 .408-.222 1.61 1.61 0 0 1 .534-.084c.237 0 .445.04.625.12.182.08.324.201.426.363.104.161.156.362.156.604v1.513c0 .108.01.223.027.345.02.122.05.227.087.316v.048h-.579a1.05 1.05 0 0 1-.066-.256 2.057 2.057 0 0 1-.024-.3Zm.096-1.414.006.39h-.561c-.159 0-.3.013-.424.039a.969.969 0 0 0-.312.111.501.501 0 0 0-.258.451.57.57 0 0 0 .069.279.502.502 0 0 0 .207.201c.094.048.21.072.345.072a.938.938 0 0 0 .76-.372.568.568 0 0 0 .126-.303l.237.267a.806.806 0 0 1-.114.279 1.338 1.338 0 0 1-.615.526c-.14.06-.299.09-.475.09-.22 0-.413-.043-.58-.129a1 1 0 0 1-.383-.346.912.912 0 0 1-.136-.489c0-.174.034-.327.102-.459a.882.882 0 0 1 .295-.334c.128-.09.282-.158.462-.204a2.44 2.44 0 0 1 .604-.069h.645Zm3.378 3.219v-3.873l.048-.625h.51v4.498h-.558Zm-2.183-2.838v-.063c0-.248.029-.473.087-.675.058-.204.143-.38.255-.526a1.146 1.146 0 0 1 .952-.456c.204 0 .383.036.537.108.156.07.289.173.397.309.11.134.197.297.26.487.065.19.109.405.133.645v.276a2.83 2.83 0 0 1-.13.643c-.063.19-.15.352-.26.486a1.093 1.093 0 0 1-.4.31c-.156.07-.337.105-.543.105-.2 0-.38-.041-.54-.123a1.208 1.208 0 0 1-.406-.346 1.67 1.67 0 0 1-.255-.522 2.37 2.37 0 0 1-.087-.658Zm.558-.063v.063c0 .162.017.316.051.46.034.142.087.268.156.378a.82.82 0 0 0 .27.261c.11.062.24.093.391.093a.822.822 0 0 0 .757-.435c.074-.132.13-.273.17-.423v-.724a1.436 1.436 0 0 0-.104-.321 1.044 1.044 0 0 0-.18-.279.838.838 0 0 0-.636-.274.77.77 0 0 0-.394.096.813.813 0 0 0-.273.265 1.23 1.23 0 0 0-.157.381 1.993 1.993 0 0 0-.05.459Zm5.062.901v-2.498h.559v3.249h-.532l-.027-.751Zm.105-.685.231-.006c0 .217-.022.417-.069.601-.044.182-.116.34-.216.474-.1.134-.23.239-.393.316a1.42 1.42 0 0 1-.591.111c-.159 0-.304-.023-.436-.069a.871.871 0 0 1-.336-.214.968.968 0 0 1-.22-.375 1.805 1.805 0 0 1-.074-.555v-2.096h.555v2.102c0 .146.016.267.048.363.034.094.08.169.135.225a.5.5 0 0 0 .192.114.757.757 0 0 0 .223.033c.236 0 .423-.045.561-.135a.77.77 0 0 0 .297-.369c.062-.156.093-.329.093-.52Zm1.904-1.813v3.249h-.559v-3.249h.559Zm-.6-.862c0-.09.026-.166.08-.228.056-.062.138-.093.247-.093.106 0 .187.031.243.093a.321.321 0 0 1 .087.228.32.32 0 0 1-.087.223c-.056.06-.137.09-.243.09-.109 0-.19-.03-.247-.09a.33.33 0 0 1-.08-.223Zm1.5 3.816a.34.34 0 0 1 .088-.237c.06-.066.146-.099.258-.099.112 0 .197.033.255.099.06.064.09.143.09.237 0 .092-.03.17-.09.235-.058.064-.143.096-.255.096-.112 0-.198-.032-.258-.096a.34.34 0 0 1-.088-.235Zm1.622 0a.34.34 0 0 1 .087-.237c.06-.066.146-.099.258-.099.112 0 .197.033.255.099.06.064.09.143.09.237 0 .092-.03.17-.09.235-.058.064-.143.096-.255.096-.112 0-.198-.032-.258-.096a.34.34 0 0 1-.087-.235Zm1.621 0a.34.34 0 0 1 .087-.237c.06-.066.146-.099.258-.099.112 0 .198.033.255.099.06.064.09.143.09.237 0 .092-.03.17-.09.235-.057.064-.143.096-.255.096-.112 0-.198-.032-.258-.096a.34.34 0 0 1-.087-.235Z"/></g><defs><clipPath id="a"><rect width="372" height="245.182" fill="#fff" rx="9.223"/></clipPath><clipPath id="b"><rect width="21.521" height="21.521" x="12.297" y="39.828" fill="#fff" rx="10.76"/></clipPath></defs></svg>