<svg xmlns="http://www.w3.org/2000/svg" width="372" height="331" fill="none"><mask id="a" fill="#fff"><path d="M0 18.446C0 8.26 8.259 0 18.446 0h335.108C363.741 0 372 8.259 372 18.446v43.042H0V18.446Z"/></mask><path fill="#fff" d="M0 18.446C0 8.26 8.259 0 18.446 0h335.108C363.741 0 372 8.259 372 18.446v43.042H0V18.446Z"/><path fill="#D8DBDF" d="M0 0h372H0Zm372 62.256H0V60.72h372v1.537ZM0 61.488V0v61.488ZM372 0v61.488V0Z" mask="url(#a)"/><g clip-path="url(#b)"><rect width="36.893" height="36.893" x="24.595" y="12.297" fill="#D8DBDF" rx="18.446"/><path fill="#1D2229" d="M50.89 38.113h-9.223V25.631L49.642 30l1.249 8.113Z"/><path fill="#FFB6B6" d="M43.372 35.91a5.988 5.988 0 1 0 0-11.976 5.988 5.988 0 0 0 0 11.976Z"/><path fill="#FFB6B6" d="m39.934 36.796-.27-2.735 5.401-1.01 3.19 7.767-5.547 6.38-3.953-7.767 1.179-2.635Z"/><path fill="#1A96D4" d="M56.29 43.109c-.068.07-.136.14-.205.208a18.313 18.313 0 0 1-13.043 5.403 18.305 18.305 0 0 1-11.864-4.32c.017-.05.036-.1.055-.148 1.05-2.737 3.125-4.076 4.384-4.662a6.602 6.602 0 0 1 1.048-.397l1.479-2.663 1.04 1.942.768 1.431 3.147 5.872 2.714-6.76.842-2.096.215-.537 1.026.799.97.755 1.956.431 1.586.35 2.154.476c.87.71 1.4 2.059 1.696 3.736l.032.18Z"/><path fill="#313740" d="M40.222 23.117a4.595 4.595 0 0 1 3.49-2.19 4.595 4.595 0 0 1 3.815 1.553c.555.644.919 1.432 1.459 2.088 1.163 1.41 3.146 2.236 3.655 3.992.221.767.11 1.585-.002 2.375l-.288 2.031c-.075.527-.146 1.083.051 1.577.232.58.787.96 1.145 1.47.61.87.566 2.144-.104 2.968-.29.358-.675.628-.98.974-.304.346-.53.819-.403 1.261.245.849 1.575 1.052 1.72 1.922.075.446-.232.89-.635 1.094-.403.203-.877.209-1.325.154a5.535 5.535 0 0 1-4.108-2.772 5.536 5.536 0 0 1-.157-4.954c.601-1.274 1.719-2.4 1.706-3.808-.006-.768-.358-1.484-.702-2.17l-2.114-4.212c-.377-.752-.815-1.563-1.592-1.886-.6-.25-1.282-.153-1.924-.05-.643.102-1.323.2-1.925-.044-.602-.246-1.057-.975-.77-1.558"/><path fill="#313740" d="M41.271 23.181c-1.157-.38-2.455.23-3.238 1.163-.783.933-1.163 2.13-1.525 3.293l-.622 1.998-.585 1.88c-.23.737-.46 1.52-.272 2.269.136.541.486 1.032.494 1.59.008.583-.358 1.095-.677 1.582-.32.488-.62 1.067-.468 1.63.232.855 1.422 1.326 1.356 2.21-.022.295-.192.568-.189.864.004.377.299.702.644.852.345.15.734.158 1.11.151a17.194 17.194 0 0 0 3.435-.408c.434-.097.875-.215 1.236-.474.36-.26.63-.689.583-1.13-.073-.689-.813-1.08-1.187-1.663-.367-.572-.359-1.298-.517-1.96-.217-.908-.754-1.702-1.157-2.545-1.516-3.17-.986-7.211 1.297-9.883.202-.236.422-.474.507-.773.084-.299-.025-.68-.317-.784"/></g><path fill="#1D2229" d="M73.576 16.46h2.177l2.755 8.978h-1.611l-.763-2.484h-2.951l-.75 2.484h-1.624l2.767-8.977Zm1.082 1.587-1.094 3.64h2.189l-1.095-3.64ZM84.91 23.47c0 1.402-.984 2.103-2.952 2.103-.86 0-1.5-.184-1.918-.553-.418-.377-.68-.922-.787-1.636l1.279-.197c.09.788.578 1.181 1.463 1.181.894 0 1.34-.279 1.34-.836 0-.23-.09-.402-.27-.517-.172-.114-.525-.233-1.058-.356l-.565-.136c-.73-.172-1.255-.422-1.574-.75-.312-.336-.468-.82-.468-1.45 0-1.395.951-2.091 2.853-2.091.82 0 1.431.188 1.833.565.41.37.664.91.762 1.624l-1.279.184c-.09-.779-.545-1.168-1.365-1.168-.811 0-1.217.278-1.217.836 0 .23.078.406.233.529.164.115.492.23.984.344l.64.16c.73.18 1.254.434 1.574.762.328.32.492.787.492 1.402Zm6.836 0c0 1.402-.984 2.103-2.952 2.103-.86 0-1.5-.184-1.918-.553-.418-.377-.68-.922-.787-1.636l1.279-.197c.09.788.578 1.181 1.463 1.181.894 0 1.34-.279 1.34-.836 0-.23-.09-.402-.27-.517-.172-.114-.525-.233-1.057-.356l-.566-.136c-.73-.172-1.254-.422-1.574-.75-.312-.336-.467-.82-.467-1.45 0-1.395.95-2.091 2.853-2.091.82 0 1.43.188 1.832.565.41.37.664.91.762 1.624l-1.279.184c-.09-.779-.545-1.168-1.365-1.168-.811 0-1.217.278-1.217.836 0 .23.078.406.234.529.164.115.492.23.983.344l.64.16c.73.18 1.254.434 1.574.762.328.32.492.787.492 1.402Zm1.806-5.066H95.2v7.034h-1.648v-7.034Zm.824-.836c-.615 0-.922-.316-.922-.947 0-.64.307-.96.922-.96.631 0 .947.32.947.96 0 .63-.316.947-.947.947Zm8.292 5.902c0 1.402-.984 2.103-2.951 2.103-.861 0-1.5-.184-1.919-.553-.418-.377-.68-.922-.787-1.636l1.28-.197c.09.788.577 1.181 1.463 1.181.893 0 1.34-.279 1.34-.836a.57.57 0 0 0-.271-.517c-.172-.114-.524-.233-1.057-.356l-.566-.136c-.73-.172-1.254-.422-1.574-.75-.312-.336-.467-.82-.467-1.45 0-1.395.95-2.091 2.853-2.091.82 0 1.43.188 1.832.565.41.37.664.91.763 1.624l-1.279.184c-.091-.779-.546-1.168-1.365-1.168-.812 0-1.218.278-1.218.836 0 .23.078.406.234.529.164.115.492.23.984.344l.639.16c.73.18 1.254.434 1.574.762.328.32.492.787.492 1.402Zm.761-3.996v-1.07h1.132v-1.28l1.648-.417v1.697h1.34v1.07h-1.34v3.972c0 .352.049.602.147.75a.528.528 0 0 0 .455.221c.205 0 .426-.033.664-.098l.209 1.02c-.483.181-.918.271-1.303.271-.377 0-.681-.045-.91-.135a1.5 1.5 0 0 1-.517-.308 1.162 1.162 0 0 1-.258-.492c-.09-.286-.135-.643-.135-1.07v-4.131h-1.132Zm8.035 6.136c-1.132 0-1.939-.303-2.423-.91-.483-.615-.725-1.541-.725-2.78 0-2.459 1.033-3.688 3.099-3.688 1.188 0 2 .369 2.435 1.106.377.632.565 1.451.565 2.46v.443h-4.501c.009.77.136 1.316.382 1.635.246.312.651.467 1.217.467.91 0 1.394-.327 1.451-.983l1.353.049c-.131 1.467-1.082 2.201-2.853 2.201Zm.947-5.706c-.205-.27-.541-.406-1.009-.406-.467 0-.811.131-1.033.394-.213.254-.352.664-.418 1.23h2.841c-.049-.55-.176-.956-.381-1.218Zm4.974-.86c.77-.542 1.558-.812 2.361-.812.812 0 1.398.2 1.759.602.36.394.541.939.541 1.636v4.968h-1.648v-4.796c0-.418-.078-.713-.234-.886-.147-.172-.41-.258-.787-.258-.59 0-1.14.185-1.648.554v5.386h-1.648v-7.034h.775l.529.64Zm5.928.43v-1.07h1.132v-1.28l1.648-.417v1.697h1.34v1.07h-1.34v3.972c0 .352.049.602.147.75a.528.528 0 0 0 .455.221c.205 0 .426-.033.664-.098l.209 1.02c-.483.181-.918.271-1.303.271-.377 0-.681-.045-.91-.135a1.5 1.5 0 0 1-.517-.308 1.162 1.162 0 0 1-.258-.492c-.09-.286-.135-.643-.135-1.07v-4.131h-1.132Zm8.035 6.136c-1.131 0-1.939-.303-2.423-.91-.483-.615-.725-1.541-.725-2.78 0-2.459 1.033-3.688 3.099-3.688 1.188 0 2 .369 2.435 1.106.377.632.565 1.451.565 2.46v.443h-4.501c.009.77.136 1.316.382 1.635.246.312.651.467 1.217.467.91 0 1.394-.327 1.451-.983l1.353.049c-.131 1.467-1.082 2.201-2.853 2.201Zm.947-5.706c-.205-.27-.541-.406-1.009-.406-.467 0-.811.131-1.033.394-.213.254-.352.664-.418 1.23h2.841c-.049-.55-.176-.956-.381-1.218Z"/><path fill="#118541" d="M77.489 39.983v.483a5.13 5.13 0 0 1-.216 1.545c-.143.455-.35.842-.62 1.161a2.68 2.68 0 0 1-.972.73 3.047 3.047 0 0 1-1.26.253 3.03 3.03 0 0 1-1.246-.253 2.8 2.8 0 0 1-.977-.73 3.402 3.402 0 0 1-.636-1.161 4.908 4.908 0 0 1-.226-1.545v-.483a5 5 0 0 1 .22-1.54c.151-.455.363-.842.637-1.16a2.71 2.71 0 0 1 .972-.736 3.03 3.03 0 0 1 1.245-.252c.466 0 .886.084 1.26.252.38.168.703.413.973.735.273.32.481.706.625 1.162.147.451.22.964.22 1.539Zm-1.004.483v-.494a4.65 4.65 0 0 0-.142-1.208 2.505 2.505 0 0 0-.404-.883 1.745 1.745 0 0 0-.657-.54 1.993 1.993 0 0 0-.872-.185c-.315 0-.6.062-.857.184a1.818 1.818 0 0 0-.651.541 2.645 2.645 0 0 0-.415.883c-.098.35-.147.753-.147 1.208v.494c0 .46.049.865.147 1.22.098.35.238.645.42.887.186.238.405.419.657.541.256.123.541.184.856.184.33 0 .622-.061.878-.184.255-.122.47-.303.646-.54.179-.242.313-.538.405-.889.09-.354.136-.76.136-1.219Zm3.455-.888v4.472h-.972v-5.685h.92l.052 1.213Zm-.232 1.414-.404-.016c.003-.389.061-.748.173-1.077a2.69 2.69 0 0 1 .473-.867 2.107 2.107 0 0 1 1.666-.772c.28 0 .532.038.756.115.224.074.415.193.573.357a1.6 1.6 0 0 1 .368.641c.084.26.126.577.126.951v3.726h-.977v-3.736c0-.298-.044-.536-.132-.715a.808.808 0 0 0-.383-.394 1.377 1.377 0 0 0-.62-.126 1.43 1.43 0 0 0-.662.153 1.584 1.584 0 0 0-.51.42 2.11 2.11 0 0 0-.331.615 2.244 2.244 0 0 0-.116.725Zm6.37-5.013v8.07h-.976v-8.07h.977Zm2.725 2.386v5.685h-.977v-5.685h.977Zm-1.05-1.508c0-.158.046-.291.141-.4.098-.108.242-.162.43-.162.186 0 .328.054.427.162a.563.563 0 0 1 .152.4.55.55 0 0 1-.153.389c-.098.105-.24.157-.425.157-.19 0-.333-.052-.43-.157a.572.572 0 0 1-.143-.39Zm3.69 2.721v4.472h-.972v-5.685h.92l.052 1.213Zm-.231 1.414-.405-.016a3.42 3.42 0 0 1 .174-1.077c.112-.333.27-.622.473-.867a2.106 2.106 0 0 1 1.665-.772c.28 0 .532.038.757.115.224.074.415.193.572.357.162.165.284.379.368.641.084.26.126.577.126.951v3.726h-.977v-3.736c0-.298-.044-.536-.131-.715a.808.808 0 0 0-.384-.394 1.377 1.377 0 0 0-.62-.126c-.242 0-.462.051-.662.153a1.584 1.584 0 0 0-.51.42c-.14.178-.25.383-.33.615a2.217 2.217 0 0 0-.116.725Zm7.673 3.163a2.8 2.8 0 0 1-1.077-.2 2.441 2.441 0 0 1-.825-.573 2.547 2.547 0 0 1-.525-.872 3.198 3.198 0 0 1-.184-1.103v-.22c0-.463.068-.875.205-1.236.137-.364.322-.672.557-.924.235-.252.5-.443.799-.573.297-.13.606-.194.924-.194.407 0 .757.07 1.051.21.298.14.541.336.73.588.19.249.33.543.421.883.091.336.136.704.136 1.103v.436h-4.245v-.793h3.273v-.074a2.417 2.417 0 0 0-.157-.735 1.323 1.323 0 0 0-.42-.589c-.193-.154-.456-.23-.789-.23a1.323 1.323 0 0 0-1.087.55 2.062 2.062 0 0 0-.31.668 3.38 3.38 0 0 0-.11.91v.22c0 .27.036.523.11.762.077.234.187.44.33.62.148.178.325.318.531.42.21.101.449.152.715.152.343 0 .634-.07.872-.21.238-.14.447-.327.625-.562l.589.468a2.738 2.738 0 0 1-.468.53 2.231 2.231 0 0 1-.699.41 2.706 2.706 0 0 1-.972.158Z"/><path fill="#6B727B" d="M341.256 41.448a2.218 2.218 0 0 1-1.628-.678 2.219 2.219 0 0 1-.678-1.628c0-.634.226-1.177.678-1.629a2.219 2.219 0 0 1 1.628-.677 2.22 2.22 0 0 1 1.628.677c.452.452.678.995.678 1.629s-.226 1.177-.678 1.628a2.218 2.218 0 0 1-1.628.678Zm0-8.869a2.219 2.219 0 0 1-1.628-.677 2.219 2.219 0 0 1-.678-1.628c0-.634.226-1.177.678-1.629a2.218 2.218 0 0 1 1.628-.677 2.22 2.22 0 0 1 1.628.677c.452.452.678.995.678 1.629s-.226 1.176-.678 1.628a2.219 2.219 0 0 1-1.628.677Zm0-8.868a2.219 2.219 0 0 1-1.628-.677 2.22 2.22 0 0 1-.678-1.629c0-.634.226-1.177.678-1.628a2.218 2.218 0 0 1 1.628-.678c.634 0 1.177.226 1.628.678.452.451.678.994.678 1.628a2.22 2.22 0 0 1-.678 1.629 2.219 2.219 0 0 1-1.628.677Z"/><path fill="#fff" d="M0 61.487h372v250.554c0 10.188-8.259 18.447-18.446 18.447H18.446C8.26 330.488 0 322.229 0 312.041V61.488Z"/><rect width="85" height="26.297" x="259" y="98" fill="#1A96D4" rx="12.297"/><path fill="#fff" d="M277.785 111.256v.463c0 .55-.069 1.043-.206 1.478a3.173 3.173 0 0 1-.594 1.112 2.574 2.574 0 0 1-.93.699 2.917 2.917 0 0 1-1.207.241c-.432 0-.83-.08-1.192-.241a2.68 2.68 0 0 1-.935-.699 3.247 3.247 0 0 1-.609-1.112 4.694 4.694 0 0 1-.216-1.478v-.463c0-.55.07-1.041.211-1.473.144-.436.347-.807.609-1.112.261-.308.571-.543.93-.704a2.899 2.899 0 0 1 1.192-.241c.446 0 .848.08 1.207.241.362.161.672.396.93.704.262.305.461.676.599 1.112.141.432.211.923.211 1.473Zm-.96.463v-.473a4.48 4.48 0 0 0-.136-1.157 2.398 2.398 0 0 0-.387-.845 1.678 1.678 0 0 0-.629-.518 1.913 1.913 0 0 0-.835-.176c-.302 0-.575.059-.82.176a1.74 1.74 0 0 0-.623.518c-.171.228-.304.51-.398.845a4.302 4.302 0 0 0-.141 1.157v.473c0 .439.047.828.141 1.167.094.335.228.618.403.85.177.228.387.4.628.518.245.117.518.176.82.176.315 0 .595-.059.84-.176.245-.118.451-.29.619-.518.171-.232.3-.515.387-.85.087-.339.131-.728.131-1.167Zm3.387-4.295v7.725h-.936v-7.725h.936Zm4.805 6.794v-2.801c0-.215-.044-.401-.131-.558a.85.85 0 0 0-.382-.372 1.375 1.375 0 0 0-.634-.131c-.234 0-.44.04-.618.121-.175.08-.312.186-.413.316a.697.697 0 0 0-.145.423h-.931c0-.195.05-.387.151-.578.101-.192.245-.364.433-.518.191-.158.419-.282.684-.373a2.69 2.69 0 0 1 .895-.14c.395 0 .744.067 1.046.201.305.134.543.337.714.608.174.268.262.605.262 1.011v2.535c0 .181.015.374.045.578.033.205.082.381.146.528v.081h-.971a1.74 1.74 0 0 1-.111-.428 3.413 3.413 0 0 1-.04-.503Zm.161-2.368.01.653h-.94c-.265 0-.502.022-.71.066-.207.04-.382.102-.523.186a.838.838 0 0 0-.432.754.95.95 0 0 0 .116.468.836.836 0 0 0 .347.337c.157.08.35.121.578.121.285 0 .536-.061.754-.181.218-.121.391-.269.518-.443a.952.952 0 0 0 .212-.508l.397.448c-.024.14-.087.296-.191.467a2.26 2.26 0 0 1-1.031.881c-.235.1-.5.15-.795.15a2.08 2.08 0 0 1-.97-.216 1.66 1.66 0 0 1-.644-.578 1.531 1.531 0 0 1-.227-.82c0-.292.057-.548.171-.769.114-.225.279-.411.493-.559.215-.151.473-.265.775-.342a4.096 4.096 0 0 1 1.011-.115h1.081Zm-1.665-2.948.976-1.478h1.122l-1.348 1.478h-.75Zm5.107-1.076-.065 5.256h-.84l-.07-5.256h.975Zm-1.005 6.855c0-.151.045-.278.135-.382.094-.104.232-.156.413-.156.178 0 .313.052.407.156a.54.54 0 0 1 .146.382.527.527 0 0 1-.146.372c-.094.104-.229.156-.407.156-.181 0-.319-.052-.413-.156a.55.55 0 0 1-.135-.372Z"/><path fill="#fff" fill-opacity=".8" d="M315.283 111.407V118h-.833v-5.553l-1.68.613v-.752l2.382-.901h.131Zm5.74.027h.072v.707h-.072c-.442 0-.811.072-1.108.216a1.814 1.814 0 0 0-.707.572c-.174.237-.3.504-.379.802a3.684 3.684 0 0 0-.112.905v.964c0 .291.034.549.103.774.069.222.164.41.284.563.12.153.255.269.405.347.154.078.313.117.478.117.192 0 .363-.036.513-.108.15-.075.276-.179.379-.311.105-.135.184-.294.238-.477.054-.183.081-.384.081-.604 0-.195-.024-.382-.072-.563a1.498 1.498 0 0 0-.22-.486 1.07 1.07 0 0 0-.374-.338 1.046 1.046 0 0 0-.527-.126c-.231 0-.447.057-.649.171a1.488 1.488 0 0 0-.491.442c-.126.18-.198.376-.216.59l-.441-.005a2.78 2.78 0 0 1 .234-.86c.117-.24.261-.435.432-.585.175-.154.368-.265.581-.334a2.16 2.16 0 0 1 .685-.108c.327 0 .609.062.847.185.237.123.432.288.585.495.153.204.266.436.338.694.075.255.112.518.112.788 0 .309-.043.599-.13.869-.087.27-.218.507-.392.712a1.766 1.766 0 0 1-.635.477 2.113 2.113 0 0 1-.878.171 1.91 1.91 0 0 1-.928-.216 1.978 1.978 0 0 1-.657-.586 2.646 2.646 0 0 1-.392-.81 3.206 3.206 0 0 1-.131-.905v-.392c0-.463.047-.916.14-1.36.093-.445.254-.847.482-1.207.231-.36.551-.647.959-.86.408-.214.929-.32 1.563-.32Zm2.136 6.125c0-.141.044-.26.131-.356.09-.099.219-.149.387-.149s.296.05.383.149c.09.096.135.215.135.356a.494.494 0 0 1-.135.351c-.087.096-.215.144-.383.144s-.297-.048-.387-.144a.504.504 0 0 1-.131-.351Zm.005-3.977c0-.141.043-.26.131-.356.09-.099.219-.148.387-.148s.296.049.383.148c.09.096.135.215.135.356a.494.494 0 0 1-.135.351c-.087.096-.215.144-.383.144s-.297-.048-.387-.144a.5.5 0 0 1-.131-.351Zm6.384.617v1c0 .537-.048.991-.145 1.36-.096.369-.234.666-.414.892-.18.225-.398.388-.653.49-.252.1-.537.149-.856.149-.252 0-.484-.031-.698-.095a1.655 1.655 0 0 1-.576-.301 1.82 1.82 0 0 1-.432-.55 2.945 2.945 0 0 1-.275-.819 5.917 5.917 0 0 1-.095-1.126v-1c0-.537.048-.988.144-1.351.1-.363.239-.654.419-.874.18-.222.397-.381.649-.477.255-.096.54-.144.855-.144.256 0 .49.031.703.094a1.587 1.587 0 0 1 1.004.825c.12.219.212.487.275.806.063.318.095.692.095 1.121Zm-.838 1.135v-1.275a4.89 4.89 0 0 0-.054-.774 2.453 2.453 0 0 0-.149-.577 1.14 1.14 0 0 0-.252-.387.892.892 0 0 0-.347-.216 1.244 1.244 0 0 0-.437-.072 1.18 1.18 0 0 0-.526.112.95.95 0 0 0-.388.347c-.102.159-.18.368-.234.626a4.675 4.675 0 0 0-.081.941v1.275c0 .294.017.554.05.779.036.225.088.42.157.585.069.163.153.296.252.401a.946.946 0 0 0 .343.234c.132.049.277.073.436.073.205 0 .383-.039.536-.118a.959.959 0 0 0 .383-.364c.105-.168.183-.383.234-.644.051-.265.077-.58.077-.946Zm6.118-1.135v1c0 .537-.048.991-.144 1.36-.096.369-.234.666-.415.892a1.57 1.57 0 0 1-.653.49c-.252.1-.537.149-.855.149-.252 0-.485-.031-.698-.095a1.66 1.66 0 0 1-.577-.301 1.82 1.82 0 0 1-.432-.55 2.945 2.945 0 0 1-.275-.819 5.924 5.924 0 0 1-.094-1.126v-1c0-.537.048-.988.144-1.351.099-.363.238-.654.419-.874.18-.222.396-.381.648-.477.255-.096.54-.144.856-.144.255 0 .489.031.702.094.216.06.409.158.577.293.168.132.31.309.428.532.12.219.211.487.274.806.063.318.095.692.095 1.121Zm-.838 1.135v-1.275a4.89 4.89 0 0 0-.054-.774 2.456 2.456 0 0 0-.148-.577 1.156 1.156 0 0 0-.253-.387.888.888 0 0 0-.346-.216 1.252 1.252 0 0 0-.437-.072c-.198 0-.374.037-.527.112a.955.955 0 0 0-.387.347 1.85 1.85 0 0 0-.235.626 4.675 4.675 0 0 0-.081.941v1.275c0 .294.017.554.05.779.036.225.088.42.157.585.069.163.154.296.253.401a.942.942 0 0 0 .342.234c.132.049.278.073.437.073.204 0 .383-.039.536-.118a.963.963 0 0 0 .382-.364 1.88 1.88 0 0 0 .235-.644c.051-.265.076-.58.076-.946Z"/><path fill="#1A96D4" d="M326.653 97.927h25.518c.863 0 1.163 1.431.401 1.836-3.196 1.699-7.271 4.509-8.241 8.156-.695 2.611-.769 6.917-.769 6.917l-16.909-16.909Z"/><rect width="136" height="26.297" x="28" y="139" fill="#313740" rx="12.297"/><path fill="#fff" d="M46.786 152.256v.463c0 .55-.07 1.042-.207 1.478a3.175 3.175 0 0 1-.593 1.112 2.576 2.576 0 0 1-.93.699 2.917 2.917 0 0 1-1.207.241 2.9 2.9 0 0 1-1.192-.241 2.682 2.682 0 0 1-.936-.699 3.258 3.258 0 0 1-.608-1.112 4.692 4.692 0 0 1-.217-1.478v-.463c0-.55.07-1.041.212-1.474a3.26 3.26 0 0 1 .608-1.111 2.61 2.61 0 0 1 .93-.704c.363-.161.76-.242 1.193-.242.445 0 .848.081 1.206.242.363.161.673.395.93.704.262.305.462.676.6 1.111.14.433.21.924.21 1.474Zm-.961.463v-.473c0-.436-.045-.822-.136-1.157a2.402 2.402 0 0 0-.387-.845 1.67 1.67 0 0 0-.629-.518 1.912 1.912 0 0 0-.834-.176c-.302 0-.575.059-.82.176-.242.118-.45.29-.624.518-.17.228-.303.51-.397.845a4.297 4.297 0 0 0-.141 1.157v.473c0 .439.047.828.14 1.166.095.336.229.619.403.85.178.228.387.401.629.518.244.118.518.176.82.176.315 0 .595-.058.84-.176.244-.117.45-.29.618-.518.171-.231.3-.514.387-.85a4.69 4.69 0 0 0 .131-1.166Zm3.387-4.295v7.725h-.935v-7.725h.935Zm4.806 6.794v-2.801c0-.215-.044-.401-.131-.558a.854.854 0 0 0-.382-.372 1.375 1.375 0 0 0-.634-.131c-.235 0-.441.04-.619.12a1.09 1.09 0 0 0-.412.317.696.696 0 0 0-.146.423h-.93c0-.195.05-.387.15-.579.101-.191.245-.363.433-.518.191-.157.42-.281.684-.372.268-.094.567-.141.895-.141.396 0 .745.067 1.046.202.305.134.544.337.715.608.174.268.261.605.261 1.011v2.535c0 .181.015.374.045.578.034.205.082.381.146.528v.081h-.97a1.744 1.744 0 0 1-.111-.428 3.453 3.453 0 0 1-.04-.503Zm.16-2.369.01.654h-.94c-.265 0-.501.022-.709.066-.208.04-.382.102-.523.186a.838.838 0 0 0-.433.754.96.96 0 0 0 .116.468.842.842 0 0 0 .347.337c.158.08.35.121.578.121a1.565 1.565 0 0 0 1.272-.624.953.953 0 0 0 .212-.508l.397.448c-.023.14-.087.296-.19.467a2.26 2.26 0 0 1-1.031.88c-.235.101-.5.151-.795.151a2.08 2.08 0 0 1-.971-.216 1.66 1.66 0 0 1-.644-.578 1.532 1.532 0 0 1-.226-.82c0-.292.057-.548.17-.77.115-.224.28-.41.494-.558.214-.151.473-.265.774-.342a4.09 4.09 0 0 1 1.011-.116h1.081Zm-1.664-2.947.975-1.478h1.122l-1.348 1.478h-.75Zm8.937.805v.714h-2.943v-.714h2.943Zm-1.947-1.323h.93v5.417c0 .184.03.323.086.417a.409.409 0 0 0 .221.186.898.898 0 0 0 .292.046c.077 0 .158-.007.242-.021.087-.016.152-.03.196-.04l.005.76a2.237 2.237 0 0 1-.292.065c-.117.024-.26.035-.427.035-.228 0-.438-.045-.629-.136a1.008 1.008 0 0 1-.458-.452c-.11-.215-.166-.503-.166-.865v-5.412Zm6.47 5.507v-4.184h.936v5.442h-.89l-.046-1.258Zm.176-1.146.388-.01c0 .362-.039.697-.116 1.005-.074.306-.194.57-.362.795a1.705 1.705 0 0 1-.659.528c-.272.124-.602.186-.99.186-.266 0-.509-.038-.73-.115a1.478 1.478 0 0 1-.563-.357 1.629 1.629 0 0 1-.367-.629 3.032 3.032 0 0 1-.126-.931v-3.51h.93v3.52c0 .245.027.448.08.609.058.158.133.283.227.377a.834.834 0 0 0 .322.191c.12.037.245.056.372.056.396 0 .71-.076.94-.227.232-.154.398-.36.499-.618.103-.262.155-.552.155-.87Zm5.711 1.348v-6.669h.936v7.725h-.855l-.08-1.056Zm-3.661-1.605v-.105c0-.416.05-.793.15-1.132.105-.342.25-.635.438-.88.191-.245.418-.433.68-.563a1.92 1.92 0 0 1 .884-.202c.342 0 .64.061.895.181.259.118.477.29.654.518.181.225.324.497.428.815.104.319.176.679.216 1.082v.462a4.731 4.731 0 0 1-.216 1.076 2.527 2.527 0 0 1-.428.815 1.778 1.778 0 0 1-.653.518c-.259.118-.56.176-.906.176-.318 0-.61-.068-.875-.206a2.06 2.06 0 0 1-.679-.578 2.82 2.82 0 0 1-.437-.875 3.878 3.878 0 0 1-.151-1.102Zm.935-.105v.105c0 .272.027.527.08.765a2 2 0 0 0 .262.628c.118.181.267.324.448.428.18.1.397.151.649.151.308 0 .561-.066.759-.196a1.47 1.47 0 0 0 .483-.518c.12-.215.214-.448.281-.7v-1.212a2.692 2.692 0 0 0-.175-.533 1.642 1.642 0 0 0-.292-.462 1.25 1.25 0 0 0-.438-.327 1.41 1.41 0 0 0-.608-.121 1.29 1.29 0 0 0-.66.161 1.29 1.29 0 0 0-.447.432 2.006 2.006 0 0 0-.261.634c-.054.238-.08.493-.08.765Zm4.967.105v-.115c0-.393.057-.757.17-1.092.115-.338.279-.632.493-.88.215-.251.475-.446.78-.583a2.417 2.417 0 0 1 1.026-.212c.382 0 .726.071 1.031.212.308.137.57.332.784.583.219.248.384.542.498.88.114.335.171.699.171 1.092v.115c0 .392-.057.756-.17 1.092a2.62 2.62 0 0 1-.499.88 2.284 2.284 0 0 1-.779.583 2.44 2.44 0 0 1-1.026.206c-.382 0-.726-.068-1.031-.206a2.337 2.337 0 0 1-.785-.583 2.666 2.666 0 0 1-.492-.88 3.378 3.378 0 0 1-.171-1.092Zm.93-.115v.115c0 .272.032.528.096.77.063.238.159.449.286.633.131.185.294.331.488.438.195.104.42.156.679.156.255 0 .478-.052.669-.156.194-.107.355-.253.483-.438a2.01 2.01 0 0 0 .286-.633 2.87 2.87 0 0 0 .101-.77v-.115a2.83 2.83 0 0 0-.1-.76 1.966 1.966 0 0 0-.292-.639 1.347 1.347 0 0 0-1.157-.603c-.255 0-.48.053-.674.161a1.45 1.45 0 0 0-.483.442 2.031 2.031 0 0 0-.287.639 2.927 2.927 0 0 0-.095.76Zm7.946-4.949h.936v6.669l-.08 1.056h-.856v-7.725Zm4.612 4.959v.105c0 .396-.047.763-.14 1.102a2.709 2.709 0 0 1-.413.875 1.916 1.916 0 0 1-.664.578 1.9 1.9 0 0 1-.9.206c-.346 0-.65-.058-.91-.176a1.778 1.778 0 0 1-.654-.518 2.667 2.667 0 0 1-.428-.815 5.131 5.131 0 0 1-.216-1.076v-.462c.04-.403.112-.763.216-1.082.107-.318.25-.59.428-.815.177-.228.395-.4.653-.518.258-.12.559-.181.9-.181.343 0 .646.067.91.202.266.13.487.318.665.563.18.245.318.538.412.88.094.339.14.716.14 1.132Zm-.936.105v-.105c0-.272-.025-.527-.075-.765a1.981 1.981 0 0 0-.241-.634 1.204 1.204 0 0 0-.438-.432 1.295 1.295 0 0 0-.669-.161c-.234 0-.439.04-.613.121-.171.08-.317.189-.438.327a1.75 1.75 0 0 0-.297.462 2.67 2.67 0 0 0-.166.533v1.212c.054.235.141.461.262.679.124.215.288.391.493.528.208.138.464.207.77.207.25 0 .465-.051.643-.151.181-.104.327-.247.438-.428.114-.181.197-.39.251-.628a3.47 3.47 0 0 0 .08-.765Zm4.474 2.761c-.379 0-.723-.063-1.031-.191a2.336 2.336 0 0 1-.79-.548 2.442 2.442 0 0 1-.503-.835 3.064 3.064 0 0 1-.176-1.056v-.211c0-.443.066-.837.197-1.182.13-.349.308-.644.533-.885.224-.242.48-.424.764-.549.285-.124.58-.186.885-.186.39 0 .724.067 1.006.202.285.134.518.321.7.563.18.238.314.52.402.845.087.322.13.674.13 1.056v.417h-4.063v-.759h3.133v-.07a2.321 2.321 0 0 0-.151-.705 1.268 1.268 0 0 0-.402-.563c-.185-.147-.436-.221-.755-.221a1.26 1.26 0 0 0-1.04.528 1.968 1.968 0 0 0-.297.639 3.208 3.208 0 0 0-.106.87v.211c0 .258.035.501.106.729.073.225.179.423.316.594.141.171.31.305.508.402.201.097.43.146.684.146.329 0 .607-.067.835-.201.228-.134.428-.314.599-.538l.563.447a2.6 2.6 0 0 1-.448.508 2.125 2.125 0 0 1-.669.392 2.581 2.581 0 0 1-.93.151Zm4.232-4.461v4.361h-.935v-5.442h.885l.05 1.081Zm-.191 1.434-.433-.015c.004-.373.052-.716.146-1.031a2.43 2.43 0 0 1 .418-.83c.184-.235.414-.416.689-.543.275-.131.593-.197.955-.197.255 0 .49.037.704.111.215.07.401.183.559.337.157.154.28.352.367.593a2.6 2.6 0 0 1 .13.876v3.626h-.93v-3.581c0-.285-.049-.513-.146-.684a.833.833 0 0 0-.402-.372 1.444 1.444 0 0 0-.614-.121 1.47 1.47 0 0 0-.689.146 1.161 1.161 0 0 0-.442.402 1.81 1.81 0 0 0-.242.589c-.047.218-.07.449-.07.694Zm3.525-.513-.623.191c.003-.299.052-.585.146-.86.097-.275.236-.52.417-.735a1.98 1.98 0 0 1 .679-.507 2.11 2.11 0 0 1 .92-.192c.292 0 .55.039.775.116.228.077.419.196.573.357.158.158.277.361.357.609.081.248.121.543.121.885v3.576h-.935v-3.586c0-.305-.049-.542-.146-.709a.759.759 0 0 0-.403-.357 1.594 1.594 0 0 0-.613-.106 1.31 1.31 0 0 0-.543.106c-.158.07-.29.167-.398.291-.107.121-.19.26-.246.418-.054.157-.08.325-.08.503Zm6.898 1.378h-.935c.003-.322.031-.585.085-.79.057-.208.149-.397.277-.568a5.96 5.96 0 0 1 .508-.584c.154-.157.295-.305.422-.442.131-.141.236-.292.317-.453.08-.164.121-.36.121-.588 0-.232-.042-.431-.126-.599a.869.869 0 0 0-.362-.387 1.164 1.164 0 0 0-.589-.136c-.194 0-.379.035-.553.106a.944.944 0 0 0-.422.327c-.108.144-.163.333-.166.568h-.931c.007-.379.101-.704.282-.976.184-.271.432-.479.744-.623a2.468 2.468 0 0 1 1.046-.217c.426 0 .788.078 1.087.232.301.154.531.375.689.664.157.285.236.623.236 1.016 0 .301-.062.58-.186.834a3.23 3.23 0 0 1-.468.71 8.44 8.44 0 0 1-.608.633 1.271 1.271 0 0 0-.372.579 2.415 2.415 0 0 0-.096.694Zm-.976 1.594c0-.151.047-.278.141-.382.094-.104.23-.156.408-.156.181 0 .318.052.412.156a.548.548 0 0 1 .141.382.536.536 0 0 1-.141.372c-.094.104-.231.156-.412.156-.178 0-.314-.052-.408-.156a.536.536 0 0 1-.141-.372Z"/><path fill="#fff" fill-opacity=".8" d="M133.283 151.975v6.593h-.833v-5.552l-1.68.612v-.752l2.382-.901h.131Zm5.74.027h.072v.707h-.072c-.442 0-.811.072-1.108.216a1.823 1.823 0 0 0-.707.572c-.174.238-.3.505-.379.802a3.684 3.684 0 0 0-.112.905v.964c0 .291.034.549.103.775.069.222.164.409.284.563.12.153.255.268.405.346.154.078.313.117.478.117.192 0 .363-.036.513-.108.15-.075.276-.178.379-.31.105-.136.184-.295.238-.478.054-.183.081-.384.081-.603 0-.195-.024-.383-.072-.563a1.514 1.514 0 0 0-.22-.487 1.067 1.067 0 0 0-.901-.463c-.231 0-.447.057-.649.171a1.485 1.485 0 0 0-.491.441c-.126.18-.198.377-.216.59l-.441-.005c.042-.336.12-.622.234-.86.117-.24.261-.435.432-.585.175-.153.368-.264.581-.333a2.16 2.16 0 0 1 .685-.108c.327 0 .609.061.847.184.237.123.432.288.585.496.153.204.266.435.338.693.075.255.112.518.112.788 0 .309-.043.599-.13.869a2.049 2.049 0 0 1-.392.712 1.766 1.766 0 0 1-.635.477 2.113 2.113 0 0 1-.878.171 1.91 1.91 0 0 1-.928-.216 1.986 1.986 0 0 1-.657-.585 2.652 2.652 0 0 1-.392-.811 3.206 3.206 0 0 1-.131-.905v-.392c0-.462.047-.916.14-1.36.093-.444.254-.847.482-1.207.231-.36.551-.647.959-.86.408-.213.929-.32 1.563-.32Zm2.136 6.125c0-.141.044-.26.131-.356.09-.099.219-.148.387-.148s.296.049.383.148c.09.096.135.215.135.356a.494.494 0 0 1-.135.351c-.087.096-.215.144-.383.144s-.297-.048-.387-.144a.504.504 0 0 1-.131-.351Zm.005-3.977c0-.141.043-.259.131-.355.09-.099.219-.149.387-.149s.296.05.383.149c.09.096.135.214.135.355a.495.495 0 0 1-.135.352c-.087.096-.215.144-.383.144s-.297-.048-.387-.144a.5.5 0 0 1-.131-.352Zm6.384.617v1c0 .538-.048.991-.145 1.36-.096.37-.234.667-.414.892-.18.225-.398.389-.653.491a2.325 2.325 0 0 1-.856.148 2.46 2.46 0 0 1-.698-.094 1.657 1.657 0 0 1-.576-.302 1.828 1.828 0 0 1-.432-.549 2.953 2.953 0 0 1-.275-.82 5.902 5.902 0 0 1-.095-1.126v-1c0-.537.048-.987.144-1.351.1-.363.239-.654.419-.873.18-.222.397-.382.649-.478.255-.096.54-.144.855-.144.256 0 .49.032.703.095.216.06.408.157.576.293.169.132.311.309.428.531.12.219.212.488.275.806.063.318.095.692.095 1.121Zm-.838 1.135v-1.274c0-.294-.018-.553-.054-.775a2.431 2.431 0 0 0-.149-.576 1.154 1.154 0 0 0-.252-.388.892.892 0 0 0-.347-.216 1.244 1.244 0 0 0-.437-.072 1.18 1.18 0 0 0-.526.113.937.937 0 0 0-.388.347c-.102.159-.18.367-.234.626a4.675 4.675 0 0 0-.081.941v1.274c0 .295.017.554.05.779.036.226.088.421.157.586.069.162.153.296.252.401a.946.946 0 0 0 .343.234c.132.048.277.072.436.072.205 0 .383-.039.536-.117a.961.961 0 0 0 .383-.365c.105-.168.183-.383.234-.644.051-.264.077-.579.077-.946Zm6.118-1.135v1c0 .538-.048.991-.144 1.36-.096.37-.234.667-.415.892-.18.225-.397.389-.653.491a2.323 2.323 0 0 1-.855.148c-.252 0-.485-.031-.698-.094a1.661 1.661 0 0 1-.577-.302 1.828 1.828 0 0 1-.432-.549 2.953 2.953 0 0 1-.275-.82 5.909 5.909 0 0 1-.094-1.126v-1c0-.537.048-.987.144-1.351.099-.363.238-.654.419-.873.18-.222.396-.382.648-.478.255-.096.54-.144.856-.144.255 0 .489.032.702.095a1.576 1.576 0 0 1 1.005.824c.12.219.211.488.274.806.063.318.095.692.095 1.121Zm-.838 1.135v-1.274c0-.294-.018-.553-.054-.775a2.434 2.434 0 0 0-.148-.576 1.17 1.17 0 0 0-.253-.388.888.888 0 0 0-.346-.216 1.252 1.252 0 0 0-.437-.072c-.198 0-.374.038-.527.113a.94.94 0 0 0-.387.347 1.841 1.841 0 0 0-.235.626 4.675 4.675 0 0 0-.081.941v1.274c0 .295.017.554.05.779.036.226.088.421.157.586.069.162.154.296.253.401a.942.942 0 0 0 .342.234c.132.048.278.072.437.072.204 0 .383-.039.536-.117.153-.078.28-.2.382-.365a1.88 1.88 0 0 0 .235-.644c.051-.264.076-.579.076-.946Z"/><path fill="#313740" d="M45.347 139.432H19.83c-.863 0-1.163 1.431-.401 1.836 3.196 1.698 7.271 4.508 8.241 8.155.695 2.611.77 6.918.77 6.918l16.908-16.909Z"/><rect width="206" height="40.297" x="28" y="175" fill="#313740" rx="12.297"/><path fill="#fff" d="M45.05 190.298a1.2 1.2 0 0 0-.08-.453.86.86 0 0 0-.272-.362 2.164 2.164 0 0 0-.533-.307 7.378 7.378 0 0 0-.855-.296 8.107 8.107 0 0 1-.98-.357 3.462 3.462 0 0 1-.75-.458 1.8 1.8 0 0 1-.478-.589 1.672 1.672 0 0 1-.166-.759 1.786 1.786 0 0 1 .679-1.418c.221-.181.484-.322.79-.423.305-.1.645-.151 1.02-.151.55 0 1.017.106 1.399.317.385.208.679.481.88.82.201.335.302.694.302 1.076h-.966c0-.275-.059-.518-.176-.729a1.213 1.213 0 0 0-.533-.503c-.238-.124-.54-.186-.905-.186-.346 0-.63.052-.855.156a1.134 1.134 0 0 0-.503.422 1.156 1.156 0 0 0-.161.609c0 .154.032.295.095.422.067.124.17.24.307.347.14.108.319.207.533.297.218.091.478.178.78.262.416.117.774.248 1.076.392.302.144.55.307.744.488.198.178.344.38.438.608.097.225.146.48.146.765 0 .298-.06.568-.181.81a1.772 1.772 0 0 1-.518.618 2.485 2.485 0 0 1-.81.397 3.73 3.73 0 0 1-1.046.136c-.339 0-.672-.047-1.001-.141a2.956 2.956 0 0 1-.89-.422 2.217 2.217 0 0 1-.639-.694 1.925 1.925 0 0 1-.236-.966h.965c0 .252.049.468.146.649.097.178.23.325.398.443.17.117.363.204.578.261.218.054.444.081.679.081.339 0 .625-.047.86-.141.235-.094.412-.228.533-.402.124-.175.186-.381.186-.619Zm4.433 1.951c-.379 0-.722-.063-1.03-.191a2.336 2.336 0 0 1-.79-.548 2.44 2.44 0 0 1-.503-.835 3.064 3.064 0 0 1-.176-1.056v-.211c0-.443.065-.837.196-1.182.13-.349.308-.644.533-.885a2.29 2.29 0 0 1 .764-.549c.285-.124.58-.186.886-.186.389 0 .724.067 1.005.202.285.134.518.321.7.563.18.238.315.52.402.845.087.322.13.674.13 1.056v.417h-4.063v-.759h3.133v-.07a2.321 2.321 0 0 0-.15-.705 1.267 1.267 0 0 0-.403-.563c-.184-.147-.436-.221-.754-.221a1.26 1.26 0 0 0-1.041.528 1.968 1.968 0 0 0-.297.639c-.07.251-.106.541-.106.87v.211c0 .258.035.501.106.729.074.225.18.423.317.594.14.171.31.305.508.402.2.097.429.146.684.146.328 0 .606-.067.834-.201.228-.134.428-.314.599-.538l.563.447a2.6 2.6 0 0 1-.447.508 2.124 2.124 0 0 1-.67.392 2.58 2.58 0 0 1-.93.151Zm3.332-5.542h.936v6.09c0 .332-.054.614-.161.845a1.086 1.086 0 0 1-.473.523c-.208.121-.471.181-.79.181-.084 0-.18-.008-.291-.025a1.97 1.97 0 0 1-.287-.06l.005-.749c.064.013.136.023.216.03.08.01.151.015.211.015a.72.72 0 0 0 .347-.076.467.467 0 0 0 .212-.241 1.09 1.09 0 0 0 .075-.443v-6.09Zm-.096-1.443a.55.55 0 0 1 .141-.383c.094-.104.23-.156.408-.156.18 0 .318.052.412.156a.55.55 0 0 1 .14.383.536.536 0 0 1-.14.372c-.094.1-.231.151-.412.151-.178 0-.314-.051-.408-.151a.537.537 0 0 1-.14-.372Zm5.847 5.954v-2.801c0-.215-.044-.401-.13-.558a.854.854 0 0 0-.383-.372 1.375 1.375 0 0 0-.634-.131c-.234 0-.44.04-.618.12a1.09 1.09 0 0 0-.413.317.696.696 0 0 0-.146.423h-.93c0-.195.05-.387.15-.579a1.72 1.72 0 0 1 .433-.518c.191-.157.42-.281.684-.372a2.7 2.7 0 0 1 .896-.141c.395 0 .744.067 1.046.202.305.134.543.337.714.608.174.268.261.605.261 1.011v2.535c0 .181.015.374.046.578.033.205.082.381.145.528v.081h-.97a1.744 1.744 0 0 1-.11-.428 3.453 3.453 0 0 1-.041-.503Zm.16-2.369.011.654h-.94c-.265 0-.502.022-.71.066-.208.04-.382.102-.523.186a.838.838 0 0 0-.433.754.96.96 0 0 0 .117.468.842.842 0 0 0 .346.337c.158.08.35.121.579.121a1.565 1.565 0 0 0 1.272-.624.953.953 0 0 0 .212-.508l.397.448c-.024.14-.087.296-.191.467a2.259 2.259 0 0 1-1.031.88c-.235.101-.5.151-.795.151a2.08 2.08 0 0 1-.97-.216 1.66 1.66 0 0 1-.644-.578 1.532 1.532 0 0 1-.227-.82c0-.292.057-.548.171-.77.114-.224.279-.41.493-.558.215-.151.473-.265.775-.342a4.091 4.091 0 0 1 1.01-.116h1.082Zm4.99-4.425h.935v6.669l-.08 1.056h-.855v-7.725Zm4.612 4.959v.105c0 .396-.047.763-.141 1.102a2.709 2.709 0 0 1-.413.875 1.916 1.916 0 0 1-.663.578 1.9 1.9 0 0 1-.9.206c-.346 0-.65-.058-.911-.176a1.778 1.778 0 0 1-.654-.518 2.667 2.667 0 0 1-.427-.815 5.125 5.125 0 0 1-.216-1.076v-.462c.04-.403.112-.763.216-1.082.107-.318.25-.59.427-.815.178-.228.396-.4.654-.518.258-.12.558-.181.9-.181.342 0 .646.067.91.202.265.13.487.318.664.563.181.245.319.538.413.88.094.339.14.716.14 1.132Zm-.936.105v-.105c0-.272-.025-.527-.075-.765a1.986 1.986 0 0 0-.242-.634 1.205 1.205 0 0 0-.437-.432 1.295 1.295 0 0 0-.67-.161c-.234 0-.438.04-.613.121-.17.08-.317.189-.437.327a1.75 1.75 0 0 0-.297.462 2.658 2.658 0 0 0-.166.533v1.212c.054.235.14.461.262.679.124.215.288.391.493.528.207.138.464.207.769.207.251 0 .466-.051.644-.151.18-.104.327-.247.437-.428.114-.181.198-.39.252-.628a3.47 3.47 0 0 0 .08-.765Zm4.474 2.761a2.66 2.66 0 0 1-1.031-.191 2.334 2.334 0 0 1-.79-.548 2.44 2.44 0 0 1-.503-.835 3.064 3.064 0 0 1-.176-1.056v-.211c0-.443.066-.837.196-1.182a2.65 2.65 0 0 1 .533-.885c.225-.242.48-.424.765-.549.285-.124.58-.186.885-.186.389 0 .724.067 1.006.202.285.134.518.321.699.563.18.238.315.52.402.845.087.322.131.674.131 1.056v.417h-4.064v-.759h3.134v-.07a2.321 2.321 0 0 0-.151-.705 1.267 1.267 0 0 0-.403-.563c-.184-.147-.435-.221-.754-.221a1.26 1.26 0 0 0-1.041.528 1.968 1.968 0 0 0-.297.639 3.25 3.25 0 0 0-.105.87v.211c0 .258.035.501.105.729.074.225.18.423.317.594.14.171.31.305.508.402.201.097.43.146.684.146.329 0 .607-.067.835-.201.228-.134.427-.314.598-.538l.564.447a2.6 2.6 0 0 1-.448.508 2.124 2.124 0 0 1-.669.392 2.58 2.58 0 0 1-.93.151Zm4.232-4.461v4.361h-.936v-5.442h.885l.05 1.081Zm-.191 1.434-.433-.015c.003-.373.052-.716.146-1.031.094-.319.233-.596.417-.83.185-.235.414-.416.69-.543.274-.131.593-.197.955-.197.255 0 .49.037.704.111.215.07.4.183.558.337.158.154.28.352.367.593.088.242.131.534.131.876v3.626h-.93v-3.581c0-.285-.049-.513-.146-.684a.833.833 0 0 0-.402-.372 1.444 1.444 0 0 0-.614-.121c-.275 0-.505.049-.689.146a1.162 1.162 0 0 0-.443.402 1.81 1.81 0 0 0-.241.589c-.047.218-.07.449-.07.694Zm3.525-.513-.624.191c.004-.299.052-.585.146-.86a2.34 2.34 0 0 1 .418-.735 1.98 1.98 0 0 1 .679-.507 2.11 2.11 0 0 1 .92-.192c.292 0 .55.039.775.116a1.4 1.4 0 0 1 .573.357c.157.158.277.361.357.609.08.248.12.543.12.885v3.576h-.935v-3.586c0-.305-.048-.542-.146-.709a.76.76 0 0 0-.402-.357 1.597 1.597 0 0 0-.614-.106 1.31 1.31 0 0 0-.543.106c-.157.07-.29.167-.397.291-.107.121-.19.26-.246.418-.054.157-.08.325-.08.503Zm9.189 2.6 1.488-4.602h.95l-1.956 5.442h-.623l.14-.84Zm-1.243-4.602 1.534 4.627.106.815h-.624l-1.971-5.442h.955Zm5.69 0v5.442h-.935v-5.442h.936Zm-1.005-1.443c0-.151.045-.279.136-.383.094-.104.231-.156.412-.156.178 0 .314.052.407.156a.54.54 0 0 1 .146.383.526.526 0 0 1-.145.372c-.094.1-.23.151-.408.151-.181 0-.318-.051-.412-.151a.548.548 0 0 1-.136-.372Zm3.533 2.605v4.28h-.93v-5.442h.88l.05 1.162Zm-.221 1.353-.388-.015a3.27 3.27 0 0 1 .166-1.031c.108-.319.258-.596.453-.83.194-.235.426-.416.694-.543.272-.131.572-.197.9-.197.269 0 .51.037.724.111.215.07.398.184.549.342.154.158.271.362.352.614.08.248.12.551.12.91v3.566h-.935v-3.576c0-.285-.042-.513-.126-.684a.774.774 0 0 0-.367-.377 1.311 1.311 0 0 0-.593-.121 1.38 1.38 0 0 0-.634.146c-.188.097-.35.231-.488.402a2.02 2.02 0 0 0-.317.589 2.17 2.17 0 0 0-.11.694Zm8.517 1.871v-6.669h.935v7.725h-.855l-.08-1.056Zm-3.662-1.605v-.105c0-.416.051-.793.151-1.132.104-.342.25-.635.438-.88a1.92 1.92 0 0 1 1.564-.765c.342 0 .64.061.895.181.258.118.476.29.654.518.181.225.323.497.427.815.104.319.176.679.217 1.082v.462a4.698 4.698 0 0 1-.217 1.076 2.53 2.53 0 0 1-.427.815 1.783 1.783 0 0 1-.654.518c-.258.118-.56.176-.905.176-.319 0-.61-.068-.875-.206a2.054 2.054 0 0 1-.679-.578 2.817 2.817 0 0 1-.438-.875 3.878 3.878 0 0 1-.151-1.102Zm.936-.105v.105c0 .272.027.527.08.765.057.238.144.447.262.628.117.181.266.324.447.428.181.1.398.151.649.151.309 0 .562-.066.76-.196.201-.131.362-.304.482-.518.121-.215.215-.448.282-.7v-1.212a2.686 2.686 0 0 0-.176-.533 1.64 1.64 0 0 0-.292-.462 1.247 1.247 0 0 0-.437-.327 1.41 1.41 0 0 0-.609-.121c-.255 0-.474.054-.659.161-.181.104-.33.248-.447.432a1.99 1.99 0 0 0-.262.634c-.053.238-.08.493-.08.765Zm8.421 1.835v-2.801c0-.215-.043-.401-.131-.558a.85.85 0 0 0-.382-.372 1.373 1.373 0 0 0-.633-.131c-.235 0-.441.04-.619.12a1.087 1.087 0 0 0-.412.317.691.691 0 0 0-.146.423h-.931c0-.195.051-.387.151-.579.101-.191.245-.363.433-.518a2.18 2.18 0 0 1 .684-.372c.268-.094.566-.141.895-.141.395 0 .744.067 1.046.202.305.134.543.337.714.608.174.268.262.605.262 1.011v2.535c0 .181.015.374.045.578.033.205.082.381.146.528v.081h-.971a1.752 1.752 0 0 1-.111-.428 3.567 3.567 0 0 1-.04-.503Zm.161-2.369.01.654h-.94c-.265 0-.502.022-.709.066-.208.04-.383.102-.523.186a.835.835 0 0 0-.433.754.96.96 0 0 0 .116.468.836.836 0 0 0 .347.337c.157.08.35.121.578.121a1.56 1.56 0 0 0 1.272-.624.952.952 0 0 0 .212-.508l.397.448c-.023.14-.087.296-.191.467a2.257 2.257 0 0 1-1.031.88c-.235.101-.5.151-.795.151a2.08 2.08 0 0 1-.97-.216 1.66 1.66 0 0 1-.644-.578 1.53 1.53 0 0 1-.226-.82c0-.292.057-.548.171-.77.114-.224.278-.41.492-.558.215-.151.473-.265.775-.342a4.094 4.094 0 0 1 1.011-.116h1.081Zm8.203 2.369v-2.801c0-.215-.044-.401-.131-.558a.855.855 0 0 0-.382-.372 1.377 1.377 0 0 0-.634-.131c-.235 0-.441.04-.619.12a1.095 1.095 0 0 0-.412.317.698.698 0 0 0-.146.423h-.93c0-.195.05-.387.151-.579.1-.191.244-.363.432-.518a2.18 2.18 0 0 1 .684-.372c.268-.094.567-.141.895-.141.396 0 .745.067 1.046.202.306.134.544.337.715.608.174.268.261.605.261 1.011v2.535c0 .181.015.374.045.578.034.205.083.381.146.528v.081h-.97a1.752 1.752 0 0 1-.111-.428 3.424 3.424 0 0 1-.04-.503Zm.161-2.369.01.654h-.941c-.265 0-.501.022-.709.066-.208.04-.382.102-.523.186a.835.835 0 0 0-.432.754.96.96 0 0 0 .115.468.842.842 0 0 0 .347.337c.158.08.351.121.579.121a1.56 1.56 0 0 0 1.272-.624.95.95 0 0 0 .211-.508l.398.448c-.024.14-.088.296-.192.467a2.263 2.263 0 0 1-1.031.88 1.986 1.986 0 0 1-.794.151c-.369 0-.693-.072-.971-.216a1.666 1.666 0 0 1-.644-.578 1.54 1.54 0 0 1-.226-.82c0-.292.057-.548.171-.77a1.49 1.49 0 0 1 .493-.558c.215-.151.473-.265.774-.342a4.094 4.094 0 0 1 1.011-.116h1.082Zm5.441-4.023h.941l2.399 5.97 2.394-5.97h.945l-2.977 7.323h-.735l-2.967-7.323Zm-.307 0h.83l.136 4.466v2.857h-.966v-7.323Zm6.458 0h.83v7.323h-.966v-2.857l.136-4.466Zm3.508 1.881v5.442h-.936v-5.442h.936Zm-1.006-1.443c0-.151.045-.279.136-.383.094-.104.231-.156.412-.156.178 0 .314.052.408.156a.54.54 0 0 1 .145.383.526.526 0 0 1-.145.372c-.094.1-.23.151-.408.151-.181 0-.318-.051-.412-.151a.546.546 0 0 1-.136-.372Zm3.533 2.605v4.28h-.93v-5.442h.88l.05 1.162Zm-.221 1.353-.388-.015c.004-.373.059-.716.166-1.031.108-.319.259-.596.453-.83.194-.235.426-.416.694-.543.272-.131.572-.197.9-.197.269 0 .51.037.724.111.215.07.398.184.549.342.154.158.271.362.352.614.08.248.12.551.12.91v3.566h-.935v-3.576c0-.285-.042-.513-.126-.684a.774.774 0 0 0-.367-.377 1.311 1.311 0 0 0-.593-.121 1.38 1.38 0 0 0-.634.146c-.188.097-.35.231-.488.402-.134.171-.24.367-.317.589a2.17 2.17 0 0 0-.11.694Zm8.517 1.871v-6.669h.935v7.725h-.855l-.08-1.056Zm-3.662-1.605v-.105c0-.416.051-.793.151-1.132.104-.342.25-.635.438-.88a1.92 1.92 0 0 1 1.564-.765c.342 0 .64.061.895.181.258.118.476.29.654.518.181.225.323.497.427.815.104.319.176.679.217 1.082v.462a4.698 4.698 0 0 1-.217 1.076 2.53 2.53 0 0 1-.427.815 1.783 1.783 0 0 1-.654.518c-.258.118-.56.176-.905.176-.319 0-.61-.068-.875-.206a2.054 2.054 0 0 1-.679-.578 2.817 2.817 0 0 1-.438-.875 3.878 3.878 0 0 1-.151-1.102Zm.936-.105v.105c0 .272.027.527.08.765.057.238.144.447.262.628.117.181.266.324.447.428.181.1.398.151.649.151.309 0 .562-.066.76-.196.201-.131.362-.304.482-.518.121-.215.215-.448.282-.7v-1.212a2.686 2.686 0 0 0-.176-.533 1.64 1.64 0 0 0-.292-.462 1.247 1.247 0 0 0-.437-.327 1.41 1.41 0 0 0-.609-.121c-.255 0-.474.054-.659.161-.181.104-.33.248-.447.432a1.99 1.99 0 0 0-.262.634c-.053.238-.08.493-.08.765Zm11.914.915a1.2 1.2 0 0 0-.08-.453.866.866 0 0 0-.272-.362 2.155 2.155 0 0 0-.533-.307 7.432 7.432 0 0 0-.855-.296 8.137 8.137 0 0 1-.981-.357 3.454 3.454 0 0 1-.749-.458 1.804 1.804 0 0 1-.478-.589 1.668 1.668 0 0 1-.166-.759 1.79 1.79 0 0 1 .679-1.418c.221-.181.484-.322.79-.423.305-.1.645-.151 1.021-.151.549 0 1.015.106 1.398.317.385.208.679.481.88.82.201.335.302.694.302 1.076h-.966c0-.275-.059-.518-.176-.729a1.21 1.21 0 0 0-.533-.503c-.238-.124-.54-.186-.905-.186-.346 0-.631.052-.855.156a1.129 1.129 0 0 0-.503.422 1.15 1.15 0 0 0-.161.609c0 .154.032.295.095.422.067.124.17.24.307.347.141.108.319.207.533.297.218.091.478.178.78.262a6.81 6.81 0 0 1 1.076.392c.302.144.55.307.744.488.198.178.344.38.438.608.097.225.146.48.146.765 0 .298-.061.568-.181.81a1.772 1.772 0 0 1-.518.618 2.49 2.49 0 0 1-.81.397 3.733 3.733 0 0 1-1.046.136c-.339 0-.672-.047-1.001-.141a2.953 2.953 0 0 1-.89-.422 2.216 2.216 0 0 1-.639-.694 1.92 1.92 0 0 1-.236-.966h.965c0 .252.049.468.146.649.097.178.23.325.397.443.171.117.364.204.579.261.218.054.444.081.679.081.338 0 .625-.047.86-.141.234-.094.412-.228.533-.402.124-.175.186-.381.186-.619Zm5.384.92v-2.801c0-.215-.044-.401-.131-.558a.855.855 0 0 0-.382-.372 1.375 1.375 0 0 0-.634-.131c-.235 0-.441.04-.619.12a1.095 1.095 0 0 0-.412.317.698.698 0 0 0-.146.423h-.93c0-.195.05-.387.151-.579.1-.191.244-.363.432-.518a2.18 2.18 0 0 1 .684-.372c.268-.094.567-.141.895-.141.396 0 .745.067 1.046.202.306.134.544.337.715.608.174.268.261.605.261 1.011v2.535c0 .181.015.374.045.578.034.205.083.381.146.528v.081h-.97a1.752 1.752 0 0 1-.111-.428 3.424 3.424 0 0 1-.04-.503Zm.161-2.369.01.654h-.941c-.265 0-.501.022-.709.066-.208.04-.382.102-.523.186a.835.835 0 0 0-.432.754.96.96 0 0 0 .115.468.842.842 0 0 0 .347.337c.158.08.351.121.579.121a1.56 1.56 0 0 0 1.272-.624.95.95 0 0 0 .211-.508l.398.448c-.024.14-.088.296-.192.467a2.248 2.248 0 0 1-1.031.88 1.986 1.986 0 0 1-.794.151c-.369 0-.693-.072-.971-.216a1.666 1.666 0 0 1-.644-.578 1.54 1.54 0 0 1-.226-.82c0-.292.057-.548.171-.77a1.49 1.49 0 0 1 .493-.558c.215-.151.473-.265.774-.342a4.094 4.094 0 0 1 1.011-.116h1.082Zm3.724 3.3h-.931v-6.015c0-.393.071-.723.212-.991a1.42 1.42 0 0 1 .618-.614c.268-.141.587-.211.956-.211a2.69 2.69 0 0 1 .644.081l-.051.759a1.435 1.435 0 0 0-.241-.035 3.277 3.277 0 0 0-.262-.01c-.198 0-.369.04-.513.12a.768.768 0 0 0-.322.342c-.073.151-.11.337-.11.559v6.015Zm1.157-5.442v.714h-2.948v-.714h2.948Zm3.276 5.542c-.379 0-.723-.063-1.031-.191a2.346 2.346 0 0 1-.79-.548 2.45 2.45 0 0 1-.503-.835 3.07 3.07 0 0 1-.176-1.056v-.211c0-.443.066-.837.197-1.182.13-.349.308-.644.533-.885.224-.242.479-.424.764-.549.285-.124.58-.186.885-.186.389 0 .725.067 1.006.202.285.134.518.321.699.563.181.238.315.52.403.845.087.322.13.674.13 1.056v.417h-4.063v-.759h3.133v-.07a2.316 2.316 0 0 0-.151-.705 1.271 1.271 0 0 0-.402-.563c-.185-.147-.436-.221-.755-.221a1.26 1.26 0 0 0-1.041.528 1.967 1.967 0 0 0-.296.639 3.208 3.208 0 0 0-.106.87v.211c0 .258.035.501.106.729.073.225.179.423.316.594.141.171.31.305.508.402.201.097.429.146.684.146.329 0 .607-.067.835-.201.228-.134.428-.314.599-.538l.563.447a2.59 2.59 0 0 1-.448.508 2.122 2.122 0 0 1-.669.392 2.575 2.575 0 0 1-.93.151Zm4.152-1.207v.75c0 .305-.078.627-.232.965a2.31 2.31 0 0 1-.649.855l-.528-.367c.108-.147.198-.298.272-.453.074-.15.129-.308.166-.472.04-.161.06-.332.06-.513v-.765h.911Zm6.125.443c.221 0 .426-.045.614-.136.187-.091.342-.215.462-.372.121-.161.19-.344.207-.548h.885a1.66 1.66 0 0 1-.327.9 2.234 2.234 0 0 1-1.841.92c-.409 0-.766-.072-1.071-.216a2.133 2.133 0 0 1-.755-.593 2.662 2.662 0 0 1-.447-.865 3.665 3.665 0 0 1-.146-1.042v-.211c0-.365.049-.711.146-1.036.1-.328.25-.618.447-.87.202-.251.453-.449.755-.593a2.47 2.47 0 0 1 1.071-.217c.426 0 .798.088 1.117.262.318.171.568.406.749.704.184.295.285.63.302 1.006h-.885a1.34 1.34 0 0 0-.192-.609 1.183 1.183 0 0 0-.442-.432 1.236 1.236 0 0 0-.649-.166c-.285 0-.525.057-.719.171-.191.11-.344.261-.458.452a2.13 2.13 0 0 0-.241.629 3.453 3.453 0 0 0-.071.699v.211c0 .239.024.473.071.705.047.231.126.44.236.628.114.188.267.339.458.453.194.11.436.166.724.166Zm3.07-1.997v-.115c0-.393.057-.757.171-1.092.114-.338.279-.632.493-.88.215-.251.475-.446.78-.583a2.417 2.417 0 0 1 1.026-.212c.382 0 .726.071 1.031.212.308.137.57.332.784.583.218.248.384.542.498.88.114.335.171.699.171 1.092v.115c0 .392-.057.756-.171 1.092-.114.335-.28.628-.498.88a2.277 2.277 0 0 1-.779.583 2.442 2.442 0 0 1-1.026.206c-.382 0-.726-.068-1.031-.206a2.339 2.339 0 0 1-.785-.583 2.677 2.677 0 0 1-.493-.88 3.378 3.378 0 0 1-.171-1.092Zm.931-.115v.115c0 .272.032.528.095.77.064.238.16.449.287.633.131.185.293.331.488.438.194.104.421.156.679.156.255 0 .478-.052.669-.156.194-.107.355-.253.483-.438.127-.184.222-.395.286-.633a2.87 2.87 0 0 0 .101-.77v-.115c0-.269-.034-.522-.101-.76a1.968 1.968 0 0 0-.292-.639 1.347 1.347 0 0 0-1.156-.603c-.255 0-.48.053-.674.161a1.454 1.454 0 0 0-.483.442 2.048 2.048 0 0 0-.287.639 2.958 2.958 0 0 0-.095.76Zm6.218-1.585v4.361h-.935v-5.442h.885l.05 1.081Zm-.191 1.434-.432-.015c.003-.373.052-.716.146-1.031.093-.319.233-.596.417-.83.184-.235.414-.416.689-.543a2.2 2.2 0 0 1 .956-.197c.254 0 .489.037.704.111.214.07.4.183.558.337.158.154.28.352.367.593.087.242.131.534.131.876v3.626h-.931v-3.581c0-.285-.048-.513-.145-.684a.832.832 0 0 0-.403-.372 1.442 1.442 0 0 0-.613-.121c-.275 0-.505.049-.689.146a1.16 1.16 0 0 0-.443.402 1.795 1.795 0 0 0-.241.589 3.284 3.284 0 0 0-.071.694Zm3.526-.513-.624.191c.004-.299.052-.585.146-.86.097-.275.236-.52.417-.735.185-.214.411-.383.679-.507.269-.128.575-.192.921-.192.291 0 .55.039.774.116.228.077.419.196.574.357.157.158.276.361.357.609.08.248.12.543.12.885v3.576h-.935v-3.586c0-.305-.049-.542-.146-.709a.76.76 0 0 0-.402-.357 1.6 1.6 0 0 0-.614-.106c-.204 0-.385.035-.543.106a1.11 1.11 0 0 0-.397.291c-.108.121-.19.26-.247.418-.053.157-.08.325-.08.503Zm4.629.779v-.115c0-.393.057-.757.171-1.092a2.59 2.59 0 0 1 .493-.88c.215-.251.474-.446.78-.583a2.417 2.417 0 0 1 1.026-.212c.382 0 .725.071 1.031.212.308.137.57.332.784.583.218.248.384.542.498.88.114.335.171.699.171 1.092v.115c0 .392-.057.756-.171 1.092-.114.335-.28.628-.498.88a2.277 2.277 0 0 1-.779.583 2.442 2.442 0 0 1-1.026.206c-.383 0-.726-.068-1.031-.206a2.339 2.339 0 0 1-.785-.583 2.659 2.659 0 0 1-.493-.88 3.378 3.378 0 0 1-.171-1.092Zm.931-.115v.115c0 .272.031.528.095.77.064.238.159.449.287.633.131.185.293.331.488.438.194.104.42.156.679.156.254 0 .477-.052.669-.156.194-.107.355-.253.482-.438.128-.184.223-.395.287-.633a2.87 2.87 0 0 0 .101-.77v-.115c0-.269-.034-.522-.101-.76a1.968 1.968 0 0 0-.292-.639 1.387 1.387 0 0 0-.482-.442 1.35 1.35 0 0 0-.674-.161c-.255 0-.48.053-.674.161a1.454 1.454 0 0 0-.483.442 2.025 2.025 0 0 0-.287.639 2.915 2.915 0 0 0-.095.76Zm-154.38 12.38v6.488h-.934v-7.534h.854l.08 1.046Zm3.667 1.63v.105c0 .396-.047.763-.14 1.102a2.709 2.709 0 0 1-.413.875 1.872 1.872 0 0 1-.659.578 1.9 1.9 0 0 1-.9.206c-.345 0-.65-.057-.915-.171a1.806 1.806 0 0 1-.674-.498 2.544 2.544 0 0 1-.443-.784 4.545 4.545 0 0 1-.221-1.031v-.563c.04-.403.115-.763.226-1.082.11-.318.257-.59.438-.815.184-.228.407-.4.669-.518a2.15 2.15 0 0 1 .905-.181c.342 0 .645.067.91.202.265.13.488.318.67.563.18.245.316.538.407.88.093.339.14.716.14 1.132Zm-.935.105v-.105c0-.272-.029-.527-.086-.765a1.937 1.937 0 0 0-.266-.634 1.273 1.273 0 0 0-.453-.432 1.29 1.29 0 0 0-.659-.161c-.234 0-.439.04-.613.121-.171.08-.317.189-.438.327a1.75 1.75 0 0 0-.297.462 2.67 2.67 0 0 0-.166.533v1.303c.068.235.161.456.282.664.12.204.282.37.483.498.201.124.454.186.76.186.25 0 .467-.052.648-.156.184-.107.335-.253.453-.438.12-.184.21-.395.266-.633.057-.242.086-.498.086-.77Zm1.979 0v-.115c0-.393.057-.757.17-1.092a2.61 2.61 0 0 1 .494-.88c.214-.251.474-.446.78-.583a2.417 2.417 0 0 1 1.025-.212c.382 0 .726.071 1.031.212.309.137.57.332.785.583.218.248.384.542.498.88.114.335.17.699.17 1.092v.115c0 .392-.056.756-.17 1.092a2.62 2.62 0 0 1-.498.88 2.284 2.284 0 0 1-.78.583 2.44 2.44 0 0 1-1.026.206c-.382 0-.726-.068-1.03-.206a2.337 2.337 0 0 1-.785-.583 2.666 2.666 0 0 1-.493-.88 3.378 3.378 0 0 1-.171-1.092Zm.93-.115v.115c0 .272.032.528.096.77.063.238.159.449.286.633.131.185.294.331.488.438.195.104.421.156.68.156.254 0 .477-.052.668-.156.195-.107.355-.253.483-.438.127-.184.223-.395.287-.633.067-.242.1-.498.1-.77v-.115c0-.269-.033-.522-.1-.76a1.968 1.968 0 0 0-.292-.639 1.347 1.347 0 0 0-1.157-.603c-.255 0-.48.053-.674.161a1.45 1.45 0 0 0-.483.442 2.031 2.031 0 0 0-.286.639 2.927 2.927 0 0 0-.096.76Zm8.723 1.72v-6.669h.936v7.725h-.855l-.08-1.056Zm-3.66-1.605v-.105c0-.416.05-.793.15-1.132.104-.342.25-.635.438-.88a1.92 1.92 0 0 1 1.564-.765c.342 0 .64.061.895.181.258.118.476.29.654.518.18.225.323.497.427.815.104.319.176.679.216 1.082v.462a4.731 4.731 0 0 1-.216 1.076 2.527 2.527 0 0 1-.427.815 1.778 1.778 0 0 1-.654.518 2.16 2.16 0 0 1-.905.176 1.87 1.87 0 0 1-.876-.206 2.06 2.06 0 0 1-.678-.578 2.82 2.82 0 0 1-.438-.875 3.86 3.86 0 0 1-.15-1.102Zm.934-.105v.105c0 .272.027.527.081.765.057.238.144.447.261.628.118.181.267.324.448.428.181.1.397.151.649.151.308 0 .562-.066.76-.196.2-.131.361-.304.482-.518.12-.215.215-.448.282-.7v-1.212a2.693 2.693 0 0 0-.176-.533 1.64 1.64 0 0 0-.292-.462 1.249 1.249 0 0 0-.438-.327 1.41 1.41 0 0 0-.608-.121 1.29 1.29 0 0 0-.659.161 1.29 1.29 0 0 0-.447.432 2.004 2.004 0 0 0-.262.634 3.47 3.47 0 0 0-.08.765Zm7.471 2.866c-.378 0-.722-.063-1.03-.191a2.336 2.336 0 0 1-.79-.548 2.44 2.44 0 0 1-.503-.835 3.061 3.061 0 0 1-.176-1.056v-.211c0-.443.065-.837.196-1.182.13-.349.309-.644.533-.885.225-.242.48-.424.765-.549.285-.124.58-.186.885-.186.389 0 .724.067 1.006.202.285.134.518.321.699.563.18.238.315.52.402.845.087.322.13.674.13 1.056v.417H59.1v-.759h3.133v-.07a2.324 2.324 0 0 0-.15-.705 1.268 1.268 0 0 0-.403-.563c-.184-.147-.436-.221-.754-.221a1.26 1.26 0 0 0-1.041.528 1.966 1.966 0 0 0-.297.639c-.07.251-.106.541-.106.87v.211c0 .258.035.501.106.729.074.225.18.423.317.594.14.171.31.305.508.402.2.097.429.146.684.146.328 0 .607-.067.835-.201.228-.134.427-.314.598-.538l.563.447a2.594 2.594 0 0 1-.447.508 2.122 2.122 0 0 1-.67.392 2.58 2.58 0 0 1-.93.151Zm4.233-4.461v4.361h-.936v-5.442h.885l.05 1.081Zm-.192 1.434-.432-.015c.003-.373.052-.716.146-1.031.094-.319.233-.596.417-.83a1.84 1.84 0 0 1 .69-.543c.274-.131.593-.197.955-.197.255 0 .49.037.704.111.214.07.4.183.558.337.158.154.28.352.367.593.087.242.131.534.131.876v3.626h-.93v-3.581c0-.285-.05-.513-.146-.684a.833.833 0 0 0-.403-.372 1.443 1.443 0 0 0-.613-.121c-.275 0-.505.049-.69.146a1.161 1.161 0 0 0-.442.402c-.11.171-.19.367-.241.589-.047.218-.07.449-.07.694Zm3.526-.513-.624.191c.004-.299.052-.585.146-.86a2.34 2.34 0 0 1 .418-.735 1.98 1.98 0 0 1 .678-.507c.269-.128.575-.192.92-.192.293 0 .55.039.775.116a1.4 1.4 0 0 1 .574.357c.157.158.276.361.357.609.08.248.12.543.12.885v3.576h-.935v-3.586c0-.305-.049-.542-.146-.709a.76.76 0 0 0-.402-.357 1.597 1.597 0 0 0-.614-.106 1.31 1.31 0 0 0-.543.106c-.157.07-.29.167-.397.291-.107.121-.19.26-.247.418-.053.157-.08.325-.08.503Zm4.63.779v-.115c0-.393.056-.757.17-1.092.114-.338.279-.632.493-.88.215-.251.475-.446.78-.583a2.417 2.417 0 0 1 1.026-.212c.382 0 .726.071 1.03.212.31.137.57.332.785.583.218.248.384.542.498.88.114.335.171.699.171 1.092v.115c0 .392-.057.756-.17 1.092a2.62 2.62 0 0 1-.499.88 2.284 2.284 0 0 1-.78.583 2.44 2.44 0 0 1-1.025.206c-.383 0-.726-.068-1.031-.206a2.337 2.337 0 0 1-.785-.583 2.667 2.667 0 0 1-.493-.88 3.378 3.378 0 0 1-.17-1.092Zm.93-.115v.115c0 .272.032.528.095.77.064.238.16.449.287.633.13.185.293.331.488.438.194.104.42.156.679.156.254 0 .477-.052.669-.156.194-.107.355-.253.482-.438.128-.184.223-.395.287-.633.067-.242.1-.498.1-.77v-.115c0-.269-.033-.522-.1-.76a1.966 1.966 0 0 0-.292-.639 1.347 1.347 0 0 0-1.157-.603c-.254 0-.479.053-.673.161a1.45 1.45 0 0 0-.483.442 2.034 2.034 0 0 0-.287.639 2.927 2.927 0 0 0-.095.76Zm8.461 1.332a.783.783 0 0 0-.09-.372c-.057-.117-.176-.223-.357-.317-.178-.097-.446-.181-.805-.251a6.287 6.287 0 0 1-.82-.227 2.482 2.482 0 0 1-.618-.316 1.326 1.326 0 0 1-.388-.438 1.22 1.22 0 0 1-.135-.588c0-.215.047-.418.14-.609.098-.191.233-.36.408-.508a1.99 1.99 0 0 1 .639-.347c.248-.084.524-.126.83-.126.435 0 .808.078 1.116.232.308.154.545.36.709.618.164.255.246.538.246.85h-.93a.797.797 0 0 0-.136-.437 1.005 1.005 0 0 0-.387-.357 1.249 1.249 0 0 0-.619-.141c-.258 0-.467.04-.628.121a.81.81 0 0 0-.347.296.748.748 0 0 0-.056.654.598.598 0 0 0 .192.216c.09.064.218.124.382.181.164.057.374.114.628.171a5.11 5.11 0 0 1 1.102.363c.288.14.503.313.644.518.14.204.21.452.21.744a1.43 1.43 0 0 1-.578 1.167c-.184.14-.405.251-.663.332a2.97 2.97 0 0 1-.86.115c-.48 0-.886-.085-1.218-.256a1.887 1.887 0 0 1-.754-.664 1.589 1.589 0 0 1-.256-.86h.935c.013.255.087.458.221.608.134.148.299.254.493.317.195.061.387.091.579.091.254 0 .467-.034.638-.101a.891.891 0 0 0 .398-.276.644.644 0 0 0 .135-.403Zm7.192-3.998v.714h-2.942v-.714h2.942Zm-1.946-1.323h.93v5.417c0 .184.029.323.086.417.057.094.13.156.22.186a.908.908 0 0 0 .293.046c.077 0 .157-.007.241-.021.087-.016.153-.03.196-.04l.005.76a2.237 2.237 0 0 1-.291.065c-.118.024-.26.035-.428.035-.228 0-.438-.045-.629-.136a1.008 1.008 0 0 1-.457-.452c-.11-.215-.166-.503-.166-.865v-5.412Zm5.399 6.865a2.66 2.66 0 0 1-1.031-.191 2.336 2.336 0 0 1-.79-.548 2.439 2.439 0 0 1-.503-.835 3.061 3.061 0 0 1-.176-1.056v-.211c0-.443.065-.837.196-1.182.13-.349.309-.644.533-.885a2.29 2.29 0 0 1 .765-.549c.285-.124.58-.186.885-.186.389 0 .724.067 1.006.202.285.134.518.321.699.563.18.238.315.52.402.845.087.322.13.674.13 1.056v.417h-4.063v-.759h3.133v-.07a2.321 2.321 0 0 0-.15-.705 1.267 1.267 0 0 0-.403-.563c-.184-.147-.436-.221-.754-.221a1.26 1.26 0 0 0-1.041.528 1.968 1.968 0 0 0-.297.639c-.07.251-.106.541-.106.87v.211c0 .258.036.501.106.729.074.225.18.423.317.594.14.171.31.305.508.402.201.097.43.146.684.146.328 0 .607-.067.835-.201.228-.134.427-.314.598-.538l.564.447a2.594 2.594 0 0 1-.448.508 2.124 2.124 0 0 1-.669.392 2.58 2.58 0 0 1-.93.151Zm9.173-1.031v-2.801c0-.215-.044-.401-.131-.558a.855.855 0 0 0-.382-.372 1.375 1.375 0 0 0-.634-.131c-.235 0-.441.04-.618.12a1.09 1.09 0 0 0-.413.317.698.698 0 0 0-.146.423h-.93c0-.195.05-.387.15-.579a1.72 1.72 0 0 1 .433-.518 2.18 2.18 0 0 1 .684-.372c.268-.094.567-.141.895-.141.396 0 .745.067 1.047.202.305.134.543.337.714.608.174.268.261.605.261 1.011v2.535c0 .181.015.374.046.578.033.205.082.381.145.528v.081h-.97a1.752 1.752 0 0 1-.111-.428 3.424 3.424 0 0 1-.04-.503Zm.161-2.369.01.654h-.941c-.265 0-.501.022-.709.066-.208.04-.382.102-.523.186a.883.883 0 0 0-.322.317.844.844 0 0 0-.11.437.96.96 0 0 0 .115.468.842.842 0 0 0 .347.337c.158.08.351.121.579.121a1.56 1.56 0 0 0 1.272-.624.95.95 0 0 0 .211-.508l.398.448c-.024.14-.088.296-.191.467a2.238 2.238 0 0 1-1.031.88c-.235.101-.5.151-.795.151a2.08 2.08 0 0 1-.97-.216 1.66 1.66 0 0 1-.644-.578 1.532 1.532 0 0 1-.227-.82c0-.292.057-.548.171-.77.114-.224.279-.41.493-.558.215-.151.473-.265.775-.342a4.08 4.08 0 0 1 1.01-.116h1.082Zm2.361-2.142h.935v6.09c0 .332-.053.614-.161.845a1.086 1.086 0 0 1-.472.523c-.208.121-.471.181-.79.181-.084 0-.181-.008-.292-.025a1.957 1.957 0 0 1-.286-.06l.005-.749c.063.013.136.023.216.03.08.01.151.015.211.015a.718.718 0 0 0 .347-.076.462.462 0 0 0 .211-.241c.051-.111.076-.258.076-.443v-6.09Zm-.096-1.443a.55.55 0 0 1 .141-.383c.094-.104.23-.156.408-.156.181 0 .318.052.412.156a.55.55 0 0 1 .141.383.536.536 0 0 1-.141.372c-.094.1-.231.151-.412.151-.178 0-.314-.051-.408-.151a.536.536 0 0 1-.141-.372Zm5.968 5.627v-4.184h.935v5.442h-.89l-.045-1.258Zm.176-1.146.387-.01c0 .362-.039.697-.116 1.005-.074.306-.194.57-.362.795a1.706 1.706 0 0 1-.659.528c-.271.124-.602.186-.991.186-.264 0-.508-.038-.729-.115a1.473 1.473 0 0 1-.563-.357 1.62 1.62 0 0 1-.367-.629 3.025 3.025 0 0 1-.126-.931v-3.51h.93v3.52c0 .245.027.448.081.609.057.158.132.283.226.377a.835.835 0 0 0 .322.191c.121.037.245.056.372.056.396 0 .709-.076.941-.227.231-.154.397-.36.498-.618.104-.262.156-.552.156-.87Zm5.71 1.348v-6.669h.936v7.725h-.855l-.081-1.056Zm-3.661-1.605v-.105c0-.416.05-.793.151-1.132.104-.342.25-.635.437-.88a1.92 1.92 0 0 1 1.564-.765c.342 0 .641.061.896.181.258.118.476.29.653.518.182.225.324.497.428.815.104.319.176.679.216 1.082v.462a4.753 4.753 0 0 1-.216 1.076 2.512 2.512 0 0 1-.428.815 1.771 1.771 0 0 1-.653.518c-.259.118-.56.176-.906.176-.318 0-.61-.068-.875-.206a2.064 2.064 0 0 1-.679-.578 2.837 2.837 0 0 1-.437-.875 3.843 3.843 0 0 1-.151-1.102Zm.935-.105v.105c0 .272.027.527.081.765.057.238.144.447.261.628.118.181.267.324.448.428.181.1.397.151.649.151.308 0 .561-.066.759-.196.201-.131.362-.304.483-.518.121-.215.215-.448.282-.7v-1.212a2.752 2.752 0 0 0-.176-.533 1.64 1.64 0 0 0-.292-.462 1.242 1.242 0 0 0-.438-.327 1.41 1.41 0 0 0-.608-.121 1.29 1.29 0 0 0-.659.161c-.181.104-.33.248-.448.432a2.013 2.013 0 0 0-.261.634 3.452 3.452 0 0 0-.081.765Zm8.422 1.835v-2.801c0-.215-.044-.401-.131-.558a.855.855 0 0 0-.382-.372 1.375 1.375 0 0 0-.634-.131c-.235 0-.441.04-.618.12a1.09 1.09 0 0 0-.413.317.698.698 0 0 0-.146.423h-.93c0-.195.05-.387.151-.579.1-.191.244-.363.432-.518a2.18 2.18 0 0 1 .684-.372c.268-.094.567-.141.895-.141.396 0 .745.067 1.047.202.305.134.543.337.714.608.174.268.261.605.261 1.011v2.535c0 .181.015.374.045.578.034.205.083.381.146.528v.081h-.97a1.752 1.752 0 0 1-.111-.428 3.424 3.424 0 0 1-.04-.503Zm.161-2.369.01.654h-.941c-.265 0-.501.022-.709.066-.208.04-.382.102-.523.186a.835.835 0 0 0-.432.754.96.96 0 0 0 .115.468.842.842 0 0 0 .347.337c.158.08.351.121.579.121a1.56 1.56 0 0 0 1.272-.624.95.95 0 0 0 .211-.508l.398.448c-.024.14-.088.296-.191.467a2.238 2.238 0 0 1-1.031.88c-.235.101-.5.151-.795.151-.369 0-.692-.072-.971-.216a1.666 1.666 0 0 1-.644-.578 1.54 1.54 0 0 1-.226-.82c0-.292.057-.548.171-.77a1.49 1.49 0 0 1 .493-.558c.215-.151.473-.265.775-.342a4.08 4.08 0 0 1 1.01-.116h1.082Zm3.266-1.287v4.587h-.93v-5.442h.905l.025.855Zm1.7-.885-.005.865a1.283 1.283 0 0 0-.221-.03 2.267 2.267 0 0 0-.232-.01c-.214 0-.404.033-.568.1a1.175 1.175 0 0 0-.417.282 1.363 1.363 0 0 0-.272.432 2.073 2.073 0 0 0-.126.544l-.261.15c0-.328.032-.637.095-.925.067-.288.17-.543.307-.764.138-.225.312-.399.523-.523a1.468 1.468 0 0 1 1.177-.121Zm2.985 3.41h-.936a3.35 3.35 0 0 1 .086-.79c.057-.208.149-.397.277-.568.127-.171.296-.366.507-.584.155-.157.296-.305.423-.442.131-.141.236-.292.317-.453.08-.164.12-.36.12-.588 0-.232-.041-.431-.125-.599a.869.869 0 0 0-.362-.387 1.164 1.164 0 0 0-.589-.136c-.194 0-.379.035-.553.106a.944.944 0 0 0-.422.327c-.108.144-.163.333-.166.568h-.931c.007-.379.101-.704.282-.976.184-.271.432-.479.744-.623a2.468 2.468 0 0 1 1.046-.217c.426 0 .788.078 1.087.232.301.154.531.375.689.664.157.285.236.623.236 1.016 0 .301-.062.58-.186.834a3.23 3.23 0 0 1-.468.71 8.44 8.44 0 0 1-.608.633 1.282 1.282 0 0 0-.373.579 2.45 2.45 0 0 0-.095.694Zm-.976 1.594c0-.151.047-.278.141-.382.094-.104.23-.156.407-.156.181 0 .319.052.413.156a.548.548 0 0 1 .141.382.536.536 0 0 1-.141.372c-.094.104-.232.156-.413.156-.177 0-.313-.052-.407-.156a.536.536 0 0 1-.141-.372Z"/><path fill="#B6BCC3" d="M204.283 202.407V209h-.833v-5.553l-1.68.613v-.752l2.382-.901h.131Zm5.74.027h.072v.707h-.072c-.442 0-.811.072-1.108.216a1.814 1.814 0 0 0-.707.572c-.174.237-.3.504-.379.802a3.684 3.684 0 0 0-.112.905v.964c0 .291.034.549.103.774.069.222.164.41.284.563.12.153.255.269.405.347.154.078.313.117.478.117.192 0 .363-.036.513-.108.15-.075.276-.179.379-.311.105-.135.184-.294.238-.477.054-.183.081-.384.081-.604 0-.195-.024-.382-.072-.563a1.498 1.498 0 0 0-.22-.486 1.07 1.07 0 0 0-.374-.338 1.046 1.046 0 0 0-.527-.126c-.231 0-.447.057-.649.171a1.488 1.488 0 0 0-.491.442c-.126.18-.198.376-.216.59l-.441-.005a2.78 2.78 0 0 1 .234-.86c.117-.24.261-.435.432-.585.175-.154.368-.265.581-.334a2.16 2.16 0 0 1 .685-.108c.327 0 .609.062.847.185.237.123.432.288.585.495.153.204.266.436.338.694.075.255.112.518.112.788 0 .309-.043.599-.13.869-.087.27-.218.507-.392.712a1.766 1.766 0 0 1-.635.477 2.113 2.113 0 0 1-.878.171 1.91 1.91 0 0 1-.928-.216 1.978 1.978 0 0 1-.657-.586 2.646 2.646 0 0 1-.392-.81 3.206 3.206 0 0 1-.131-.905v-.392c0-.463.047-.916.14-1.36.093-.445.254-.847.482-1.207.231-.36.551-.647.959-.86.408-.214.929-.32 1.563-.32Zm2.136 6.125c0-.141.044-.26.131-.356.09-.099.219-.149.387-.149s.296.05.383.149c.09.096.135.215.135.356a.494.494 0 0 1-.135.351c-.087.096-.215.144-.383.144s-.297-.048-.387-.144a.504.504 0 0 1-.131-.351Zm.005-3.977c0-.141.043-.26.131-.356.09-.099.219-.148.387-.148s.296.049.383.148c.09.096.135.215.135.356a.494.494 0 0 1-.135.351c-.087.096-.215.144-.383.144s-.297-.048-.387-.144a.5.5 0 0 1-.131-.351Zm6.384.617v1c0 .537-.048.991-.145 1.36-.096.369-.234.666-.414.892-.18.225-.398.388-.653.49-.252.1-.537.149-.856.149-.252 0-.484-.031-.698-.095a1.655 1.655 0 0 1-.576-.301 1.82 1.82 0 0 1-.432-.55 2.945 2.945 0 0 1-.275-.819 5.917 5.917 0 0 1-.095-1.126v-1c0-.537.048-.988.144-1.351.1-.363.239-.654.419-.874.18-.222.397-.381.649-.477.255-.096.54-.144.855-.144.256 0 .49.031.703.094a1.587 1.587 0 0 1 1.004.825c.12.219.212.487.275.806.063.318.095.692.095 1.121Zm-.838 1.135v-1.275a4.89 4.89 0 0 0-.054-.774 2.453 2.453 0 0 0-.149-.577 1.14 1.14 0 0 0-.252-.387.892.892 0 0 0-.347-.216 1.244 1.244 0 0 0-.437-.072 1.18 1.18 0 0 0-.526.112.95.95 0 0 0-.388.347c-.102.159-.18.368-.234.626a4.675 4.675 0 0 0-.081.941v1.275c0 .294.017.554.05.779.036.225.088.42.157.585.069.163.153.296.252.401a.946.946 0 0 0 .343.234c.132.049.277.073.436.073.205 0 .383-.039.536-.118a.959.959 0 0 0 .383-.364c.105-.168.183-.383.234-.644.051-.265.077-.58.077-.946Zm6.118-1.135v1c0 .537-.048.991-.144 1.36-.096.369-.234.666-.415.892a1.57 1.57 0 0 1-.653.49c-.252.1-.537.149-.855.149-.252 0-.485-.031-.698-.095a1.66 1.66 0 0 1-.577-.301 1.82 1.82 0 0 1-.432-.55 2.945 2.945 0 0 1-.275-.819 5.924 5.924 0 0 1-.094-1.126v-1c0-.537.048-.988.144-1.351.099-.363.238-.654.419-.874.18-.222.396-.381.648-.477.255-.096.54-.144.856-.144.255 0 .489.031.702.094.216.06.409.158.577.293.168.132.31.309.428.532.12.219.211.487.274.806.063.318.095.692.095 1.121Zm-.838 1.135v-1.275a4.89 4.89 0 0 0-.054-.774 2.456 2.456 0 0 0-.148-.577 1.156 1.156 0 0 0-.253-.387.888.888 0 0 0-.346-.216 1.252 1.252 0 0 0-.437-.072c-.198 0-.374.037-.527.112a.955.955 0 0 0-.387.347 1.85 1.85 0 0 0-.235.626 4.675 4.675 0 0 0-.081.941v1.275c0 .294.017.554.05.779.036.225.088.42.157.585.069.163.154.296.253.401a.942.942 0 0 0 .342.234c.132.049.278.073.437.073.204 0 .383-.039.536-.118a.963.963 0 0 0 .382-.364 1.88 1.88 0 0 0 .235-.644c.051-.265.076-.58.076-.946Z"/><mask id="c" fill="#fff"><path d="M0 270.017h372v59.735H0v-59.735Z"/></mask><path fill="#D8DBDF" d="M0 270.786h372v-1.537H0v1.537Z" mask="url(#c)"/><rect width="287.848" height="34.371" x="18.831" y="282.699" stroke="#D8DBDF" stroke-width=".769" rx="17.186"/><path fill="#555C66" d="M41.348 295.642h1.123l2.864 7.128 2.858-7.128h1.129l-3.555 8.743h-.876l-3.543-8.743Zm-.366 0h.99l.163 5.332v3.411h-1.153v-8.743Zm7.71 0h.99v8.743H48.53v-3.411l.163-5.332Zm5.677 8.863c-.453 0-.863-.076-1.231-.228a2.78 2.78 0 0 1-.943-.655c-.26-.28-.46-.612-.6-.996a3.66 3.66 0 0 1-.21-1.261v-.253c0-.528.078-.998.234-1.411.156-.416.368-.768.636-1.056.268-.289.573-.507.913-.655a2.62 2.62 0 0 1 1.057-.222c.464 0 .864.08 1.2.24.34.16.62.384.835.673.217.284.377.62.48 1.008.105.385.157.805.157 1.261v.499h-4.852v-.907h3.74v-.084a2.778 2.778 0 0 0-.18-.841 1.51 1.51 0 0 0-.48-.672c-.22-.176-.52-.264-.9-.264a1.513 1.513 0 0 0-1.243.63c-.152.208-.27.462-.355.763-.084.3-.126.646-.126 1.038v.253c0 .308.042.598.127.87.087.269.214.505.378.709.168.204.37.364.606.48.24.116.513.174.817.174.392 0 .724-.08.997-.24.272-.16.51-.374.714-.642l.673.534c-.14.212-.319.414-.535.607a2.552 2.552 0 0 1-.798.468c-.313.12-.683.18-1.111.18Zm5.059-5.23v5.11h-1.111v-6.497h1.05l.06 1.387Zm-.265 1.615-.462-.018c.004-.444.07-.854.198-1.231.128-.38.309-.71.54-.99.233-.281.509-.497.83-.649a2.446 2.446 0 0 1 1.074-.234c.32 0 .609.044.865.132.256.084.474.22.654.408.184.188.325.433.42.733.097.296.145.658.145 1.087v4.257H62.31v-4.269c0-.341-.05-.613-.15-.817a.922.922 0 0 0-.439-.45 1.574 1.574 0 0 0-.708-.144c-.276 0-.529.058-.757.174a1.809 1.809 0 0 0-.582.48 2.434 2.434 0 0 0-.511 1.531Zm9.857 1.772a.937.937 0 0 0-.108-.445c-.068-.14-.21-.266-.427-.378-.212-.116-.532-.216-.96-.3a7.614 7.614 0 0 1-.979-.27 2.972 2.972 0 0 1-.739-.379 1.587 1.587 0 0 1-.462-.522 1.456 1.456 0 0 1-.162-.703c0-.256.056-.498.168-.726a1.94 1.94 0 0 1 .487-.607c.212-.176.466-.314.762-.414.296-.1.627-.15.99-.15.521 0 .966.092 1.334.276.368.184.65.43.846.739.197.304.295.642.295 1.014h-1.111a.953.953 0 0 0-.162-.522 1.196 1.196 0 0 0-.463-.426c-.2-.112-.446-.168-.738-.168-.308 0-.559.048-.75.144a.964.964 0 0 0-.415.354.891.891 0 0 0-.066.781c.044.092.12.178.228.258.108.076.26.148.456.216.197.068.447.136.751.204.532.12.97.264 1.315.432.344.169.6.375.769.619.168.244.252.54.252.889a1.734 1.734 0 0 1-.69 1.393c-.22.168-.485.3-.793.396a3.543 3.543 0 0 1-1.027.138c-.573 0-1.057-.102-1.453-.306-.397-.204-.697-.468-.901-.793a1.895 1.895 0 0 1-.306-1.027h1.117c.016.305.104.547.264.727.16.176.356.302.588.378.232.072.463.108.69.108.305 0 .56-.04.763-.12.209-.08.367-.19.475-.33.108-.14.162-.3.162-.48Zm6.524.612v-3.344c0-.257-.052-.479-.156-.667-.1-.192-.253-.34-.457-.444-.204-.104-.456-.156-.756-.156-.28 0-.527.048-.739.144a1.285 1.285 0 0 0-.492.378.828.828 0 0 0-.174.504h-1.111c0-.232.06-.462.18-.69.12-.228.292-.434.516-.619.229-.188.5-.336.817-.444.32-.112.677-.168 1.069-.168.472 0 .888.08 1.249.24.364.16.648.402.853.727.208.32.312.722.312 1.207v3.026c0 .216.018.446.054.69.04.245.098.455.174.631v.096h-1.159a2.073 2.073 0 0 1-.132-.51 4.137 4.137 0 0 1-.048-.601Zm.192-2.828.012.781h-1.123c-.316 0-.598.026-.847.078a1.937 1.937 0 0 0-.624.222c-.168.1-.296.226-.384.378a1.001 1.001 0 0 0-.132.522c0 .205.046.391.138.559.092.168.23.302.414.402.188.096.418.144.69.144.34 0 .641-.072.901-.216.26-.144.467-.32.619-.528.156-.208.24-.411.252-.607l.474.535a1.61 1.61 0 0 1-.228.558 2.697 2.697 0 0 1-1.23 1.051c-.281.12-.597.18-.95.18-.44 0-.826-.086-1.158-.258a1.975 1.975 0 0 1-.769-.691 1.825 1.825 0 0 1-.27-.978c0-.349.068-.655.204-.919.136-.268.332-.49.588-.667.257-.18.565-.316.925-.408.36-.092.763-.138 1.207-.138h1.291Zm6.998-2.558h1.01v6.359c0 .572-.117 1.061-.35 1.465a2.27 2.27 0 0 1-.972.919c-.412.212-.889.318-1.429.318a3.51 3.51 0 0 1-.793-.108 3.197 3.197 0 0 1-.888-.354 2.223 2.223 0 0 1-.727-.667l.583-.66c.272.328.556.556.852.684.3.128.597.192.889.192.352 0 .656-.066.913-.198.256-.132.454-.328.594-.588.144-.257.216-.573.216-.949v-4.984l.102-1.429Zm-4.473 3.321v-.127c0-.496.058-.946.174-1.351.12-.408.29-.758.51-1.05a2.294 2.294 0 0 1 1.88-.913c.408 0 .764.072 1.069.216.308.14.568.346.78.619.216.268.387.592.51.972.125.381.21.811.259 1.291v.553c-.044.476-.13.904-.258 1.285a3.03 3.03 0 0 1-.51.972 2.129 2.129 0 0 1-.781.619c-.309.14-.669.21-1.081.21-.389 0-.74-.082-1.057-.246a2.399 2.399 0 0 1-.805-.691 3.267 3.267 0 0 1-.516-1.044 4.753 4.753 0 0 1-.174-1.315Zm1.11-.127v.127c0 .324.033.628.097.912.068.284.17.535.306.751.14.216.318.386.534.51.217.12.475.18.775.18.368 0 .673-.078.913-.234.24-.156.43-.362.57-.618.144-.256.256-.535.336-.835v-1.447a2.97 2.97 0 0 0-.204-.637 1.96 1.96 0 0 0-.348-.552 1.505 1.505 0 0 0-.522-.39 1.734 1.734 0 0 0-.733-.144c-.304 0-.566.064-.787.192a1.532 1.532 0 0 0-.534.516 2.48 2.48 0 0 0-.306.757 4.136 4.136 0 0 0-.096.912Zm8.879 3.423c-.453 0-.863-.076-1.231-.228a2.779 2.779 0 0 1-.943-.655c-.26-.28-.46-.612-.6-.996a3.66 3.66 0 0 1-.21-1.261v-.253c0-.528.077-.998.233-1.411.157-.416.369-.768.637-1.056.268-.289.572-.507.913-.655a2.62 2.62 0 0 1 1.056-.222c.465 0 .865.08 1.201.24.34.16.619.384.835.673.216.284.376.62.48 1.008.104.385.156.805.156 1.261v.499h-4.851v-.907h3.74v-.084a2.781 2.781 0 0 0-.18-.841 1.51 1.51 0 0 0-.48-.672c-.22-.176-.52-.264-.9-.264a1.513 1.513 0 0 0-1.244.63c-.152.208-.27.462-.354.763-.084.3-.126.646-.126 1.038v.253c0 .308.042.598.126.87.088.269.214.505.378.709.169.204.37.364.607.48.24.116.512.174.817.174.392 0 .724-.08.996-.24.273-.16.51-.374.715-.642l.672.534a3.14 3.14 0 0 1-.534.607 2.55 2.55 0 0 1-.799.468c-.312.12-.682.18-1.11.18Zm5.052-5.326v5.206h-1.117v-6.497h1.057l.06 1.291Zm-.228 1.711-.516-.018c.004-.444.062-.854.174-1.231.112-.38.278-.71.498-.99.22-.281.495-.497.823-.649a2.63 2.63 0 0 1 1.14-.234c.305 0 .585.044.841.132.257.084.479.218.667.402.188.184.334.421.438.709.104.288.156.636.156 1.045v4.329h-1.11v-4.275c0-.341-.059-.613-.175-.817a.995.995 0 0 0-.48-.444 1.735 1.735 0 0 0-.733-.144c-.328 0-.602.058-.822.174-.22.116-.396.276-.529.48a2.159 2.159 0 0 0-.288.703c-.056.26-.084.536-.084.828Zm4.21-.612-.745.228c.004-.356.062-.699.174-1.027.116-.328.282-.62.498-.876.22-.257.49-.459.81-.607a2.539 2.539 0 0 1 1.1-.228c.348 0 .656.046.924.138.273.092.501.234.685.426.188.188.33.431.426.727.096.296.144.648.144 1.057v4.269h-1.116v-4.281c0-.365-.058-.647-.175-.847a.905.905 0 0 0-.48-.426 1.922 1.922 0 0 0-.733-.126c-.244 0-.46.042-.648.126a1.34 1.34 0 0 0-.474.348 1.52 1.52 0 0 0-.295.498 1.86 1.86 0 0 0-.096.601Z"/><rect width="35.041" height="35.041" x="318.512" y="282.364" fill="#1A96D4" rx="17.521"/><path fill="#fff" d="M336.033 301.422a2.473 2.473 0 0 1-1.818-.744 2.473 2.473 0 0 1-.744-1.818v-6.149c0-.716.248-1.322.744-1.818a2.473 2.473 0 0 1 1.818-.744c.716 0 1.322.248 1.818.744s.744 1.102.744 1.818v6.149c0 .716-.248 1.322-.744 1.818a2.473 2.473 0 0 1-1.818.744Zm-.769 6.661v-2.609a6.485 6.485 0 0 1-3.921-1.88c-1.089-1.077-1.727-2.391-1.914-3.94a.672.672 0 0 1 .171-.56.7.7 0 0 1 .541-.234c.218 0 .4.075.547.226.148.15.245.334.294.552a4.918 4.918 0 0 0 1.722 3.114 4.968 4.968 0 0 0 3.329 1.232c1.276 0 2.39-.415 3.342-1.244.953-.83 1.523-1.864 1.709-3.102.049-.218.147-.402.294-.552a.734.734 0 0 1 .548-.226c.218 0 .398.078.54.234a.668.668 0 0 1 .171.56 6.551 6.551 0 0 1-1.901 3.909c-1.08 1.092-2.392 1.728-3.934 1.911v2.609a.745.745 0 0 1-.221.548.745.745 0 0 1-.548.221.745.745 0 0 1-.548-.221.745.745 0 0 1-.221-.548Z"/><defs><clipPath id="b"><rect width="36.893" height="36.893" x="24.595" y="12.297" fill="#fff" rx="18.446"/></clipPath></defs></svg>