<svg xmlns="http://www.w3.org/2000/svg" width="571" height="376" fill="none"><g clip-path="url(#a)"><rect width="570.034" height="375.705" fill="#F6F7FA" rx="14.133"/><path fill="#1A96D4" d="M24.43 21.106h1.441v7.738h-1.526l-3.063-5.258v5.258H19.84v-7.738h1.526l3.064 5.268v-5.268Zm4.514 6.265c.183.353.537.53 1.06.53.522 0 .876-.177 1.06-.53.183-.354.275-.873.275-1.559 0-.685-.092-1.204-.275-1.558-.184-.353-.538-.53-1.06-.53-.523 0-.877.177-1.06.53-.184.354-.276.873-.276 1.558 0 .686.092 1.205.276 1.559Zm3.816-1.559c0 2.12-.92 3.18-2.756 3.18-1.838 0-2.756-1.06-2.756-3.18s.918-3.18 2.756-3.18c1.837 0 2.756 1.06 2.756 3.18Zm4.057 3.032h-1.58l-2.056-6.063h1.431l1.41 4.388 1.42-4.388h1.431l-2.056 6.063Zm4.176-1.473c.183.353.537.53 1.06.53s.876-.177 1.06-.53c.183-.354.275-.873.275-1.559 0-.685-.092-1.204-.275-1.558-.184-.353-.538-.53-1.06-.53-.523 0-.877.177-1.06.53-.184.354-.276.873-.276 1.558 0 .686.092 1.205.276 1.559Zm3.816-1.559c0 2.12-.92 3.18-2.756 3.18-1.838 0-2.756-1.06-2.756-3.18s.918-3.18 2.756-3.18c1.837 0 2.756 1.06 2.756 3.18Zm4.294-4.706h2.576c1.251 0 2.099.382 2.544 1.145.22.367.371.767.456 1.198.085.43.127.911.127 1.441 0 .523-.024.965-.074 1.325a4.37 4.37 0 0 1-.286 1.06c-.134.34-.315.619-.54.838-.502.487-1.245.731-2.227.731h-2.576v-7.738Zm2.385 1.113h-.943v5.512h.943c.757 0 1.269-.272 1.537-.816.227-.474.34-1.12.34-1.94 0-.82-.114-1.466-.34-1.94-.268-.544-.78-.816-1.537-.816Zm6.098 5.152c.184.353.537.53 1.06.53s.876-.177 1.06-.53c.184-.354.275-.873.275-1.559 0-.685-.091-1.204-.275-1.558-.184-.353-.537-.53-1.06-.53s-.876.177-1.06.53c-.184.354-.276.873-.276 1.558 0 .686.092 1.205.276 1.559Zm3.816-1.559c0 2.12-.919 3.18-2.756 3.18-1.837 0-2.756-1.06-2.756-3.18s.919-3.18 2.756-3.18c1.837 0 2.756 1.06 2.756 3.18Zm2.446-1.579c-.176.34-.265.866-.265 1.58 0 .713.089 1.24.265 1.579.184.339.498.509.944.509.452 0 .773-.092.964-.276.198-.184.304-.473.318-.87l1.113.054c-.042.72-.254 1.265-.636 1.632-.374.368-.993.551-1.855.551-1.01 0-1.7-.328-2.067-.985-.176-.318-.3-.65-.37-.997a6.688 6.688 0 0 1-.096-1.198c0-.459.032-.862.095-1.208a3.32 3.32 0 0 1 .371-.996c.36-.65 1.05-.976 2.067-.976.855 0 1.47.177 1.845.53.374.347.586.866.636 1.559l-1.103.148c-.014-.396-.12-.685-.318-.87-.19-.183-.512-.275-.964-.275-.446 0-.76.17-.944.51Zm6.372 4.76c-1.244 0-1.865-.644-1.865-1.93v-4.282h1.42v4.049c0 .368.07.64.212.816.148.17.392.255.731.255.48 0 .937-.227 1.368-.679v-4.441h1.42v6.063h-.922l-.403-.731c-.551.586-1.205.88-1.96.88Zm8.216-6.36c.848 0 1.441.243 1.78.73.608-.487 1.255-.73 1.94-.73.693 0 1.205.173 1.537.519.332.34.498.809.498 1.41v4.282h-1.42v-4.05c0-.367-.067-.635-.201-.805-.135-.176-.371-.265-.71-.265-.481 0-.923.166-1.326.498.015.142.022.255.022.34v4.282h-1.42v-4.05c0-.367-.071-.635-.213-.805-.141-.176-.413-.265-.816-.265-.396 0-.791.142-1.187.424v4.696H75.5v-6.063h.752l.371.498c.572-.431 1.177-.646 1.813-.646Zm9.741 6.36c-.975 0-1.67-.262-2.088-.785-.417-.53-.625-1.328-.625-2.396 0-2.12.89-3.18 2.671-3.18 1.025 0 1.724.319 2.099.954.325.545.487 1.251.487 2.12v.382h-3.88c.008.664.117 1.134.33 1.41.211.268.561.403 1.049.403.784 0 1.201-.283 1.25-.848l1.166.042c-.112 1.265-.932 1.897-2.459 1.897Zm.817-4.919c-.177-.233-.467-.35-.87-.35-.402 0-.7.113-.89.34-.184.218-.304.572-.36 1.06h2.448c-.042-.474-.152-.824-.328-1.05Zm4.18-.742c.665-.466 1.344-.7 2.036-.7.7 0 1.205.174 1.516.52.31.34.466.809.466 1.41v4.282h-1.42V24.71c0-.36-.067-.615-.202-.763-.127-.148-.353-.223-.678-.223a2.37 2.37 0 0 0-1.42.477v4.643h-1.42v-6.063h.667l.456.551Zm5.005.371v-.922h.975v-1.102l1.421-.36v1.462h1.155v.922h-1.155v3.424c0 .304.042.52.127.646a.452.452 0 0 0 .392.191c.177 0 .367-.028.572-.085l.181.88c-.417.156-.792.233-1.124.233-.325 0-.587-.039-.784-.116a1.3 1.3 0 0 1-.446-.265 1.007 1.007 0 0 1-.222-.424 3.115 3.115 0 0 1-.117-.922v-3.562h-.975Zm5.802 3.668c.184.353.537.53 1.06.53s.876-.177 1.06-.53c.183-.354.275-.873.275-1.559 0-.685-.092-1.204-.275-1.558-.184-.353-.537-.53-1.06-.53s-.876.177-1.06.53c-.184.354-.276.873-.276 1.558 0 .686.092 1.205.276 1.559Zm3.816-1.559c0 2.12-.919 3.18-2.756 3.18-1.838 0-2.756-1.06-2.756-3.18s.918-3.18 2.756-3.18c1.837 0 2.756 1.06 2.756 3.18Z"/><g clip-path="url(#b)"><rect width="32.977" height="32.977" x="18.844" y="61.683" fill="#D8DBDF" rx="16.489"/><path fill="#1D2229" d="M42.349 84.692h-8.244V73.534l7.128 3.905 1.116 7.253Z"/><path fill="#FFB6B6" d="M35.627 82.722a5.353 5.353 0 1 0 0-10.705 5.353 5.353 0 0 0 0 10.705Z"/><path fill="#FFB6B6" d="m32.555 83.514-.242-2.444 4.829-.903 2.851 6.942-4.959 5.703-3.533-6.942 1.054-2.356Z"/><path fill="#1A96D4" d="M47.174 89.157a16.548 16.548 0 0 1-.779.753 16.37 16.37 0 0 1-11.063 4.263 16.363 16.363 0 0 1-10.605-3.862l.05-.132c.939-2.447 2.793-3.644 3.919-4.168.558-.26.937-.354.937-.354l1.321-2.38.93 1.735.686 1.28 2.813 5.248 2.427-6.042.752-1.874.193-.48.916.714.868.675 1.748.386 1.417.313 1.926.425c.778.634 1.252 1.84 1.517 3.34.01.052.019.106.027.16Z"/><path fill="#313740" d="M32.812 71.287a4.107 4.107 0 0 1 3.12-1.957 4.108 4.108 0 0 1 3.41 1.388c.496.575.82 1.28 1.304 1.866 1.04 1.261 2.812 1.999 3.267 3.569.198.685.099 1.416-.001 2.122l-.258 1.816c-.067.471-.131.968.045 1.41.208.518.704.857 1.024 1.314.546.778.506 1.916-.093 2.653-.26.32-.604.56-.876.87-.272.31-.474.732-.36 1.128.218.758 1.407.94 1.538 1.718.067.398-.208.795-.568.977-.36.182-.784.187-1.184.138a4.948 4.948 0 0 1-3.673-2.478 4.948 4.948 0 0 1-.14-4.428c.537-1.139 1.536-2.145 1.525-3.404-.006-.686-.32-1.327-.628-1.94l-1.89-3.765c-.337-.672-.728-1.397-1.423-1.685-.536-.224-1.145-.137-1.72-.046-.574.092-1.182.18-1.72-.039-.538-.22-.945-.87-.689-1.392"/><path fill="#313740" d="M33.75 71.344c-1.034-.34-2.194.206-2.894 1.04-.7.834-1.04 1.903-1.363 2.943l-.556 1.786-.523 1.68c-.205.66-.412 1.36-.244 2.028.122.484.435.924.442 1.422.007.521-.32.979-.606 1.414-.285.436-.554.954-.418 1.457.207.765 1.271 1.185 1.213 1.975-.02.264-.172.508-.17.773.004.336.268.627.576.761.309.134.656.142.993.136a15.368 15.368 0 0 0 3.07-.365c.387-.087.782-.193 1.104-.424.323-.232.564-.616.522-1.01-.066-.616-.727-.965-1.061-1.486-.328-.512-.32-1.16-.462-1.752-.194-.813-.674-1.522-1.035-2.276-1.355-2.833-.88-6.445 1.16-8.834.18-.21.378-.423.453-.69.075-.268-.022-.608-.284-.702"/></g><path fill="#1D2229" d="M62.572 62.793h3.434c1.668 0 2.798.509 3.392 1.526.292.49.495 1.023.608 1.597.113.575.17 1.216.17 1.922 0 .698-.034 1.287-.1 1.767s-.193.952-.381 1.413c-.18.453-.42.825-.721 1.117-.669.65-1.658.975-2.968.975h-3.434V62.793Zm3.18 1.484h-1.258v7.35h1.258c1.008 0 1.69-.364 2.049-1.09.301-.63.452-1.493.452-2.586 0-1.092-.15-1.954-.452-2.586-.358-.725-1.041-1.088-2.05-1.088Zm8.582 8.833H72.44v-8.084h.89l.75 1.258c.65-.924 1.568-1.409 2.755-1.456v1.625c-1.111.029-1.945.368-2.501 1.018v5.64Zm6.702-8.282c2.054 0 3.081.938 3.081 2.813v5.47h-1.23l-.537-.99c-.753.791-1.634 1.187-2.642 1.187-.716 0-1.263-.198-1.64-.594-.367-.405-.551-.942-.551-1.61 0-.68.212-1.226.636-1.64.424-.415 1.215-.707 2.374-.876l1.696-.255v-.678c0-.914-.433-1.371-1.3-1.371-.82 0-1.305.414-1.456 1.243l-1.47-.438c.359-1.507 1.371-2.26 3.04-2.26Zm-.72 7.095c.64 0 1.276-.316 1.907-.947V69.52l-1.356.24c-.613.104-1.018.27-1.216.495-.198.226-.297.48-.297.763 0 .283.085.504.255.665.17.16.405.24.706.24Zm7.5.933a.524.524 0 0 1-.312.268c-.14.066-.343.1-.607.1-.264 0-.476-.062-.636-.185-.15-.122-.245-.25-.283-.381a2.544 2.544 0 0 1-.042-.495c0-.188.01-.334.028-.438a1.15 1.15 0 0 1 .127-.353c.113-.245.396-.368.848-.368.471 0 .763.123.877.368.103.198.155.414.155.65 0 .226-.01.39-.028.494a1.17 1.17 0 0 1-.127.34Zm9.578-3.406h-1.64v3.66h-1.921V62.793h3.561c1.244 0 2.12.34 2.629 1.017.443.613.664 1.386.664 2.318 0 .924-.221 1.687-.664 2.29-.509.688-1.385 1.032-2.629 1.032Zm-1.64-1.484h1.344c1.111 0 1.667-.613 1.667-1.838 0-1.234-.556-1.851-1.667-1.851h-1.343v3.689Zm9.353-3.138c2.054 0 3.081.938 3.081 2.813v5.47h-1.23l-.537-.99c-.754.791-1.635 1.187-2.643 1.187-.716 0-1.263-.198-1.639-.594-.368-.405-.552-.942-.552-1.61 0-.68.212-1.226.636-1.64.424-.415 1.216-.707 2.375-.876l1.696-.255v-.678c0-.914-.434-1.371-1.301-1.371-.819 0-1.304.414-1.455 1.243l-1.47-.438c.358-1.507 1.371-2.26 3.039-2.26Zm-.721 7.095c.64 0 1.276-.316 1.908-.947V69.52l-1.357.24c-.613.104-1.018.27-1.216.495a1.13 1.13 0 0 0-.296.763c0 .283.084.504.254.665.17.16.405.24.707.24Zm8.659 1.385c-1.658 0-2.488-.857-2.488-2.572v-5.71h1.894v5.399c0 .49.094.853.283 1.088.198.226.523.34.975.34.641 0 1.248-.302 1.823-.905v-5.922h1.894v8.084h-1.23l-.537-.975c-.735.782-1.606 1.173-2.614 1.173Zm8.933-.198h-1.894V62.482l1.894-.254V73.11Zm5.501-8.282c2.054 0 3.081.938 3.081 2.813v5.47h-1.229l-.537-.99c-.754.791-1.635 1.187-2.643 1.187-.716 0-1.263-.198-1.64-.594-.367-.405-.551-.942-.551-1.61 0-.68.212-1.226.636-1.64.424-.415 1.216-.707 2.375-.876l1.695-.255v-.678c0-.914-.433-1.371-1.3-1.371-.819 0-1.305.414-1.455 1.243l-1.47-.438c.358-1.507 1.371-2.26 3.038-2.26Zm-.72 7.095c.64 0 1.276-.316 1.907-.947V69.52l-1.356.24c-.613.104-1.018.27-1.216.495-.198.226-.297.48-.297.763 0 .283.085.504.255.665.169.16.405.24.707.24Zm16.324-9.13h1.922V73.11h-2.035l-4.084-7.01v7.01h-1.922V62.793h2.035l4.084 7.024v-7.024Zm6.923 10.515c-1.658 0-2.487-.857-2.487-2.572v-5.71h1.894v5.399c0 .49.094.853.282 1.088.198.226.523.34.975.34.641 0 1.249-.302 1.824-.905v-5.922h1.893v8.084h-1.229l-.537-.975c-.735.782-1.607 1.173-2.615 1.173Zm8.537-7.547c.886-.622 1.791-.933 2.714-.933.933 0 1.606.231 2.021.693.415.452.622 1.079.622 1.88v5.71h-1.894v-5.513c0-.48-.09-.82-.269-1.017-.169-.198-.471-.297-.904-.297-.678 0-1.31.212-1.894.636v6.19h-1.894v-8.084h.891l.607.735Zm10.672 7.547c-1.3 0-2.228-.349-2.784-1.046-.556-.707-.834-1.771-.834-3.194 0-2.827 1.187-4.24 3.562-4.24 1.366 0 2.299.424 2.798 1.272.433.726.65 1.668.65 2.827v.508h-5.173c.01.886.156 1.513.438 1.88.283.358.749.537 1.4.537 1.045 0 1.601-.377 1.667-1.13l1.555.056c-.151 1.687-1.244 2.53-3.279 2.53Zm1.088-6.558c-.235-.31-.622-.466-1.159-.466s-.932.15-1.187.452c-.245.292-.405.763-.48 1.413h3.264c-.056-.63-.202-1.097-.438-1.399Zm9.858 4.099c0 1.611-1.131 2.417-3.392 2.417-.989 0-1.724-.212-2.205-.636-.48-.434-.782-1.06-.904-1.88l1.469-.226c.104.904.665 1.356 1.682 1.356 1.027 0 1.541-.32 1.541-.96 0-.264-.104-.462-.311-.594-.198-.132-.603-.269-1.216-.41l-.65-.155c-.838-.198-1.441-.486-1.809-.863-.358-.386-.537-.942-.537-1.667 0-1.602 1.093-2.403 3.279-2.403.942 0 1.644.217 2.106.65.471.424.763 1.046.876 1.866l-1.47.212c-.103-.895-.626-1.343-1.568-1.343-.933 0-1.4.32-1.4.961 0 .264.09.467.269.608.188.132.565.264 1.131.396l.734.183c.839.208 1.442.5 1.809.877.377.367.566.904.566 1.61Z"/><path fill="#6B727B" d="M64.897 89.277h-2.013v-.813h2.013c.39 0 .706-.062.947-.186.242-.124.418-.297.528-.518.114-.22.171-.472.171-.755a1.61 1.61 0 0 0-.17-.73 1.262 1.262 0 0 0-.529-.549c-.241-.141-.557-.212-.947-.212h-1.78v6.718h-1v-7.536h2.78c.57 0 1.05.099 1.444.295.394.197.692.47.896.818.203.345.305.74.305 1.185 0 .483-.102.896-.305 1.237a1.951 1.951 0 0 1-.896.782c-.393.176-.874.264-1.444.264Zm7.024 1.47a.806.806 0 0 0-.094-.383c-.058-.121-.18-.23-.367-.326-.183-.1-.459-.187-.828-.26a6.568 6.568 0 0 1-.844-.232 2.558 2.558 0 0 1-.636-.326 1.367 1.367 0 0 1-.399-.45 1.255 1.255 0 0 1-.14-.606c0-.22.049-.43.145-.626.1-.197.24-.371.42-.523.182-.152.401-.27.657-.357.255-.086.54-.13.854-.13.448 0 .831.08 1.149.239.317.158.56.37.73.636.169.262.253.554.253.875h-.957a.821.821 0 0 0-.14-.45 1.03 1.03 0 0 0-.399-.368 1.287 1.287 0 0 0-.636-.145c-.266 0-.481.042-.647.124a.83.83 0 0 0-.357.306.77.77 0 0 0-.057.673c.038.08.103.153.197.222.093.066.224.128.393.187.169.058.385.117.647.175a5.25 5.25 0 0 1 1.133.373c.297.145.518.323.663.533.145.21.217.466.217.766a1.492 1.492 0 0 1-.595 1.2c-.19.146-.418.26-.683.343a3.062 3.062 0 0 1-.885.119c-.494 0-.911-.088-1.253-.264a1.937 1.937 0 0 1-.776-.684 1.634 1.634 0 0 1-.264-.885h.963c.013.263.09.472.227.627.138.152.307.26.508.326a2 2 0 0 0 .595.093c.262 0 .481-.035.657-.104a.916.916 0 0 0 .409-.284.66.66 0 0 0 .14-.414Zm3.255-4.115v5.6h-.963v-5.6h.963Zm-1.035-1.485a.58.58 0 0 1 .14-.394c.096-.107.238-.16.424-.16.183 0 .323.053.42.16.1.107.15.238.15.394 0 .148-.05.276-.15.383-.097.103-.237.155-.42.155-.186 0-.328-.052-.424-.155a.564.564 0 0 1-.14-.383Zm4.813 6.402c.228 0 .439-.047.632-.14a1.3 1.3 0 0 0 .476-.383c.124-.165.195-.353.212-.564h.911c-.017.331-.13.64-.336.926a2.297 2.297 0 0 1-.803.689 2.328 2.328 0 0 1-1.092.259c-.42 0-.788-.075-1.102-.223a2.183 2.183 0 0 1-.776-.61 2.728 2.728 0 0 1-.461-.89c-.1-.339-.15-.696-.15-1.072v-.218c0-.376.05-.731.15-1.066a2.74 2.74 0 0 1 .46-.895c.208-.259.466-.462.777-.61.314-.15.681-.223 1.102-.223.439 0 .822.09 1.15.269.327.176.584.417.77.724.19.304.294.649.311 1.035h-.91a1.38 1.38 0 0 0-.198-.626 1.226 1.226 0 0 0-.455-.445 1.272 1.272 0 0 0-.668-.17c-.293 0-.54.058-.74.175-.196.114-.353.27-.47.466a2.174 2.174 0 0 0-.25.647 3.559 3.559 0 0 0-.072.72v.217c0 .245.025.486.073.724.048.239.13.454.243.647.117.194.274.349.471.466.2.114.449.171.745.171Zm3.054-2.055v-.119c0-.403.059-.778.176-1.123a2.67 2.67 0 0 1 .507-.906c.221-.258.489-.459.802-.6a2.49 2.49 0 0 1 1.056-.217 2.5 2.5 0 0 1 1.061.217c.318.141.587.342.808.6.224.256.395.558.512.906.117.345.176.72.176 1.123v.12c0 .403-.059.777-.176 1.122a2.687 2.687 0 0 1-.512.906 2.344 2.344 0 0 1-.803.6 2.52 2.52 0 0 1-1.055.213 2.56 2.56 0 0 1-1.061-.212 2.401 2.401 0 0 1-.808-.6c-.22-.26-.39-.562-.507-.907a3.47 3.47 0 0 1-.176-1.123Zm.958-.119v.12c0 .279.032.543.098.791.065.245.164.463.295.652.135.19.302.34.502.45.2.108.433.161.699.161.262 0 .491-.053.688-.16.2-.11.366-.261.497-.45.131-.19.23-.408.295-.653.069-.248.103-.512.103-.792v-.119a2.87 2.87 0 0 0-.103-.781 2.011 2.011 0 0 0-.3-.658 1.425 1.425 0 0 0-.497-.455 1.393 1.393 0 0 0-.694-.166c-.262 0-.493.056-.693.166-.197.11-.362.262-.497.455-.131.19-.23.41-.295.658a3.01 3.01 0 0 0-.098.781Zm1.014-3.571 1.004-1.522h1.154l-1.387 1.522h-.771Zm5.367-1.522v7.95h-.962v-7.95h.962Zm1.284 5.212v-.119c0-.403.058-.778.176-1.123a2.67 2.67 0 0 1 .507-.906c.22-.258.488-.459.802-.6a2.49 2.49 0 0 1 1.056-.217c.393 0 .747.072 1.061.217.317.141.587.342.807.6.225.256.395.558.513.906.117.345.176.72.176 1.123v.12c0 .403-.059.777-.176 1.122a2.687 2.687 0 0 1-.513.906 2.33 2.33 0 0 1-.802.6 2.52 2.52 0 0 1-1.056.213c-.393 0-.747-.071-1.06-.212a2.401 2.401 0 0 1-.808-.6c-.22-.26-.39-.562-.507-.907a3.47 3.47 0 0 1-.176-1.123Zm.957-.119v.12c0 .279.033.543.099.791.065.245.163.463.295.652.134.19.302.34.502.45.2.108.433.161.698.161.263 0 .492-.053.689-.16.2-.11.366-.261.497-.45.13-.19.229-.408.295-.653.069-.248.103-.512.103-.792v-.119a2.87 2.87 0 0 0-.103-.781 2.011 2.011 0 0 0-.3-.658 1.425 1.425 0 0 0-.498-.455 1.393 1.393 0 0 0-.693-.166c-.262 0-.493.056-.694.166-.196.11-.362.262-.496.455-.132.19-.23.41-.295.658a3.01 3.01 0 0 0-.099.781Zm8.97-2.743h.869v5.481c0 .494-.1.915-.3 1.263-.2.349-.48.612-.838.792a2.658 2.658 0 0 1-1.232.274c-.194 0-.421-.03-.683-.093a2.754 2.754 0 0 1-.766-.305 1.914 1.914 0 0 1-.627-.575l.502-.57c.235.284.48.48.735.59.26.111.514.166.766.166.304 0 .566-.056.787-.17.22-.114.392-.283.512-.507.125-.221.187-.494.187-.818v-4.296l.088-1.232Zm-3.856 2.862v-.109c0-.427.05-.816.15-1.164.103-.352.25-.654.44-.906a1.975 1.975 0 0 1 1.62-.786c.352 0 .659.062.921.186.266.12.49.298.673.533.186.231.333.51.44.838.107.328.181.7.222 1.113v.476c-.038.411-.112.78-.222 1.108a2.619 2.619 0 0 1-.44.838 1.84 1.84 0 0 1-.673.534c-.266.12-.576.18-.931.18a1.95 1.95 0 0 1-.911-.211c-.27-.142-.5-.34-.694-.596a2.82 2.82 0 0 1-.445-.9c-.1-.349-.15-.727-.15-1.134Zm.957-.109v.11c0 .279.028.541.083.786.059.245.147.46.264.647.12.186.274.333.46.44.187.103.41.155.668.155.318 0 .58-.067.787-.202.207-.134.371-.312.492-.533.124-.22.221-.46.29-.72v-1.247a2.564 2.564 0 0 0-.176-.548 1.677 1.677 0 0 0-.301-.476 1.289 1.289 0 0 0-.45-.337 1.494 1.494 0 0 0-.631-.124c-.263 0-.489.055-.678.166-.187.107-.34.255-.46.445a2.137 2.137 0 0 0-.265.652 3.574 3.574 0 0 0-.083.786Zm8.525 1.89v-2.883a1.17 1.17 0 0 0-.135-.575.878.878 0 0 0-.393-.383 1.428 1.428 0 0 0-.652-.134 1.53 1.53 0 0 0-.637.124 1.107 1.107 0 0 0-.424.326c-.1.135-.15.28-.15.435h-.958c0-.2.052-.399.155-.595a1.75 1.75 0 0 1 .445-.534c.197-.162.432-.29.704-.382.276-.097.583-.145.922-.145.407 0 .766.069 1.076.207.314.138.559.346.735.626.179.276.269.623.269 1.04v2.609c0 .186.016.384.047.595.034.21.084.392.15.543v.083h-.999a1.82 1.82 0 0 1-.114-.44 3.49 3.49 0 0 1-.041-.517Zm.165-2.438.011.673h-.968a3.58 3.58 0 0 0-.73.067 1.671 1.671 0 0 0-.538.192.864.864 0 0 0-.445.776c0 .176.039.336.119.481.079.145.198.26.357.347.162.083.36.124.595.124a1.606 1.606 0 0 0 1.309-.642.983.983 0 0 0 .218-.522l.409.46a1.39 1.39 0 0 1-.197.482 2.315 2.315 0 0 1-1.061.906 2.055 2.055 0 0 1-.818.155 2.15 2.15 0 0 1-.999-.223 1.707 1.707 0 0 1-.662-.595 1.578 1.578 0 0 1-.233-.844c0-.3.059-.564.176-.792.117-.23.286-.422.507-.574.221-.155.487-.273.797-.352a4.18 4.18 0 0 1 1.041-.12h1.112Zm9.622.999h.994a3.17 3.17 0 0 1-.409 1.278 2.39 2.39 0 0 1-.937.896c-.404.217-.908.326-1.511.326a2.86 2.86 0 0 1-1.206-.249 2.684 2.684 0 0 1-.927-.704 3.281 3.281 0 0 1-.6-1.102 4.706 4.706 0 0 1-.207-1.439v-.75c0-.528.069-1.006.207-1.434.141-.431.343-.8.605-1.108.266-.307.585-.543.958-.709a3.067 3.067 0 0 1 1.258-.248c.569 0 1.05.107 1.444.32.393.215.698.511.916.891.221.376.357.813.409 1.31h-.994a2.766 2.766 0 0 0-.269-.906 1.402 1.402 0 0 0-.559-.59c-.242-.138-.557-.207-.947-.207-.335 0-.63.064-.885.191a1.786 1.786 0 0 0-.637.544 2.525 2.525 0 0 0-.383.843 4.302 4.302 0 0 0-.129 1.092v.761c0 .37.038.716.113 1.04.08.325.199.61.358.854.158.245.36.439.605.58.245.138.535.207.87.207.424 0 .762-.067 1.014-.202.252-.134.442-.328.569-.58.132-.251.225-.553.28-.905Zm3.25-5.554v7.95h-.962v-7.95h.962Zm2.573 2.35v5.6h-.958v-5.6h.958Zm-.989-.818 1.004-1.521h1.154l-1.387 1.521h-.771Zm3.54 2.014v4.404h-.957v-5.6h.905l.052 1.196Zm-.228 1.392-.398-.016c.003-.383.06-.736.171-1.06.11-.328.265-.613.466-.855a2.074 2.074 0 0 1 1.64-.76c.276 0 .525.038.746.113.22.073.408.19.564.352.158.163.279.373.362.632.083.255.124.567.124.937v3.67h-.962v-3.68c0-.294-.044-.529-.13-.705a.793.793 0 0 0-.378-.388 1.353 1.353 0 0 0-.61-.124c-.239 0-.456.05-.653.15-.193.1-.36.238-.502.414a2.1 2.1 0 0 0-.44 1.32Zm6.17-2.588v5.6h-.963v-5.6h.963Zm-1.035-1.485c0-.156.046-.287.139-.394.097-.107.239-.16.425-.16.183 0 .323.053.419.16.1.107.15.238.15.394 0 .148-.05.276-.15.383-.096.103-.236.155-.419.155-.186 0-.328-.052-.425-.155a.564.564 0 0 1-.139-.383Zm4.813 6.402c.228 0 .438-.047.632-.14a1.3 1.3 0 0 0 .476-.383c.124-.165.195-.353.212-.564h.911c-.017.331-.13.64-.337.926a2.293 2.293 0 0 1-.802.689 2.327 2.327 0 0 1-1.092.259c-.421 0-.788-.075-1.102-.223a2.182 2.182 0 0 1-.777-.61 2.728 2.728 0 0 1-.46-.89 3.76 3.76 0 0 1-.15-1.072v-.218c0-.376.05-.731.15-1.066a2.72 2.72 0 0 1 .46-.895c.207-.259.466-.462.777-.61.314-.15.681-.223 1.102-.223.438 0 .821.09 1.149.269.328.176.585.417.771.724.19.304.294.649.311 1.035h-.911a1.375 1.375 0 0 0-.197-.626 1.275 1.275 0 0 0-1.123-.616c-.293 0-.54.059-.74.176-.197.114-.354.27-.471.466a2.15 2.15 0 0 0-.248.647 3.51 3.51 0 0 0-.073.72v.217c0 .245.024.486.073.724.048.239.129.454.243.647.117.194.274.349.471.466.2.114.448.171.745.171Zm6.609-.274v-2.883a1.17 1.17 0 0 0-.134-.575.878.878 0 0 0-.393-.383 1.43 1.43 0 0 0-.653-.134 1.53 1.53 0 0 0-.636.124 1.11 1.11 0 0 0-.425.326c-.1.135-.15.28-.15.435h-.957c0-.2.052-.399.155-.595a1.75 1.75 0 0 1 .445-.534c.197-.162.432-.29.704-.382.276-.097.583-.145.921-.145.408 0 .766.069 1.077.207.314.138.559.346.735.626.179.276.269.623.269 1.04v2.609c0 .186.016.384.047.595.034.21.084.392.15.543v.083h-.999a1.732 1.732 0 0 1-.114-.44 3.498 3.498 0 0 1-.042-.517Zm.166-2.438.01.673h-.967a3.58 3.58 0 0 0-.73.067 1.662 1.662 0 0 0-.538.192.913.913 0 0 0-.332.326.864.864 0 0 0-.114.45c0 .176.04.336.119.481a.87.87 0 0 0 .358.347c.162.083.36.124.595.124a1.61 1.61 0 0 0 1.309-.642.983.983 0 0 0 .218-.522l.409.46a1.41 1.41 0 0 1-.197.482 2.315 2.315 0 0 1-1.061.906 2.059 2.059 0 0 1-.818.155 2.15 2.15 0 0 1-.999-.223 1.7 1.7 0 0 1-.662-.595 1.57 1.57 0 0 1-.233-.844c0-.3.058-.564.176-.792.117-.23.286-.422.507-.574.221-.155.486-.273.797-.352.311-.08.657-.12 1.04-.12h1.113Zm400.927-60.231-3.983 3.984a.568.568 0 0 1-.41.166.555.555 0 0 1-.417-.166.563.563 0 0 1-.171-.414c0-.162.057-.3.171-.414l3.983-3.983-3.983-3.983a.566.566 0 0 1-.167-.41.553.553 0 0 1 .167-.418.562.562 0 0 1 .413-.17c.163 0 .3.057.414.17l3.983 3.984 3.984-3.984a.568.568 0 0 1 .41-.167.556.556 0 0 1 .417.167.563.563 0 0 1 .171.414c0 .162-.057.3-.171.414l-3.983 3.983 3.983 3.983a.57.57 0 0 1 .167.41.553.553 0 0 1-.167.418.565.565 0 0 1-.414.17.56.56 0 0 1-.413-.17l-3.984-3.984Z"/><rect width="532.346" height="32.977" x="18.844" y="124.499" fill="#fff" rx="4.711"/><path fill="#555C66" d="M39.22 145.603a.57.57 0 0 1-.42-.169.571.571 0 0 1-.168-.42c0-.167.056-.307.169-.419a.57.57 0 0 1 .42-.17h5.046c.82 0 1.524-.27 2.115-.811a2.61 2.61 0 0 0 .887-2.005c0-.795-.296-1.462-.887-2-.59-.539-1.296-.808-2.115-.808h-5.513l1.771 1.771c.114.114.17.252.17.414 0 .162-.056.3-.17.414a.555.555 0 0 1-.417.166.569.569 0 0 1-.41-.166l-2.691-2.691a.65.65 0 0 1-.2-.497.65.65 0 0 1 .2-.497l2.69-2.69a.563.563 0 0 1 .414-.171c.163 0 .3.057.414.171a.55.55 0 0 1 .167.417.569.569 0 0 1-.167.41l-1.771 1.771h5.513c1.148 0 2.132.383 2.95 1.15.82.767 1.23 1.712 1.23 2.836 0 1.125-.41 2.072-1.23 2.841-.818.769-1.802 1.153-2.95 1.153H39.22Z"/><path fill="#B6BCC3" d="M79.02 138.801h-5.512c-.82 0-1.525.269-2.116.808a2.597 2.597 0 0 0-.886 2c0 .796.295 1.464.886 2.005.591.541 1.296.811 2.116.811h5.046a.57.57 0 0 1 .42.17.568.568 0 0 1 .169.419.572.572 0 0 1-.17.42.57.57 0 0 1-.42.169h-5.045c-1.149 0-2.132-.384-2.951-1.153-.82-.769-1.229-1.716-1.229-2.841 0-1.124.41-2.069 1.228-2.836.82-.767 1.803-1.15 2.952-1.15h5.513l-1.772-1.771a.569.569 0 0 1-.166-.41.552.552 0 0 1 .166-.417.563.563 0 0 1 .414-.171c.162 0 .3.057.414.171l2.69 2.69a.651.651 0 0 1 .201.497.651.651 0 0 1-.2.497l-2.691 2.691a.569.569 0 0 1-.41.166.555.555 0 0 1-.418-.166.565.565 0 0 1-.17-.414c0-.162.057-.3.17-.414l1.772-1.771Z"/><rect width="74.577" height="23.555" x="298.615" y="129.209" fill="#F0F1F2" rx="4.711"/><path fill="#555C66" d="M318.679 137.789v6.698h-.893l-3.372-5.166v5.166h-.888v-6.698h.888l3.386 5.18v-5.18h.879Zm1.219 4.264v-.105c0-.359.052-.692.156-.999.105-.31.255-.578.451-.805.196-.23.434-.408.713-.534.279-.128.592-.193.939-.193.349 0 .664.065.943.193.282.126.521.304.718.534.199.227.351.495.455.805.104.307.156.64.156.999v.105c0 .359-.052.692-.156.999a2.395 2.395 0 0 1-.455.805 2.081 2.081 0 0 1-.713.533 2.24 2.24 0 0 1-.939.189c-.35 0-.664-.063-.943-.189a2.13 2.13 0 0 1-.718-.533 2.456 2.456 0 0 1-.451-.805 3.095 3.095 0 0 1-.156-.999Zm.851-.105v.105c0 .249.029.483.087.704.059.218.146.411.263.58.119.169.268.302.446.4a1.3 1.3 0 0 0 .621.143c.233 0 .437-.048.612-.143.178-.098.325-.231.442-.4.116-.169.203-.362.262-.58.061-.221.092-.455.092-.704v-.105c0-.246-.031-.477-.092-.695a1.786 1.786 0 0 0-.267-.584 1.24 1.24 0 0 0-1.058-.553c-.233 0-.439.05-.617.148a1.31 1.31 0 0 0-.441.405 1.844 1.844 0 0 0-.263.584 2.69 2.69 0 0 0-.087.695Zm5.599-1.657v4.196h-.851v-4.978h.828l.023.782Zm1.555-.809-.005.791a2.199 2.199 0 0 0-.414-.037c-.196 0-.369.031-.52.092-.15.061-.277.147-.381.258-.105.11-.188.242-.249.395a1.945 1.945 0 0 0-.115.497l-.239.138c0-.3.029-.582.087-.846.062-.264.155-.497.281-.7.126-.205.285-.365.478-.478a1.345 1.345 0 0 1 .911-.152c.08.012.135.026.166.042Zm1.633 1.016v3.989h-.856v-4.978h.81l.046.989Zm-.175 1.312-.395-.014c.003-.341.047-.655.133-.943.086-.292.213-.545.382-.76.169-.214.379-.38.63-.496.252-.12.543-.18.874-.18.233 0 .448.034.644.101.197.065.367.168.511.309.144.141.256.322.336.543.08.22.12.487.12.8v3.317h-.852v-3.276c0-.26-.044-.469-.133-.625a.766.766 0 0 0-.368-.341 1.337 1.337 0 0 0-.561-.11c-.252 0-.462.044-.631.133a1.07 1.07 0 0 0-.404.368 1.645 1.645 0 0 0-.221.539 3.003 3.003 0 0 0-.065.635Zm3.225-.47-.57.175c.003-.273.047-.535.133-.787.089-.251.217-.475.382-.671a1.8 1.8 0 0 1 .621-.465c.246-.117.526-.175.842-.175.267 0 .503.035.709.106.208.071.383.179.524.327.144.144.253.329.327.556.073.227.11.497.11.81v3.271h-.856v-3.28c0-.279-.044-.496-.133-.649a.702.702 0 0 0-.368-.327 1.48 1.48 0 0 0-.561-.096c-.187 0-.353.032-.497.096a1.052 1.052 0 0 0-.364.267 1.172 1.172 0 0 0-.225.382 1.421 1.421 0 0 0-.074.46Zm7.302 2.296v-2.563c0-.196-.04-.366-.12-.51a.786.786 0 0 0-.35-.341 1.273 1.273 0 0 0-.579-.119c-.215 0-.404.036-.566.11a.992.992 0 0 0-.378.29.64.64 0 0 0-.133.386h-.851c0-.178.046-.354.138-.529.092-.175.224-.332.396-.474.174-.144.383-.257.625-.34.246-.086.519-.129.819-.129.362 0 .681.062.957.184.279.123.497.308.653.557.16.245.24.553.24.925v2.318c0 .166.013.342.041.529.031.187.075.348.133.483v.074h-.887a1.597 1.597 0 0 1-.102-.391 3.227 3.227 0 0 1-.036-.46Zm.147-2.167.009.598h-.86c-.243 0-.459.02-.649.06-.19.037-.35.093-.478.17a.813.813 0 0 0-.295.29.772.772 0 0 0-.101.4.87.87 0 0 0 .106.428.76.76 0 0 0 .317.308c.144.074.321.111.529.111.261 0 .491-.055.69-.166.2-.11.358-.245.474-.405a.864.864 0 0 0 .193-.464l.364.409c-.022.129-.08.272-.175.428a2.049 2.049 0 0 1-.943.805 1.83 1.83 0 0 1-.727.138c-.337 0-.633-.066-.888-.198a1.52 1.52 0 0 1-.589-.529 1.401 1.401 0 0 1-.207-.75c0-.267.052-.501.157-.704.104-.205.254-.375.45-.51.197-.138.433-.243.709-.313.276-.071.584-.106.925-.106h.989Zm2.967-4.048v7.066h-.856v-7.066h.856Zm12.524 6.886 1.5-1.5a.443.443 0 0 1 .316-.134.431.431 0 0 1 .322.134.437.437 0 0 1 .137.32.435.435 0 0 1-.137.319l-1.765 1.766a.481.481 0 0 1-.175.116.557.557 0 0 1-.198.034.49.49 0 0 1-.373-.15l-1.765-1.766a.439.439 0 0 1-.134-.316.434.434 0 0 1 .134-.323.439.439 0 0 1 .639 0l1.499 1.5Zm0-7.579-1.499 1.5a.445.445 0 0 1-.639 0 .44.44 0 0 1 0-.639l1.765-1.765a.493.493 0 0 1 .373-.151.485.485 0 0 1 .373.151l1.765 1.765a.441.441 0 0 1 .134.317.43.43 0 0 1-.134.322.439.439 0 0 1-.638 0l-1.5-1.5Z"/><rect width="62.577" height="23.555" x="384.97" y="129.209" fill="#F0F1F2" rx="4.711"/><path fill="#555C66" d="M400.768 137.789v6.698h-.887v-6.698h.887Zm2.807 3.013v.727h-3v-.727h3Zm.455-3.013v.726h-3.455v-.726h3.455Zm.603 4.264v-.105c0-.359.052-.692.156-.999.105-.31.255-.578.451-.805.197-.23.434-.408.713-.534.279-.128.592-.193.939-.193.35 0 .664.065.943.193.282.126.521.304.718.534.199.227.351.495.455.805.104.307.157.64.157.999v.105c0 .359-.053.692-.157.999a2.395 2.395 0 0 1-.455.805 2.081 2.081 0 0 1-.713.533 2.237 2.237 0 0 1-.939.189c-.35 0-.664-.063-.943-.189a2.13 2.13 0 0 1-.718-.533 2.456 2.456 0 0 1-.451-.805 3.095 3.095 0 0 1-.156-.999Zm.851-.105v.105c0 .249.029.483.087.704.059.218.146.411.263.58.119.169.268.302.446.4a1.3 1.3 0 0 0 .621.143c.233 0 .437-.048.612-.143.178-.098.325-.231.442-.4.116-.169.204-.362.262-.58.061-.221.092-.455.092-.704v-.105c0-.246-.031-.477-.092-.695a1.766 1.766 0 0 0-.267-.584 1.237 1.237 0 0 0-1.058-.553c-.233 0-.439.05-.617.148a1.32 1.32 0 0 0-.441.405 1.844 1.844 0 0 0-.263.584 2.69 2.69 0 0 0-.087.695Zm5.599-1.376v3.915h-.851v-4.978h.805l.046 1.063Zm-.202 1.238-.355-.014c.003-.341.054-.655.152-.943a2.35 2.35 0 0 1 .414-.76 1.849 1.849 0 0 1 1.459-.676c.245 0 .466.034.662.101.196.065.364.169.502.313.141.144.248.331.322.562.073.226.11.504.11.832v3.262h-.856v-3.271c0-.261-.038-.469-.115-.626a.705.705 0 0 0-.336-.345 1.212 1.212 0 0 0-.542-.11 1.26 1.26 0 0 0-.58.133 1.381 1.381 0 0 0-.446.368c-.123.157-.22.336-.29.539a1.952 1.952 0 0 0-.101.635Zm6.643-2.301v.653h-2.691v-.653h2.691Zm-1.781-1.21h.852v4.955c0 .169.026.296.078.382a.369.369 0 0 0 .202.17.83.83 0 0 0 .267.042c.071 0 .144-.007.221-.019.08-.015.139-.027.179-.037l.005.695a2.034 2.034 0 0 1-.267.06 2.068 2.068 0 0 1-.391.032c-.209 0-.4-.041-.575-.124a.93.93 0 0 1-.419-.414c-.101-.196-.152-.46-.152-.792v-4.95Zm14.138 6.008 1.499-1.5a.445.445 0 0 1 .639 0 .44.44 0 0 1 0 .639l-1.766 1.766a.478.478 0 0 1-.174.116.557.557 0 0 1-.198.034.566.566 0 0 1-.199-.034.478.478 0 0 1-.174-.116l-1.765-1.766a.44.44 0 0 1-.135-.316.43.43 0 0 1 .135-.323.437.437 0 0 1 .638 0l1.5 1.5Zm0-7.579-1.5 1.5a.443.443 0 0 1-.316.134.43.43 0 0 1-.322-.134.438.438 0 0 1 0-.639l1.765-1.765a.482.482 0 0 1 .373-.151.482.482 0 0 1 .372.151l1.766 1.765a.445.445 0 0 1 0 .639.44.44 0 0 1-.639 0l-1.499-1.5Zm38.753 8.973c-.331 0-.613-.116-.845-.348a1.149 1.149 0 0 1-.348-.844v-8.018c0-.331.116-.613.348-.845.232-.232.514-.348.845-.348h2.625c.8 0 1.523.249 2.17.747.647.499.97 1.169.97 2.013 0 .587-.142 1.065-.425 1.435-.283.37-.589.639-.916.806.403.139.788.413 1.154.823.366.411.55.963.55 1.658 0 1.003-.37 1.741-1.11 2.213-.74.472-1.486.708-2.236.708h-2.782Zm.496-1.564h2.222c.618 0 1.055-.172 1.311-.515s.383-.672.383-.987c0-.315-.127-.645-.383-.988-.256-.343-.705-.515-1.347-.515h-2.186v3.005Zm0-4.521h2.036c.478 0 .856-.136 1.135-.409.279-.273.419-.599.419-.98 0-.404-.148-.735-.443-.992-.295-.257-.658-.385-1.086-.385h-2.061v2.766Zm25.761 6.085a.685.685 0 0 1-.504-.206.685.685 0 0 1-.205-.504c0-.199.068-.367.205-.504a.688.688 0 0 1 .504-.205h2.288l2.544-7.565h-2.287a.682.682 0 0 1-.504-.206.686.686 0 0 1-.206-.504c0-.199.069-.367.206-.504a.685.685 0 0 1 .504-.205h5.768c.198 0 .366.068.503.206a.682.682 0 0 1 .206.504.682.682 0 0 1-.206.504.684.684 0 0 1-.503.205h-2.047l-2.544 7.565h2.046c.199 0 .367.069.504.206a.686.686 0 0 1 .206.504.686.686 0 0 1-.206.504.685.685 0 0 1-.504.205h-5.768Zm28.108 1.178a.57.57 0 0 1-.42-.169.57.57 0 0 1-.169-.42.574.574 0 0 1 .589-.589h9.27a.57.57 0 0 1 .42.17.57.57 0 0 1 .169.42.568.568 0 0 1-.169.419.57.57 0 0 1-.42.169h-9.27Zm4.635-2.823c-1.221 0-2.174-.371-2.859-1.112-.685-.742-1.028-1.735-1.028-2.98v-5.484c0-.199.073-.368.22-.51a.719.719 0 0 1 .516-.212c.198 0 .368.071.509.212a.7.7 0 0 1 .211.51v5.556c0 .793.211 1.429.633 1.907.421.478 1.021.717 1.798.717.777 0 1.377-.239 1.798-.717.422-.478.633-1.114.633-1.907v-5.556c0-.199.073-.368.219-.51a.723.723 0 0 1 .517-.212c.198 0 .367.071.508.212a.697.697 0 0 1 .212.51v5.484c0 1.245-.343 2.238-1.028 2.98-.685.741-1.638 1.112-2.859 1.112Z"/><rect width="532.346" height="190.208" x="18.844" y="166.898" fill="#fff" rx="4.711"/><path fill="#6B727B" d="M37.798 188.414h.883a2.815 2.815 0 0 1-.363 1.136c-.196.334-.474.6-.833.796-.359.193-.806.29-1.343.29a2.55 2.55 0 0 1-1.072-.221 2.38 2.38 0 0 1-.824-.626 2.922 2.922 0 0 1-.533-.98 4.177 4.177 0 0 1-.184-1.279v-.667c0-.469.061-.894.184-1.274.125-.384.305-.712.538-.985.236-.273.52-.483.851-.63a2.728 2.728 0 0 1 1.118-.221c.506 0 .934.095 1.284.285.35.191.62.454.814.792.196.334.317.722.363 1.164h-.883a2.454 2.454 0 0 0-.24-.805 1.247 1.247 0 0 0-.496-.525c-.215-.123-.495-.184-.842-.184-.297 0-.56.057-.787.17a1.595 1.595 0 0 0-.566.483c-.15.209-.263.459-.34.75a3.817 3.817 0 0 0-.115.971v.676c0 .328.034.637.101.925.07.288.177.541.318.759.14.218.32.39.538.515.218.123.475.184.773.184.377 0 .678-.059.901-.179.224-.12.393-.291.507-.515.116-.224.199-.493.248-.805Zm1.739-.304v-.106c0-.359.052-.691.157-.998.104-.31.254-.578.45-.805.197-.23.434-.408.713-.534.28-.129.592-.193.939-.193.35 0 .664.064.943.193.282.126.522.304.718.534.2.227.35.495.455.805.105.307.157.639.157.998v.106c0 .359-.053.692-.157.998a2.386 2.386 0 0 1-.455.805 2.09 2.09 0 0 1-.713.534 2.236 2.236 0 0 1-.939.189c-.35 0-.664-.063-.943-.189a2.137 2.137 0 0 1-.718-.534 2.426 2.426 0 0 1-.45-.805 3.076 3.076 0 0 1-.157-.998Zm.851-.106v.106c0 .248.03.483.088.704.058.218.145.411.262.58.12.168.268.302.446.4a1.3 1.3 0 0 0 .621.142c.233 0 .437-.047.612-.142a1.29 1.29 0 0 0 .442-.4c.116-.169.204-.362.262-.58a2.62 2.62 0 0 0 .092-.704v-.106c0-.245-.03-.477-.092-.695a1.8 1.8 0 0 0-.267-.584 1.265 1.265 0 0 0-.442-.405 1.24 1.24 0 0 0-.616-.147 1.26 1.26 0 0 0-.617.147 1.32 1.32 0 0 0-.441.405 1.854 1.854 0 0 0-.262.584c-.059.218-.088.45-.088.695Zm5.595-1.449v3.989h-.856v-4.978h.81l.046.989Zm-.175 1.311-.396-.014a3.41 3.41 0 0 1 .133-.943 2.26 2.26 0 0 1 .382-.759c.169-.215.38-.38.63-.497.252-.119.543-.179.875-.179.233 0 .447.034.644.101.196.064.366.167.51.308a1.4 1.4 0 0 1 .336.543c.08.221.12.488.12.801v3.317h-.851v-3.276c0-.261-.045-.469-.134-.626a.761.761 0 0 0-.368-.34 1.322 1.322 0 0 0-.56-.11 1.34 1.34 0 0 0-.631.133 1.068 1.068 0 0 0-.405.368 1.657 1.657 0 0 0-.22.538c-.044.2-.065.411-.065.635Zm3.225-.469-.57.175c.002-.273.047-.536.133-.787.089-.252.216-.475.382-.672.168-.196.375-.351.62-.464a1.94 1.94 0 0 1 .843-.175c.266 0 .502.035.708.106.209.07.383.179.524.326.145.144.253.33.327.557.074.227.11.497.11.81v3.271h-.855v-3.281c0-.279-.045-.495-.134-.648a.692.692 0 0 0-.368-.327 1.48 1.48 0 0 0-.56-.096c-.188 0-.354.032-.498.096a1.029 1.029 0 0 0-.363.267c-.098.11-.174.238-.226.382a1.417 1.417 0 0 0-.073.46Zm6.431 3.239a2.46 2.46 0 0 1-.943-.175 2.136 2.136 0 0 1-.722-.502 2.225 2.225 0 0 1-.46-.763 2.804 2.804 0 0 1-.161-.966v-.194c0-.404.06-.765.18-1.081.119-.319.282-.589.487-.809a2.08 2.08 0 0 1 .7-.502c.26-.113.53-.17.809-.17.356 0 .662.061.92.184.26.123.474.294.64.515.165.218.288.476.368.773.08.294.12.617.12.966v.382h-3.718v-.695h2.866v-.064a2.12 2.12 0 0 0-.138-.644 1.15 1.15 0 0 0-.368-.515c-.169-.135-.399-.203-.69-.203a1.142 1.142 0 0 0-.952.483c-.117.16-.207.354-.272.584-.064.23-.096.496-.096.796v.194c0 .236.032.458.096.667.068.205.164.386.29.543.129.156.284.279.465.368.184.089.392.133.625.133.3 0 .556-.061.764-.184a1.89 1.89 0 0 0 .547-.492l.516.409a2.363 2.363 0 0 1-.41.465 1.96 1.96 0 0 1-.611.359 2.37 2.37 0 0 1-.852.138Zm4.923-.7c.202 0 .39-.041.561-.124a1.16 1.16 0 0 0 .424-.34.95.95 0 0 0 .188-.502h.81a1.52 1.52 0 0 1-.3.824 2.052 2.052 0 0 1-1.683.842c-.374 0-.7-.066-.98-.198a1.944 1.944 0 0 1-.69-.543 2.43 2.43 0 0 1-.41-.791 3.344 3.344 0 0 1-.133-.953v-.193c0-.334.045-.65.133-.948.093-.3.229-.565.41-.795.184-.231.414-.411.69-.543a2.27 2.27 0 0 1 .98-.198c.39 0 .73.08 1.021.239.292.156.52.371.686.644.169.27.26.577.276.92h-.81a1.224 1.224 0 0 0-.175-.556 1.134 1.134 0 0 0-.998-.548c-.26 0-.48.052-.658.157a1.15 1.15 0 0 0-.419.414 1.924 1.924 0 0 0-.22.575 3.155 3.155 0 0 0-.065.639v.193c0 .218.022.433.065.644.043.212.115.404.216.576.104.171.244.309.419.414.177.101.398.151.662.151Zm5.005.7c-.346 0-.66-.059-.943-.175a2.14 2.14 0 0 1-.722-.502 2.225 2.225 0 0 1-.46-.763 2.806 2.806 0 0 1-.161-.966v-.194c0-.404.06-.765.18-1.081.119-.319.282-.589.487-.809a2.1 2.1 0 0 1 .7-.502c.26-.113.53-.17.81-.17.355 0 .662.061.92.184.26.123.473.294.639.515.165.218.288.476.368.773.08.294.12.617.12.966v.382h-3.718v-.695h2.866v-.064a2.114 2.114 0 0 0-.138-.644 1.15 1.15 0 0 0-.368-.515c-.168-.135-.399-.203-.69-.203a1.142 1.142 0 0 0-.952.483c-.117.16-.207.354-.272.584-.064.23-.096.496-.096.796v.194c0 .236.032.458.096.667.068.205.164.386.29.543.129.156.284.279.465.368.184.089.392.133.626.133.3 0 .555-.061.763-.184.209-.123.391-.287.548-.492l.515.409a2.363 2.363 0 0 1-.41.465c-.165.147-.37.267-.611.359-.24.092-.523.138-.852.138Zm8.203-.943v-2.563c0-.196-.04-.366-.12-.511a.785.785 0 0 0-.349-.34c-.156-.08-.35-.12-.58-.12a1.35 1.35 0 0 0-.565.111.976.976 0 0 0-.378.29.633.633 0 0 0-.133.386h-.851c0-.178.046-.354.138-.529.092-.175.224-.333.395-.474a1.97 1.97 0 0 1 .626-.34c.245-.086.518-.129.82-.129.361 0 .68.061.956.184.28.123.497.308.653.557.16.245.24.553.24.924v2.319c0 .166.013.342.04.529.032.187.076.348.134.483v.074h-.888a1.595 1.595 0 0 1-.1-.391 3.163 3.163 0 0 1-.038-.46Zm.148-2.167.009.598h-.86c-.243 0-.459.02-.65.06-.19.036-.349.093-.478.17a.767.767 0 0 0-.396.69c0 .156.036.299.107.428a.77.77 0 0 0 .317.308c.144.074.32.11.529.11.26 0 .49-.055.69-.165.2-.111.357-.246.474-.405a.872.872 0 0 0 .193-.465l.364.41c-.022.129-.08.271-.175.428a2.049 2.049 0 0 1-.382.45 2.04 2.04 0 0 1-.561.355 1.829 1.829 0 0 1-.727.138 1.9 1.9 0 0 1-.888-.198 1.518 1.518 0 0 1-.589-.529 1.401 1.401 0 0 1-.207-.75c0-.267.052-.502.156-.704.105-.205.255-.376.451-.511a2.13 2.13 0 0 1 .709-.312c.276-.071.584-.106.925-.106h.989Zm6.445 3.11a2.46 2.46 0 0 1-.943-.175c-.28-.12-.52-.287-.722-.502a2.225 2.225 0 0 1-.46-.763 2.804 2.804 0 0 1-.161-.966v-.194c0-.404.06-.765.179-1.081.12-.319.282-.589.488-.809.205-.221.438-.388.699-.502.26-.113.53-.17.81-.17.355 0 .662.061.92.184.26.123.474.294.64.515.165.218.288.476.367.773.08.294.12.617.12.966v.382h-3.717v-.695h2.866v-.064a2.12 2.12 0 0 0-.138-.644 1.15 1.15 0 0 0-.368-.515c-.169-.135-.399-.203-.69-.203-.194 0-.371.042-.534.124-.163.08-.302.2-.419.359-.116.16-.207.354-.271.584a2.98 2.98 0 0 0-.097.796v.194c0 .236.032.458.097.667.067.205.164.386.29.543.128.156.283.279.464.368.184.089.393.133.626.133.3 0 .555-.061.764-.184.208-.123.39-.287.547-.492l.516.409a2.363 2.363 0 0 1-.41.465 1.96 1.96 0 0 1-.612.359 2.37 2.37 0 0 1-.85.138Zm5.829-1.413a.716.716 0 0 0-.083-.34c-.052-.107-.16-.204-.326-.29-.163-.089-.408-.166-.737-.23a5.748 5.748 0 0 1-.75-.207 2.266 2.266 0 0 1-.565-.29 1.214 1.214 0 0 1-.355-.4 1.115 1.115 0 0 1-.124-.538c0-.197.043-.382.13-.557a1.47 1.47 0 0 1 .372-.465c.162-.135.357-.24.584-.317.227-.077.48-.115.76-.115.398 0 .738.07 1.02.211a1.6 1.6 0 0 1 .65.566c.15.233.224.493.224.778h-.85a.728.728 0 0 0-.125-.4.917.917 0 0 0-.354-.327 1.143 1.143 0 0 0-.566-.129c-.236 0-.428.037-.575.111a.737.737 0 0 0-.317.271.683.683 0 0 0-.051.598.541.541 0 0 0 .175.198c.083.058.2.113.35.165.15.053.341.105.575.157.407.092.743.202 1.007.331.264.129.46.287.589.474.129.187.193.414.193.681a1.326 1.326 0 0 1-.53 1.067c-.168.129-.37.23-.606.304a2.73 2.73 0 0 1-.787.106c-.438 0-.81-.078-1.113-.235a1.721 1.721 0 0 1-.69-.607 1.455 1.455 0 0 1-.235-.787h.856c.012.233.08.419.202.557.123.135.273.231.451.29.178.055.354.082.53.082.232 0 .427-.03.583-.092a.806.806 0 0 0 .364-.253.586.586 0 0 0 .124-.368Zm3.961.713c.203 0 .39-.041.561-.124.172-.083.313-.196.424-.34a.95.95 0 0 0 .188-.502h.81a1.519 1.519 0 0 1-.299.824 2.054 2.054 0 0 1-1.684.842c-.374 0-.7-.066-.98-.198a1.945 1.945 0 0 1-.69-.543 2.43 2.43 0 0 1-.41-.791 3.34 3.34 0 0 1-.133-.953v-.193c0-.334.045-.65.134-.948a2.4 2.4 0 0 1 .41-.795c.183-.231.413-.411.69-.543a2.27 2.27 0 0 1 .98-.198c.389 0 .73.08 1.02.239.292.156.52.371.686.644.169.27.26.577.276.92h-.81a1.223 1.223 0 0 0-.174-.556 1.133 1.133 0 0 0-.998-.548c-.261 0-.48.052-.659.157a1.15 1.15 0 0 0-.418.414 1.92 1.92 0 0 0-.221.575 3.155 3.155 0 0 0-.065.639v.193c0 .218.022.433.065.644.043.212.115.404.216.576.104.171.244.309.419.414.178.101.398.151.662.151Zm3.791-3.588v4.196h-.851v-4.978h.828l.023.782Zm1.555-.81-.004.792a2.2 2.2 0 0 0-.414-.037c-.197 0-.37.03-.52.092-.15.061-.278.147-.382.257a1.25 1.25 0 0 0-.249.396c-.058.15-.096.316-.115.497l-.239.138c0-.301.03-.583.087-.847.062-.263.155-.496.281-.699.126-.205.285-.365.478-.478a1.34 1.34 0 0 1 .912-.152.63.63 0 0 1 .165.041Zm2.76 5.098a2.46 2.46 0 0 1-.943-.175 2.136 2.136 0 0 1-.722-.502 2.225 2.225 0 0 1-.46-.763 2.804 2.804 0 0 1-.161-.966v-.194c0-.404.06-.765.18-1.081.119-.319.282-.589.487-.809a2.1 2.1 0 0 1 .7-.502c.26-.113.53-.17.809-.17.356 0 .662.061.92.184.26.123.474.294.64.515.165.218.288.476.368.773.08.294.119.617.119.966v.382h-3.717v-.695h2.866v-.064a2.12 2.12 0 0 0-.138-.644 1.15 1.15 0 0 0-.368-.515c-.169-.135-.399-.203-.69-.203a1.142 1.142 0 0 0-.952.483c-.117.16-.207.354-.272.584-.064.23-.096.496-.096.796v.194c0 .236.032.458.096.667.068.205.164.386.29.543.129.156.284.279.465.368.184.089.392.133.626.133.3 0 .555-.061.763-.184.209-.123.391-.287.548-.492l.515.409a2.36 2.36 0 0 1-.41.465c-.165.147-.37.267-.611.359a2.37 2.37 0 0 1-.852.138Zm4.38-.861 1.362-4.209h.87l-1.79 4.978h-.571l.129-.769Zm-1.136-4.209 1.403 4.232.097.746h-.571l-1.803-4.978h.874Zm6.188 5.07c-.347 0-.661-.059-.943-.175a2.14 2.14 0 0 1-.723-.502 2.24 2.24 0 0 1-.46-.763 2.813 2.813 0 0 1-.161-.966v-.194c0-.404.06-.765.18-1.081.119-.319.282-.589.487-.809a2.1 2.1 0 0 1 .7-.502c.26-.113.53-.17.809-.17.356 0 .663.061.92.184.261.123.474.294.64.515.166.218.288.476.368.773.08.294.12.617.12.966v.382h-3.718v-.695h2.866v-.064a2.102 2.102 0 0 0-.138-.644 1.142 1.142 0 0 0-.368-.515c-.168-.135-.398-.203-.69-.203a1.165 1.165 0 0 0-.952.483c-.117.16-.207.354-.271.584a2.94 2.94 0 0 0-.097.796v.194c0 .236.032.458.097.667.067.205.164.386.289.543.129.156.284.279.465.368.184.089.393.133.626.133.3 0 .555-.061.763-.184.209-.123.391-.287.548-.492l.515.409a2.37 2.37 0 0 1-.409.465c-.166.147-.37.267-.612.359a2.368 2.368 0 0 1-.851.138Zm3.781-4.288v4.196h-.851v-4.978h.828l.023.782Zm1.555-.81-.004.792a2.177 2.177 0 0 0-.414-.037c-.197 0-.37.03-.52.092-.15.061-.278.147-.382.257a1.25 1.25 0 0 0-.248.396c-.059.15-.097.316-.115.497l-.24.138c0-.301.03-.583.088-.847.061-.263.155-.496.28-.699.126-.205.286-.365.479-.478a1.339 1.339 0 0 1 .911-.152c.08.012.135.026.165.041Zm6.059 4.155v-2.563a1.04 1.04 0 0 0-.119-.511.784.784 0 0 0-.35-.34 1.261 1.261 0 0 0-.58-.12 1.35 1.35 0 0 0-.565.111.975.975 0 0 0-.378.29.632.632 0 0 0-.133.386h-.851c0-.178.046-.354.138-.529.092-.175.224-.333.396-.474.174-.144.383-.258.625-.34.246-.086.519-.129.819-.129.362 0 .681.061.957.184.279.123.497.308.653.557.16.245.24.553.24.924v2.319c0 .166.013.342.041.529.031.187.075.348.133.483v.074h-.888a1.661 1.661 0 0 1-.101-.391 3.237 3.237 0 0 1-.037-.46Zm.148-2.167.009.598h-.86c-.243 0-.459.02-.649.06-.19.036-.35.093-.479.17a.762.762 0 0 0-.395.69c0 .156.035.299.106.428.07.129.176.231.317.308.144.074.32.11.529.11.261 0 .491-.055.69-.165.2-.111.357-.246.474-.405a.867.867 0 0 0 .193-.465l.364.41c-.022.129-.08.271-.175.428a2.033 2.033 0 0 1-.382.45c-.156.142-.343.26-.561.355a1.83 1.83 0 0 1-.727.138 1.9 1.9 0 0 1-.888-.198 1.514 1.514 0 0 1-.589-.529 1.401 1.401 0 0 1-.207-.75c0-.267.052-.502.156-.704.105-.205.255-.376.451-.511a2.14 2.14 0 0 1 .709-.312c.276-.071.584-.106.925-.106h.989Zm5.175 4.932v-5.935l.074-.957h.782v6.892h-.856Zm-3.344-4.348v-.097c0-.38.044-.725.133-1.035a2.37 2.37 0 0 1 .391-.805c.172-.224.379-.396.621-.515.246-.123.525-.184.838-.184.312 0 .587.055.823.165.239.108.442.266.607.474.169.206.302.454.401.746.098.291.165.621.202.989v.423c-.034.365-.1.693-.198.985a2.336 2.336 0 0 1-.4.745c-.166.205-.37.363-.612.474a2.023 2.023 0 0 1-.833.161 1.79 1.79 0 0 1-.828-.189 1.837 1.837 0 0 1-.621-.529 2.562 2.562 0 0 1-.391-.8 3.64 3.64 0 0 1-.133-1.008Zm.855-.097v.097c0 .248.026.483.079.704.052.218.132.411.239.58.11.168.248.302.414.4a1.2 1.2 0 0 0 .598.142c.282 0 .517-.061.704-.184a1.36 1.36 0 0 0 .455-.483c.114-.202.201-.418.263-.648v-1.109a2.23 2.23 0 0 0-.161-.492 1.62 1.62 0 0 0-.276-.428 1.274 1.274 0 0 0-.976-.419c-.233 0-.434.049-.602.147a1.219 1.219 0 0 0-.419.405 1.902 1.902 0 0 0-.239.584 3.013 3.013 0 0 0-.079.704Zm7.757 1.381v-3.828h.856v4.978h-.815l-.041-1.15Zm.161-1.049.354-.01c0 .332-.035.638-.106.921a1.95 1.95 0 0 1-.331.726 1.555 1.555 0 0 1-.602.483c-.249.114-.551.171-.907.171-.242 0-.464-.036-.667-.106a1.342 1.342 0 0 1-.515-.327 1.491 1.491 0 0 1-.336-.575 2.763 2.763 0 0 1-.115-.851v-3.211h.851v3.22c0 .224.025.41.074.557a.922.922 0 0 0 .207.345.77.77 0 0 0 .294.175c.111.034.224.05.341.05.362 0 .648-.069.86-.207.212-.141.363-.329.455-.565.096-.24.143-.505.143-.796Zm2.917-2.779v4.978h-.856v-4.978h.856Zm-.92-1.321a.51.51 0 0 1 .124-.349c.086-.095.212-.143.377-.143.163 0 .287.048.373.143a.49.49 0 0 1 .133.349.481.481 0 0 1-.133.341c-.086.092-.21.138-.373.138-.165 0-.291-.046-.377-.138a.501.501 0 0 1-.124-.341Zm2.3 5.848c0-.144.045-.265.133-.364.092-.101.224-.151.396-.151.172 0 .302.05.391.151.092.099.138.22.138.364a.506.506 0 0 1-.138.359c-.089.098-.219.147-.391.147-.172 0-.304-.049-.396-.147a.52.52 0 0 1-.133-.359Zm2.484 0c0-.144.045-.265.134-.364.092-.101.224-.151.395-.151.172 0 .303.05.391.151a.51.51 0 0 1 .139.364.502.502 0 0 1-.139.359c-.088.098-.219.147-.391.147-.171 0-.303-.049-.395-.147a.516.516 0 0 1-.134-.359Zm2.485 0c0-.144.044-.265.133-.364.092-.101.224-.151.396-.151.172 0 .302.05.391.151.092.099.138.22.138.364a.506.506 0 0 1-.138.359c-.089.098-.219.147-.391.147-.172 0-.304-.049-.396-.147a.515.515 0 0 1-.133-.359Z"/></g><defs><clipPath id="a"><rect width="570.034" height="375.705" fill="#fff" rx="14.133"/></clipPath><clipPath id="b"><rect width="32.977" height="32.977" x="18.844" y="61.683" fill="#fff" rx="16.489"/></clipPath></defs></svg>