<svg xmlns="http://www.w3.org/2000/svg" width="576" height="380" fill="none"><rect width="576" height="336.793" fill="#F6F7FA" rx="14.281"/><rect width="132.694" height="47.008" x="19.338" y="119.306" fill="#fff" rx="4.463"/><rect width="132.694" height="47.008" x="19.338" y="119.306" stroke="#D8DBDF" stroke-width=".595" rx="4.463"/><path fill="#1A96D4" d="M36.74 148.76c-.401 0-.74-.138-1.018-.416a1.385 1.385 0 0 1-.417-1.018v-9.032c0-.401.139-.74.417-1.018a1.383 1.383 0 0 1 1.017-.416h3.763c.191 0 .375.037.551.111a1.4 1.4 0 0 1 .46.307l1.17 1.168h6.262c.401 0 .74.139 1.018.417.278.278.417.617.417 1.018v7.445c0 .401-.14.74-.417 1.018a1.383 1.383 0 0 1-1.018.416H36.74Z"/><path fill="#313740" d="m63.455 147.034.4-2.209h-1.666l-.4 2.209h-1.285l.4-2.209h-.981l.18-1h.981l.353-1.971h-.981l.18-.999h.981l.41-2.209h1.285l-.41 2.209h1.667l.41-2.209h1.285l-.41 2.209h.98l-.18.999h-.98l-.353 1.971h.99l-.18 1h-.99l-.4 2.209h-1.286Zm-.733-5.18-.352 1.971h1.666l.352-1.971h-1.666Zm5.764-1.218v-.752c.743-.083 1.301-.257 1.676-.524h1.019v5.941h1.38v1.009h-4.056v-1.009h1.38v-4.665h-1.399Zm11.062 1.723c.647.165 1.11.4 1.39.705.28.304.419.761.419 1.37 0 .61-.21 1.099-.628 1.467-.42.361-1.035.542-1.847.542-.813 0-1.4-.171-1.762-.514-.362-.349-.584-.853-.666-1.514l1.038-.161c.038.374.165.666.38.875.222.204.53.305.924.305.844 0 1.266-.32 1.266-.961 0-.273-.08-.48-.238-.619-.159-.14-.463-.267-.914-.381l-.542-.133c-.635-.159-1.09-.394-1.362-.705-.273-.311-.41-.774-.41-1.39 0-.622.2-1.114.6-1.476.4-.361.99-.542 1.771-.542.787 0 1.352.174 1.695.523.349.343.565.844.647 1.505l-1.028.161c-.082-.787-.489-1.18-1.219-1.18-.4 0-.694.089-.885.266-.19.172-.286.4-.286.686 0 .286.073.498.22.638.145.139.425.263.837.371l.6.162Zm5.004 4.084c-.876 0-1.502-.234-1.876-.704-.374-.476-.562-1.193-.562-2.152 0-1.904.8-2.856 2.4-2.856.92 0 1.548.286 1.885.857.291.489.438 1.123.438 1.904v.343h-3.485c.006.596.105 1.018.295 1.266.19.241.505.362.943.362.704 0 1.079-.254 1.123-.762l1.047.038c-.101 1.136-.838 1.704-2.209 1.704Zm.733-4.417c-.16-.21-.42-.314-.781-.314-.362 0-.629.101-.8.304-.165.197-.273.514-.323.952h2.199c-.038-.425-.137-.739-.295-.942Zm6.64 2.761c0 1.085-.762 1.628-2.285 1.628-.666 0-1.161-.143-1.485-.429-.324-.292-.527-.714-.61-1.266l.99-.152c.07.609.448.914 1.134.914.692 0 1.037-.216 1.037-.648a.444.444 0 0 0-.21-.4c-.132-.088-.405-.18-.818-.276l-.438-.104c-.565-.134-.97-.327-1.218-.581-.242-.26-.362-.635-.362-1.124 0-1.079.736-1.618 2.209-1.618.634 0 1.107.146 1.418.438.317.286.514.704.59 1.257l-.99.142c-.07-.603-.422-.904-1.056-.904-.629 0-.943.216-.943.647 0 .178.06.315.18.41.128.089.382.177.763.266l.495.124c.565.14.97.337 1.218.59.254.248.381.61.381 1.086Zm5.197 0c0 1.085-.761 1.628-2.285 1.628-.666 0-1.161-.143-1.485-.429-.324-.292-.527-.714-.61-1.266l.991-.152c.07.609.447.914 1.133.914.692 0 1.038-.216 1.038-.648a.444.444 0 0 0-.21-.4c-.133-.088-.406-.18-.819-.276l-.438-.104c-.564-.134-.97-.327-1.218-.581-.241-.26-.362-.635-.362-1.124 0-1.079.736-1.618 2.209-1.618.635 0 1.108.146 1.418.438.318.286.515.704.59 1.257l-.99.142c-.07-.603-.422-.904-1.056-.904-.629 0-.943.216-.943.647 0 .178.06.315.181.41.127.089.381.177.762.266l.495.124c.565.14.971.337 1.219.59.253.248.38.61.38 1.086Zm3.217-4.056c1.384 0 2.076.631 2.076 1.895v3.684h-.828l-.362-.666c-.508.533-1.101.799-1.78.799-.483 0-.851-.133-1.105-.4-.248-.272-.371-.634-.371-1.085 0-.457.143-.825.428-1.104.286-.28.819-.476 1.6-.591l1.142-.171v-.457c0-.616-.292-.923-.876-.923-.552 0-.879.279-.98.837l-.99-.295c.24-1.015.923-1.523 2.046-1.523Zm-.485 4.779c.431 0 .86-.212 1.285-.638v-.98l-.914.162c-.412.069-.685.181-.819.333a.76.76 0 0 0-.2.514c0 .19.057.34.172.447.114.108.273.162.476.162Zm2.113-6.607c-.107.4-.244.685-.409.857-.159.171-.333.257-.524.257-.19 0-.434-.057-.733-.171-.298-.115-.495-.172-.59-.172-.184 0-.317.14-.4.419l-.714-.228c.108-.4.241-.686.4-.857.165-.172.343-.257.533-.257s.435.057.733.171c.305.114.505.171.6.171.184 0 .317-.139.4-.419l.704.229Zm3.111 6.084c.165.317.482.476.952.476.469 0 .787-.159.952-.476.165-.318.247-.784.247-1.4 0-.616-.082-1.082-.247-1.399-.165-.318-.483-.476-.952-.476-.47 0-.787.158-.952.476-.165.317-.248.783-.248 1.399s.083 1.082.248 1.4Zm3.427-1.4c0 1.904-.825 2.856-2.475 2.856-1.651 0-2.476-.952-2.476-2.856s.825-2.856 2.476-2.856c1.65 0 2.475.952 2.475 2.856Z"/><rect width="132.694" height="47.008" x="166.909" y="119.306" fill="#fff" rx="4.463"/><rect width="132.694" height="47.008" x="166.909" y="119.306" stroke="#D8DBDF" stroke-width=".595" rx="4.463"/><path fill="#1A96D4" d="M184.31 148.761c-.401 0-.74-.139-1.018-.417a1.384 1.384 0 0 1-.417-1.018v-9.032c0-.401.139-.74.417-1.018a1.387 1.387 0 0 1 1.018-.416h3.762a1.443 1.443 0 0 1 1.012.418l1.168 1.169h6.264c.4 0 .74.138 1.017.416.278.278.417.617.417 1.018v7.445c0 .401-.139.74-.417 1.018a1.382 1.382 0 0 1-1.017.417H184.31Z"/><path fill="#313740" d="m211.025 147.034.4-2.209h-1.666l-.4 2.209h-1.285l.4-2.209h-.981l.181-1h.981l.352-1.97h-.981l.181-1h.981l.409-2.209h1.285l-.409 2.209h1.666l.41-2.209h1.285l-.409 2.209h.98l-.181 1h-.98l-.353 1.97h.99l-.18 1h-.991l-.399 2.209h-1.286Zm-.733-5.179-.352 1.97h1.666l.352-1.97h-1.666Zm7.621-2.628c.73 0 1.285.178 1.666.533.387.349.581.822.581 1.419 0 .361-.089.704-.267 1.028-.171.317-.425.66-.761 1.028l-1.904 2.066h3.037v1.009h-4.789v-.914l2.532-2.751a6.98 6.98 0 0 0 .667-.809c.139-.21.209-.442.209-.695a.865.865 0 0 0-.266-.648c-.178-.171-.442-.257-.791-.257-.73 0-1.114.356-1.152 1.066l-1.114-.161c.108-1.276.892-1.914 2.352-1.914Zm9.205 3.132c.648.165 1.111.4 1.39.705.28.304.419.761.419 1.371 0 .609-.209 1.098-.628 1.466-.419.362-1.035.543-1.847.543-.813 0-1.4-.172-1.761-.515-.362-.349-.584-.853-.667-1.513l1.038-.162c.038.374.165.666.381.876.222.203.53.304.923.304.844 0 1.266-.32 1.266-.961 0-.273-.079-.479-.238-.619-.158-.14-.463-.267-.914-.381l-.542-.133c-.635-.159-1.089-.394-1.362-.705-.273-.311-.409-.774-.409-1.39 0-.622.2-1.114.6-1.475.4-.362.99-.543 1.771-.543.787 0 1.352.174 1.694.524.349.342.565.844.648 1.504l-1.029.162c-.082-.787-.488-1.181-1.218-1.181-.4 0-.695.089-.886.267-.19.171-.285.4-.285.685 0 .286.073.498.219.638.146.14.425.263.838.371l.599.162Zm5.004 4.085c-.876 0-1.501-.235-1.876-.705-.374-.476-.561-1.193-.561-2.152 0-1.904.799-2.856 2.399-2.856.92 0 1.548.286 1.885.857.292.489.438 1.123.438 1.904v.343h-3.485c.007.597.105 1.019.295 1.266.191.241.505.362.943.362.704 0 1.079-.254 1.123-.762l1.048.038c-.102 1.137-.838 1.705-2.209 1.705Zm.733-4.418c-.159-.209-.419-.314-.781-.314-.362 0-.628.101-.8.304-.165.197-.272.515-.323.953h2.199c-.038-.426-.136-.74-.295-.943Zm6.64 2.761c0 1.085-.761 1.628-2.285 1.628-.666 0-1.161-.143-1.485-.428-.324-.292-.527-.714-.609-1.267l.99-.152c.07.609.447.914 1.133.914.692 0 1.038-.216 1.038-.647a.442.442 0 0 0-.21-.4c-.133-.089-.406-.181-.819-.276l-.437-.105c-.565-.133-.972-.327-1.219-.581-.241-.26-.362-.635-.362-1.123 0-1.079.736-1.619 2.209-1.619.635 0 1.107.146 1.418.438.318.286.515.705.591 1.257l-.99.143c-.07-.603-.422-.905-1.057-.905-.629 0-.943.216-.943.648 0 .177.061.314.181.409.127.089.381.178.762.267l.495.123c.565.14.971.337 1.219.591.253.247.38.609.38 1.085Zm5.198 0c0 1.085-.762 1.628-2.285 1.628-.667 0-1.162-.143-1.486-.428-.323-.292-.526-.714-.609-1.267l.99-.152c.07.609.448.914 1.133.914.692 0 1.038-.216 1.038-.647a.444.444 0 0 0-.209-.4c-.134-.089-.407-.181-.819-.276l-.438-.105c-.565-.133-.971-.327-1.219-.581-.241-.26-.362-.635-.362-1.123 0-1.079.737-1.619 2.209-1.619.635 0 1.108.146 1.419.438.317.286.514.705.59 1.257l-.99.143c-.07-.603-.422-.905-1.057-.905-.628 0-.942.216-.942.648 0 .177.06.314.18.409.127.089.381.178.762.267l.495.123c.565.14.971.337 1.219.591.254.247.381.609.381 1.085Zm3.217-4.056c1.383 0 2.075.632 2.075 1.895v3.684h-.828l-.362-.666c-.508.533-1.101.8-1.78.8-.483 0-.851-.134-1.105-.4-.247-.273-.371-.635-.371-1.086 0-.457.143-.825.428-1.104.286-.279.819-.476 1.6-.59l1.142-.172v-.457c0-.615-.292-.923-.875-.923-.553 0-.88.279-.981.838l-.99-.296c.241-1.015.923-1.523 2.047-1.523Zm-.486 4.78c.432 0 .86-.213 1.285-.638v-.981l-.914.162c-.412.07-.685.181-.818.333a.757.757 0 0 0-.2.514c0 .191.057.34.171.448.114.108.273.162.476.162Zm2.114-6.608c-.108.4-.245.686-.41.857-.158.171-.333.257-.523.257-.191 0-.435-.057-.733-.171-.299-.114-.495-.172-.591-.172-.184 0-.317.14-.4.419l-.714-.228c.108-.4.242-.686.4-.857.165-.171.343-.257.533-.257.191 0 .435.057.734.171.304.115.504.172.599.172.184 0 .318-.14.4-.419l.705.228Zm3.11 6.084c.165.317.482.476.952.476s.787-.159.952-.476c.165-.317.248-.784.248-1.4 0-.615-.083-1.082-.248-1.399-.165-.318-.482-.476-.952-.476s-.787.158-.952.476c-.165.317-.248.784-.248 1.399 0 .616.083 1.083.248 1.4Zm3.427-1.4c0 1.905-.825 2.857-2.475 2.857-1.65 0-2.475-.952-2.475-2.857 0-1.904.825-2.856 2.475-2.856 1.65 0 2.475.952 2.475 2.856Z"/><rect width="132.694" height="47.008" x="314.479" y="119.306" fill="#fff" rx="4.463"/><rect width="132.694" height="47.008" x="314.479" y="119.306" stroke="#D8DBDF" stroke-width=".595" rx="4.463"/><path fill="#1A96D4" d="M331.88 148.76c-.401 0-.74-.138-1.018-.416a1.387 1.387 0 0 1-.416-1.018v-9.032c0-.401.139-.74.416-1.018a1.384 1.384 0 0 1 1.018-.416h3.762c.192 0 .376.037.552.111.176.074.33.176.46.307l1.169 1.168h6.263c.401 0 .74.139 1.018.417.277.278.416.617.416 1.018v7.445c0 .401-.139.74-.416 1.018a1.384 1.384 0 0 1-1.018.416H331.88Z"/><path fill="#313740" d="m358.595 147.034.399-2.209h-1.666l-.399 2.209h-1.286l.4-2.209h-.981l.181-1h.981l.352-1.971h-.98l.181-.999h.98l.41-2.209h1.285l-.41 2.209h1.667l.409-2.209h1.285l-.409 2.209h.98l-.18.999h-.981l-.352 1.971h.99l-.181 1h-.99l-.4 2.209h-1.285Zm-.733-5.18-.353 1.971h1.666l.353-1.971h-1.666Zm7.459 3.58c.844 0 1.266-.336 1.266-1.009 0-.724-.454-1.085-1.362-1.085h-.704v-.933h.714c.45 0 .771-.096.961-.286.197-.19.296-.457.296-.8 0-.349-.102-.615-.305-.8-.197-.19-.486-.285-.866-.285-.711 0-1.086.358-1.124 1.076l-1.114-.153c.095-1.288.87-1.932 2.323-1.932.762 0 1.346.19 1.752.571.406.374.609.876.609 1.504 0 .705-.342 1.219-1.028 1.543.743.298 1.114.853 1.114 1.666 0 .571-.225 1.037-.676 1.399-.444.356-1.044.533-1.799.533-.756 0-1.333-.149-1.733-.447-.394-.298-.622-.759-.686-1.381l1.114-.142c.076.641.492.961 1.248.961Zm9.367-3.075c.647.165 1.11.4 1.39.705.279.304.419.761.419 1.37 0 .61-.21 1.099-.629 1.467-.419.361-1.034.542-1.847.542-.812 0-1.399-.171-1.761-.514-.362-.349-.584-.853-.667-1.514l1.038-.161c.038.374.165.666.381.875.222.204.53.305.924.305.844 0 1.266-.32 1.266-.961 0-.273-.08-.48-.238-.619-.159-.14-.464-.267-.914-.381l-.543-.133c-.635-.159-1.088-.394-1.361-.705-.273-.311-.41-.774-.41-1.39 0-.622.2-1.114.6-1.476.4-.361.99-.542 1.771-.542.787 0 1.352.174 1.695.523.349.343.564.844.647 1.505l-1.028.161c-.083-.787-.489-1.18-1.219-1.18-.4 0-.695.089-.885.266-.191.172-.286.4-.286.686 0 .286.073.498.219.638.146.139.425.263.838.371l.6.162Zm5.003 4.084c-.876 0-1.501-.234-1.875-.704-.375-.476-.562-1.193-.562-2.152 0-1.904.8-2.856 2.399-2.856.92 0 1.549.286 1.885.857.292.489.438 1.123.438 1.904v.343h-3.484c.006.596.104 1.018.295 1.266.19.241.504.362.942.362.705 0 1.079-.254 1.124-.762l1.047.038c-.102 1.136-.838 1.704-2.209 1.704Zm.733-4.417c-.158-.21-.419-.314-.78-.314-.362 0-.629.101-.8.304-.165.197-.273.514-.324.952h2.199c-.038-.425-.136-.739-.295-.942Zm6.641 2.761c0 1.085-.762 1.628-2.285 1.628-.667 0-1.162-.143-1.485-.429-.324-.292-.527-.714-.61-1.266l.99-.152c.07.609.448.914 1.133.914.692 0 1.038-.216 1.038-.648a.445.445 0 0 0-.209-.4c-.134-.088-.407-.18-.819-.276l-.438-.104c-.565-.134-.971-.327-1.219-.581-.241-.26-.362-.635-.362-1.124 0-1.079.737-1.618 2.209-1.618.635 0 1.108.146 1.419.438.317.286.514.704.59 1.257l-.99.142c-.07-.603-.422-.904-1.057-.904-.628 0-.942.216-.942.647 0 .178.06.315.18.41.127.089.381.177.762.266l.495.124c.565.14.971.337 1.219.59.254.248.381.61.381 1.086Zm5.197 0c0 1.085-.762 1.628-2.285 1.628-.666 0-1.161-.143-1.485-.429-.324-.292-.527-.714-.61-1.266l.991-.152c.069.609.447.914 1.133.914.691 0 1.037-.216 1.037-.648a.443.443 0 0 0-.209-.4c-.133-.088-.406-.18-.819-.276l-.438-.104c-.565-.134-.971-.327-1.218-.581-.242-.26-.362-.635-.362-1.124 0-1.079.736-1.618 2.209-1.618.634 0 1.107.146 1.418.438.317.286.514.704.59 1.257l-.99.142c-.07-.603-.422-.904-1.057-.904-.628 0-.942.216-.942.647 0 .178.06.315.181.41.127.089.381.177.761.266l.496.124c.564.14.971.337 1.218.59.254.248.381.61.381 1.086Zm3.217-4.056c1.384 0 2.076.631 2.076 1.895v3.684h-.829l-.362-.666c-.507.533-1.101.799-1.78.799-.482 0-.85-.133-1.104-.4-.248-.272-.372-.634-.372-1.085 0-.457.143-.825.429-1.104.285-.28.819-.476 1.599-.591l1.143-.171v-.457c0-.616-.292-.923-.876-.923-.552 0-.879.279-.981.837l-.99-.295c.241-1.015.924-1.523 2.047-1.523Zm-.486 4.779c.432 0 .861-.212 1.286-.638v-.98l-.914.162c-.413.069-.686.181-.819.333a.762.762 0 0 0-.2.514c0 .19.057.34.171.447.115.108.273.162.476.162Zm2.114-6.607c-.108.4-.244.685-.409.857-.159.171-.334.257-.524.257s-.435-.057-.733-.171c-.298-.115-.495-.172-.59-.172-.184 0-.318.14-.4.419l-.714-.228c.108-.4.241-.686.4-.857.165-.172.342-.257.533-.257.19 0 .435.057.733.171.305.114.504.171.6.171.184 0 .317-.139.4-.419l.704.229Zm3.11 6.084c.165.317.483.476.952.476.47 0 .787-.159.952-.476.165-.318.248-.784.248-1.4 0-.616-.083-1.082-.248-1.399-.165-.318-.482-.476-.952-.476-.469 0-.787.158-.952.476-.165.317-.247.783-.247 1.399s.082 1.082.247 1.4Zm3.428-1.4c0 1.904-.825 2.856-2.476 2.856-1.65 0-2.475-.952-2.475-2.856s.825-2.856 2.475-2.856c1.651 0 2.476.952 2.476 2.856Z"/><rect width="123.174" height="27.967" x="19.338" y="19.339" stroke="#B6BCC3" stroke-width=".595" rx="4.463"/><path fill="#313740" d="M62.28 29.004h1.457v7.818h-1.456V33.47h-2.892v3.352h-1.457v-7.818h1.457v3.352h2.892v-3.352Zm3.476 1.692h1.435v6.126h-1.435v-6.126Zm.718-.728c-.536 0-.804-.275-.804-.825 0-.557.268-.835.804-.835.55 0 .824.278.824.835 0 .55-.275.825-.824.825Zm7.114 5.14c0 1.222-.856 1.832-2.57 1.832-.75 0-1.307-.16-1.671-.482-.364-.328-.593-.803-.686-1.424l1.114-.172c.079.686.504 1.029 1.275 1.029.778 0 1.167-.243 1.167-.729 0-.2-.078-.35-.235-.45-.15-.1-.457-.203-.921-.31l-.493-.118c-.636-.15-1.093-.368-1.371-.653-.271-.293-.407-.714-.407-1.264 0-1.214.828-1.821 2.485-1.821.714 0 1.246.164 1.596.493.357.321.578.792.664 1.413l-1.114.161c-.079-.678-.475-1.017-1.189-1.017-.707 0-1.06.242-1.06.728 0 .2.068.354.203.46.143.1.429.2.857.3l.557.14c.635.157 1.093.378 1.37.664.287.278.43.685.43 1.22Zm.556-3.48v-.932h.986v-1.114l1.435-.364v1.478h1.167v.932h-1.167v3.46c0 .306.043.524.128.653a.46.46 0 0 0 .397.193c.178 0 .371-.029.578-.086l.182.889c-.421.157-.8.235-1.135.235-.329 0-.593-.039-.793-.117a1.32 1.32 0 0 1-.45-.268c-.1-.107-.175-.25-.225-.429a3.151 3.151 0 0 1-.117-.931v-3.6h-.986Zm5.863 3.706c.185.357.542.535 1.07.535.53 0 .886-.178 1.072-.535.186-.357.278-.882.278-1.575 0-.692-.092-1.217-.278-1.574-.186-.357-.543-.536-1.071-.536-.529 0-.886.179-1.071.536-.186.357-.279.882-.279 1.574 0 .693.093 1.218.279 1.575Zm3.856-1.575c0 2.142-.929 3.213-2.785 3.213-1.857 0-2.785-1.07-2.785-3.213 0-2.142.928-3.213 2.785-3.213 1.856 0 2.785 1.071 2.785 3.213Zm-3.214-3.577-.482-.771 2.089-1.425.643 1.028-2.25 1.168Zm6.04 6.64h-1.436v-6.126h.675l.567.953c.493-.7 1.19-1.067 2.089-1.103v1.232c-.843.021-1.475.278-1.896.77v4.274Zm2.926-6.126h1.435v6.126h-1.435v-6.126Zm.717-.728c-.535 0-.803-.275-.803-.825 0-.557.268-.835.803-.835.55 0 .825.278.825.835 0 .55-.275.825-.825.825Zm3.816 2.195c-.178.343-.268.875-.268 1.596 0 .721.09 1.253.268 1.596.186.343.504.514.953.514.457 0 .782-.093.975-.278.2-.186.307-.479.321-.879l1.125.054c-.043.728-.257 1.278-.643 1.65-.378.37-1.003.556-1.874.556-1.021 0-1.717-.332-2.089-.996a3.509 3.509 0 0 1-.374-1.006 6.756 6.756 0 0 1-.097-1.21c0-.465.032-.872.097-1.222.07-.357.196-.692.374-1.007.365-.656 1.06-.985 2.089-.985.864 0 1.485.178 1.864.535.378.35.592.875.642 1.575l-1.114.15c-.014-.4-.121-.693-.321-.878-.193-.186-.518-.279-.975-.279-.45 0-.767.172-.953.514Zm5.753 3.17c.186.358.543.536 1.071.536.529 0 .886-.178 1.071-.535.186-.357.279-.882.279-1.575 0-.692-.093-1.217-.279-1.574-.185-.357-.542-.536-1.071-.536-.528 0-.885.179-1.07.536-.186.357-.28.882-.28 1.574 0 .693.094 1.218.28 1.575Zm3.856-1.574c0 2.142-.928 3.213-2.785 3.213-1.856 0-2.785-1.07-2.785-3.213 0-2.142.929-3.213 2.785-3.213 1.857 0 2.785 1.071 2.785 3.213Z"/><rect width="123.174" height="27.967" x="157.388" y="19.339" stroke="#B6BCC3" stroke-width=".595" rx="4.463"/><path fill="#313740" d="M181.47 29.004h1.896l2.399 7.818h-1.403l-.664-2.163h-2.571l-.653 2.163h-1.414l2.41-7.818Zm.943 1.381-.953 3.17h1.906l-.953-3.17Zm8.478 3.9c-.164.228-.414.41-.749.545-.336.129-.732.193-1.189.193-.45 0-.825-.053-1.125-.16l-.3.32c-.121.122-.182.24-.182.354 0 .172.118.257.354.257h2.281c.564 0 1.007.154 1.328.46.329.308.493.669.493 1.083 0 .414-.086.742-.257.985a1.484 1.484 0 0 1-.739.536c-.543.192-1.239.289-2.089.289-.842 0-1.492-.104-1.949-.31-.457-.2-.686-.547-.686-1.04 0-.235.068-.45.204-.642.135-.186.303-.329.503-.429-.435-.136-.653-.453-.653-.953 0-.329.128-.632.385-.91l.493-.515c-.335-.385-.503-.907-.503-1.563 0-.579.157-1.079.471-1.5.357-.493 1.007-.739 1.949-.739.407 0 .761.05 1.061.15h1.788v.846h-.707c.193.35.29.718.29 1.103 0 .379-.036.69-.107.932a2.228 2.228 0 0 1-.365.707Zm-1.96-2.786c-.699 0-1.049.429-1.049 1.286 0 .856.35 1.285 1.049 1.285.707 0 1.061-.429 1.061-1.285 0-.857-.354-1.286-1.061-1.286Zm-1.542 5.977c0 .257.114.421.343.493.235.071.621.107 1.156.107.536 0 .914-.043 1.136-.129.228-.078.343-.253.343-.525 0-.4-.279-.6-.836-.6H187.7c-.207.186-.311.404-.311.654Zm7.777-.504c-.985 0-1.688-.264-2.11-.792-.421-.536-.632-1.343-.632-2.42 0-2.143.9-3.214 2.699-3.214 1.036 0 1.743.321 2.121.964.329.55.493 1.264.493 2.142v.386h-3.92c.007.67.118 1.146.332 1.424.214.272.567.407 1.06.407.793 0 1.214-.285 1.264-.857l1.178.043c-.114 1.278-.942 1.917-2.485 1.917Zm.825-4.97c-.178-.235-.471-.353-.878-.353-.407 0-.707.114-.9.343-.186.221-.307.578-.364 1.071h2.474c-.043-.478-.153-.832-.332-1.06Zm4.225-.75c.671-.47 1.357-.706 2.057-.706.707 0 1.217.175 1.531.525.314.343.472.817.472 1.424v4.328h-1.436v-4.178c0-.364-.068-.62-.203-.77-.129-.15-.357-.226-.686-.226-.514 0-.992.16-1.435.482v4.691h-1.435v-6.126h.675l.46.557Zm7.413 5.72c-1.378 0-2.067-1.07-2.067-3.213 0-2.142.835-3.213 2.506-3.213.471 0 .936.086 1.392.257v-2.035l1.436-.107v8.161h-.932l-.396-.76c-.593.607-1.239.91-1.939.91Zm.568-1.103c.442 0 .864-.228 1.263-.685v-3.32a2.703 2.703 0 0 0-1.028-.215c-.514 0-.882.179-1.103.536-.221.357-.332.882-.332 1.574 0 1.407.4 2.11 1.2 2.11Zm6.864-5.323c1.557 0 2.335.71 2.335 2.132v4.145h-.931l-.407-.75c-.572.6-1.239.9-2.003.9-.543 0-.957-.15-1.243-.45-.278-.307-.418-.714-.418-1.221 0-.514.161-.929.482-1.243.322-.314.922-.535 1.8-.664l1.285-.193v-.514c0-.693-.328-1.039-.985-1.039-.621 0-.989.314-1.103.943l-1.114-.332c.271-1.143 1.039-1.714 2.302-1.714Zm-.546 5.377c.486 0 .968-.24 1.446-.718v-1.103l-1.028.182c-.464.079-.771.204-.921.375a.856.856 0 0 0-.225.578c0 .215.064.382.193.504.128.121.307.182.535.182Zm7.751-5.377c.857 0 1.457.246 1.8.74.614-.494 1.267-.74 1.96-.74.7 0 1.217.175 1.553.525.335.343.503.817.503 1.424v4.328h-1.435V32.73c0-.371-.068-.643-.203-.814-.136-.179-.375-.268-.718-.268-.486 0-.932.168-1.339.504.014.142.022.257.022.342v4.328h-1.436V32.73c0-.371-.071-.643-.214-.814-.143-.179-.418-.268-.825-.268-.4 0-.799.143-1.199.429v4.744h-1.436v-6.126h.761l.375.503c.578-.435 1.189-.653 1.831-.653Zm9.844 6.426c-.985 0-1.689-.264-2.11-.792-.421-.536-.632-1.343-.632-2.42 0-2.143.9-3.214 2.699-3.214 1.036 0 1.742.321 2.121.964.328.55.493 1.264.493 2.142v.386h-3.921c.008.67.118 1.146.333 1.424.214.272.567.407 1.06.407.792 0 1.214-.285 1.264-.857l1.178.043c-.114 1.278-.943 1.917-2.485 1.917Zm.825-4.97c-.179-.235-.472-.353-.879-.353-.407 0-.706.114-.899.343-.186.221-.307.578-.364 1.071h2.474c-.043-.478-.154-.832-.332-1.06Zm4.225-.75c.671-.47 1.357-.706 2.056-.706.707 0 1.218.175 1.532.525.314.343.471.817.471 1.424v4.328h-1.435v-4.178c0-.364-.068-.62-.203-.77-.129-.15-.357-.226-.686-.226-.514 0-.992.16-1.435.482v4.691h-1.435v-6.126h.674l.461.557Zm5.056.376v-.932h.986v-1.114l1.435-.364v1.478h1.167v.932h-1.167v3.46c0 .306.043.524.128.653a.46.46 0 0 0 .397.193c.178 0 .371-.029.578-.086l.182.889c-.421.157-.8.235-1.135.235-.329 0-.593-.039-.793-.117a1.32 1.32 0 0 1-.45-.268c-.1-.107-.175-.25-.224-.429a3.134 3.134 0 0 1-.118-.931v-3.6h-.986Zm5.863 3.706c.185.357.543.535 1.071.535.528 0 .885-.178 1.071-.535.186-.357.278-.882.278-1.575 0-.692-.092-1.217-.278-1.574-.186-.357-.543-.536-1.071-.536-.528 0-.886.179-1.071.536-.186.357-.279.882-.279 1.574 0 .693.093 1.218.279 1.575Zm3.856-1.575c0 2.142-.929 3.213-2.785 3.213-1.857 0-2.785-1.07-2.785-3.213 0-2.142.928-3.213 2.785-3.213 1.856 0 2.785 1.071 2.785 3.213Zm5.771 1.35c0 1.22-.857 1.831-2.571 1.831-.75 0-1.307-.16-1.671-.482-.364-.328-.592-.803-.685-1.424l1.114-.172c.078.686.503 1.029 1.274 1.029.778 0 1.168-.243 1.168-.729 0-.2-.079-.35-.236-.45-.15-.1-.457-.203-.921-.31l-.493-.118c-.635-.15-1.092-.368-1.371-.653-.271-.293-.407-.714-.407-1.264 0-1.214.829-1.821 2.485-1.821.714 0 1.246.164 1.596.493.357.321.578.792.664 1.413l-1.114.161c-.078-.678-.475-1.017-1.189-1.017-.707 0-1.06.242-1.06.728 0 .2.068.354.203.46.143.1.429.2.857.3l.557.14c.636.157 1.093.378 1.371.664.286.278.429.685.429 1.22Z"/><rect width="123.769" height="28.562" x="295.14" y="19.041" fill="#1A96D4" rx="4.76"/><path fill="#fff" d="M324.531 29.004h2.603c1.264 0 2.121.385 2.571 1.156.221.372.374.775.46 1.21.086.436.129.922.129 1.457 0 .529-.025.975-.075 1.34-.05.363-.147.72-.29 1.07a2.358 2.358 0 0 1-.546.846c-.507.493-1.257.74-2.249.74h-2.603v-7.82Zm2.41 1.124h-.953v5.57h.953c.764 0 1.282-.275 1.553-.825.229-.478.343-1.132.343-1.96 0-.828-.114-1.482-.343-1.96-.271-.55-.789-.825-1.553-.825Zm6.161 5.206c.186.357.543.535 1.071.535.529 0 .886-.178 1.072-.535.185-.357.278-.882.278-1.575 0-.692-.093-1.217-.278-1.574-.186-.357-.543-.536-1.072-.536-.528 0-.885.179-1.071.536-.185.357-.278.882-.278 1.574 0 .693.093 1.218.278 1.575Zm3.856-1.575c0 2.142-.928 3.213-2.785 3.213-1.856 0-2.784-1.07-2.784-3.213 0-2.142.928-3.213 2.784-3.213 1.857 0 2.785 1.071 2.785 3.213Zm2.472-1.596c-.178.343-.267.875-.267 1.596 0 .721.089 1.253.267 1.596.186.343.504.514.954.514.457 0 .781-.093.974-.278.2-.186.307-.479.322-.879l1.124.054c-.043.728-.257 1.278-.642 1.65-.379.37-1.004.556-1.875.556-1.021 0-1.717-.332-2.088-.996a3.483 3.483 0 0 1-.375-1.006 6.688 6.688 0 0 1-.097-1.21c0-.465.032-.872.097-1.222.071-.357.196-.692.375-1.007.364-.656 1.06-.985 2.088-.985.864 0 1.485.178 1.864.535.378.35.592.875.642 1.575l-1.113.15c-.015-.4-.122-.693-.322-.878-.193-.186-.517-.279-.974-.279-.45 0-.768.172-.954.514Zm6.439 4.81c-1.257 0-1.885-.65-1.885-1.95v-4.327h1.435v4.091c0 .372.071.647.214.825.15.172.397.257.739.257.486 0 .946-.228 1.382-.685v-4.488h1.435v6.126h-.932l-.407-.739c-.557.593-1.217.89-1.981.89Zm8.301-6.427c.857 0 1.457.246 1.8.74.614-.494 1.267-.74 1.96-.74.7 0 1.217.175 1.553.525.336.343.503.817.503 1.424v4.328h-1.435V32.73c0-.371-.068-.643-.203-.814-.136-.179-.375-.268-.718-.268-.486 0-.932.168-1.339.504.014.142.022.257.022.342v4.328h-1.436V32.73c0-.371-.071-.643-.214-.814-.143-.179-.418-.268-.825-.268-.4 0-.799.143-1.199.429v4.744h-1.436v-6.126h.761l.375.503c.578-.435 1.189-.653 1.831-.653Zm9.844 6.426c-.985 0-1.689-.264-2.11-.792-.421-.536-.632-1.343-.632-2.42 0-2.143.9-3.214 2.699-3.214 1.036 0 1.742.321 2.121.964.328.55.493 1.264.493 2.142v.386h-3.921c.008.67.118 1.146.333 1.424.214.272.567.407 1.06.407.792 0 1.214-.285 1.264-.857l1.178.043c-.114 1.278-.943 1.917-2.485 1.917Zm.825-4.97c-.179-.235-.471-.353-.879-.353-.407 0-.706.114-.899.343-.186.221-.307.578-.364 1.071h2.474c-.043-.478-.154-.832-.332-1.06Zm4.225-.75c.671-.47 1.357-.706 2.056-.706.707 0 1.218.175 1.532.525.314.343.471.817.471 1.424v4.328h-1.435v-4.178c0-.364-.068-.62-.203-.77-.129-.15-.357-.226-.686-.226-.514 0-.992.16-1.435.482v4.691h-1.435v-6.126h.674l.461.557Zm5.056.376v-.932h.986v-1.114l1.435-.364v1.478h1.167v.932h-1.167v3.46c0 .306.043.524.128.653a.46.46 0 0 0 .397.193c.178 0 .371-.029.578-.086l.182.889c-.421.157-.8.235-1.135.235-.329 0-.593-.039-.793-.117a1.32 1.32 0 0 1-.45-.268c-.1-.107-.175-.25-.224-.429a3.134 3.134 0 0 1-.118-.931v-3.6h-.986Zm5.863 3.706c.186.357.543.535 1.071.535.528 0 .885-.178 1.071-.535.186-.357.278-.882.278-1.575 0-.692-.092-1.217-.278-1.574-.186-.357-.543-.536-1.071-.536-.528 0-.885.179-1.071.536-.186.357-.279.882-.279 1.574 0 .693.093 1.218.279 1.575Zm3.856-1.575c0 2.142-.929 3.213-2.785 3.213-1.857 0-2.785-1.07-2.785-3.213 0-2.142.928-3.213 2.785-3.213 1.856 0 2.785 1.071 2.785 3.213Zm5.771 1.35c0 1.22-.857 1.831-2.571 1.831-.75 0-1.307-.16-1.671-.482-.364-.328-.592-.803-.685-1.424l1.114-.172c.078.686.503 1.029 1.274 1.029.779 0 1.168-.243 1.168-.729 0-.2-.079-.35-.236-.45-.15-.1-.457-.203-.921-.31l-.493-.118c-.635-.15-1.092-.368-1.371-.653-.271-.293-.407-.714-.407-1.264 0-1.214.829-1.821 2.485-1.821.714 0 1.246.164 1.596.493.357.321.578.792.664 1.413l-1.114.161c-.078-.678-.475-1.017-1.189-1.017-.707 0-1.06.242-1.06.728 0 .2.068.354.203.46.143.1.429.2.857.3l.557.14c.636.157 1.093.378 1.371.664.286.278.429.685.429 1.22Z"/><rect width="123.174" height="27.967" x="433.487" y="19.339" stroke="#B6BCC3" stroke-width=".595" rx="4.463"/><path fill="#313740" d="M476.081 29.004h4.199v1.124h-2.742v2.164h2.388v1.114h-2.388v3.416h-1.457v-7.818Zm7.634 1.542c1.556 0 2.335.71 2.335 2.132v4.145h-.932l-.407-.75c-.571.6-1.239.9-2.003.9-.543 0-.957-.15-1.242-.45-.279-.307-.418-.714-.418-1.221 0-.514.16-.929.482-1.243.321-.314.921-.535 1.799-.664l1.285-.193v-.514c0-.693-.328-1.039-.985-1.039-.621 0-.989.314-1.103.943l-1.114-.332c.271-1.143 1.039-1.714 2.303-1.714Zm-.546 5.377c.485 0 .967-.24 1.445-.718v-1.103l-1.028.182c-.464.079-.771.204-.921.375a.856.856 0 0 0-.225.578c0 .215.064.382.193.504.129.121.307.182.536.182Zm3.873-4.295v-.932h.986v-1.114l1.435-.364v1.478h1.167v.932h-1.167v3.46c0 .306.043.524.129.653a.457.457 0 0 0 .396.193c.178 0 .371-.029.578-.086l.182.889c-.421.157-.799.235-1.135.235-.328 0-.593-.039-.793-.117-.2-.079-.35-.168-.449-.268-.1-.107-.175-.25-.225-.429a3.134 3.134 0 0 1-.118-.931v-3.6h-.986Zm6.548 5.344c-1.256 0-1.885-.65-1.885-1.949v-4.327h1.436v4.091c0 .372.071.647.214.825.15.172.396.257.739.257.485 0 .946-.228 1.382-.685v-4.488h1.435v6.126h-.932l-.407-.739c-.557.593-1.218.89-1.982.89Zm6.77-.15h-1.435v-6.126h.675l.567.953c.493-.7 1.189-1.067 2.089-1.103v1.232c-.842.021-1.474.278-1.896.77v4.274Zm5.08-6.276c1.556 0 2.335.71 2.335 2.132v4.145h-.932l-.407-.75c-.572.6-1.239.9-2.003.9-.543 0-.957-.15-1.243-.45-.278-.307-.417-.714-.417-1.221 0-.514.16-.929.482-1.243.321-.314.921-.535 1.799-.664l1.285-.193v-.514c0-.693-.328-1.039-.985-1.039-.621 0-.989.314-1.103.943l-1.114-.332c.271-1.143 1.039-1.714 2.303-1.714Zm-.547 5.377c.486 0 .968-.24 1.446-.718v-1.103l-1.028.182c-.464.079-.771.204-.921.375a.856.856 0 0 0-.225.578c0 .215.064.382.193.504.128.121.307.182.535.182Zm9.165-.814c0 1.22-.857 1.831-2.57 1.831-.75 0-1.307-.16-1.671-.482-.364-.328-.593-.803-.686-1.424l1.114-.172c.079.686.504 1.029 1.275 1.029.778 0 1.167-.243 1.167-.729 0-.2-.078-.35-.235-.45-.15-.1-.457-.203-.921-.31l-.493-.118c-.636-.15-1.093-.368-1.371-.653-.271-.293-.407-.714-.407-1.264 0-1.214.828-1.821 2.485-1.821.714 0 1.246.164 1.596.493.357.321.578.792.664 1.413l-1.114.161c-.079-.678-.475-1.017-1.189-1.017-.707 0-1.06.242-1.06.728 0 .2.067.354.203.46.143.1.429.2.857.3l.557.14c.635.157 1.092.378 1.371.664.286.278.428.685.428 1.22Z"/><rect width="399.273" height="27.967" x="19.338" y="62.182" stroke="#B6BCC3" stroke-width=".595" rx="4.463"/><path fill="#6B727B" d="M37.715 77.954a1.09 1.09 0 0 0-.075-.418.797.797 0 0 0-.25-.335 1.969 1.969 0 0 0-.493-.283 6.88 6.88 0 0 0-.79-.274c-.335-.1-.638-.21-.907-.33-.27-.124-.5-.265-.693-.423a1.671 1.671 0 0 1-.441-.544 1.549 1.549 0 0 1-.154-.702 1.646 1.646 0 0 1 .628-1.311 2.25 2.25 0 0 1 .73-.39 2.97 2.97 0 0 1 .943-.14c.509 0 .94.097 1.293.293.356.192.627.444.813.757.186.31.28.642.28.995h-.893a1.37 1.37 0 0 0-.163-.674 1.121 1.121 0 0 0-.493-.465c-.22-.114-.499-.172-.837-.172-.319 0-.582.048-.79.144a1.045 1.045 0 0 0-.465.39 1.074 1.074 0 0 0-.149.563c0 .143.03.273.089.39.062.115.156.222.283.322.13.099.295.19.493.274a6.3 6.3 0 0 0 .72.242c.385.108.717.229.995.362.28.134.509.284.688.451.183.164.318.352.405.563.09.207.135.443.135.706 0 .276-.056.526-.168.749a1.628 1.628 0 0 1-.478.572c-.208.157-.458.28-.749.367-.288.083-.61.125-.967.125-.313 0-.621-.043-.925-.13a2.756 2.756 0 0 1-.823-.39 2.048 2.048 0 0 1-.59-.642 1.781 1.781 0 0 1-.219-.892h.893c0 .232.045.432.135.6.09.163.212.3.367.408.158.109.336.19.535.242.201.05.41.074.627.074.313 0 .578-.043.795-.13.217-.087.381-.21.493-.372a.96.96 0 0 0 .172-.572Zm4.002 1.804c-.35 0-.667-.059-.953-.176a2.161 2.161 0 0 1-.73-.507 2.254 2.254 0 0 1-.464-.772 2.83 2.83 0 0 1-.163-.976v-.195c0-.41.06-.773.181-1.093.121-.322.285-.595.493-.818.208-.223.443-.392.707-.507.263-.114.536-.172.818-.172.36 0 .67.062.93.186.263.124.478.298.646.521.167.22.291.48.372.781.08.297.12.623.12.976v.386h-3.756v-.702h2.897v-.065a2.141 2.141 0 0 0-.14-.65 1.17 1.17 0 0 0-.372-.521c-.17-.137-.403-.205-.697-.205a1.17 1.17 0 0 0-.962.488 1.82 1.82 0 0 0-.275.59 3.005 3.005 0 0 0-.097.805v.195c0 .239.032.463.097.674.069.208.166.39.293.549.13.158.287.282.47.371.186.09.396.135.632.135.304 0 .56-.062.772-.186.21-.124.395-.29.553-.497l.52.414c-.108.164-.246.32-.413.47a2.004 2.004 0 0 1-.618.362c-.242.093-.529.14-.86.14Zm3.896-7.233v7.14h-.865v-7.14h.865Zm3.468 7.233c-.35 0-.668-.059-.953-.176a2.163 2.163 0 0 1-.73-.507 2.254 2.254 0 0 1-.465-.772 2.83 2.83 0 0 1-.162-.976v-.195c0-.41.06-.773.18-1.093a2.46 2.46 0 0 1 .494-.818 2.11 2.11 0 0 1 .706-.507 2.03 2.03 0 0 1 .818-.172c.36 0 .67.062.93.186.264.124.48.298.646.521.168.22.292.48.372.781.08.297.121.623.121.976v.386h-3.756v-.702h2.896v-.065a2.144 2.144 0 0 0-.14-.65 1.17 1.17 0 0 0-.371-.521c-.17-.137-.403-.205-.698-.205a1.17 1.17 0 0 0-.962.488 1.82 1.82 0 0 0-.274.59 3.002 3.002 0 0 0-.098.805v.195c0 .239.033.463.098.674.068.208.166.39.293.549.13.158.286.282.47.371.185.09.396.135.632.135.303 0 .56-.062.771-.186.211-.124.395-.29.553-.497l.521.414c-.108.164-.246.32-.414.47a1.981 1.981 0 0 1-.618.362c-.242.093-.528.14-.86.14Zm4.974-.706c.205 0 .394-.042.567-.126a1.17 1.17 0 0 0 .428-.344.957.957 0 0 0 .19-.507h.819a1.533 1.533 0 0 1-.302.832 2.06 2.06 0 0 1-.72.619 2.09 2.09 0 0 1-.982.232c-.378 0-.708-.066-.99-.2a1.962 1.962 0 0 1-.697-.548 2.45 2.45 0 0 1-.414-.8 3.373 3.373 0 0 1-.135-.962v-.195c0-.338.045-.657.135-.958.093-.304.23-.572.414-.804.186-.233.418-.415.697-.549.282-.133.612-.2.99-.2.394 0 .738.08 1.032.242.295.158.526.375.693.65a1.9 1.9 0 0 1 .279.93h-.818a1.238 1.238 0 0 0-.177-.562 1.1 1.1 0 0 0-.41-.4 1.143 1.143 0 0 0-.599-.153c-.263 0-.485.053-.664.158a1.166 1.166 0 0 0-.424.418 1.956 1.956 0 0 0-.223.581 3.235 3.235 0 0 0-.065.647v.195c0 .22.022.437.065.65.044.215.117.408.219.582.105.173.246.313.423.418.18.103.403.154.67.154Zm3.905-4.417v5.03h-.864v-5.03h.864Zm-.93-1.334a.52.52 0 0 1 .126-.353c.087-.096.214-.144.381-.144.164 0 .29.048.377.144.09.096.134.214.134.353a.486.486 0 0 1-.134.344c-.087.093-.213.14-.377.14-.167 0-.294-.047-.381-.14a.506.506 0 0 1-.125-.344Zm2.083 3.905V77.1c0-.362.053-.699.158-1.009.105-.313.257-.584.456-.813.198-.233.438-.412.72-.54a2.24 2.24 0 0 1 .949-.195c.353 0 .67.065.953.196.285.127.527.306.725.539.201.23.355.5.46.813.105.31.158.647.158 1.01v.106c0 .363-.053.699-.158 1.009-.105.31-.259.581-.46.813a2.11 2.11 0 0 1-.72.54c-.28.127-.596.19-.95.19-.352 0-.67-.063-.952-.19a2.158 2.158 0 0 1-.725-.54 2.456 2.456 0 0 1-.456-.813 3.114 3.114 0 0 1-.158-1.009Zm.86-.107v.107c0 .251.03.488.089.711.058.22.147.416.264.586.121.17.272.305.451.404.18.097.39.145.628.145.236 0 .442-.048.618-.145a1.28 1.28 0 0 0 .446-.404c.118-.17.207-.366.265-.586.063-.223.093-.46.093-.71v-.108c0-.248-.03-.482-.093-.702a1.81 1.81 0 0 0-.27-.59 1.283 1.283 0 0 0-.445-.41 1.252 1.252 0 0 0-.623-.148c-.236 0-.444.05-.623.149a1.34 1.34 0 0 0-.447.409c-.117.17-.206.367-.264.59-.06.22-.089.454-.089.702Zm5.658-1.39v3.956h-.86v-5.03h.813l.047 1.074Zm-.205 1.25-.358-.013c.003-.344.054-.662.154-.953.099-.295.238-.55.418-.767a1.865 1.865 0 0 1 1.474-.684c.248 0 .47.034.67.103.197.065.366.17.506.316.142.145.25.334.325.567.075.23.112.51.112.841v3.296h-.865V76.36c0-.263-.039-.474-.116-.632a.715.715 0 0 0-.34-.349 1.218 1.218 0 0 0-.548-.111c-.214 0-.41.044-.586.134-.173.09-.324.214-.45.372a1.87 1.87 0 0 0-.294.544 1.987 1.987 0 0 0-.102.642ZM73 78.806v-2.59c0-.197-.04-.37-.12-.515a.791.791 0 0 0-.354-.344 1.28 1.28 0 0 0-.586-.121c-.217 0-.407.037-.572.112a.996.996 0 0 0-.381.293.642.642 0 0 0-.135.39h-.86c0-.18.047-.358.14-.535.093-.176.226-.336.4-.479a2 2 0 0 1 .632-.344c.248-.086.523-.13.827-.13.366 0 .688.062.967.186.282.124.502.312.66.563.161.248.242.56.242.934v2.343c0 .168.014.346.042.535.03.189.076.352.135.488v.074h-.898a1.622 1.622 0 0 1-.102-.395 3.185 3.185 0 0 1-.037-.465Zm.149-2.19.009.605h-.87c-.244 0-.463.02-.655.06a1.498 1.498 0 0 0-.483.172.818.818 0 0 0-.298.293.778.778 0 0 0-.102.405c0 .158.036.302.107.432.071.13.178.234.32.312.146.074.325.111.535.111a1.424 1.424 0 0 0 1.176-.577.88.88 0 0 0 .196-.469l.367.414c-.022.13-.08.274-.177.432a2.066 2.066 0 0 1-.953.814c-.217.093-.461.14-.734.14-.341 0-.64-.067-.897-.2a1.534 1.534 0 0 1-.595-.535 1.415 1.415 0 0 1-.21-.758c0-.27.053-.507.158-.711.106-.208.258-.38.456-.516.198-.14.437-.245.716-.316a3.74 3.74 0 0 1 .934-.107h1Zm2.924-1.19v4.24h-.86v-5.03h.837l.023.79Zm1.571-.818-.005.8a2.175 2.175 0 0 0-.418-.037c-.198 0-.373.03-.525.093a1.09 1.09 0 0 0-.386.26c-.105.112-.19.245-.251.4-.059.152-.098.32-.116.502l-.242.14c0-.304.03-.59.088-.856.062-.266.157-.502.284-.707.127-.207.288-.368.483-.483a1.358 1.358 0 0 1 .92-.153.649.649 0 0 1 .168.041Zm5.263.028v.66h-2.72v-.66h2.72Zm-1.8-1.222h.86v5.006c0 .17.027.3.08.386.052.087.12.144.204.172a.847.847 0 0 0 .27.042c.07 0 .145-.006.223-.019.08-.015.14-.027.181-.037l.005.702a2.01 2.01 0 0 1-.27.06 2.05 2.05 0 0 1-.395.033 1.34 1.34 0 0 1-.581-.125.935.935 0 0 1-.423-.419c-.103-.198-.154-.465-.154-.8v-5.001Zm5.774 5.392v-2.59c0-.197-.04-.37-.12-.515a.791.791 0 0 0-.354-.344 1.28 1.28 0 0 0-.586-.121c-.217 0-.407.037-.572.112a.996.996 0 0 0-.38.293.642.642 0 0 0-.136.39h-.86c0-.18.047-.358.14-.535.093-.176.226-.336.4-.479a2 2 0 0 1 .632-.344c.248-.086.524-.13.827-.13.366 0 .688.062.967.186.282.124.502.312.66.563.162.248.242.56.242.934v2.343c0 .168.014.346.042.535.031.189.076.352.135.488v.074h-.897a1.573 1.573 0 0 1-.103-.395 3.185 3.185 0 0 1-.037-.465Zm.149-2.19.01.605h-.87c-.245 0-.463.02-.656.06a1.498 1.498 0 0 0-.483.172.818.818 0 0 0-.298.293.778.778 0 0 0-.102.405c0 .158.036.302.107.432.071.13.178.234.32.312.147.074.325.111.535.111.264 0 .496-.056.698-.167.201-.112.36-.248.479-.41a.88.88 0 0 0 .195-.469l.367.414c-.022.13-.08.274-.177.432a2.066 2.066 0 0 1-.953.814 1.84 1.84 0 0 1-.734.14c-.341 0-.64-.067-.897-.2a1.534 1.534 0 0 1-.595-.535 1.415 1.415 0 0 1-.21-.758c0-.27.053-.507.159-.711.105-.208.257-.38.455-.516.198-.14.437-.245.716-.316a3.74 3.74 0 0 1 .934-.107h1Zm5.323-1.98h.78v4.923c0 .443-.09.822-.269 1.135-.18.313-.43.55-.753.71-.32.165-.688.247-1.106.247-.174 0-.379-.028-.614-.083a2.473 2.473 0 0 1-.688-.275 1.716 1.716 0 0 1-.563-.516l.451-.511c.211.254.431.43.66.53.233.1.462.149.689.149.272 0 .508-.051.706-.154a1.07 1.07 0 0 0 .46-.455c.112-.199.168-.444.168-.735v-3.858l.079-1.107Zm-3.464 2.571v-.097c0-.385.045-.733.135-1.046a2.52 2.52 0 0 1 .395-.814 1.773 1.773 0 0 1 1.455-.707c.317 0 .592.056.828.168.239.108.44.268.604.479.168.207.3.458.395.753.096.294.163.627.2 1v.427c-.034.369-.1.7-.2.995a2.347 2.347 0 0 1-.395.753 1.654 1.654 0 0 1-.604.479 2.006 2.006 0 0 1-.837.162c-.3 0-.573-.063-.818-.19a1.864 1.864 0 0 1-.623-.535 2.535 2.535 0 0 1-.4-.809 3.68 3.68 0 0 1-.135-1.018Zm.86-.097v.097c0 .251.025.487.075.707.053.22.132.413.237.58.108.168.246.3.414.396.167.093.367.14.6.14.285 0 .52-.061.706-.182.186-.12.333-.28.442-.479.111-.198.198-.413.26-.646v-1.12a2.289 2.289 0 0 0-.158-.493 1.517 1.517 0 0 0-.27-.428 1.165 1.165 0 0 0-.404-.302 1.342 1.342 0 0 0-.567-.111c-.236 0-.439.05-.61.148-.167.096-.305.23-.413.4a1.918 1.918 0 0 0-.237.586 3.18 3.18 0 0 0-.075.707Z"/><rect width="576" height="336.793" fill="#1D2229" fill-opacity=".2" rx="14.281"/><rect width="123.769" height="76.165" x="433.19" y="98.182" fill="#fff" rx="4.76"/><rect width="109.488" height="26.182" x="440.331" y="107.703" fill="#F0F1F2" rx="4.76"/><path fill="#313740" d="M454.868 117.343h1.295v6.95h-1.371l-2.751-4.722v4.722h-1.295v-6.95h1.371l2.751 4.732v-4.732Zm4.055 5.627c.165.317.482.476.952.476.469 0 .787-.159.952-.476.165-.317.247-.784.247-1.399 0-.616-.082-1.083-.247-1.4-.165-.317-.483-.476-.952-.476-.47 0-.787.159-.952.476-.165.317-.248.784-.248 1.4 0 .615.083 1.082.248 1.399Zm3.427-1.399c0 1.904-.825 2.856-2.475 2.856-1.65 0-2.476-.952-2.476-2.856 0-1.905.826-2.857 2.476-2.857s2.475.952 2.475 2.857Zm3.645 2.722h-1.419l-1.847-5.445h1.285l1.267 3.941 1.275-3.941h1.286l-1.847 5.445Zm4.693-5.579c1.383 0 2.075.632 2.075 1.895v3.684h-.828l-.362-.666c-.508.533-1.101.8-1.78.8-.483 0-.851-.134-1.105-.4-.247-.273-.371-.635-.371-1.085 0-.457.143-.826.428-1.105.286-.279.819-.476 1.6-.59l1.142-.172v-.457c0-.615-.292-.923-.876-.923-.552 0-.879.279-.98.838l-.99-.295c.241-1.016.923-1.524 2.047-1.524Zm-.486 4.78c.432 0 .86-.213 1.285-.638v-.981l-.914.162c-.412.07-.685.181-.818.333a.759.759 0 0 0-.2.514c0 .191.057.34.171.448.114.108.273.162.476.162Zm9.426-4.78c1.46 0 2.19.952 2.19 2.857 0 1.904-.743 2.856-2.228 2.856a4.53 4.53 0 0 1-1.238-.191v2.009l-1.275.172v-7.569h.609l.333.409c.54-.362 1.076-.543 1.609-.543Zm-.352.981c-.324 0-.632.089-.924.267v3.351c.299.089.603.133.914.133.457 0 .784-.159.981-.476.197-.324.295-.79.295-1.399 0-1.251-.422-1.876-1.266-1.876Zm5.693-.981c1.383 0 2.075.632 2.075 1.895v3.684h-.828l-.362-.666c-.508.533-1.101.8-1.78.8-.483 0-.851-.134-1.105-.4-.247-.273-.371-.635-.371-1.085 0-.457.143-.826.428-1.105.286-.279.819-.476 1.6-.59l1.142-.172v-.457c0-.615-.292-.923-.876-.923-.552 0-.879.279-.98.838l-.99-.295c.241-1.016.923-1.524 2.047-1.524Zm-.486 4.78c.432 0 .86-.213 1.285-.638v-.981l-.914.162c-.412.07-.685.181-.818.333a.759.759 0 0 0-.2.514c0 .191.057.34.171.448.114.108.273.162.476.162Zm8.147-.724c0 1.086-.762 1.628-2.285 1.628-.667 0-1.162-.143-1.486-.428-.323-.292-.526-.714-.609-1.266l.99-.153c.07.609.448.914 1.133.914.692 0 1.038-.216 1.038-.647a.444.444 0 0 0-.209-.4c-.134-.089-.407-.181-.819-.276l-.438-.105c-.565-.133-.971-.327-1.219-.581-.241-.26-.362-.634-.362-1.123 0-1.079.737-1.619 2.209-1.619.635 0 1.108.146 1.419.438.317.286.514.705.59 1.257l-.99.143c-.07-.603-.422-.905-1.057-.905-.628 0-.942.216-.942.648 0 .177.06.314.18.409.127.089.381.178.762.267l.495.124c.565.139.971.336 1.219.59.254.247.381.609.381 1.085Zm.494-3.094v-.828H494v-.991l1.275-.323v1.314h1.038v.828h-1.038v3.075c0 .273.039.467.115.581.082.114.2.171.352.171.159 0 .33-.025.514-.076l.162.79c-.375.14-.711.21-1.009.21-.292 0-.527-.035-.705-.105a1.166 1.166 0 0 1-.4-.238.908.908 0 0 1-.2-.381 2.827 2.827 0 0 1-.104-.828v-3.199h-.876Zm6.153-.962c1.384 0 2.076.632 2.076 1.895v3.684h-.828l-.362-.666c-.508.533-1.101.8-1.78.8-.483 0-.851-.134-1.105-.4-.247-.273-.371-.635-.371-1.085 0-.457.143-.826.428-1.105.286-.279.819-.476 1.6-.59l1.142-.172v-.457c0-.615-.292-.923-.876-.923-.552 0-.879.279-.98.838l-.99-.295c.241-1.016.923-1.524 2.046-1.524Zm-.485 4.78c.432 0 .86-.213 1.285-.638v-.981l-.914.162c-.412.07-.685.181-.819.333a.764.764 0 0 0-.2.514c0 .191.058.34.172.448.114.108.273.162.476.162Zm-46.723 24.792h1.686l2.132 6.95h-1.247l-.59-1.924h-2.285l-.581 1.924h-1.257l2.142-6.95Zm.838 1.228-.847 2.818h1.695l-.848-2.818Zm5.223 5.722h-1.276v-5.446h.6l.505.847c.438-.622 1.057-.949 1.856-.981v1.095c-.749.019-1.31.248-1.685.686v3.799Zm4.268-5.58c.596 0 1.136.166 1.618.496l.305-.362h.6v7.397l-1.276.172v-2.238c-.451.165-.866.248-1.247.248-1.479 0-2.219-.952-2.219-2.856s.74-2.857 2.219-2.857Zm.342 4.732c.311 0 .613-.057.905-.171v-3.351a1.853 1.853 0 0 0-.905-.229c-.856 0-1.285.625-1.285 1.876 0 1.25.429 1.875 1.285 1.875Zm5.55.981c-1.117 0-1.675-.578-1.675-1.733v-3.846h1.275v3.637c0 .33.064.574.191.733.133.152.352.228.657.228.431 0 .841-.203 1.228-.609v-3.989h1.276v5.446h-.829l-.361-.657c-.495.526-1.083.79-1.762.79Zm4.742-5.579h1.276v5.446h-1.276v-5.446Zm.638-.648c-.476 0-.714-.244-.714-.733 0-.495.238-.742.714-.742.489 0 .733.247.733.742 0 .489-.244.733-.733.733Zm4.839 6.094h-1.418l-1.847-5.446h1.285l1.266 3.941 1.276-3.941h1.285l-1.847 5.446Zm3.75-1.324c.166.318.483.476.953.476.469 0 .787-.158.952-.476.165-.317.247-.784.247-1.399 0-.616-.082-1.082-.247-1.4-.165-.317-.483-.476-.952-.476-.47 0-.787.159-.953.476-.165.318-.247.784-.247 1.4 0 .615.082 1.082.247 1.399Zm3.428-1.399c0 1.904-.825 2.856-2.475 2.856-1.651 0-2.476-.952-2.476-2.856s.825-2.857 2.476-2.857c1.65 0 2.475.953 2.475 2.857Z"/><rect width="123.769" height="28.562" x="433.19" y="61.884" fill="#1A96D4" rx="4.76"/><path fill="#fff" d="M472.07 71.846h1.896l2.399 7.82h-1.403l-.664-2.164h-2.571l-.653 2.163h-1.414l2.41-7.819Zm.942 1.382-.953 3.17h1.907l-.954-3.17Zm5.887 6.587c-1.378 0-2.067-1.07-2.067-3.213 0-2.142.835-3.213 2.506-3.213.471 0 .936.086 1.393.257V71.61l1.435-.107v8.161h-.932l-.396-.76c-.593.607-1.239.91-1.939.91Zm.568-1.103c.442 0 .864-.228 1.264-.686v-3.32a2.712 2.712 0 0 0-1.029-.214c-.514 0-.882.178-1.103.535-.221.358-.332.882-.332 1.575 0 1.407.4 2.11 1.2 2.11Zm4.712-5.173h1.435v6.126h-1.435V73.54Zm.717-.729c-.535 0-.803-.275-.803-.824 0-.557.268-.836.803-.836.55 0 .825.279.825.836 0 .55-.275.824-.825.824Zm3.816 2.196c-.178.343-.268.875-.268 1.596 0 .721.09 1.253.268 1.596.186.343.504.514.953.514.457 0 .782-.093.975-.279.2-.185.307-.478.321-.878l1.125.054c-.043.728-.257 1.278-.643 1.65-.378.37-1.003.556-1.874.556-1.021 0-1.717-.332-2.089-.996a3.508 3.508 0 0 1-.374-1.007 6.687 6.687 0 0 1-.097-1.21c0-.464.032-.871.097-1.221a3.36 3.36 0 0 1 .374-1.007c.365-.657 1.061-.985 2.089-.985.864 0 1.485.178 1.864.535.378.35.592.875.642 1.575l-1.114.15c-.014-.4-.121-.693-.321-.879-.193-.185-.518-.278-.975-.278-.449 0-.767.171-.953.514Zm4.661-1.467h1.435v6.126h-1.435V73.54Zm.717-.729c-.535 0-.803-.275-.803-.824 0-.557.268-.836.803-.836.55 0 .825.279.825.836 0 .55-.275.824-.825.824Zm3.827 5.367c.186.356.543.535 1.071.535.528 0 .885-.178 1.071-.535.186-.358.279-.882.279-1.575s-.093-1.217-.279-1.575c-.186-.356-.543-.535-1.071-.535-.528 0-.885.178-1.071.535-.186.358-.279.882-.279 1.575s.093 1.218.279 1.575Zm3.856-1.575c0 2.142-.928 3.213-2.785 3.213-1.857 0-2.785-1.07-2.785-3.213 0-2.142.928-3.213 2.785-3.213 1.857 0 2.785 1.07 2.785 3.213Zm2.525-2.506c.672-.472 1.357-.707 2.057-.707.707 0 1.217.175 1.531.525.315.342.472.817.472 1.424v4.327h-1.435v-4.177c0-.364-.068-.621-.204-.771-.129-.15-.357-.225-.685-.225-.515 0-.993.16-1.436.482v4.691h-1.435V73.54h.675l.46.557Zm8.12-.707c1.557 0 2.335.71 2.335 2.131v4.145h-.932l-.407-.75c-.571.6-1.239.9-2.003.9-.542 0-.957-.15-1.242-.45-.279-.307-.418-.714-.418-1.22 0-.515.161-.929.482-1.243.321-.314.921-.536 1.799-.664l1.286-.193v-.514c0-.693-.329-1.039-.986-1.039-.621 0-.989.314-1.103.942l-1.114-.331c.272-1.143 1.039-1.714 2.303-1.714Zm-.546 5.377c.485 0 .967-.24 1.446-.718v-1.103l-1.028.182c-.465.078-.772.203-.922.375a.856.856 0 0 0-.225.578c0 .214.065.382.193.504.129.12.307.182.536.182Zm6.219.9h-1.435v-6.127h.675l.568.953c.492-.7 1.188-1.068 2.088-1.103v1.232c-.842.02-1.474.278-1.896.77v4.274Z"/><rect width="358.81" height="166.81" x="108.893" y="212.429" fill="#fff" rx="9.521"/><path fill="#1A96D4" d="M133.579 228.892h1.457v7.818h-1.543l-3.095-5.312v5.312h-1.457v-7.818h1.543l3.095 5.323v-5.323Zm4.561 6.33c.186.357.543.535 1.071.535.529 0 .886-.178 1.071-.535.186-.357.279-.882.279-1.575 0-.692-.093-1.217-.279-1.574-.185-.357-.542-.536-1.071-.536-.528 0-.885.179-1.071.536-.185.357-.278.882-.278 1.574 0 .693.093 1.218.278 1.575Zm3.856-1.575c0 2.142-.928 3.213-2.785 3.213-1.856 0-2.785-1.071-2.785-3.213 0-2.142.929-3.213 2.785-3.213 1.857 0 2.785 1.071 2.785 3.213Zm4.1 3.063H144.5l-2.078-6.126h1.446l1.425 4.434 1.435-4.434h1.446l-2.078 6.126Zm5.28-6.276c1.556 0 2.335.71 2.335 2.131v4.145h-.932l-.407-.749c-.572.599-1.239.899-2.003.899-.543 0-.957-.15-1.243-.449-.278-.307-.417-.715-.417-1.221 0-.515.16-.929.482-1.243.321-.314.921-.535 1.799-.664l1.285-.193v-.514c0-.693-.328-1.039-.985-1.039-.621 0-.989.314-1.103.943l-1.114-.332c.271-1.143 1.039-1.714 2.303-1.714Zm-.547 5.377c.486 0 .968-.239 1.446-.718v-1.103l-1.028.182c-.464.079-.771.204-.921.375a.854.854 0 0 0-.225.578c0 .214.064.382.193.504.128.121.307.182.535.182Zm10.605-5.377c1.642 0 2.463 1.071 2.463 3.213 0 2.142-.835 3.213-2.506 3.213-.429 0-.893-.071-1.392-.214v2.26l-1.436.193v-8.515h.686l.375.46c.607-.407 1.21-.61 1.81-.61Zm-.397 1.103c-.364 0-.71.1-1.038.3v3.77c.335.1.678.15 1.028.15.514 0 .882-.178 1.103-.535.221-.365.332-.889.332-1.575 0-1.407-.475-2.11-1.425-2.11Zm6.405-1.103c1.556 0 2.335.71 2.335 2.131v4.145h-.932l-.407-.749c-.571.599-1.239.899-2.003.899-.543 0-.957-.15-1.243-.449-.278-.307-.417-.715-.417-1.221 0-.515.16-.929.482-1.243.321-.314.921-.535 1.799-.664l1.285-.193v-.514c0-.693-.328-1.039-.985-1.039-.621 0-.989.314-1.103.943l-1.114-.332c.271-1.143 1.039-1.714 2.303-1.714Zm-.547 5.377c.486 0 .968-.239 1.446-.718v-1.103l-1.028.182c-.464.079-.771.204-.921.375a.854.854 0 0 0-.225.578c0 .214.064.382.193.504.128.121.307.182.535.182Zm9.165-.814c0 1.221-.856 1.831-2.57 1.831-.75 0-1.307-.16-1.671-.482-.364-.328-.593-.803-.685-1.424l1.113-.172c.079.686.504 1.029 1.275 1.029.778 0 1.167-.243 1.167-.729 0-.2-.078-.35-.235-.45-.15-.1-.457-.203-.921-.31l-.493-.118c-.635-.15-1.092-.368-1.371-.653-.271-.293-.407-.714-.407-1.264 0-1.214.828-1.821 2.485-1.821.714 0 1.246.164 1.596.493.357.321.578.792.664 1.413l-1.114.161c-.079-.678-.475-1.017-1.189-1.017-.707 0-1.06.242-1.06.728 0 .2.068.353.203.46.143.1.429.2.857.3l.557.14c.636.157 1.093.378 1.371.664.286.278.428.685.428 1.221Zm.556-3.481v-.932h.986v-1.114l1.435-.364v1.478h1.167v.932h-1.167v3.459c0 .307.043.525.128.654a.461.461 0 0 0 .397.192c.178 0 .371-.028.578-.085l.182.889c-.421.157-.799.235-1.135.235-.329 0-.593-.039-.793-.117a1.32 1.32 0 0 1-.45-.268 1.027 1.027 0 0 1-.224-.429 3.13 3.13 0 0 1-.118-.931v-3.599h-.986Zm6.923-1.082c1.557 0 2.335.71 2.335 2.131v4.145h-.932l-.407-.749c-.571.599-1.239.899-2.003.899-.542 0-.956-.15-1.242-.449-.278-.307-.418-.715-.418-1.221 0-.515.161-.929.482-1.243.322-.314.921-.535 1.8-.664l1.285-.193v-.514c0-.693-.329-1.039-.985-1.039-.622 0-.989.314-1.104.943l-1.114-.332c.272-1.143 1.039-1.714 2.303-1.714Zm-.546 5.377c.486 0 .968-.239 1.446-.718v-1.103l-1.028.182c-.464.079-.771.204-.921.375a.854.854 0 0 0-.225.578c0 .214.064.382.192.504.129.121.308.182.536.182Z"/><path fill="#313740" d="M132.952 260.802h1.295v6.95h-1.371l-2.752-4.723v4.723h-1.294v-6.95h1.37l2.752 4.731v-4.731Zm4.054 5.626c.165.318.483.476.952.476.47 0 .787-.158.952-.476.165-.317.248-.784.248-1.399 0-.616-.083-1.082-.248-1.4-.165-.317-.482-.476-.952-.476-.469 0-.787.159-.952.476-.165.318-.247.784-.247 1.4 0 .615.082 1.082.247 1.399Zm3.428-1.399c0 1.904-.825 2.856-2.476 2.856-1.65 0-2.475-.952-2.475-2.856s.825-2.856 2.475-2.856c1.651 0 2.476.952 2.476 2.856Zm3.873-2.856c.761 0 1.294.219 1.599.657.546-.438 1.127-.657 1.742-.657.622 0 1.083.155 1.381.466.298.305.447.727.447 1.266v3.847h-1.275v-3.637c0-.33-.061-.571-.181-.724-.121-.158-.334-.238-.638-.238-.432 0-.829.149-1.19.448.012.127.019.228.019.304v3.847h-1.276v-3.637c0-.33-.063-.571-.19-.724-.127-.158-.372-.238-.734-.238-.355 0-.71.127-1.066.381v4.218h-1.276v-5.446h.676l.334.447c.514-.387 1.056-.58 1.628-.58Zm8.778 0c1.384 0 2.076.631 2.076 1.894v3.685h-.829l-.361-.667c-.508.533-1.102.8-1.781.8-.482 0-.85-.133-1.104-.4-.248-.273-.372-.635-.372-1.085 0-.457.143-.825.429-1.105.286-.279.819-.476 1.599-.59l1.143-.171v-.457c0-.616-.292-.924-.876-.924-.552 0-.879.28-.981.838l-.99-.295c.241-1.016.924-1.523 2.047-1.523Zm-.485 4.779c.431 0 .86-.213 1.285-.638v-.981l-.914.162c-.413.07-.686.181-.819.334a.76.76 0 0 0-.2.514c0 .19.057.339.172.447.114.108.272.162.476.162Zm8.159.933c-1.225 0-1.837-.952-1.837-2.856s.743-2.856 2.228-2.856c.419 0 .831.076 1.237.228v-1.809l1.276-.095v7.255h-.828l-.352-.676c-.527.539-1.102.809-1.724.809Zm.505-.981c.394 0 .768-.203 1.123-.609v-2.951a2.406 2.406 0 0 0-.914-.191c-.457 0-.783.159-.98.476-.197.318-.295.784-.295 1.4 0 1.25.355 1.875 1.066 1.875Zm6.102-4.731c1.384 0 2.076.631 2.076 1.894v3.685h-.829l-.361-.667c-.508.533-1.102.8-1.781.8-.482 0-.85-.133-1.104-.4-.248-.273-.372-.635-.372-1.085 0-.457.143-.825.429-1.105.286-.279.819-.476 1.599-.59l1.143-.171v-.457c0-.616-.292-.924-.876-.924-.552 0-.879.28-.981.838l-.99-.295c.241-1.016.924-1.523 2.047-1.523Zm-.485 4.779c.431 0 .86-.213 1.285-.638v-.981l-.914.162c-.413.07-.686.181-.819.334a.76.76 0 0 0-.2.514c0 .19.057.339.172.447.114.108.272.162.476.162Zm9.426-4.779c1.46 0 2.189.952 2.189 2.856s-.742 2.856-2.227 2.856a4.52 4.52 0 0 1-1.238-.19v2.008l-1.276.172v-7.569h.609l.334.409c.539-.362 1.076-.542 1.609-.542Zm-.353.98c-.323 0-.631.089-.923.267v3.351c.298.089.603.133.914.133.457 0 .784-.158.981-.476.196-.323.295-.79.295-1.399 0-1.251-.422-1.876-1.267-1.876Zm5.693-.98c1.384 0 2.076.631 2.076 1.894v3.685h-.829l-.361-.667c-.508.533-1.102.8-1.781.8-.482 0-.85-.133-1.104-.4-.248-.273-.372-.635-.372-1.085 0-.457.143-.825.429-1.105.286-.279.819-.476 1.599-.59l1.143-.171v-.457c0-.616-.292-.924-.876-.924-.552 0-.879.28-.981.838l-.99-.295c.241-1.016.924-1.523 2.047-1.523Zm-.485 4.779c.431 0 .86-.213 1.285-.638v-.981l-.914.162c-.413.07-.686.181-.819.334a.76.76 0 0 0-.2.514c0 .19.057.339.172.447.114.108.272.162.476.162Zm8.146-.724c0 1.086-.761 1.628-2.285 1.628-.666 0-1.161-.142-1.485-.428-.324-.292-.527-.714-.609-1.266l.99-.153c.07.61.447.914 1.133.914.692 0 1.038-.215 1.038-.647a.442.442 0 0 0-.21-.4c-.133-.089-.406-.181-.819-.276l-.438-.105c-.565-.133-.971-.327-1.218-.58-.241-.261-.362-.635-.362-1.124 0-1.079.736-1.618 2.209-1.618.634 0 1.107.146 1.418.438.318.285.514.704.591 1.256l-.991.143c-.069-.603-.422-.904-1.056-.904-.629 0-.943.215-.943.647 0 .178.06.314.181.409.127.089.381.178.762.267l.495.124c.565.139.971.336 1.218.59.254.248.381.609.381 1.085Zm.494-3.094v-.828h.876v-.99l1.276-.324v1.314h1.038v.828h-1.038v3.075c0 .273.038.467.114.581a.41.41 0 0 0 .352.171c.159 0 .331-.025.515-.076l.161.791c-.374.139-.71.209-1.009.209-.292 0-.527-.035-.704-.105a1.166 1.166 0 0 1-.4-.238.897.897 0 0 1-.2-.381 2.79 2.79 0 0 1-.105-.828v-3.199h-.876Zm6.154-.961c1.384 0 2.076.631 2.076 1.894v3.685h-.829l-.362-.667c-.507.533-1.101.8-1.78.8-.482 0-.85-.133-1.104-.4-.248-.273-.372-.635-.372-1.085 0-.457.143-.825.429-1.105.285-.279.819-.476 1.599-.59l1.143-.171v-.457c0-.616-.292-.924-.876-.924-.552 0-.879.28-.981.838l-.99-.295c.241-1.016.924-1.523 2.047-1.523Zm-.486 4.779c.432 0 .86-.213 1.286-.638v-.981l-.914.162c-.413.07-.686.181-.819.334a.76.76 0 0 0-.2.514c0 .19.057.339.171.447.115.108.273.162.476.162Z"/><rect width="320.132" height="27.967" x="128.232" y="279.57" stroke="#B6BCC3" stroke-width=".595" rx="4.463"/><path fill="#6B727B" d="M142.453 297.053h-1.414l.01-.729h1.404c.483 0 .886-.101 1.208-.303.323-.204.564-.489.726-.855.164-.369.246-.8.246-1.292v-.414a3.53 3.53 0 0 0-.139-1.032 2.087 2.087 0 0 0-.41-.767 1.72 1.72 0 0 0-.66-.479 2.276 2.276 0 0 0-.888-.163h-1.524v-.734h1.524c.444 0 .848.074 1.214.223.365.146.68.358.943.637.267.276.471.61.614 1.004.143.391.214.831.214 1.32v.405c0 .489-.071.931-.214 1.325a2.705 2.705 0 0 1-1.585 1.636 3.475 3.475 0 0 1-1.269.218Zm-.935-6.768v6.768h-.897v-6.768h.897Zm4.993 4.309v-.107c0-.362.053-.699.158-1.008.106-.313.257-.585.456-.814.198-.232.438-.412.72-.539a2.24 2.24 0 0 1 .949-.195c.353 0 .671.065.953.195.285.127.526.307.725.539.201.229.355.501.46.814.105.309.158.646.158 1.008v.107c0 .363-.053.699-.158 1.009-.105.31-.259.581-.46.814a2.118 2.118 0 0 1-.721.539c-.279.127-.595.19-.948.19s-.671-.063-.953-.19a2.153 2.153 0 0 1-.725-.539 2.465 2.465 0 0 1-.456-.814 3.125 3.125 0 0 1-.158-1.009Zm.86-.107v.107c0 .251.03.488.088.712.059.22.148.415.265.585.121.171.272.306.451.405.18.096.389.144.628.144.235 0 .442-.048.618-.144.18-.099.329-.234.446-.405a1.84 1.84 0 0 0 .265-.585c.062-.224.093-.461.093-.712v-.107c0-.248-.031-.482-.093-.702a1.78 1.78 0 0 0-.269-.59 1.283 1.283 0 0 0-.446-.409 1.257 1.257 0 0 0-.623-.149c-.236 0-.444.05-.623.149a1.331 1.331 0 0 0-.447.409c-.117.17-.206.367-.265.59-.058.22-.088.454-.088.702Zm6.811 1.953c.204 0 .393-.042.567-.126.173-.083.316-.198.427-.344a.954.954 0 0 0 .191-.506h.818a1.533 1.533 0 0 1-.302.832c-.183.254-.423.46-.721.618a2.086 2.086 0 0 1-.98.232 2.3 2.3 0 0 1-.991-.199 1.976 1.976 0 0 1-.697-.549 2.443 2.443 0 0 1-.414-.8 3.363 3.363 0 0 1-.135-.962v-.195c0-.338.045-.657.135-.958.093-.304.231-.572.414-.804.186-.232.418-.415.697-.549a2.3 2.3 0 0 1 .991-.199c.393 0 .737.08 1.032.241.294.158.525.375.692.651.171.273.264.583.279.93h-.818a1.24 1.24 0 0 0-.177-.563 1.096 1.096 0 0 0-.409-.399 1.134 1.134 0 0 0-.599-.154c-.264 0-.485.053-.665.158a1.156 1.156 0 0 0-.423.419 1.913 1.913 0 0 0-.223.581c-.044.21-.066.426-.066.646v.195c0 .22.022.437.066.651.043.214.116.407.218.581.105.174.246.313.423.418.18.103.403.154.67.154Zm6.048-.549v-3.867h.864v5.029h-.823l-.041-1.162Zm.162-1.06.358-.009c0 .335-.035.645-.107.93a1.985 1.985 0 0 1-.334.734 1.573 1.573 0 0 1-.609.488c-.251.115-.557.172-.916.172a2.04 2.04 0 0 1-.674-.106 1.354 1.354 0 0 1-.521-.331 1.482 1.482 0 0 1-.339-.581 2.78 2.78 0 0 1-.117-.86v-3.244h.861v3.254c0 .226.024.413.074.562a.935.935 0 0 0 .209.349.78.78 0 0 0 .298.176c.111.035.226.052.344.052.365 0 .655-.07.869-.21a1.19 1.19 0 0 0 .46-.571c.096-.242.144-.51.144-.805Zm2.869-1.808v4.03h-.865v-5.029h.818l.047.999Zm-.177 1.325-.4-.014c.003-.344.048-.662.135-.953a2.26 2.26 0 0 1 .386-.767c.17-.217.383-.384.637-.502a2.03 2.03 0 0 1 .883-.181c.235 0 .452.034.651.102.198.065.37.169.516.311.145.143.259.326.339.549.081.223.121.493.121.809v3.351h-.86v-3.309c0-.264-.045-.475-.135-.633a.776.776 0 0 0-.372-.344 1.346 1.346 0 0 0-.567-.111c-.254 0-.466.045-.637.135-.17.089-.307.213-.409.371-.102.159-.177.34-.223.544a3.078 3.078 0 0 0-.065.642Zm3.259-.474-.577.176c.003-.275.048-.54.135-.795.09-.254.219-.48.386-.678.17-.199.38-.355.627-.47.248-.118.532-.176.851-.176.27 0 .508.035.716.106.211.072.388.182.53.331.146.145.256.333.33.562.075.229.112.502.112.818v3.305h-.865v-3.314c0-.282-.045-.501-.135-.656a.704.704 0 0 0-.372-.33 1.488 1.488 0 0 0-.567-.097c-.189 0-.356.032-.502.097a1.028 1.028 0 0 0-.367.27c-.099.112-.175.24-.228.386-.05.145-.074.3-.074.465Zm6.499 3.272c-.351 0-.668-.058-.953-.176a2.158 2.158 0 0 1-.73-.507 2.236 2.236 0 0 1-.465-.772 2.816 2.816 0 0 1-.163-.976v-.195c0-.409.061-.773.182-1.093a2.44 2.44 0 0 1 .492-.818 2.1 2.1 0 0 1 .707-.506c.263-.115.536-.172.818-.172.36 0 .67.062.93.185.263.124.479.298.646.521.167.22.291.481.372.781.08.298.121.623.121.976v.386h-3.756v-.702h2.896v-.065a2.155 2.155 0 0 0-.14-.651 1.163 1.163 0 0 0-.372-.52c-.17-.137-.402-.205-.697-.205a1.166 1.166 0 0 0-.962.488 1.815 1.815 0 0 0-.274.591 2.95 2.95 0 0 0-.098.804v.195c0 .239.032.463.098.674.068.208.165.391.292.549.131.158.287.282.47.372.186.09.397.134.632.134.304 0 .561-.062.772-.185.211-.124.395-.29.553-.498l.521.414a2.42 2.42 0 0 1-.414.469c-.167.149-.373.27-.618.363a2.397 2.397 0 0 1-.86.139Zm3.821-4.049v3.956h-.86v-5.029h.813l.047 1.073Zm-.205 1.251-.358-.014c.004-.344.055-.662.154-.953.099-.294.238-.55.418-.767a1.87 1.87 0 0 1 1.474-.683c.248 0 .471.034.669.102.199.065.368.17.507.316.143.146.251.335.325.567.075.229.112.51.112.841v3.296h-.865v-3.305c0-.263-.038-.474-.116-.632a.715.715 0 0 0-.339-.349 1.226 1.226 0 0 0-.549-.111c-.214 0-.409.045-.586.135a1.39 1.39 0 0 0-.45.371 1.884 1.884 0 0 0-.396 1.186Zm6.713-2.324v.66h-2.719v-.66h2.719Zm-1.799-1.223h.86v5.007c0 .17.027.299.079.385a.374.374 0 0 0 .205.172.838.838 0 0 0 .269.042c.072 0 .146-.006.224-.018l.181-.037.004.701a2.016 2.016 0 0 1-.269.061c-.109.022-.24.032-.395.032-.211 0-.405-.041-.581-.125a.933.933 0 0 1-.423-.418c-.103-.199-.154-.465-.154-.8v-5.002Zm2.487 3.793v-.107c0-.362.053-.699.158-1.008.106-.313.258-.585.456-.814.198-.232.438-.412.72-.539.282-.13.599-.195.949-.195.353 0 .671.065.953.195.285.127.527.307.725.539.201.229.355.501.46.814.106.309.158.646.158 1.008v.107c0 .363-.052.699-.158 1.009-.105.31-.259.581-.46.814a2.109 2.109 0 0 1-.721.539c-.279.127-.595.19-.948.19s-.671-.063-.953-.19a2.153 2.153 0 0 1-.725-.539 2.483 2.483 0 0 1-.456-.814 3.125 3.125 0 0 1-.158-1.009Zm.86-.107v.107c0 .251.03.488.089.712.058.22.147.415.265.585.12.171.271.306.45.405.18.096.389.144.628.144.236 0 .442-.048.618-.144.18-.099.329-.234.447-.405.117-.17.206-.365.265-.585.062-.224.093-.461.093-.712v-.107c0-.248-.031-.482-.093-.702a1.803 1.803 0 0 0-.27-.59 1.283 1.283 0 0 0-.446-.409 1.257 1.257 0 0 0-.623-.149c-.236 0-.443.05-.623.149a1.319 1.319 0 0 0-.446.409c-.118.17-.207.367-.265.59a2.7 2.7 0 0 0-.089.702Zm7.726 1.232a.723.723 0 0 0-.083-.344c-.053-.108-.163-.206-.33-.293-.165-.089-.412-.167-.744-.232a5.998 5.998 0 0 1-.758-.209 2.304 2.304 0 0 1-.572-.293 1.236 1.236 0 0 1-.358-.405 1.134 1.134 0 0 1-.125-.543c0-.199.043-.386.13-.563a1.49 1.49 0 0 1 .377-.469 1.81 1.81 0 0 1 .59-.321 2.37 2.37 0 0 1 .767-.116c.403 0 .747.071 1.032.213.285.143.504.334.656.572.151.236.227.498.227.786h-.86a.737.737 0 0 0-.125-.405.934.934 0 0 0-.358-.33 1.166 1.166 0 0 0-.572-.13c-.239 0-.432.037-.581.112a.739.739 0 0 0-.321.274.69.69 0 0 0-.051.604.545.545 0 0 0 .177.2c.083.059.201.115.353.168.152.052.346.105.581.158a4.72 4.72 0 0 1 1.018.334c.267.131.465.29.595.479.13.189.196.419.196.688 0 .22-.047.422-.14.605a1.36 1.36 0 0 1-.395.474c-.171.13-.375.232-.614.307-.235.071-.5.106-.795.106-.443 0-.818-.079-1.125-.237a1.743 1.743 0 0 1-.697-.613 1.469 1.469 0 0 1-.237-.795h.865c.012.235.08.423.204.562.124.137.276.234.456.293.179.056.358.084.534.084.236 0 .433-.031.591-.093a.82.82 0 0 0 .367-.256.588.588 0 0 0 .125-.372Zm5.212-2.905v4.239h-.86v-5.029h.837l.023.79Zm1.571-.818-.005.799a2.243 2.243 0 0 0-.418-.037c-.198 0-.373.031-.525.093a1.091 1.091 0 0 0-.386.26 1.247 1.247 0 0 0-.251.4 1.893 1.893 0 0 0-.116.502l-.242.14c0-.304.029-.589.088-.856.062-.266.157-.502.284-.706a1.39 1.39 0 0 1 .483-.484 1.359 1.359 0 0 1 .921-.153c.08.012.136.026.167.042Zm2.789 5.15a2.47 2.47 0 0 1-.953-.176 2.168 2.168 0 0 1-.73-.507 2.249 2.249 0 0 1-.464-.772 2.816 2.816 0 0 1-.163-.976v-.195c0-.409.06-.773.181-1.093.121-.322.285-.595.493-.818a2.1 2.1 0 0 1 .707-.506c.263-.115.536-.172.818-.172.359 0 .669.062.929.185a1.7 1.7 0 0 1 .647.521c.167.22.291.481.372.781.08.298.12.623.12.976v.386h-3.756v-.702h2.896v-.065a2.124 2.124 0 0 0-.139-.651 1.178 1.178 0 0 0-.372-.52c-.17-.137-.403-.205-.697-.205a1.17 1.17 0 0 0-.963.488 1.836 1.836 0 0 0-.274.591c-.065.232-.097.5-.097.804v.195c0 .239.032.463.097.674.068.208.166.391.293.549.13.158.287.282.47.372.185.09.396.134.632.134.303 0 .561-.062.771-.185.211-.124.396-.29.554-.498l.52.414a2.381 2.381 0 0 1-.413.469 1.98 1.98 0 0 1-.619.363 2.39 2.39 0 0 1-.86.139Zm3.896-7.233v7.14h-.865v-7.14h.865Zm4.347 6.28v-2.589c0-.198-.041-.37-.121-.516a.796.796 0 0 0-.354-.344 1.273 1.273 0 0 0-.585-.121c-.217 0-.408.037-.572.112a.992.992 0 0 0-.381.293.641.641 0 0 0-.135.39h-.86c0-.18.046-.358.139-.534.093-.177.226-.337.4-.479a1.98 1.98 0 0 1 .632-.344c.248-.087.524-.13.828-.13.365 0 .688.062.967.185.282.124.502.312.66.563.161.248.242.559.242.934v2.343c0 .168.014.346.041.535.031.189.076.352.135.488v.074h-.897a1.622 1.622 0 0 1-.102-.395 3.15 3.15 0 0 1-.037-.465Zm.148-2.189.01.604h-.87c-.245 0-.463.02-.655.061a1.486 1.486 0 0 0-.484.172.775.775 0 0 0-.399.697c0 .158.035.302.106.432.072.13.179.234.321.312.146.074.324.111.535.111.263 0 .496-.055.697-.167.202-.112.361-.248.479-.409a.877.877 0 0 0 .195-.47l.367.414c-.021.13-.08.274-.176.432a2.07 2.07 0 0 1-.953.814 1.849 1.849 0 0 1-.735.139c-.341 0-.64-.066-.897-.199a1.546 1.546 0 0 1-.595-.535 1.42 1.42 0 0 1-.209-.758c0-.269.053-.507.158-.711a1.36 1.36 0 0 1 .456-.516c.198-.14.436-.245.715-.316.279-.071.591-.107.935-.107h.999Zm4.077 2.436c.205 0 .394-.042.567-.126.174-.083.317-.198.428-.344a.954.954 0 0 0 .191-.506h.818a1.54 1.54 0 0 1-.302.832c-.183.254-.423.46-.721.618a2.088 2.088 0 0 1-.981.232c-.378 0-.708-.066-.99-.199a1.976 1.976 0 0 1-.697-.549 2.443 2.443 0 0 1-.414-.8 3.363 3.363 0 0 1-.135-.962v-.195c0-.338.045-.657.135-.958.093-.304.231-.572.414-.804.186-.232.418-.415.697-.549.282-.133.612-.199.99-.199.394 0 .738.08 1.032.241.295.158.526.375.693.651.17.273.263.583.279.93h-.818a1.252 1.252 0 0 0-.177-.563 1.096 1.096 0 0 0-.409-.399 1.135 1.135 0 0 0-.6-.154c-.263 0-.485.053-.665.158a1.172 1.172 0 0 0-.423.419 1.966 1.966 0 0 0-.223.581c-.043.21-.065.426-.065.646v.195c0 .22.022.437.065.651.044.214.117.407.219.581.105.174.246.313.423.418.18.103.403.154.669.154Zm3.905-4.416v5.029h-.864v-5.029h.864Zm-.93-1.335c0-.139.042-.257.126-.353.087-.096.214-.144.381-.144.164 0 .29.048.377.144.09.096.135.214.135.353a.484.484 0 0 1-.135.344c-.087.093-.213.14-.377.14-.167 0-.294-.047-.381-.14a.504.504 0 0 1-.126-.344Zm2.083 3.905v-.107c0-.362.053-.699.158-1.008.106-.313.257-.585.456-.814.198-.232.438-.412.72-.539a2.24 2.24 0 0 1 .949-.195c.353 0 .671.065.953.195.285.127.527.307.725.539.201.229.355.501.46.814.105.309.158.646.158 1.008v.107c0 .363-.053.699-.158 1.009-.105.31-.259.581-.46.814a2.109 2.109 0 0 1-.721.539c-.279.127-.595.19-.948.19s-.671-.063-.953-.19a2.153 2.153 0 0 1-.725-.539 2.465 2.465 0 0 1-.456-.814 3.125 3.125 0 0 1-.158-1.009Zm.86-.107v.107c0 .251.03.488.088.712.059.22.148.415.265.585.121.171.272.306.451.405.18.096.389.144.628.144.235 0 .442-.048.618-.144.18-.099.329-.234.447-.405.117-.17.206-.365.265-.585.061-.224.092-.461.092-.712v-.107c0-.248-.031-.482-.092-.702a1.803 1.803 0 0 0-.27-.59 1.283 1.283 0 0 0-.446-.409 1.257 1.257 0 0 0-.623-.149c-.236 0-.444.05-.623.149a1.331 1.331 0 0 0-.447.409c-.117.17-.206.367-.265.59-.058.22-.088.454-.088.702Zm5.658-1.39v3.956h-.86v-5.029h.813l.047 1.073Zm-.205 1.251-.358-.014c.003-.344.054-.662.154-.953.099-.294.238-.55.418-.767a1.87 1.87 0 0 1 1.474-.683c.248 0 .471.034.669.102.198.065.367.17.507.316.142.146.251.335.325.567.075.229.112.51.112.841v3.296h-.865v-3.305c0-.263-.039-.474-.116-.632a.724.724 0 0 0-.339-.349 1.226 1.226 0 0 0-.549-.111c-.214 0-.409.045-.586.135a1.393 1.393 0 0 0-.451.371c-.124.159-.221.34-.293.544a1.999 1.999 0 0 0-.102.642Zm7.573 1.845v-2.589c0-.198-.04-.37-.121-.516a.79.79 0 0 0-.353-.344 1.277 1.277 0 0 0-.586-.121c-.217 0-.407.037-.572.112a.992.992 0 0 0-.381.293.641.641 0 0 0-.135.39h-.86c0-.18.047-.358.14-.534a1.56 1.56 0 0 1 .399-.479c.177-.146.388-.261.633-.344.248-.087.523-.13.827-.13.366 0 .688.062.967.185.282.124.502.312.66.563.161.248.242.559.242.934v2.343c0 .168.014.346.042.535.031.189.076.352.135.488v.074h-.898a1.622 1.622 0 0 1-.102-.395 3.15 3.15 0 0 1-.037-.465Zm.149-2.189.009.604h-.869c-.245 0-.464.02-.656.061a1.48 1.48 0 0 0-.483.172.775.775 0 0 0-.4.697c0 .158.036.302.107.432a.78.78 0 0 0 .321.312c.145.074.324.111.534.111.264 0 .496-.055.698-.167.201-.112.361-.248.478-.409a.887.887 0 0 0 .196-.47l.367.414c-.022.13-.081.274-.177.432a2.07 2.07 0 0 1-.953.814 1.847 1.847 0 0 1-.734.139c-.341 0-.64-.066-.897-.199a1.542 1.542 0 0 1-.596-.535 1.42 1.42 0 0 1-.209-.758c0-.269.053-.507.158-.711.106-.208.258-.38.456-.516.198-.14.437-.245.716-.316.279-.071.59-.107.934-.107h1Zm5.234 2.073v-6.164h.865v7.14h-.79l-.075-.976Zm-3.384-1.483v-.097c0-.385.046-.733.139-1.046.096-.316.231-.588.405-.814.176-.226.386-.4.627-.521a1.8 1.8 0 0 1 .819-.185c.316 0 .592.055.827.167.239.108.44.268.604.479.168.207.299.458.396.753.096.294.162.627.199.999v.428c-.034.369-.1.7-.199.995a2.361 2.361 0 0 1-.396.753 1.649 1.649 0 0 1-.604.479 2.013 2.013 0 0 1-.837.162c-.294 0-.564-.063-.809-.19a1.9 1.9 0 0 1-.627-.535 2.591 2.591 0 0 1-.405-.809 3.559 3.559 0 0 1-.139-1.018Zm.865-.097v.097c0 .251.024.487.074.707.053.22.133.414.242.581a1.2 1.2 0 0 0 .413.395c.168.093.368.14.6.14.285 0 .519-.061.702-.182.186-.121.335-.28.446-.479.112-.198.199-.413.261-.646v-1.12a2.478 2.478 0 0 0-.163-.493 1.51 1.51 0 0 0-.27-.428 1.17 1.17 0 0 0-.404-.302 1.318 1.318 0 0 0-.563-.111c-.235 0-.438.049-.609.148-.167.097-.305.23-.413.4a1.853 1.853 0 0 0-.242.586c-.05.22-.074.456-.074.707Zm4.495.097v-.107c0-.362.053-.699.158-1.008a2.38 2.38 0 0 1 .456-.814c.198-.232.438-.412.72-.539a2.24 2.24 0 0 1 .949-.195c.353 0 .67.065.952.195.286.127.527.307.726.539.201.229.355.501.46.814.105.309.158.646.158 1.008v.107c0 .363-.053.699-.158 1.009-.105.31-.259.581-.46.814a2.118 2.118 0 0 1-.721.539c-.279.127-.595.19-.948.19-.354 0-.671-.063-.953-.19a2.153 2.153 0 0 1-.725-.539 2.447 2.447 0 0 1-.456-.814 3.125 3.125 0 0 1-.158-1.009Zm.86-.107v.107c0 .251.029.488.088.712.059.22.148.415.265.585.121.171.271.306.451.405.18.096.389.144.628.144.235 0 .441-.048.618-.144.18-.099.329-.234.446-.405.118-.17.206-.365.265-.585.062-.224.093-.461.093-.712v-.107c0-.248-.031-.482-.093-.702a1.801 1.801 0 0 0-.269-.59 1.25 1.25 0 0 0-1.069-.558c-.236 0-.444.05-.623.149a1.331 1.331 0 0 0-.447.409c-.117.17-.206.367-.265.59a2.7 2.7 0 0 0-.088.702Zm7.726 1.232a.734.734 0 0 0-.083-.344c-.053-.108-.163-.206-.331-.293-.164-.089-.412-.167-.743-.232a5.998 5.998 0 0 1-.758-.209 2.304 2.304 0 0 1-.572-.293 1.236 1.236 0 0 1-.358-.405 1.134 1.134 0 0 1-.125-.543c0-.199.043-.386.13-.563.09-.177.215-.333.376-.469.165-.137.361-.244.591-.321a2.37 2.37 0 0 1 .767-.116c.403 0 .747.071 1.032.213.285.143.503.334.655.572.152.236.228.498.228.786h-.86a.745.745 0 0 0-.125-.405.934.934 0 0 0-.358-.33 1.166 1.166 0 0 0-.572-.13c-.239 0-.433.037-.581.112a.739.739 0 0 0-.321.274.692.692 0 0 0-.051.604.55.55 0 0 0 .176.2c.084.059.202.115.354.168.152.052.345.105.581.158a4.74 4.74 0 0 1 1.018.334c.266.131.465.29.595.479.13.189.195.419.195.688 0 .22-.046.422-.139.605a1.36 1.36 0 0 1-.395.474c-.171.13-.375.232-.614.307a2.757 2.757 0 0 1-.795.106c-.443 0-.818-.079-1.125-.237a1.736 1.736 0 0 1-.697-.613 1.469 1.469 0 0 1-.237-.795h.864c.013.235.081.423.205.562.124.137.276.234.455.293.18.056.358.084.535.084.236 0 .432-.031.59-.093a.818.818 0 0 0 .368-.256.594.594 0 0 0 .125-.372Zm7.317.474v-2.589c0-.198-.04-.37-.12-.516a.796.796 0 0 0-.354-.344 1.274 1.274 0 0 0-.586-.121c-.216 0-.407.037-.571.112a.995.995 0 0 0-.382.293.646.646 0 0 0-.134.39h-.86c0-.18.046-.358.139-.534.093-.177.226-.337.4-.479a1.98 1.98 0 0 1 .632-.344c.248-.087.524-.13.828-.13.365 0 .688.062.967.185.282.124.502.312.66.563.161.248.241.559.241.934v2.343c0 .168.014.346.042.535.031.189.076.352.135.488v.074h-.897a1.535 1.535 0 0 1-.102-.395 3.159 3.159 0 0 1-.038-.465Zm.149-2.189.009.604h-.869c-.245 0-.463.02-.655.061a1.477 1.477 0 0 0-.484.172.81.81 0 0 0-.297.293.766.766 0 0 0-.103.404c0 .158.036.302.107.432.072.13.179.234.321.312.146.074.324.111.535.111.263 0 .496-.055.697-.167.201-.112.361-.248.479-.409a.877.877 0 0 0 .195-.47l.367.414c-.021.13-.08.274-.176.432a2.07 2.07 0 0 1-.953.814 1.849 1.849 0 0 1-.735.139c-.341 0-.64-.066-.897-.199a1.539 1.539 0 0 1-.595-.535 1.41 1.41 0 0 1-.209-.758c0-.269.052-.507.158-.711.105-.208.257-.38.455-.516.199-.14.437-.245.716-.316.279-.071.591-.107.935-.107h.999Zm1.836.59v-.107c0-.362.053-.699.158-1.008.106-.313.258-.585.456-.814.198-.232.439-.412.721-.539.282-.13.598-.195.948-.195.353 0 .671.065.953.195.285.127.527.307.725.539.202.229.355.501.46.814.106.309.158.646.158 1.008v.107c0 .363-.052.699-.158 1.009-.105.31-.258.581-.46.814a2.105 2.105 0 0 1-.72.539c-.279.127-.595.19-.949.19-.353 0-.671-.063-.953-.19a2.153 2.153 0 0 1-.725-.539 2.483 2.483 0 0 1-.456-.814 3.125 3.125 0 0 1-.158-1.009Zm.86-.107v.107c0 .251.03.488.089.712.059.22.147.415.265.585.121.171.271.306.451.405.179.096.389.144.627.144.236 0 .442-.048.619-.144a1.3 1.3 0 0 0 .446-.405c.118-.17.206-.365.265-.585.062-.224.093-.461.093-.712v-.107c0-.248-.031-.482-.093-.702a1.803 1.803 0 0 0-.27-.59 1.274 1.274 0 0 0-.446-.409 1.254 1.254 0 0 0-.623-.149c-.236 0-.443.05-.623.149a1.328 1.328 0 0 0-.446.409c-.118.17-.206.367-.265.59a2.7 2.7 0 0 0-.089.702Zm11.376.414h.892a2.822 2.822 0 0 1-.367 1.148 2.153 2.153 0 0 1-.841.805c-.363.195-.815.292-1.358.292-.396 0-.757-.074-1.083-.223a2.401 2.401 0 0 1-.832-.632 2.969 2.969 0 0 1-.539-.99 4.226 4.226 0 0 1-.186-1.292v-.675c0-.474.062-.903.186-1.287.127-.388.308-.719.544-.995a2.42 2.42 0 0 1 .86-.637 2.745 2.745 0 0 1 1.129-.223c.512 0 .944.096 1.297.288.354.192.628.459.823.8.199.338.321.73.367 1.176h-.892a2.482 2.482 0 0 0-.242-.814 1.26 1.26 0 0 0-.502-.53c-.217-.124-.5-.186-.851-.186-.3 0-.565.058-.795.172a1.604 1.604 0 0 0-.571.489c-.152.21-.267.463-.344.757a3.836 3.836 0 0 0-.117.981v.684c0 .331.035.643.103.934.071.291.178.547.32.767.143.22.324.394.544.521.22.124.481.186.781.186.382 0 .685-.061.912-.182.226-.121.396-.294.511-.52a2.66 2.66 0 0 0 .251-.814Zm4.951 1.292v-2.589c0-.198-.04-.37-.121-.516a.79.79 0 0 0-.353-.344 1.277 1.277 0 0 0-.586-.121c-.217 0-.408.037-.572.112a.992.992 0 0 0-.381.293.641.641 0 0 0-.135.39h-.86c0-.18.047-.358.14-.534a1.56 1.56 0 0 1 .399-.479c.177-.146.388-.261.633-.344.248-.087.523-.13.827-.13.366 0 .688.062.967.185.282.124.502.312.66.563.161.248.242.559.242.934v2.343c0 .168.014.346.042.535.031.189.076.352.135.488v.074h-.898a1.622 1.622 0 0 1-.102-.395 3.15 3.15 0 0 1-.037-.465Zm.149-2.189.009.604h-.869c-.245 0-.464.02-.656.061a1.48 1.48 0 0 0-.483.172.775.775 0 0 0-.4.697c0 .158.036.302.107.432a.78.78 0 0 0 .321.312c.145.074.323.111.534.111a1.445 1.445 0 0 0 1.176-.576.887.887 0 0 0 .196-.47l.367.414c-.022.13-.081.274-.177.432a2.07 2.07 0 0 1-.953.814 1.847 1.847 0 0 1-.734.139c-.341 0-.64-.066-.898-.199a1.546 1.546 0 0 1-.595-.535 1.42 1.42 0 0 1-.209-.758c0-.269.053-.507.158-.711.106-.208.257-.38.456-.516.198-.14.437-.245.716-.316.279-.071.59-.107.934-.107h1Zm2.924-1.19v4.239h-.86v-5.029h.836l.024.79Zm1.571-.818-.005.799a2.243 2.243 0 0 0-.418-.037c-.198 0-.374.031-.525.093a1.091 1.091 0 0 0-.386.26 1.247 1.247 0 0 0-.251.4 1.893 1.893 0 0 0-.116.502l-.242.14c0-.304.029-.589.088-.856.062-.266.157-.502.284-.706a1.39 1.39 0 0 1 .483-.484 1.359 1.359 0 0 1 .921-.153c.08.012.136.026.167.042Zm1.729-2.083v7.14h-.864v-7.14h.864Zm1.153 4.681v-.107c0-.362.053-.699.158-1.008.106-.313.258-.585.456-.814.198-.232.438-.412.72-.539.282-.13.599-.195.949-.195.353 0 .671.065.953.195.285.127.527.307.725.539.201.229.355.501.46.814.106.309.158.646.158 1.008v.107c0 .363-.052.699-.158 1.009-.105.31-.259.581-.46.814a2.109 2.109 0 0 1-.721.539c-.279.127-.595.19-.948.19s-.671-.063-.953-.19a2.153 2.153 0 0 1-.725-.539 2.483 2.483 0 0 1-.456-.814 3.125 3.125 0 0 1-.158-1.009Zm.86-.107v.107c0 .251.03.488.089.712.058.22.147.415.265.585.12.171.271.306.45.405.18.096.389.144.628.144.236 0 .442-.048.618-.144.18-.099.329-.234.447-.405.117-.17.206-.365.265-.585.062-.224.093-.461.093-.712v-.107c0-.248-.031-.482-.093-.702a1.803 1.803 0 0 0-.27-.59 1.283 1.283 0 0 0-.446-.409 1.257 1.257 0 0 0-.623-.149c-.236 0-.443.05-.623.149a1.319 1.319 0 0 0-.446.409c-.118.17-.207.367-.265.59a2.7 2.7 0 0 0-.089.702Zm7.726 1.232a.723.723 0 0 0-.083-.344c-.053-.108-.163-.206-.33-.293-.165-.089-.412-.167-.744-.232a5.998 5.998 0 0 1-.758-.209 2.304 2.304 0 0 1-.572-.293 1.236 1.236 0 0 1-.358-.405 1.134 1.134 0 0 1-.125-.543c0-.199.043-.386.13-.563a1.49 1.49 0 0 1 .377-.469 1.81 1.81 0 0 1 .59-.321 2.37 2.37 0 0 1 .767-.116c.403 0 .747.071 1.032.213.285.143.504.334.656.572.151.236.227.498.227.786h-.86a.737.737 0 0 0-.125-.405.934.934 0 0 0-.358-.33 1.166 1.166 0 0 0-.572-.13c-.239 0-.432.037-.581.112a.739.739 0 0 0-.321.274.69.69 0 0 0-.051.604.545.545 0 0 0 .177.2c.083.059.201.115.353.168.152.052.346.105.581.158a4.72 4.72 0 0 1 1.018.334c.267.131.465.29.595.479.13.189.195.419.195.688 0 .22-.046.422-.139.605a1.36 1.36 0 0 1-.395.474c-.171.13-.375.232-.614.307-.235.071-.5.106-.795.106-.443 0-.818-.079-1.125-.237a1.736 1.736 0 0 1-.697-.613 1.469 1.469 0 0 1-.237-.795h.865c.012.235.08.423.204.562.124.137.276.234.456.293.179.056.358.084.534.084.236 0 .433-.031.591-.093a.82.82 0 0 0 .367-.256.588.588 0 0 0 .125-.372Z"/><rect width="82.711" height="27.967" x="272.827" y="336.694" stroke="#D8DBDF" stroke-width=".595" rx="4.463"/><path fill="#6B727B" d="M294.453 347.387c-.671 0-1.125.221-1.36.664-.236.436-.354 1.175-.354 2.217 0 1.035.118 1.774.354 2.217.235.443.689.664 1.36.664.521 0 .889-.143 1.103-.428.221-.286.339-.7.353-1.243l1.179.054c-.057.921-.279 1.617-.664 2.089-.379.471-1.036.706-1.971.706-1.221 0-2.064-.357-2.528-1.071a3.573 3.573 0 0 1-.503-1.242c-.093-.478-.14-1.06-.14-1.746 0-.685.047-1.264.14-1.735.1-.478.267-.896.503-1.253.464-.714 1.307-1.071 2.528-1.071.878 0 1.51.196 1.896.589.385.393.621.971.707 1.735l-1.179.182c-.043-.428-.175-.757-.396-.985-.221-.229-.564-.343-1.028-.343Zm6.094.514c1.557 0 2.335.71 2.335 2.131v4.145h-.932l-.407-.749c-.571.6-1.239.899-2.003.899-.543 0-.957-.15-1.242-.449-.279-.307-.418-.714-.418-1.221 0-.515.161-.929.482-1.243.321-.314.921-.535 1.799-.664l1.286-.193v-.514c0-.692-.329-1.039-.986-1.039-.621 0-.989.314-1.103.943l-1.114-.332c.271-1.143 1.039-1.714 2.303-1.714Zm-.546 5.377c.485 0 .967-.239 1.446-.718v-1.103l-1.029.182c-.464.079-.771.204-.921.375a.854.854 0 0 0-.225.578c0 .215.065.382.193.504.129.121.307.182.536.182Zm5.919-4.67c.672-.471 1.357-.707 2.057-.707.707 0 1.217.175 1.531.525.315.343.472.817.472 1.424v4.327h-1.436V350c0-.364-.067-.621-.203-.771-.129-.15-.357-.225-.686-.225-.514 0-.992.161-1.435.482v4.691h-1.435v-6.126h.675l.46.557Zm7.049.91c-.179.343-.268.875-.268 1.596 0 .721.089 1.253.268 1.596.186.343.503.514.953.514.457 0 .782-.093.975-.278.2-.186.307-.479.321-.879l1.125.054c-.043.728-.257 1.278-.643 1.649-.378.372-1.003.557-1.874.557-1.021 0-1.718-.332-2.089-.996a3.542 3.542 0 0 1-.375-1.006 6.795 6.795 0 0 1-.096-1.211c0-.464.032-.871.096-1.221.072-.357.197-.692.375-1.007.364-.657 1.061-.985 2.089-.985.864 0 1.485.179 1.863.536.379.349.593.874.643 1.574l-1.114.15c-.014-.4-.121-.693-.321-.878-.193-.186-.518-.279-.975-.279-.45 0-.767.172-.953.514Zm6.781 4.809c-.985 0-1.688-.264-2.11-.792-.421-.536-.632-1.343-.632-2.421 0-2.142.9-3.213 2.699-3.213 1.036 0 1.743.321 2.121.964.329.55.493 1.264.493 2.142v.386h-3.92c.007.671.118 1.146.332 1.424.214.272.567.407 1.06.407.793 0 1.214-.285 1.264-.857l1.178.043c-.114 1.278-.942 1.917-2.485 1.917Zm.825-4.969c-.179-.236-.471-.354-.878-.354-.407 0-.707.114-.9.343-.186.221-.307.578-.364 1.071h2.474c-.043-.478-.154-.832-.332-1.06Zm4.525 4.819h-1.435v-8.054l1.435-.193v8.247Zm4.169-6.276c1.557 0 2.335.71 2.335 2.131v4.145h-.932l-.407-.749c-.571.6-1.238.899-2.002.899-.543 0-.957-.15-1.243-.449-.278-.307-.418-.714-.418-1.221 0-.515.161-.929.482-1.243.322-.314.921-.535 1.8-.664l1.285-.193v-.514c0-.692-.328-1.039-.985-1.039-.622 0-.989.314-1.104.943l-1.113-.332c.271-1.143 1.038-1.714 2.302-1.714Zm-.546 5.377c.486 0 .968-.239 1.446-.718v-1.103l-1.028.182c-.464.079-.771.204-.921.375a.854.854 0 0 0-.225.578c0 .215.064.382.193.504.128.121.307.182.535.182Zm6.22.899h-1.436v-6.126h.675l.568.953c.493-.7 1.189-1.067 2.088-1.103v1.232c-.842.021-1.474.278-1.895.771v4.273Z"/><rect width="83.306" height="28.562" x="365.356" y="336.396" fill="#1A96D4" rx="4.76"/><path fill="#fff" d="M394.461 349.733c.728.185 1.25.449 1.564.792.314.343.471.857.471 1.542 0 .686-.236 1.236-.707 1.65-.471.407-1.164.61-2.078.61-.914 0-1.574-.192-1.981-.578-.407-.393-.657-.96-.75-1.703l1.168-.182c.042.421.185.75.428.985.25.229.596.343 1.039.343.95 0 1.424-.36 1.424-1.082 0-.307-.089-.539-.267-.696-.179-.157-.522-.3-1.029-.428l-.61-.15c-.714-.179-1.225-.443-1.532-.793-.307-.35-.46-.871-.46-1.564 0-.699.225-1.253.675-1.66.449-.407 1.113-.61 1.992-.61.885 0 1.521.196 1.906.589.393.385.636.949.729 1.692l-1.157.182c-.093-.885-.55-1.328-1.371-1.328-.45 0-.782.1-.996.3-.215.193-.322.45-.322.771s.083.561.247.718c.164.157.478.296.942.417l.675.183Zm5.661-1.832c1.557 0 2.335.71 2.335 2.131v4.145h-.932l-.407-.749c-.571.6-1.239.899-2.003.899-.542 0-.957-.15-1.242-.449-.279-.307-.418-.714-.418-1.221 0-.515.161-.929.482-1.243.321-.314.921-.535 1.8-.664l1.285-.193v-.514c0-.692-.329-1.039-.986-1.039-.621 0-.989.314-1.103.943l-1.114-.332c.272-1.143 1.039-1.714 2.303-1.714Zm-.546 5.377c.485 0 .967-.239 1.446-.718v-1.103l-1.028.182c-.465.079-.772.204-.922.375a.853.853 0 0 0-.224.578c0 .215.064.382.192.504.129.121.307.182.536.182Zm6.219.899h-1.435v-8.054l1.435-.193v8.247Zm4.727 0h-1.596l-2.078-6.126h1.446l1.424 4.434 1.436-4.434h1.446l-2.078 6.126Zm5.279-6.276c1.557 0 2.335.71 2.335 2.131v4.145h-.932l-.407-.749c-.571.6-1.239.899-2.003.899-.542 0-.956-.15-1.242-.449-.279-.307-.418-.714-.418-1.221 0-.515.161-.929.482-1.243.322-.314.921-.535 1.8-.664l1.285-.193v-.514c0-.692-.329-1.039-.985-1.039-.622 0-.989.314-1.104.943l-1.114-.332c.272-1.143 1.039-1.714 2.303-1.714Zm-.546 5.377c.486 0 .968-.239 1.446-.718v-1.103l-1.028.182c-.464.079-.771.204-.921.375a.854.854 0 0 0-.225.578c0 .215.064.382.192.504.129.121.307.182.536.182Zm6.219.899h-1.435v-6.126h.675l.568.953c.492-.7 1.189-1.067 2.088-1.103v1.232c-.842.021-1.474.278-1.896.771v4.273Z"/></svg>