<svg xmlns="http://www.w3.org/2000/svg" width="372" height="245" fill="none"><rect width="372" height="217.512" fill="#F6F7FA" rx="9.223"/><rect width="85.698" height="30.36" x="12.489" y="77.052" fill="#fff" rx="2.882"/><rect width="85.698" height="30.36" x="12.489" y="77.052" stroke="#D8DBDF" stroke-width=".384" rx="2.882"/><path fill="#1A96D4" d="M23.728 96.075a.894.894 0 0 1-.658-.27.894.894 0 0 1-.269-.657v-5.833c0-.259.09-.478.27-.657a.894.894 0 0 1 .657-.27h2.43a.91.91 0 0 1 .356.073.92.92 0 0 1 .297.198l.755.754h4.044c.26 0 .479.09.658.27a.89.89 0 0 1 .269.657v4.808c0 .26-.09.478-.27.658a.894.894 0 0 1-.657.269h-7.882Z"/><path fill="#313740" d="m40.981 95.199.259-1.427h-1.076l-.259 1.427h-.83l.259-1.427H38.7l.117-.645h.633l.228-1.273h-.633l.116-.646h.634l.264-1.426h.83l-.264 1.426H41.7l.264-1.426h.83l-.264 1.426h.633l-.117.646h-.633l-.227 1.273h.64l-.118.645h-.64l-.258 1.427h-.83Zm-.473-3.345-.227 1.273h1.075l.228-1.273h-1.076Zm3.723-.787v-.486c.48-.053.84-.166 1.082-.338h.658v3.837h.891v.651h-2.619v-.651h.892v-3.013h-.904Zm7.144 1.113c.418.106.717.258.898.455.18.197.27.492.27.885 0 .394-.135.71-.406.947-.27.234-.668.35-1.193.35-.524 0-.903-.11-1.137-.331-.234-.226-.377-.552-.43-.978l.67-.105c.024.242.106.43.246.566.143.131.342.197.596.197.545 0 .818-.207.818-.621 0-.177-.051-.31-.154-.4-.102-.09-.3-.172-.59-.246l-.35-.086c-.41-.102-.704-.254-.88-.455-.176-.2-.264-.5-.264-.898 0-.401.129-.72.387-.953.258-.233.64-.35 1.144-.35.508 0 .873.112 1.094.338.226.221.365.545.418.971l-.664.105c-.053-.508-.315-.763-.787-.763-.258 0-.449.058-.572.173a.567.567 0 0 0-.184.442c0 .185.047.322.141.412.095.09.275.17.541.24l.388.105Zm3.231 2.637c-.565 0-.97-.151-1.211-.454-.242-.308-.363-.771-.363-1.39 0-1.23.517-1.845 1.55-1.845.594 0 1 .185 1.217.554.189.315.283.725.283 1.23v.22h-2.25c.004.386.067.659.19.819.123.155.326.233.609.233.455 0 .697-.164.725-.492l.677.025c-.066.734-.541 1.1-1.427 1.1Zm.474-2.852c-.103-.136-.27-.203-.505-.203-.233 0-.405.065-.516.196-.107.127-.176.332-.209.615h1.42c-.024-.274-.088-.477-.19-.608Zm4.288 1.783c0 .7-.492 1.051-1.475 1.051-.43 0-.75-.092-.96-.277-.209-.188-.34-.46-.393-.817l.64-.099c.044.394.288.59.731.59.447 0 .67-.139.67-.418 0-.114-.045-.2-.135-.258-.086-.057-.262-.117-.529-.178l-.283-.068c-.364-.086-.627-.21-.787-.375-.155-.168-.233-.41-.233-.725 0-.697.475-1.046 1.426-1.046.41 0 .715.095.916.283.205.185.332.455.382.812l-.64.092c-.045-.39-.273-.584-.682-.584-.406 0-.61.14-.61.418 0 .115.04.203.118.264.082.058.246.115.492.172l.32.08c.364.09.627.218.786.382.164.16.246.393.246.7Zm3.357 0c0 .7-.492 1.051-1.476 1.051-.43 0-.75-.092-.959-.277-.209-.188-.34-.46-.393-.817l.639-.099c.045.394.289.59.732.59.447 0 .67-.139.67-.418 0-.114-.045-.2-.135-.258-.086-.057-.263-.117-.53-.178l-.282-.068c-.365-.086-.627-.21-.787-.375-.156-.168-.234-.41-.234-.725 0-.697.476-1.046 1.427-1.046.41 0 .715.095.916.283.205.185.332.455.381.812l-.64.092c-.044-.39-.272-.584-.682-.584-.406 0-.608.14-.608.418 0 .115.038.203.116.264.082.058.246.115.492.172l.32.08c.365.09.627.218.787.382.164.16.246.393.246.7Zm2.078-2.62c.893 0 1.34.408 1.34 1.224v2.38h-.535l-.234-.431c-.328.344-.71.516-1.15.516-.31 0-.549-.086-.713-.258-.16-.176-.24-.41-.24-.7 0-.296.093-.534.277-.714.185-.18.529-.307 1.033-.381l.738-.11v-.296c0-.398-.189-.596-.566-.596-.356 0-.567.18-.633.54l-.64-.19c.156-.656.597-.984 1.323-.984Zm-.314 3.087c.279 0 .555-.137.83-.412v-.633l-.59.104c-.267.045-.443.117-.529.215a.491.491 0 0 0-.13.332c0 .123.038.22.112.29a.43.43 0 0 0 .307.104Zm1.365-4.267c-.07.258-.158.442-.264.553a.455.455 0 0 1-.339.166 1.41 1.41 0 0 1-.473-.11c-.193-.074-.32-.111-.381-.111-.12 0-.205.09-.259.27l-.46-.147c.07-.258.155-.443.258-.554a.475.475 0 0 1 .344-.166c.123 0 .28.037.473.111.197.074.326.11.388.11.119 0 .205-.09.258-.27l.455.148Zm2.009 3.929c.106.205.311.307.615.307.303 0 .508-.102.615-.307.106-.205.16-.506.16-.904s-.054-.699-.16-.904c-.107-.205-.312-.307-.615-.307-.304 0-.509.102-.615.307-.107.205-.16.506-.16.904s.053.699.16.904Zm2.213-.904c0 1.23-.533 1.844-1.598 1.844-1.066 0-1.6-.614-1.6-1.844s.534-1.845 1.6-1.845c1.065 0 1.598.615 1.598 1.845Z"/><rect width="85.698" height="30.36" x="107.795" y="77.052" fill="#fff" rx="2.882"/><rect width="85.698" height="30.36" x="107.795" y="77.052" stroke="#D8DBDF" stroke-width=".384" rx="2.882"/><path fill="#1A96D4" d="M119.033 96.074a.893.893 0 0 1-.657-.269.896.896 0 0 1-.269-.657v-5.833c0-.26.09-.478.269-.658a.893.893 0 0 1 .657-.269h2.43c.124 0 .242.024.356.072a.916.916 0 0 1 .297.199l.755.754h4.045c.259 0 .478.09.657.27a.89.89 0 0 1 .269.656v4.81a.892.892 0 0 1-.269.656.893.893 0 0 1-.657.27h-7.883Z"/><path fill="#313740" d="m136.287 95.199.258-1.427h-1.076l-.258 1.427h-.83l.258-1.427h-.633l.117-.645h.633l.228-1.273h-.634l.117-.646h.633l.265-1.426h.83l-.265 1.426h1.076l.265-1.426h.83l-.264 1.426h.633l-.117.646h-.633l-.228 1.273h.64l-.117.645h-.64l-.258 1.427h-.83Zm-.473-3.345-.228 1.273h1.076l.228-1.273h-1.076Zm4.921-1.697c.472 0 .831.115 1.076.344.251.226.376.53.376.916 0 .234-.058.455-.173.664-.11.205-.274.427-.492.664l-1.229 1.335h1.961v.651h-3.093v-.59l1.636-1.777c.201-.217.344-.391.43-.523a.786.786 0 0 0 .136-.448.556.556 0 0 0-.173-.418c-.114-.111-.284-.166-.51-.166-.471 0-.719.23-.744.688l-.719-.104c.069-.824.576-1.236 1.518-1.236Zm5.946 2.023c.418.106.717.258.897.455.181.197.271.492.271.885 0 .394-.135.71-.406.947-.271.234-.668.35-1.193.35s-.904-.11-1.137-.331c-.234-.226-.378-.552-.431-.978l.67-.105c.025.242.107.43.246.566.144.131.343.197.597.197.545 0 .818-.207.818-.621 0-.177-.052-.31-.154-.4-.103-.09-.299-.172-.59-.246l-.351-.086c-.41-.102-.703-.254-.879-.455-.176-.2-.265-.5-.265-.898 0-.401.13-.72.388-.953.258-.233.639-.35 1.143-.35.509 0 .874.112 1.095.338.225.221.365.545.418.971l-.664.105c-.053-.508-.316-.763-.787-.763-.258 0-.449.058-.572.173a.566.566 0 0 0-.184.442c0 .185.047.322.141.412.094.09.275.17.541.24l.388.105Zm3.231 2.637c-.566 0-.97-.151-1.211-.454-.242-.308-.363-.771-.363-1.39 0-1.23.516-1.845 1.549-1.845.595 0 1.001.185 1.218.554.188.315.283.725.283 1.23v.22h-2.251c.004.386.068.659.191.819.123.155.326.233.609.233.455 0 .696-.164.725-.492l.676.025c-.065.734-.541 1.1-1.426 1.1Zm.473-2.852c-.102-.136-.27-.203-.504-.203-.233 0-.406.065-.516.196-.107.127-.177.332-.209.615h1.42c-.025-.274-.088-.477-.191-.608Zm4.289 1.783c0 .7-.492 1.051-1.476 1.051-.43 0-.75-.092-.959-.277-.209-.188-.34-.46-.393-.817l.639-.099c.045.394.289.59.732.59.447 0 .67-.139.67-.418 0-.114-.045-.2-.135-.258-.086-.057-.263-.117-.529-.178l-.283-.068c-.365-.086-.627-.21-.787-.375-.156-.168-.234-.41-.234-.725 0-.697.476-1.046 1.427-1.046.41 0 .715.095.916.283.205.185.332.455.381.812l-.639.092c-.045-.39-.273-.584-.683-.584-.406 0-.608.14-.608.418 0 .115.038.203.116.264.082.058.246.115.492.172l.32.08c.365.09.627.218.787.382.164.16.246.393.246.7Zm3.357 0c0 .7-.492 1.051-1.476 1.051-.431 0-.75-.092-.959-.277-.209-.188-.341-.46-.394-.817l.64-.099c.045.394.289.59.731.59.447 0 .671-.139.671-.418 0-.114-.046-.2-.136-.258-.086-.057-.262-.117-.529-.178l-.282-.068c-.365-.086-.628-.21-.787-.375-.156-.168-.234-.41-.234-.725 0-.697.475-1.046 1.426-1.046.41 0 .716.095.917.283.205.185.332.455.381.812l-.64.092c-.045-.39-.272-.584-.682-.584-.406 0-.609.14-.609.418 0 .115.039.203.117.264.082.058.246.115.492.172l.32.08c.364.09.627.218.787.382.164.16.246.393.246.7Zm2.077-2.62c.894 0 1.341.408 1.341 1.224v2.38h-.535l-.234-.431c-.328.344-.711.516-1.15.516-.311 0-.549-.086-.713-.258-.16-.176-.24-.41-.24-.7 0-.296.092-.534.277-.714.184-.18.529-.307 1.033-.381l.738-.11v-.296c0-.398-.189-.596-.566-.596-.357 0-.568.18-.633.54l-.64-.19c.156-.656.597-.984 1.322-.984Zm-.313 3.087c.278 0 .555-.137.83-.412v-.633l-.591.104c-.266.045-.442.117-.528.215a.492.492 0 0 0-.129.332c0 .123.036.22.11.29a.43.43 0 0 0 .308.104Zm1.365-4.267c-.07.258-.158.442-.265.553a.454.454 0 0 1-.338.166c-.123 0-.281-.037-.473-.11-.193-.074-.32-.111-.382-.111-.118 0-.205.09-.258.27l-.461-.147c.07-.258.156-.443.258-.554a.477.477 0 0 1 .345-.166c.123 0 .28.037.473.111.197.074.326.11.387.11.119 0 .205-.09.259-.27l.455.148Zm2.008 3.929c.107.205.312.307.615.307.304 0 .509-.102.615-.307.107-.205.16-.506.16-.904s-.053-.699-.16-.904c-.106-.205-.311-.307-.615-.307-.303 0-.508.102-.615.307-.106.205-.159.506-.159.904s.053.699.159.904Zm2.214-.904c0 1.23-.533 1.844-1.599 1.844-1.066 0-1.598-.614-1.598-1.844s.532-1.845 1.598-1.845 1.599.615 1.599 1.845Z"/><rect width="85.698" height="30.36" x="203.101" y="77.052" fill="#fff" rx="2.882"/><rect width="85.698" height="30.36" x="203.101" y="77.052" stroke="#D8DBDF" stroke-width=".384" rx="2.882"/><path fill="#1A96D4" d="M214.34 96.075a.892.892 0 0 1-.657-.27.891.891 0 0 1-.269-.657v-5.833a.89.89 0 0 1 .269-.657.892.892 0 0 1 .657-.27h2.43a.917.917 0 0 1 .653.27l.755.755h4.045c.259 0 .478.09.657.27a.894.894 0 0 1 .269.657v4.808c0 .26-.09.478-.269.658a.892.892 0 0 1-.657.269h-7.883Z"/><path fill="#313740" d="m231.593 95.199.258-1.427h-1.076l-.258 1.427h-.83l.258-1.427h-.633l.117-.645h.633l.228-1.273h-.634l.117-.646h.634l.264-1.426h.83l-.264 1.426h1.076l.264-1.426h.83l-.264 1.426h.633l-.117.646h-.633l-.228 1.273h.64l-.117.645h-.639l-.259 1.427h-.83Zm-.473-3.345-.228 1.273h1.076l.228-1.273h-1.076Zm4.817 2.312c.545 0 .818-.218.818-.652 0-.467-.293-.701-.879-.701h-.455v-.603h.461c.291 0 .498-.061.621-.184.127-.123.19-.295.19-.516 0-.226-.065-.398-.196-.517-.127-.123-.314-.184-.56-.184-.459 0-.701.231-.726.694l-.719-.098c.062-.832.562-1.248 1.5-1.248.492 0 .869.123 1.132.369.262.242.393.565.393.971 0 .455-.221.787-.664.996.48.193.72.552.72 1.076 0 .37-.146.67-.437.904-.287.23-.674.344-1.162.344-.488 0-.861-.096-1.119-.288-.254-.193-.402-.49-.443-.892l.72-.092c.049.414.317.62.805.62Zm6.05-1.986c.418.106.717.258.897.455.181.197.271.492.271.885 0 .394-.135.71-.406.947-.27.234-.668.35-1.193.35-.524 0-.904-.11-1.137-.331-.234-.226-.377-.552-.431-.978l.671-.105c.024.242.106.43.245.566.144.131.343.197.597.197.545 0 .818-.207.818-.621 0-.177-.052-.31-.154-.4-.102-.09-.299-.172-.59-.246l-.351-.086c-.41-.102-.703-.254-.879-.455-.176-.2-.264-.5-.264-.898 0-.401.129-.72.387-.953.258-.233.639-.35 1.144-.35.508 0 .873.112 1.094.338.226.221.365.545.418.971l-.664.105c-.053-.508-.316-.763-.787-.763-.258 0-.449.058-.572.173a.566.566 0 0 0-.184.442c0 .185.047.322.141.412.094.09.275.17.541.24l.388.105Zm3.231 2.637c-.566 0-.969-.151-1.211-.454-.242-.308-.363-.771-.363-1.39 0-1.23.516-1.845 1.549-1.845.595 0 1.001.185 1.218.554.189.315.283.725.283 1.23v.22h-2.251c.004.386.068.659.191.819.123.155.326.233.609.233.455 0 .697-.164.725-.492l.677.025c-.066.734-.541 1.1-1.427 1.1Zm.474-2.852c-.103-.136-.271-.203-.505-.203-.233 0-.405.065-.516.196-.107.127-.176.332-.209.615h1.42c-.024-.274-.088-.477-.19-.608Zm4.288 1.783c0 .7-.492 1.051-1.476 1.051-.43 0-.75-.092-.959-.277-.209-.188-.34-.46-.393-.817l.639-.099c.045.394.289.59.732.59.447 0 .67-.139.67-.418 0-.114-.045-.2-.135-.258-.086-.057-.263-.117-.529-.178l-.283-.068c-.365-.086-.627-.21-.787-.375-.156-.168-.233-.41-.233-.725 0-.697.475-1.046 1.426-1.046.41 0 .715.095.916.283.205.185.332.455.381.812l-.639.092c-.045-.39-.273-.584-.683-.584-.405 0-.608.14-.608.418 0 .115.039.203.117.264.082.058.245.115.491.172l.32.08c.365.09.627.218.787.382.164.16.246.393.246.7Zm3.357 0c0 .7-.492 1.051-1.476 1.051-.43 0-.75-.092-.959-.277-.209-.188-.34-.46-.394-.817l.64-.099c.045.394.289.59.731.59.447 0 .671-.139.671-.418 0-.114-.045-.2-.136-.258-.086-.057-.262-.117-.528-.178l-.283-.068c-.365-.086-.627-.21-.787-.375-.156-.168-.234-.41-.234-.725 0-.697.476-1.046 1.427-1.046.41 0 .715.095.916.283.205.185.332.455.381.812l-.639.092c-.046-.39-.273-.584-.683-.584-.406 0-.609.14-.609.418 0 .115.039.203.117.264.082.058.246.115.492.172l.32.08c.365.09.627.218.787.382.164.16.246.393.246.7Zm2.077-2.62c.894 0 1.341.408 1.341 1.224v2.38h-.535l-.234-.431c-.328.344-.711.516-1.15.516-.311 0-.549-.086-.713-.258-.16-.176-.24-.41-.24-.7 0-.296.093-.534.277-.714.185-.18.529-.307 1.033-.381l.738-.11v-.296c0-.398-.189-.596-.566-.596-.356 0-.568.18-.633.54l-.64-.19c.156-.656.597-.984 1.322-.984Zm-.313 3.087c.279 0 .555-.137.83-.412v-.633l-.59.104c-.267.045-.443.117-.529.215a.492.492 0 0 0-.129.332c0 .123.037.22.11.29a.43.43 0 0 0 .308.104Zm1.365-4.267c-.07.258-.158.442-.265.553a.454.454 0 0 1-.338.166c-.123 0-.281-.037-.473-.11-.193-.074-.32-.111-.381-.111-.119 0-.205.09-.259.27l-.461-.147c.07-.258.156-.443.258-.554a.477.477 0 0 1 .345-.166c.123 0 .281.037.473.111.197.074.326.11.388.11.118 0 .205-.09.258-.27l.455.148Zm2.009 3.929c.106.205.311.307.614.307.304 0 .509-.102.615-.307.107-.205.16-.506.16-.904s-.053-.699-.16-.904c-.106-.205-.311-.307-.615-.307-.303 0-.508.102-.614.307-.107.205-.16.506-.16.904s.053.699.16.904Zm2.213-.904c0 1.23-.533 1.844-1.599 1.844-1.065 0-1.598-.614-1.598-1.844s.533-1.845 1.598-1.845c1.066 0 1.599.615 1.599 1.845Z"/><rect width="79.55" height="18.062" x="12.489" y="12.49" stroke="#B6BCC3" stroke-width=".384" rx="2.882"/><path fill="#313740" d="M40.223 18.471h.94v5.05h-.94v-2.165h-1.868v2.165h-.94v-5.05h.94v2.166h1.868V18.47Zm2.244 1.093h.927v3.957h-.927v-3.957Zm.464-.47c-.346 0-.519-.178-.519-.533 0-.36.173-.54.519-.54.355 0 .532.18.532.54 0 .355-.177.533-.532.533Zm4.595 3.32c0 .789-.554 1.183-1.66 1.183-.485 0-.844-.104-1.08-.311-.235-.212-.382-.519-.442-.92l.72-.11c.05.442.324.663.822.663.503 0 .754-.157.754-.47 0-.13-.05-.226-.152-.29-.097-.065-.295-.132-.595-.201l-.318-.076c-.41-.097-.706-.238-.885-.422-.176-.19-.263-.462-.263-.817 0-.784.535-1.176 1.605-1.176.46 0 .804.107 1.03.319.23.207.374.511.43.913l-.72.103c-.051-.438-.307-.657-.768-.657-.457 0-.685.157-.685.47 0 .13.044.229.131.298.093.065.277.13.554.194l.36.09c.41.101.705.244.885.429.184.18.277.442.277.788Zm.359-2.248v-.602h.636v-.72l.927-.234v.954h.754v.602h-.754V22.4c0 .199.028.34.083.422.06.083.145.125.256.125.115 0 .24-.019.373-.055l.118.574a2.127 2.127 0 0 1-.733.152c-.212 0-.383-.025-.512-.076a.846.846 0 0 1-.29-.173.658.658 0 0 1-.146-.277 2.035 2.035 0 0 1-.076-.602v-2.324h-.636Zm3.786 2.393c.12.231.35.346.692.346.34 0 .572-.115.691-.346.12-.23.18-.569.18-1.016 0-.448-.06-.787-.18-1.017-.12-.23-.35-.346-.691-.346-.342 0-.572.115-.692.346-.12.23-.18.57-.18 1.017 0 .447.06.786.18 1.017Zm2.49-1.016c0 1.383-.6 2.075-1.798 2.075-1.2 0-1.799-.692-1.799-2.075 0-1.384.6-2.076 1.799-2.076 1.199 0 1.798.692 1.798 2.076Zm-2.075-2.31-.311-.499 1.349-.92.415.664-1.453.754Zm3.9 4.288h-.927v-3.957h.436l.367.616c.318-.452.767-.69 1.348-.713v.796c-.544.014-.952.18-1.224.498v2.76Zm1.89-3.957h.927v3.957h-.927v-3.957Zm.464-.47c-.346 0-.52-.178-.52-.533 0-.36.174-.54.52-.54.354 0 .532.18.532.54 0 .355-.178.533-.532.533Zm2.464 1.418c-.115.221-.173.565-.173 1.03 0 .466.058.81.173 1.031.12.222.325.332.615.332.296 0 .506-.06.63-.18.13-.12.198-.309.208-.567l.726.035c-.028.47-.166.825-.415 1.065-.245.24-.648.36-1.21.36-.66 0-1.11-.215-1.35-.643a2.264 2.264 0 0 1-.242-.65 4.365 4.365 0 0 1-.062-.782c0-.3.02-.563.062-.789.046-.23.127-.447.242-.65.236-.424.685-.637 1.35-.637.557 0 .959.116 1.203.346.244.226.383.565.415 1.017l-.72.097c-.009-.258-.078-.447-.207-.567-.124-.12-.334-.18-.63-.18-.29 0-.495.11-.615.332Zm3.715 2.047c.12.231.35.346.692.346.341 0 .572-.115.692-.346.12-.23.18-.569.18-1.016 0-.448-.06-.787-.18-1.017-.12-.23-.35-.346-.692-.346-.341 0-.572.115-.692.346-.12.23-.18.57-.18 1.017 0 .447.06.786.18 1.017Zm2.49-1.016c0 1.383-.599 2.075-1.798 2.075s-1.798-.692-1.798-2.075c0-1.384.6-2.076 1.798-2.076 1.2 0 1.799.692 1.799 2.076Z"/><rect width="79.55" height="18.062" x="101.647" y="12.49" stroke="#B6BCC3" stroke-width=".384" rx="2.882"/><path fill="#313740" d="M117.033 18.471h1.225l1.549 5.05h-.906l-.429-1.397h-1.66l-.422 1.397h-.913l1.556-5.05Zm.609.893-.616 2.047h1.232l-.616-2.047Zm5.476 2.518a1.07 1.07 0 0 1-.485.352 2.137 2.137 0 0 1-.767.125 2.19 2.19 0 0 1-.727-.104l-.193.208c-.079.078-.118.154-.118.228 0 .11.076.166.228.166h1.474c.364 0 .65.1.857.297a.925.925 0 0 1 .319.699c0 .267-.056.48-.166.636a.957.957 0 0 1-.478.346c-.35.125-.8.187-1.349.187-.544 0-.963-.067-1.259-.2-.295-.13-.442-.353-.442-.671a.71.71 0 0 1 .131-.416.897.897 0 0 1 .325-.276c-.281-.088-.422-.293-.422-.616 0-.212.083-.408.249-.588l.319-.332c-.217-.249-.326-.586-.326-1.01 0-.373.102-.696.305-.968.23-.319.65-.478 1.259-.478.263 0 .491.033.685.097h1.155v.547h-.457c.125.226.187.463.187.712 0 .245-.023.445-.069.602a1.448 1.448 0 0 1-.235.457Zm-1.266-1.799c-.452 0-.678.277-.678.83 0 .553.226.83.678.83.456 0 .685-.276.685-.83 0-.553-.229-.83-.685-.83Zm-.996 3.86c0 .166.073.272.221.318.152.046.401.07.747.07s.59-.028.733-.084c.148-.05.222-.163.222-.339 0-.258-.18-.387-.54-.387h-1.183c-.133.12-.2.26-.2.422Zm5.023-.325c-.637 0-1.091-.17-1.363-.512-.272-.346-.408-.867-.408-1.563 0-1.384.581-2.076 1.743-2.076.669 0 1.125.208 1.37.623.212.355.318.816.318 1.384v.248h-2.532c.005.434.076.74.214.92.139.176.367.263.685.263.512 0 .784-.184.816-.553l.761.028c-.073.825-.608 1.238-1.604 1.238Zm.532-3.21c-.115-.152-.304-.228-.567-.228-.263 0-.457.074-.581.221-.12.143-.198.374-.235.692h1.598c-.028-.309-.1-.537-.215-.685Zm2.729-.484c.433-.304.876-.457 1.328-.457.457 0 .786.113.989.34.203.22.305.527.305.92v2.794h-.927v-2.698c0-.235-.044-.401-.132-.498-.083-.097-.23-.145-.442-.145-.333 0-.641.104-.927.311v3.03h-.927v-3.957h.435l.298.36Zm4.787 3.694c-.89 0-1.335-.692-1.335-2.075 0-1.384.54-2.076 1.619-2.076.304 0 .604.056.899.166V18.32l.927-.069v5.271h-.602l-.256-.491c-.382.392-.8.588-1.252.588Zm.367-.713c.286 0 .558-.147.816-.442v-2.145a1.747 1.747 0 0 0-.664-.138c-.332 0-.569.115-.712.346-.143.23-.215.57-.215 1.017 0 .908.258 1.362.775 1.362Zm4.433-3.438c1.006 0 1.508.46 1.508 1.377v2.677h-.601l-.263-.484c-.369.387-.8.58-1.294.58-.35 0-.618-.096-.802-.29-.18-.198-.27-.46-.27-.788 0-.332.104-.6.311-.803.208-.203.595-.346 1.162-.429l.831-.124v-.332c0-.447-.213-.671-.637-.671-.401 0-.639.203-.712.609l-.72-.215c.175-.738.671-1.107 1.487-1.107Zm-.352 3.473c.313 0 .625-.155.934-.463v-.713l-.665.118c-.299.05-.498.131-.594.242a.553.553 0 0 0-.146.373c0 .139.042.247.125.325a.483.483 0 0 0 .346.118Zm5.006-3.473c.553 0 .94.16 1.162.478.396-.319.818-.478 1.266-.478.452 0 .786.113 1.003.34.216.22.325.527.325.92v2.794h-.927v-2.642c0-.24-.044-.416-.132-.526-.087-.115-.242-.173-.463-.173a1.33 1.33 0 0 0-.865.325c.009.092.014.166.014.221v2.795h-.927v-2.642c0-.24-.046-.416-.138-.526-.092-.115-.27-.173-.533-.173-.258 0-.516.092-.775.277v3.064h-.926v-3.957h.491l.242.325c.373-.28.768-.422 1.183-.422Zm6.357 4.15c-.636 0-1.091-.17-1.363-.511-.272-.346-.408-.867-.408-1.563 0-1.384.581-2.076 1.743-2.076.669 0 1.126.208 1.37.623.212.355.318.816.318 1.384v.248h-2.532c.005.434.077.74.215.92.138.176.366.263.685.263.512 0 .784-.184.816-.553l.761.028c-.074.825-.609 1.238-1.605 1.238Zm.533-3.209c-.116-.152-.305-.228-.568-.228-.262 0-.456.074-.581.221-.12.143-.198.374-.235.692h1.598c-.028-.309-.099-.537-.214-.685Zm2.728-.484c.434-.304.877-.457 1.329-.457.456 0 .786.113.989.34.203.22.304.527.304.92v2.794h-.927v-2.698c0-.235-.044-.401-.131-.498-.083-.097-.231-.145-.443-.145a1.55 1.55 0 0 0-.927.311v3.03h-.927v-3.957h.436l.297.36Zm3.266.242v-.602h.636v-.72l.927-.234v.954h.754v.602h-.754V22.4c0 .199.028.34.083.422.06.083.146.125.256.125.116 0 .24-.019.374-.055l.117.574a2.125 2.125 0 0 1-.733.152c-.212 0-.383-.025-.512-.076a.839.839 0 0 1-.29-.173.662.662 0 0 1-.146-.277 2.059 2.059 0 0 1-.076-.602v-2.324h-.636Zm3.786 2.393c.12.231.351.346.692.346.341 0 .572-.115.692-.346.12-.23.18-.569.18-1.016 0-.448-.06-.787-.18-1.017-.12-.23-.351-.346-.692-.346-.341 0-.572.115-.692.346-.12.23-.18.57-.18 1.017 0 .447.06.786.18 1.017Zm2.49-1.016c0 1.383-.599 2.075-1.798 2.075s-1.799-.692-1.799-2.075c0-1.384.6-2.076 1.799-2.076 1.199 0 1.798.692 1.798 2.076Zm3.728.871c0 .789-.554 1.183-1.661 1.183-.484 0-.844-.104-1.079-.311-.235-.212-.383-.519-.442-.92l.719-.11c.051.442.325.663.823.663.503 0 .754-.157.754-.47a.322.322 0 0 0-.152-.29c-.097-.065-.295-.132-.595-.201l-.318-.076c-.411-.097-.706-.238-.886-.422-.175-.19-.262-.462-.262-.817 0-.784.534-1.176 1.604-1.176.462 0 .805.107 1.031.319.231.207.374.511.429.913l-.719.103c-.051-.438-.307-.657-.768-.657-.457 0-.685.157-.685.47 0 .13.044.229.131.298.093.065.277.13.554.194l.359.09c.411.101.706.244.886.429.184.18.277.442.277.788Z"/><rect width="79.934" height="18.446" x="190.611" y="12.298" fill="#1A96D4" rx="3.074"/><path fill="#fff" d="M209.728 18.471h1.681c.817 0 1.37.25 1.66.747.143.24.243.5.298.782.055.281.083.595.083.94 0 .342-.016.63-.049.865a2.845 2.845 0 0 1-.186.692 1.547 1.547 0 0 1-.353.547c-.328.318-.812.477-1.453.477h-1.681v-5.05Zm1.557.727h-.616v3.597h.616c.493 0 .828-.178 1.003-.533.147-.309.221-.73.221-1.266 0-.535-.074-.957-.221-1.266-.175-.355-.51-.532-1.003-.532Zm3.979 3.361c.12.231.35.346.692.346.341 0 .571-.115.691-.346.12-.23.18-.569.18-1.016 0-.448-.06-.787-.18-1.017-.12-.23-.35-.346-.691-.346-.342 0-.572.115-.692.346-.12.23-.18.57-.18 1.017 0 .447.06.786.18 1.017Zm2.49-1.016c0 1.383-.599 2.075-1.798 2.075s-1.799-.692-1.799-2.075c0-1.384.6-2.076 1.799-2.076 1.199 0 1.798.692 1.798 2.076Zm1.597-1.031c-.116.221-.173.565-.173 1.03 0 .466.057.81.173 1.031.12.222.325.332.615.332.295 0 .505-.06.63-.18.129-.12.198-.309.207-.567l.727.035c-.028.47-.166.825-.415 1.065-.245.24-.648.36-1.211.36-.659 0-1.109-.215-1.349-.643a2.27 2.27 0 0 1-.242-.65 4.414 4.414 0 0 1-.062-.782c0-.3.021-.563.062-.789.046-.23.127-.447.242-.65.235-.424.685-.637 1.349-.637.558 0 .959.116 1.204.346.244.226.382.565.415 1.017l-.72.097c-.009-.258-.078-.447-.207-.567-.125-.12-.335-.18-.63-.18-.29 0-.495.11-.615.332Zm4.158 3.106c-.812 0-1.218-.42-1.218-1.26v-2.794h.927v2.643c0 .24.047.417.139.532.097.111.256.166.477.166.314 0 .611-.147.892-.442v-2.899h.927v3.957h-.602l-.262-.477c-.36.383-.787.574-1.28.574Zm5.361-4.15c.554 0 .941.159 1.162.477.397-.319.819-.478 1.266-.478.452 0 .787.113 1.003.34.217.22.325.527.325.92v2.794h-.926v-2.642c0-.24-.044-.416-.132-.526-.088-.115-.242-.173-.463-.173a1.33 1.33 0 0 0-.865.325c.009.092.014.166.014.221v2.795h-.927v-2.642c0-.24-.046-.416-.138-.526-.093-.115-.27-.173-.533-.173-.258 0-.517.092-.775.277v3.064h-.927v-3.957h.491l.242.325c.374-.28.768-.422 1.183-.422Zm6.358 4.15c-.637 0-1.091-.17-1.363-.512-.272-.346-.408-.867-.408-1.563 0-1.384.581-2.076 1.743-2.076.669 0 1.125.208 1.37.623.212.355.318.816.318 1.384v.248h-2.532c.005.434.076.74.215.92.138.176.366.263.684.263.512 0 .784-.184.817-.553l.761.028c-.074.825-.609 1.238-1.605 1.238Zm.532-3.21c-.115-.152-.304-.228-.567-.228-.263 0-.456.074-.581.221-.12.143-.198.374-.235.692h1.598c-.028-.309-.099-.537-.215-.685Zm2.729-.484c.434-.304.876-.457 1.328-.457.457 0 .786.113.989.34.203.22.305.527.305.92v2.794h-.927v-2.698c0-.235-.044-.401-.132-.498-.083-.097-.23-.145-.442-.145a1.55 1.55 0 0 0-.927.311v3.03h-.927v-3.957h.436l.297.36Zm3.266.242v-.602h.636v-.72l.927-.234v.954h.754v.602h-.754V22.4c0 .199.028.34.083.422.06.083.145.125.256.125.115 0 .24-.019.373-.055l.118.574a2.125 2.125 0 0 1-.733.152c-.212 0-.383-.025-.512-.076a.854.854 0 0 1-.291-.173.66.66 0 0 1-.145-.277 2.026 2.026 0 0 1-.076-.602v-2.324h-.636Zm3.786 2.393c.12.231.35.346.692.346.341 0 .571-.115.691-.346.12-.23.18-.569.18-1.016 0-.448-.06-.787-.18-1.017-.12-.23-.35-.346-.691-.346-.342 0-.572.115-.692.346-.12.23-.18.57-.18 1.017 0 .447.06.786.18 1.017Zm2.49-1.016c0 1.383-.599 2.075-1.798 2.075s-1.799-.692-1.799-2.075c0-1.384.6-2.076 1.799-2.076 1.199 0 1.798.692 1.798 2.076Zm3.727.871c0 .789-.553 1.183-1.66 1.183-.484 0-.844-.104-1.079-.311-.235-.212-.383-.519-.443-.92l.72-.11c.05.442.325.663.823.663.502 0 .754-.157.754-.47a.322.322 0 0 0-.152-.29c-.097-.065-.296-.132-.595-.201l-.319-.076c-.41-.097-.705-.238-.885-.422-.175-.19-.263-.462-.263-.817 0-.784.535-1.176 1.605-1.176.461 0 .805.107 1.031.319.23.207.373.511.429.913l-.72.103c-.051-.438-.306-.657-.768-.657-.456 0-.684.157-.684.47 0 .13.043.229.131.298.092.065.277.13.553.194l.36.09c.41.101.706.244.885.429.185.18.277.442.277.788Z"/><rect width="79.55" height="18.062" x="279.961" y="12.49" stroke="#B6BCC3" stroke-width=".384" rx="2.882"/><path fill="#313740" d="M307.386 18.471h2.711v.727h-1.771v1.397h1.543v.72h-1.543v2.206h-.94v-5.05Zm4.93.996c1.005 0 1.508.46 1.508 1.377v2.677h-.602l-.263-.484c-.369.387-.8.58-1.294.58-.35 0-.617-.096-.802-.29-.18-.198-.27-.46-.27-.788 0-.332.104-.6.312-.803.207-.203.594-.346 1.162-.429l.83-.124v-.332c0-.447-.212-.671-.637-.671-.401 0-.638.203-.712.609l-.72-.215c.176-.738.671-1.107 1.488-1.107Zm-.353 3.473c.314 0 .625-.155.934-.463v-.713l-.664.118c-.3.05-.498.131-.595.242a.552.552 0 0 0-.145.373c0 .139.041.247.124.325a.483.483 0 0 0 .346.118Zm2.502-2.774v-.602h.636v-.72l.927-.234v.954h.754v.602h-.754V22.4c0 .199.028.34.083.422.06.083.145.125.256.125.115 0 .24-.019.374-.055l.117.574a2.125 2.125 0 0 1-.733.152c-.212 0-.383-.025-.512-.076a.839.839 0 0 1-.29-.173.662.662 0 0 1-.146-.277 2.059 2.059 0 0 1-.076-.602v-2.324h-.636Zm4.229 3.452c-.812 0-1.218-.42-1.218-1.26v-2.794h.927v2.643c0 .24.046.417.139.532.096.111.255.166.477.166.313 0 .611-.147.892-.442v-2.899h.927v3.957h-.602l-.263-.477c-.359.383-.786.574-1.279.574Zm4.372-.097h-.927v-3.957h.436l.366.616c.319-.452.768-.69 1.349-.713v.796c-.544.014-.952.18-1.224.498v2.76Zm3.28-4.054c1.006 0 1.508.46 1.508 1.377v2.677h-.601l-.263-.484c-.369.387-.8.58-1.294.58-.35 0-.618-.096-.802-.29-.18-.198-.27-.46-.27-.788 0-.332.104-.6.311-.803.208-.203.595-.346 1.162-.429l.83-.124v-.332c0-.447-.212-.671-.636-.671-.401 0-.639.203-.712.609l-.72-.215c.175-.738.671-1.107 1.487-1.107Zm-.352 3.473c.313 0 .624-.155.933-.463v-.713l-.664.118c-.299.05-.498.131-.595.242a.556.556 0 0 0-.145.373c0 .139.042.247.125.325a.483.483 0 0 0 .346.118Zm5.919-.526c0 .789-.554 1.183-1.661 1.183-.484 0-.843-.104-1.079-.311-.235-.212-.382-.519-.442-.92l.719-.11c.051.442.325.663.823.663.503 0 .754-.157.754-.47a.322.322 0 0 0-.152-.29c-.097-.065-.295-.132-.595-.201l-.318-.076c-.411-.097-.706-.238-.886-.422-.175-.19-.262-.462-.262-.817 0-.784.535-1.176 1.604-1.176.462 0 .805.107 1.031.319.231.207.374.511.429.913l-.719.103c-.051-.438-.307-.657-.768-.657-.457 0-.685.157-.685.47 0 .13.044.229.131.298.093.065.277.13.554.194l.359.09c.411.101.706.244.886.429.184.18.277.442.277.788Z"/><rect width="257.864" height="18.062" x="12.489" y="40.159" stroke="#B6BCC3" stroke-width=".384" rx="2.882"/><path fill="#6B727B" d="M24.358 50.585a.708.708 0 0 0-.048-.27.515.515 0 0 0-.162-.216 1.271 1.271 0 0 0-.319-.183 4.437 4.437 0 0 0-.51-.177 4.699 4.699 0 0 1-.586-.213 2.047 2.047 0 0 1-.447-.274 1.078 1.078 0 0 1-.285-.351 1 1 0 0 1-.1-.453 1.063 1.063 0 0 1 .406-.847c.132-.108.29-.192.472-.252s.385-.09.609-.09c.328 0 .606.063.835.189.23.124.405.287.525.49.12.2.18.414.18.642h-.576a.881.881 0 0 0-.105-.436.724.724 0 0 0-.319-.3 1.164 1.164 0 0 0-.54-.11c-.206 0-.376.03-.51.092a.675.675 0 0 0-.3.252.69.69 0 0 0-.097.364c0 .092.02.176.057.252.04.074.101.143.183.207.084.064.19.123.319.177.13.054.285.106.465.156.248.07.462.148.643.234.18.086.328.184.444.292a.996.996 0 0 1 .261.363c.058.134.087.286.087.456 0 .178-.036.34-.108.484a1.052 1.052 0 0 1-.31.369 1.494 1.494 0 0 1-.482.237 2.24 2.24 0 0 1-.625.081c-.202 0-.401-.028-.598-.084a1.782 1.782 0 0 1-.53-.252 1.322 1.322 0 0 1-.382-.414 1.15 1.15 0 0 1-.141-.577h.576c0 .15.03.28.087.387a.77.77 0 0 0 .237.265c.102.07.218.122.346.156.13.032.265.048.405.048.202 0 .373-.028.513-.084a.68.68 0 0 0 .319-.24.62.62 0 0 0 .11-.37Zm2.585 1.165c-.227 0-.432-.038-.616-.114a1.395 1.395 0 0 1-.471-.327c-.13-.14-.23-.306-.3-.498a1.829 1.829 0 0 1-.105-.631v-.126c0-.264.039-.5.117-.706.078-.208.184-.384.318-.528.134-.144.286-.253.456-.327.17-.074.347-.111.529-.111.232 0 .432.04.6.12.17.08.31.192.417.336.108.142.189.31.24.504.053.193.079.403.079.63v.25H25.78v-.453h1.87v-.042a1.39 1.39 0 0 0-.09-.42.756.756 0 0 0-.24-.337c-.11-.088-.26-.132-.45-.132a.757.757 0 0 0-.622.315 1.18 1.18 0 0 0-.177.382c-.042.15-.063.323-.063.519v.126c0 .154.021.3.063.435.044.134.107.252.19.355a.905.905 0 0 0 .302.24.93.93 0 0 0 .409.087c.196 0 .362-.04.498-.12.136-.08.255-.187.357-.322l.337.268a1.56 1.56 0 0 1-.268.303 1.274 1.274 0 0 1-.399.234c-.156.06-.341.09-.555.09Zm2.516-4.671v4.611H28.9v-4.61h.559Zm2.24 4.671c-.227 0-.432-.038-.616-.114a1.396 1.396 0 0 1-.471-.327c-.13-.14-.23-.306-.3-.498a1.829 1.829 0 0 1-.106-.631v-.126c0-.264.04-.5.117-.706.078-.208.184-.384.319-.528.134-.144.286-.253.456-.327a1.31 1.31 0 0 1 .528-.111c.232 0 .433.04.6.12.17.08.31.192.418.336.108.142.188.31.24.504.052.193.078.403.078.63v.25h-2.426v-.453h1.87v-.042a1.387 1.387 0 0 0-.09-.42.756.756 0 0 0-.24-.337c-.11-.088-.26-.132-.45-.132a.756.756 0 0 0-.621.315 1.178 1.178 0 0 0-.177.382c-.042.15-.063.323-.063.519v.126c0 .154.02.3.063.435.044.134.107.252.189.355a.905.905 0 0 0 .303.24c.12.058.256.087.408.087.197 0 .363-.04.499-.12.136-.08.255-.187.357-.322l.336.268c-.07.106-.159.207-.267.303a1.276 1.276 0 0 1-.4.234c-.155.06-.34.09-.555.09Zm3.212-.456a.832.832 0 0 0 .366-.081.755.755 0 0 0 .276-.222.619.619 0 0 0 .123-.328h.529a.99.99 0 0 1-.195.538 1.333 1.333 0 0 1-1.1.55c-.243 0-.456-.044-.639-.13a1.266 1.266 0 0 1-.45-.354 1.585 1.585 0 0 1-.267-.517 2.181 2.181 0 0 1-.087-.621v-.126c0-.218.029-.424.087-.619.06-.196.149-.369.267-.519.12-.15.27-.268.45-.354.182-.086.396-.13.64-.13.254 0 .476.053.666.157.19.102.34.242.448.42.11.176.17.376.18.6h-.529a.8.8 0 0 0-.114-.363.738.738 0 0 0-.651-.357.836.836 0 0 0-.43.102.753.753 0 0 0-.273.27 1.261 1.261 0 0 0-.144.376 2.066 2.066 0 0 0-.042.417v.126c0 .142.014.282.042.42.028.138.075.264.141.376.068.112.16.202.273.27.117.066.26.099.433.099Zm2.522-2.852v3.248h-.559v-3.248h.559Zm-.6-.862c0-.09.026-.166.08-.228.056-.062.139-.093.247-.093.106 0 .187.03.243.093a.321.321 0 0 1 .087.228c0 .086-.03.16-.087.222-.056.06-.137.09-.243.09-.108 0-.19-.03-.247-.09a.327.327 0 0 1-.08-.222Zm1.344 2.522v-.07c0-.233.034-.45.102-.65.068-.203.167-.378.295-.526.128-.15.283-.266.465-.348.182-.084.386-.126.613-.126.228 0 .433.042.615.126.184.082.34.198.468.348.13.148.23.323.298.525.068.2.102.418.102.652v.069c0 .234-.034.451-.102.652a1.56 1.56 0 0 1-.298.525 1.36 1.36 0 0 1-1.077.471c-.229 0-.434-.04-.616-.123a1.391 1.391 0 0 1-.468-.348 1.586 1.586 0 0 1-.294-.526 2.01 2.01 0 0 1-.103-.651Zm.556-.07v.07c0 .162.019.315.057.46.038.141.095.268.171.378.078.11.175.197.291.26a.847.847 0 0 0 .406.094.822.822 0 0 0 .399-.093.838.838 0 0 0 .288-.261 1.21 1.21 0 0 0 .171-.379c.04-.144.06-.297.06-.459v-.07c0-.16-.02-.31-.06-.452a1.166 1.166 0 0 0-.174-.382.808.808 0 0 0-.69-.36.819.819 0 0 0-.403.096.864.864 0 0 0-.288.264 1.2 1.2 0 0 0-.171.382 1.748 1.748 0 0 0-.057.453Zm3.654-.897v2.555h-.556v-3.248h.526l.03.693Zm-.132.808-.232-.01c.002-.221.035-.426.1-.615.064-.19.154-.355.27-.495a1.205 1.205 0 0 1 .951-.441c.16 0 .305.022.433.066.128.042.237.11.327.204a.91.91 0 0 1 .21.366c.048.148.072.33.072.544v2.128h-.558v-2.134a.935.935 0 0 0-.075-.409.462.462 0 0 0-.22-.225.788.788 0 0 0-.354-.072.821.821 0 0 0-.378.087.904.904 0 0 0-.291.24 1.21 1.21 0 0 0-.255.766Zm4.89 1.192v-1.672a.679.679 0 0 0-.078-.334.51.51 0 0 0-.228-.222.828.828 0 0 0-.378-.078.888.888 0 0 0-.37.072.644.644 0 0 0-.246.19.415.415 0 0 0-.087.251h-.555c0-.116.03-.23.09-.345a1.01 1.01 0 0 1 .258-.31 1.29 1.29 0 0 1 .408-.221c.16-.056.339-.084.535-.084.236 0 .444.04.624.12.182.08.325.2.427.363.104.16.156.361.156.603v1.514c0 .108.009.223.027.345.02.122.049.227.087.315v.048h-.58a1.039 1.039 0 0 1-.066-.255 2.06 2.06 0 0 1-.024-.3Zm.096-1.414.006.39h-.561c-.158 0-.3.013-.423.039a.967.967 0 0 0-.313.111.501.501 0 0 0-.258.45.57.57 0 0 0 .07.28.502.502 0 0 0 .206.2c.094.049.21.073.346.073a.94.94 0 0 0 .76-.372.569.569 0 0 0 .125-.304l.238.267a.808.808 0 0 1-.114.28 1.338 1.338 0 0 1-.616.525c-.14.06-.298.09-.474.09-.22 0-.414-.043-.58-.129a.99.99 0 0 1-.384-.345.914.914 0 0 1-.135-.49.99.99 0 0 1 .102-.459.886.886 0 0 1 .294-.333c.128-.09.282-.158.462-.204a2.44 2.44 0 0 1 .604-.07h.645Zm1.889-.769v2.738h-.556v-3.248h.54l.016.51Zm1.015-.528-.003.516a1.407 1.407 0 0 0-.27-.024.893.893 0 0 0-.34.06.703.703 0 0 0-.249.168.81.81 0 0 0-.162.258 1.242 1.242 0 0 0-.075.325l-.156.09c0-.196.019-.38.057-.553.04-.172.1-.324.183-.456a.897.897 0 0 1 .312-.312.878.878 0 0 1 .703-.072Zm3.398.018v.426h-1.756v-.426h1.756Zm-1.162-.79h.556v3.234a.5.5 0 0 0 .05.249.244.244 0 0 0 .133.11.545.545 0 0 0 .174.028.912.912 0 0 0 .144-.012 3.72 3.72 0 0 0 .117-.024l.003.453a1.418 1.418 0 0 1-.429.06.866.866 0 0 1-.375-.08.604.604 0 0 1-.273-.271c-.067-.128-.1-.3-.1-.516v-3.23Zm3.73 3.483v-1.672a.678.678 0 0 0-.079-.334.511.511 0 0 0-.228-.222.828.828 0 0 0-.378-.078.888.888 0 0 0-.37.072.643.643 0 0 0-.246.19.414.414 0 0 0-.087.251h-.555c0-.116.03-.23.09-.345.06-.114.146-.217.258-.31a1.29 1.29 0 0 1 .408-.221c.16-.056.339-.084.535-.084.236 0 .444.04.624.12.182.08.325.2.427.363.104.16.156.361.156.603v1.514c0 .108.009.223.027.345.02.122.049.227.087.315v.048h-.58a1.034 1.034 0 0 1-.066-.255 2.06 2.06 0 0 1-.024-.3Zm.095-1.414.006.39h-.561c-.158 0-.3.013-.423.039a.965.965 0 0 0-.313.111.502.502 0 0 0-.258.45c0 .102.023.196.07.28a.502.502 0 0 0 .206.2c.095.049.21.073.346.073a.938.938 0 0 0 .76-.372.569.569 0 0 0 .125-.304l.237.267a.806.806 0 0 1-.114.28 1.336 1.336 0 0 1-.615.525c-.14.06-.298.09-.474.09-.22 0-.414-.043-.58-.129a.99.99 0 0 1-.384-.345.915.915 0 0 1-.135-.49.99.99 0 0 1 .102-.459.887.887 0 0 1 .294-.333c.128-.09.282-.158.462-.204a2.44 2.44 0 0 1 .604-.07h.645Zm3.438-1.28h.504v3.18c0 .286-.058.53-.174.733a1.134 1.134 0 0 1-.486.46 1.553 1.553 0 0 1-.715.158 1.75 1.75 0 0 1-.396-.054 1.596 1.596 0 0 1-.444-.177 1.111 1.111 0 0 1-.364-.333l.292-.33c.136.164.278.278.426.342.15.064.298.096.444.096a.983.983 0 0 0 .457-.1.69.69 0 0 0 .297-.293.955.955 0 0 0 .108-.475v-2.492l.051-.714Zm-2.237 1.661v-.063c0-.248.03-.474.087-.676.06-.204.145-.379.256-.525a1.147 1.147 0 0 1 .94-.456c.204 0 .382.036.534.108.154.07.284.173.39.309.108.134.193.296.255.486s.105.406.13.646v.276a2.825 2.825 0 0 1-.13.642 1.52 1.52 0 0 1-.255.487 1.07 1.07 0 0 1-.39.31c-.154.07-.334.104-.54.104a1.13 1.13 0 0 1-.931-.468 1.634 1.634 0 0 1-.259-.522 2.373 2.373 0 0 1-.087-.658Zm.556-.063v.063c0 .162.016.314.048.456.034.142.085.267.153.376.07.108.159.193.267.255.108.06.237.09.387.09.184 0 .337-.04.457-.117a.849.849 0 0 0 .285-.31c.072-.128.128-.267.168-.417v-.723a1.472 1.472 0 0 0-.102-.319.98.98 0 0 0-.174-.276.754.754 0 0 0-.261-.195.867.867 0 0 0-.367-.072.768.768 0 0 0-.393.096.765.765 0 0 0-.267.258 1.21 1.21 0 0 0-.153.379 2.068 2.068 0 0 0-.048.456Z"/><rect width="372" height="217.512" fill="#1D2229" fill-opacity=".2" rx="9.223"/><rect width="79.934" height="49.19" x="279.769" y="63.409" fill="#fff" rx="3.074"/><rect width="70.711" height="16.909" x="284.38" y="69.558" fill="#F0F1F2" rx="3.074"/><path fill="#313740" d="M293.77 76.024h.836v4.489h-.885l-1.777-3.05v3.05h-.837v-4.489h.886l1.777 3.056v-3.056Zm2.618 3.634c.107.205.312.308.615.308s.508-.103.615-.308c.106-.205.16-.506.16-.904s-.054-.699-.16-.904c-.107-.205-.312-.307-.615-.307s-.508.102-.615.307c-.107.205-.16.507-.16.904 0 .398.053.7.16.904Zm2.214-.904c0 1.23-.533 1.845-1.599 1.845-1.066 0-1.599-.615-1.599-1.845s.533-1.845 1.599-1.845c1.066 0 1.599.615 1.599 1.845Zm2.353 1.759h-.916l-1.193-3.517h.83l.818 2.545.824-2.545h.83l-1.193 3.517Zm3.031-3.604c.894 0 1.341.408 1.341 1.224v2.38h-.535l-.234-.43c-.328.344-.711.516-1.15.516-.311 0-.549-.086-.713-.258-.16-.177-.24-.41-.24-.701 0-.296.092-.533.277-.714.184-.18.529-.307 1.033-.38l.738-.112v-.295c0-.397-.189-.596-.566-.596-.357 0-.568.18-.633.54l-.64-.19c.156-.656.597-.984 1.322-.984Zm-.313 3.087c.278 0 .555-.137.83-.412v-.633l-.591.104c-.266.045-.442.117-.528.216a.493.493 0 0 0-.13.332c0 .123.037.219.111.289a.43.43 0 0 0 .308.104Zm6.087-3.087c.943 0 1.415.615 1.415 1.845s-.48 1.845-1.439 1.845c-.246 0-.513-.041-.8-.123v1.297l-.824.11v-4.887h.394l.215.264c.349-.234.695-.35 1.039-.35Zm-.227.634a1.13 1.13 0 0 0-.597.172v2.164c.193.058.39.087.591.087.295 0 .506-.103.633-.308.127-.209.191-.51.191-.904 0-.807-.273-1.211-.818-1.211Zm3.676-.634c.894 0 1.341.408 1.341 1.224v2.38h-.535l-.234-.43c-.328.344-.711.516-1.15.516-.311 0-.549-.086-.713-.258-.16-.177-.24-.41-.24-.701 0-.296.093-.533.277-.714.184-.18.529-.307 1.033-.38l.738-.112v-.295c0-.397-.189-.596-.566-.596-.356 0-.568.18-.633.54l-.64-.19c.156-.656.597-.984 1.322-.984Zm-.313 3.087c.279 0 .555-.137.83-.412v-.633l-.59.104c-.267.045-.443.117-.529.216a.492.492 0 0 0-.129.332c0 .123.037.219.11.289a.43.43 0 0 0 .308.104Zm5.261-.467c0 .7-.492 1.051-1.476 1.051-.43 0-.75-.092-.959-.276-.209-.189-.34-.462-.393-.818l.639-.099c.045.394.289.59.732.59.447 0 .67-.139.67-.417a.288.288 0 0 0-.135-.259c-.086-.057-.263-.116-.529-.178l-.283-.068c-.365-.086-.627-.21-.787-.375-.156-.168-.234-.41-.234-.725 0-.697.476-1.046 1.427-1.046.41 0 .715.095.916.283.205.185.332.455.381.812l-.639.092c-.045-.39-.273-.584-.683-.584-.405 0-.608.14-.608.418a.32.32 0 0 0 .116.265c.082.057.246.114.492.172l.32.08c.365.09.627.217.787.38.164.16.246.395.246.702Zm.319-1.998v-.535h.566v-.64l.824-.209v.849h.67v.535h-.67v1.986c0 .176.024.3.074.375.053.074.129.11.227.11.103 0 .213-.016.332-.049l.105.51a1.89 1.89 0 0 1-.652.136c-.189 0-.34-.023-.455-.068a.744.744 0 0 1-.258-.154.57.57 0 0 1-.129-.245 1.778 1.778 0 0 1-.068-.535V77.53h-.566Zm3.975-.622c.893 0 1.34.408 1.34 1.224v2.38h-.535l-.234-.43c-.328.344-.711.516-1.149.516-.312 0-.55-.086-.714-.258-.16-.177-.24-.41-.24-.701 0-.296.093-.533.277-.714.185-.18.529-.307 1.033-.38l.738-.112v-.295c0-.397-.189-.596-.566-.596-.356 0-.567.18-.633.54l-.639-.19c.155-.656.596-.984 1.322-.984Zm-.314 3.087c.279 0 .555-.137.83-.412v-.633l-.59.104c-.267.045-.443.117-.529.216a.492.492 0 0 0-.129.332c0 .123.037.219.11.289a.43.43 0 0 0 .308.104Zm-30.175 16.011h1.088l1.378 4.489h-.806l-.381-1.242h-1.476l-.375 1.242h-.812l1.384-4.489Zm.541.794-.547 1.82h1.094l-.547-1.82Zm3.373 3.695h-.824v-3.517h.388l.326.547c.282-.401.682-.613 1.199-.633v.707c-.484.012-.847.16-1.089.443v2.453Zm2.756-3.603c.386 0 .734.106 1.046.32l.196-.234h.388v4.778l-.824.11v-1.445a2.35 2.35 0 0 1-.806.16c-.955 0-1.432-.615-1.432-1.844 0-1.23.477-1.845 1.432-1.845Zm.222 3.056c.201 0 .395-.037.584-.11v-2.165a1.202 1.202 0 0 0-.584-.148c-.554 0-.83.404-.83 1.212 0 .807.276 1.21.83 1.21Zm3.584.633c-.721 0-1.082-.373-1.082-1.119V96.98h.824v2.349c0 .213.041.37.123.473.086.099.227.148.424.148.279 0 .543-.131.793-.394V96.98h.824v3.517h-.535l-.234-.424c-.319.34-.698.51-1.137.51Zm3.062-3.603h.824v3.517h-.824v-3.517Zm.412-.418c-.307 0-.461-.158-.461-.474 0-.32.154-.48.461-.48.316 0 .474.16.474.48 0 .316-.158.474-.474.474Zm3.126 3.935h-.917l-1.192-3.517h.83l.817 2.546.824-2.546h.83l-1.192 3.517Zm2.422-.855c.106.205.311.308.615.308.303 0 .508-.103.614-.308.107-.205.16-.506.16-.904 0-.397-.053-.698-.16-.903-.106-.205-.311-.308-.614-.308-.304 0-.509.103-.615.308-.107.205-.16.506-.16.903 0 .398.053.7.16.904Zm2.213-.904c0 1.23-.533 1.845-1.598 1.845-1.066 0-1.599-.615-1.599-1.844 0-1.23.533-1.845 1.599-1.845 1.065 0 1.598.615 1.598 1.844Z"/><rect width="79.934" height="18.446" x="279.769" y="39.967" fill="#1A96D4" rx="3.074"/><path fill="#fff" d="M304.847 46.14h1.224l1.55 5.05h-.906l-.429-1.397h-1.66l-.422 1.397h-.913l1.556-5.05Zm.609.893-.616 2.047h1.231l-.615-2.047Zm3.802 4.254c-.89 0-1.335-.692-1.335-2.075 0-1.384.539-2.075 1.618-2.075.305 0 .604.055.899.166v-1.315l.927-.069v5.271h-.601l-.256-.49c-.383.391-.8.587-1.252.587Zm.366-.712c.286 0 .558-.148.816-.443v-2.145a1.745 1.745 0 0 0-.664-.138c-.332 0-.569.115-.712.346-.143.23-.215.57-.215 1.017 0 .908.259 1.362.775 1.362Zm3.043-3.342h.927v3.957h-.927v-3.956Zm.464-.47c-.346 0-.519-.177-.519-.533 0-.36.173-.54.519-.54.355 0 .532.18.532.54 0 .356-.177.533-.532.533Zm2.464 1.418c-.115.222-.173.565-.173 1.03 0 .467.058.81.173 1.032.12.22.325.331.616.331.295 0 .505-.06.629-.18.13-.12.199-.308.208-.566l.726.034c-.027.47-.166.825-.415 1.065-.244.24-.648.36-1.21.36-.66 0-1.109-.214-1.349-.643a2.241 2.241 0 0 1-.242-.65 4.315 4.315 0 0 1-.063-.782c0-.3.021-.563.063-.789.046-.23.126-.447.242-.65.235-.424.685-.636 1.349-.636.558 0 .959.115 1.203.346.245.225.383.564.415 1.016l-.719.097c-.009-.258-.078-.447-.208-.567-.124-.12-.334-.18-.629-.18-.291 0-.496.11-.616.332Zm3.01-.947h.927v3.956h-.927v-3.956Zm.464-.47c-.346 0-.519-.178-.519-.534 0-.36.173-.54.519-.54.355 0 .532.18.532.54 0 .356-.177.533-.532.533Zm2.471 3.465c.12.23.351.346.692.346.341 0 .572-.116.692-.346.119-.23.179-.57.179-1.017 0-.448-.06-.787-.179-1.017-.12-.23-.351-.346-.692-.346-.341 0-.572.115-.692.346-.12.23-.18.57-.18 1.017 0 .447.06.786.18 1.017Zm2.49-1.017c0 1.383-.599 2.075-1.798 2.075s-1.799-.692-1.799-2.075c0-1.384.6-2.075 1.799-2.075 1.199 0 1.798.691 1.798 2.075Zm1.631-1.619c.434-.304.877-.456 1.329-.456.456 0 .786.113.989.339.203.22.304.528.304.92v2.794h-.927v-2.698c0-.235-.044-.4-.131-.498-.083-.096-.231-.145-.443-.145a1.55 1.55 0 0 0-.927.311v3.03h-.927v-3.956h.436l.297.36Zm5.244-.456c1.006 0 1.508.459 1.508 1.376v2.677h-.602l-.262-.484c-.369.387-.8.581-1.294.581-.35 0-.618-.097-.802-.29-.18-.199-.27-.462-.27-.79 0-.331.104-.599.311-.801.208-.203.595-.346 1.162-.43l.83-.124v-.332c0-.447-.212-.67-.636-.67-.401 0-.639.202-.713.608l-.719-.215c.175-.738.671-1.106 1.487-1.106Zm-.352 3.472c.313 0 .624-.154.933-.463v-.713l-.664.118c-.299.05-.498.131-.595.242a.556.556 0 0 0-.145.373c0 .139.042.247.125.326a.483.483 0 0 0 .346.117Zm4.016.581h-.927v-3.956h.436l.367.615c.318-.452.768-.69 1.349-.712v.795c-.544.014-.953.18-1.225.498v2.76Z"/><rect width="231.731" height="107.231" x="70.327" y="137.194" fill="#fff" rx="6.149"/><path fill="#1A96D4" d="M86.27 147.368h.94v5.049h-.996l-1.999-3.431v3.431h-.94v-5.049h.995l2 3.437v-3.437Zm2.945 4.088c.12.23.35.346.692.346.341 0 .572-.116.692-.346.12-.231.18-.57.18-1.017 0-.447-.06-.786-.18-1.017-.12-.231-.35-.346-.692-.346-.341 0-.572.115-.692.346-.12.231-.18.57-.18 1.017 0 .447.06.786.18 1.017Zm2.49-1.017c0 1.383-.6 2.075-1.798 2.075-1.2 0-1.799-.692-1.799-2.075 0-1.384.6-2.075 1.799-2.075 1.199 0 1.798.691 1.798 2.075Zm2.648 1.978h-1.03l-1.342-3.956h.934l.92 2.863.926-2.863h.934l-1.342 3.956Zm3.41-4.053c1.005 0 1.508.459 1.508 1.376v2.677h-.602l-.263-.484c-.369.387-.8.581-1.293.581-.35 0-.618-.097-.803-.29-.18-.199-.27-.462-.27-.789 0-.332.104-.6.312-.802.207-.203.595-.346 1.162-.429l.83-.125v-.332c0-.447-.212-.671-.636-.671-.401 0-.639.203-.713.609l-.72-.215c.176-.737.672-1.106 1.488-1.106Zm-.353 3.472c.314 0 .625-.154.934-.463v-.713l-.664.118c-.3.051-.498.131-.595.242a.553.553 0 0 0-.145.373c0 .139.041.247.124.326a.485.485 0 0 0 .346.117Zm6.849-3.472c1.061 0 1.591.691 1.591 2.075 0 1.383-.54 2.075-1.619 2.075-.276 0-.576-.046-.899-.138v1.459l-.927.125v-5.499h.443l.242.297c.392-.263.782-.394 1.169-.394Zm-.256.712c-.235 0-.459.065-.671.194v2.435c.217.064.438.097.664.097.332 0 .57-.116.713-.346.143-.235.214-.574.214-1.017 0-.909-.307-1.363-.92-1.363Zm4.136-.712c1.005 0 1.508.459 1.508 1.376v2.677h-.602l-.263-.484c-.369.387-.8.581-1.293.581-.351 0-.618-.097-.803-.29-.179-.199-.269-.462-.269-.789 0-.332.103-.6.311-.802.207-.203.595-.346 1.162-.429l.83-.125v-.332c0-.447-.212-.671-.636-.671-.401 0-.639.203-.713.609l-.719-.215c.175-.737.671-1.106 1.487-1.106Zm-.353 3.472c.314 0 .625-.154.934-.463v-.713l-.664.118c-.3.051-.498.131-.595.242a.551.551 0 0 0-.145.373c0 .139.041.247.124.326a.486.486 0 0 0 .346.117Zm5.919-.526c0 .789-.553 1.183-1.66 1.183-.484 0-.844-.103-1.079-.311-.235-.212-.383-.519-.443-.92l.72-.111c.05.443.325.664.823.664.503 0 .754-.156.754-.47a.321.321 0 0 0-.152-.29c-.097-.065-.295-.132-.595-.201l-.318-.076c-.411-.097-.706-.238-.886-.422-.175-.189-.263-.461-.263-.816 0-.784.535-1.176 1.605-1.176.461 0 .805.106 1.031.318.23.207.373.512.429.913l-.72.104c-.05-.438-.306-.657-.767-.657-.457 0-.685.156-.685.47 0 .129.044.228.131.297.092.065.277.13.554.194l.359.09c.411.101.706.244.886.429.184.18.276.443.276.788Zm.359-2.248v-.601h.637v-.72l.927-.235v.955h.754v.601h-.754v2.235c0 .198.027.339.083.422.06.083.145.124.256.124.115 0 .239-.018.373-.055l.118.574a2.14 2.14 0 0 1-.734.152c-.212 0-.382-.025-.511-.076a.843.843 0 0 1-.291-.173.657.657 0 0 1-.145-.277 2.022 2.022 0 0 1-.076-.601v-2.325h-.637Zm4.471-.698c1.006 0 1.508.459 1.508 1.376v2.677h-.601l-.263-.484c-.369.387-.8.581-1.294.581-.35 0-.618-.097-.802-.29-.18-.199-.27-.462-.27-.789 0-.332.104-.6.311-.802.208-.203.595-.346 1.162-.429l.83-.125v-.332c0-.447-.212-.671-.636-.671-.401 0-.639.203-.712.609l-.72-.215c.175-.737.671-1.106 1.487-1.106Zm-.352 3.472c.313 0 .624-.154.933-.463v-.713l-.664.118c-.299.051-.498.131-.595.242a.556.556 0 0 0-.145.373c0 .139.042.247.125.326a.485.485 0 0 0 .346.117Z"/><path fill="#313740" d="M85.864 168.226h.837v4.489h-.886l-1.777-3.05v3.05h-.836v-4.489h.885l1.777 3.056v-3.056Zm2.619 3.634c.106.205.311.308.615.308.303 0 .508-.103.615-.308.106-.205.16-.506.16-.904 0-.397-.054-.699-.16-.904-.107-.205-.312-.307-.615-.307-.304 0-.509.102-.615.307-.107.205-.16.507-.16.904 0 .398.053.699.16.904Zm2.213-.904c0 1.23-.533 1.845-1.598 1.845-1.066 0-1.599-.615-1.599-1.845 0-1.229.533-1.844 1.599-1.844 1.065 0 1.598.615 1.598 1.844Zm2.502-1.844c.492 0 .836.141 1.033.424.352-.283.727-.424 1.125-.424.402 0 .699.1.891.301.193.197.29.469.29.818v2.484h-.825v-2.349c0-.213-.038-.369-.116-.467-.078-.103-.216-.154-.412-.154a1.18 1.18 0 0 0-.769.289c.008.082.012.148.012.197v2.484h-.824v-2.349c0-.213-.04-.369-.122-.467-.082-.103-.24-.154-.474-.154-.23 0-.46.082-.689.246v2.724h-.824v-3.517h.437l.215.289c.332-.25.683-.375 1.052-.375Zm5.67 0c.893 0 1.34.408 1.34 1.223v2.38h-.535l-.234-.431c-.328.345-.711.517-1.15.517-.311 0-.55-.086-.713-.258-.16-.177-.24-.41-.24-.701 0-.295.092-.533.277-.714.184-.18.528-.307 1.033-.381l.738-.11v-.296c0-.397-.189-.596-.566-.596-.357 0-.568.18-.633.541l-.64-.191c.156-.655.596-.983 1.322-.983Zm-.314 3.086c.278 0 .555-.137.83-.412v-.633l-.59.105c-.267.045-.443.116-.53.215a.49.49 0 0 0-.129.332c0 .123.037.219.111.289.074.07.176.104.308.104Zm5.269.603c-.791 0-1.186-.615-1.186-1.845 0-1.229.479-1.844 1.439-1.844.27 0 .537.049.799.147v-1.168l.824-.062v4.686h-.535l-.228-.437c-.34.349-.711.523-1.113.523Zm.326-.633c.254 0 .496-.132.726-.394v-1.906a1.557 1.557 0 0 0-.59-.123c-.296 0-.507.102-.634.307-.127.205-.19.507-.19.904 0 .808.229 1.212.688 1.212Zm3.941-3.056c.894 0 1.341.408 1.341 1.223v2.38h-.535l-.234-.431c-.328.345-.711.517-1.15.517-.311 0-.549-.086-.713-.258-.16-.177-.24-.41-.24-.701 0-.295.092-.533.277-.714.184-.18.529-.307 1.033-.381l.738-.11v-.296c0-.397-.189-.596-.566-.596-.357 0-.568.18-.633.541l-.64-.191c.156-.655.597-.983 1.322-.983Zm-.313 3.086c.278 0 .555-.137.83-.412v-.633l-.591.105c-.266.045-.442.116-.528.215a.49.49 0 0 0-.129.332c0 .123.036.219.11.289.074.07.176.104.308.104Zm6.087-3.086c.943 0 1.415.615 1.415 1.844 0 1.23-.48 1.845-1.439 1.845-.246 0-.513-.041-.8-.123v1.297l-.824.111v-4.888h.394l.215.264c.349-.234.695-.35 1.039-.35Zm-.227.633a1.13 1.13 0 0 0-.597.172v2.165c.193.057.39.086.591.086.295 0 .506-.103.633-.308.127-.209.191-.51.191-.904 0-.807-.273-1.211-.818-1.211Zm3.676-.633c.894 0 1.341.408 1.341 1.223v2.38h-.535l-.234-.431c-.328.345-.711.517-1.15.517-.311 0-.549-.086-.713-.258-.16-.177-.24-.41-.24-.701 0-.295.093-.533.277-.714.184-.18.529-.307 1.033-.381l.738-.11v-.296c0-.397-.189-.596-.566-.596-.356 0-.568.18-.633.541l-.64-.191c.156-.655.597-.983 1.322-.983Zm-.313 3.086c.279 0 .555-.137.83-.412v-.633l-.59.105c-.267.045-.443.116-.529.215a.49.49 0 0 0-.129.332c0 .123.037.219.11.289a.43.43 0 0 0 .308.104Zm5.261-.467c0 .701-.492 1.051-1.476 1.051-.43 0-.75-.092-.959-.276-.209-.189-.34-.461-.393-.818l.639-.098c.045.393.289.59.732.59.447 0 .67-.139.67-.418a.285.285 0 0 0-.135-.258c-.086-.058-.263-.117-.529-.179l-.283-.067c-.365-.086-.627-.212-.787-.375-.156-.169-.233-.41-.233-.726 0-.697.475-1.045 1.426-1.045.41 0 .715.094.916.283.205.184.332.455.381.811l-.639.092c-.045-.389-.273-.584-.683-.584-.405 0-.608.14-.608.418 0 .115.039.203.117.265.082.057.245.115.491.172l.32.08c.365.09.627.217.787.381.164.16.246.394.246.701Zm.319-1.998v-.535h.566v-.64l.824-.209v.849h.67v.535h-.67v1.986c0 .176.024.301.074.375.053.074.129.11.227.11.103 0 .213-.016.332-.049l.105.511c-.242.09-.459.135-.652.135-.189 0-.34-.023-.455-.068a.75.75 0 0 1-.258-.153.576.576 0 0 1-.129-.246 1.781 1.781 0 0 1-.068-.535v-2.066h-.566Zm3.975-.621c.893 0 1.34.408 1.34 1.223v2.38h-.535l-.234-.431c-.328.345-.711.517-1.149.517-.312 0-.55-.086-.714-.258-.16-.177-.24-.41-.24-.701 0-.295.093-.533.277-.714.185-.18.529-.307 1.033-.381l.738-.11v-.296c0-.397-.189-.596-.566-.596-.356 0-.567.18-.633.541l-.639-.191c.155-.655.596-.983 1.322-.983Zm-.314 3.086c.279 0 .555-.137.83-.412v-.633l-.59.105c-.267.045-.443.116-.529.215a.49.49 0 0 0-.129.332c0 .123.037.219.111.289.073.07.176.104.307.104Z"/><rect width="206.752" height="18.062" x="82.816" y="180.056" stroke="#B6BCC3" stroke-width=".384" rx="2.882"/><path fill="#6B727B" d="M92 191.587h-.912l.006-.472H92c.313 0 .573-.065.781-.195.208-.132.364-.316.468-.552.106-.238.16-.517.16-.835v-.267c0-.25-.03-.472-.09-.667a1.348 1.348 0 0 0-.265-.495 1.116 1.116 0 0 0-.426-.309 1.467 1.467 0 0 0-.574-.105h-.984v-.475h.984c.287 0 .548.048.784.144.236.094.44.232.61.412.172.178.304.394.396.648.092.252.138.537.138.853v.261c0 .316-.046.602-.138.856a1.758 1.758 0 0 1-1.024 1.057 2.25 2.25 0 0 1-.82.141Zm-.603-4.372v4.372h-.58v-4.372h.58Zm3.224 2.783v-.069c0-.234.034-.451.103-.651a1.56 1.56 0 0 1 .294-.526c.128-.15.283-.266.465-.348.182-.084.386-.126.612-.126.229 0 .434.042.616.126.184.082.34.198.468.348.13.149.23.324.298.526.068.2.102.417.102.651v.069c0 .235-.034.452-.102.652a1.56 1.56 0 0 1-.298.525 1.364 1.364 0 0 1-.465.349 1.46 1.46 0 0 1-.612.123c-.229 0-.434-.041-.616-.123a1.395 1.395 0 0 1-.468-.349 1.584 1.584 0 0 1-.294-.525 2.01 2.01 0 0 1-.103-.652Zm.556-.069v.069c0 .163.019.316.057.46.038.142.095.268.171.378.078.11.175.197.291.261a.848.848 0 0 0 .406.093.824.824 0 0 0 .399-.093.84.84 0 0 0 .288-.261c.076-.11.133-.236.171-.378.04-.144.06-.297.06-.46v-.069c0-.16-.02-.311-.06-.453a1.167 1.167 0 0 0-.174-.381.799.799 0 0 0-.69-.361.81.81 0 0 0-.691.361c-.076.11-.133.237-.171.381a1.742 1.742 0 0 0-.057.453Zm4.398 1.261a.833.833 0 0 0 .367-.081.752.752 0 0 0 .276-.222.618.618 0 0 0 .123-.327h.528a.99.99 0 0 1-.195.537 1.334 1.334 0 0 1-1.099.55 1.49 1.49 0 0 1-.64-.129 1.27 1.27 0 0 1-.45-.355 1.58 1.58 0 0 1-.267-.516 2.176 2.176 0 0 1-.087-.622v-.126c0-.218.03-.424.087-.618.06-.196.15-.369.267-.52.12-.15.27-.268.45-.354a1.49 1.49 0 0 1 .64-.129c.254 0 .477.052.667.156.19.102.339.242.447.421.11.176.17.376.18.6h-.528a.8.8 0 0 0-.114-.363.708.708 0 0 0-.264-.258.73.73 0 0 0-.388-.1.827.827 0 0 0-.43.103.752.752 0 0 0-.272.27 1.258 1.258 0 0 0-.144.375 2.063 2.063 0 0 0-.043.417v.126c0 .143.015.283.043.421.028.138.075.263.14.375.069.112.16.202.274.27.116.066.26.099.432.099Zm3.906-.354v-2.498h.559v3.249h-.532l-.027-.751Zm.105-.684.232-.006c0 .216-.023.416-.07.6-.044.182-.116.34-.216.474-.1.134-.231.24-.393.316a1.417 1.417 0 0 1-.591.111c-.159 0-.304-.023-.436-.069a.86.86 0 0 1-.336-.214.97.97 0 0 1-.219-.375 1.808 1.808 0 0 1-.075-.555v-2.096h.555v2.102c0 .146.016.267.048.363a.602.602 0 0 0 .135.225.5.5 0 0 0 .192.114.762.762 0 0 0 .223.033c.236 0 .423-.045.561-.135a.77.77 0 0 0 .297-.369c.062-.156.093-.329.093-.519Zm1.853-1.168v2.603h-.559v-3.249h.529l.03.646Zm-.114.855-.259-.009c.002-.222.032-.427.088-.615.056-.19.139-.355.249-.496.11-.14.247-.248.411-.324.164-.078.354-.117.571-.117.152 0 .292.022.42.066a.847.847 0 0 1 .552.556c.052.144.078.318.078.522v2.165h-.555v-2.138a.824.824 0 0 0-.087-.408.497.497 0 0 0-.24-.222.855.855 0 0 0-.367-.073.862.862 0 0 0-.411.088.694.694 0 0 0-.264.24 1.081 1.081 0 0 0-.144.351c-.028.13-.042.268-.042.414Zm2.104-.306-.372.114c.002-.178.031-.349.087-.513.058-.164.141-.31.249-.439.11-.128.245-.229.406-.303.16-.076.343-.114.549-.114.174 0 .328.023.462.069a.84.84 0 0 1 .343.213.89.89 0 0 1 .213.364c.048.148.072.324.072.528v2.135h-.559v-2.141c0-.182-.029-.323-.087-.423a.453.453 0 0 0-.24-.213.94.94 0 0 0-.366-.064.771.771 0 0 0-.324.064.683.683 0 0 0-.238.174.76.76 0 0 0-.147.249.925.925 0 0 0-.048.3Zm4.198 2.114c-.227 0-.432-.038-.616-.114a1.397 1.397 0 0 1-.471-.328c-.13-.14-.23-.306-.301-.498a1.826 1.826 0 0 1-.105-.63v-.127c0-.264.039-.499.118-.705.078-.208.184-.384.318-.529.134-.144.286-.253.456-.327.17-.074.346-.111.529-.111.232 0 .432.04.6.12.17.08.309.192.417.336.108.143.188.311.24.505.053.192.079.402.079.63v.25h-2.426v-.454h1.87v-.042a1.384 1.384 0 0 0-.09-.42.755.755 0 0 0-.24-.336c-.11-.089-.26-.133-.45-.133a.745.745 0 0 0-.349.082.741.741 0 0 0-.273.234 1.178 1.178 0 0 0-.177.381c-.042.15-.063.323-.063.519v.127c0 .154.021.299.063.435.044.134.107.252.189.354a.906.906 0 0 0 .303.24c.12.058.256.087.409.087.196 0 .362-.04.498-.12.136-.08.255-.187.357-.321l.337.267c-.071.106-.16.207-.268.303a1.257 1.257 0 0 1-.399.235c-.156.06-.341.09-.555.09Zm2.467-2.615v2.555h-.555v-3.249h.525l.03.694Zm-.132.807-.231-.009c.002-.222.035-.427.099-.615a1.55 1.55 0 0 1 .27-.496 1.216 1.216 0 0 1 .952-.441c.16 0 .304.022.433.066.128.042.237.11.327.204a.907.907 0 0 1 .21.367c.048.148.072.329.072.543v2.129h-.558v-2.135a.935.935 0 0 0-.075-.408.467.467 0 0 0-.22-.225.773.773 0 0 0-.354-.073.81.81 0 0 0-.378.088.904.904 0 0 0-.291.24 1.21 1.21 0 0 0-.256.765Zm4.336-1.501v.426h-1.757v-.426h1.757Zm-1.162-.789h.555v3.233c0 .11.017.193.051.249a.244.244 0 0 0 .132.111.549.549 0 0 0 .175.027.912.912 0 0 0 .144-.012l.117-.024.003.454a1.297 1.297 0 0 1-.174.039c-.07.014-.156.021-.256.021a.865.865 0 0 1-.375-.081.6.6 0 0 1-.273-.271c-.066-.128-.099-.3-.099-.516v-3.23Zm1.606 2.449v-.069c0-.234.034-.451.102-.651.068-.202.166-.377.294-.526.128-.15.284-.266.466-.348.182-.084.386-.126.612-.126.228 0 .434.042.616.126.184.082.34.198.468.348.13.149.229.324.297.526.068.2.102.417.102.651v.069c0 .235-.034.452-.102.652-.068.2-.167.375-.297.525a1.363 1.363 0 0 1-.465.349c-.18.082-.385.123-.613.123-.228 0-.433-.041-.615-.123a1.398 1.398 0 0 1-.469-.349 1.586 1.586 0 0 1-.294-.525 2.012 2.012 0 0 1-.102-.652Zm.556-.069v.069c0 .163.019.316.057.46.038.142.095.268.171.378.078.11.175.197.291.261a.847.847 0 0 0 .405.093.83.83 0 0 0 .4-.093.838.838 0 0 0 .288-.261c.076-.11.133-.236.171-.378.04-.144.06-.297.06-.46v-.069c0-.16-.02-.311-.06-.453a1.167 1.167 0 0 0-.174-.381.804.804 0 0 0-.691-.361.808.808 0 0 0-.69.361c-.076.11-.133.237-.171.381a1.746 1.746 0 0 0-.057.453Zm4.989.796a.467.467 0 0 0-.054-.222.458.458 0 0 0-.213-.189 1.746 1.746 0 0 0-.48-.15 3.701 3.701 0 0 1-.49-.136 1.483 1.483 0 0 1-.369-.189.793.793 0 0 1-.231-.261.728.728 0 0 1-.081-.351c0-.128.028-.249.084-.363a.966.966 0 0 1 .243-.304c.106-.088.233-.157.381-.207a1.55 1.55 0 0 1 .496-.075c.26 0 .482.046.666.138.184.092.326.215.424.37a.916.916 0 0 1 .147.507h-.556a.476.476 0 0 0-.081-.261.598.598 0 0 0-.231-.213.735.735 0 0 0-.369-.085.826.826 0 0 0-.375.073.479.479 0 0 0-.208.177.446.446 0 0 0-.033.39c.022.046.06.089.114.129a.947.947 0 0 0 .229.108c.098.034.223.068.375.102.266.06.485.132.657.216a.965.965 0 0 1 .385.31c.084.122.126.27.126.444a.877.877 0 0 1-.345.697c-.111.084-.243.15-.397.198a1.769 1.769 0 0 1-.513.069c-.286 0-.529-.051-.727-.153a1.125 1.125 0 0 1-.45-.397.947.947 0 0 1-.153-.513h.558a.574.574 0 0 0 .132.363.67.67 0 0 0 .295.189c.116.036.231.054.345.054.152 0 .279-.02.381-.06a.53.53 0 0 0 .237-.165.382.382 0 0 0 .081-.24Zm3.366-1.876v2.738h-.555v-3.249h.54l.015.511Zm1.015-.529-.003.517a1.403 1.403 0 0 0-.27-.024.893.893 0 0 0-.34.06.702.702 0 0 0-.249.168.808.808 0 0 0-.162.258 1.24 1.24 0 0 0-.075.324l-.156.09c0-.196.019-.38.057-.552.04-.172.101-.324.183-.457a.896.896 0 0 1 .312-.312.878.878 0 0 1 .703-.072Zm1.801 3.327c-.226 0-.431-.038-.615-.114a1.4 1.4 0 0 1-.472-.328c-.13-.14-.23-.306-.3-.498a1.826 1.826 0 0 1-.105-.63v-.127c0-.264.039-.499.117-.705.078-.208.184-.384.318-.529.134-.144.287-.253.457-.327a1.31 1.31 0 0 1 .528-.111c.232 0 .432.04.601.12.17.08.309.192.417.336.108.143.188.311.24.505.052.192.078.402.078.63v.25h-2.426v-.454h1.871v-.042a1.384 1.384 0 0 0-.09-.42.75.75 0 0 0-.241-.336c-.11-.089-.26-.133-.45-.133a.744.744 0 0 0-.348.082.741.741 0 0 0-.273.234 1.2 1.2 0 0 0-.178.381c-.042.15-.063.323-.063.519v.127c0 .154.021.299.063.435.045.134.108.252.19.354a.906.906 0 0 0 .303.24c.12.058.256.087.408.087.196 0 .362-.04.499-.12.136-.08.255-.187.357-.321l.336.267c-.07.106-.159.207-.267.303a1.257 1.257 0 0 1-.399.235c-.157.06-.342.09-.556.09Zm2.516-4.672v4.612h-.558v-4.612h.558Zm2.807 4.056v-1.672a.677.677 0 0 0-.078-.333.51.51 0 0 0-.228-.222.813.813 0 0 0-.378-.079.879.879 0 0 0-.37.073.643.643 0 0 0-.246.189.414.414 0 0 0-.087.252h-.555c0-.116.03-.231.09-.345.06-.115.146-.218.258-.31a1.29 1.29 0 0 1 .408-.222c.16-.056.339-.084.535-.084.236 0 .444.04.624.12.182.08.325.201.427.363.104.161.156.362.156.604v1.513c0 .108.009.223.027.345.02.122.049.228.087.316v.048h-.58a1.034 1.034 0 0 1-.066-.256 2.057 2.057 0 0 1-.024-.3Zm.096-1.414.006.39h-.561c-.158 0-.299.013-.423.039a.974.974 0 0 0-.313.112.501.501 0 0 0-.258.45c0 .102.023.195.069.279a.502.502 0 0 0 .207.201c.094.048.21.072.346.072a.937.937 0 0 0 .759-.372.568.568 0 0 0 .126-.303l.238.267a.83.83 0 0 1-.115.279 1.334 1.334 0 0 1-.615.526c-.14.06-.298.09-.474.09-.221 0-.414-.043-.58-.129a.992.992 0 0 1-.384-.346.913.913 0 0 1-.135-.489c0-.174.034-.327.102-.459a.889.889 0 0 1 .294-.334c.128-.09.282-.158.462-.204.181-.046.382-.069.604-.069h.645Zm2.633 1.573a.833.833 0 0 0 .367-.081.754.754 0 0 0 .276-.222.618.618 0 0 0 .123-.327h.528a.99.99 0 0 1-.195.537 1.334 1.334 0 0 1-1.099.55c-.244 0-.457-.043-.639-.129a1.27 1.27 0 0 1-.45-.355 1.565 1.565 0 0 1-.268-.516 2.18 2.18 0 0 1-.087-.622v-.126c0-.218.029-.424.087-.618.06-.196.149-.369.268-.52.12-.15.27-.268.45-.354.182-.086.395-.129.639-.129.255 0 .477.052.667.156.19.102.339.242.447.421.11.176.17.376.18.6h-.528a.8.8 0 0 0-.114-.363.71.71 0 0 0-.264-.258.73.73 0 0 0-.388-.1.826.826 0 0 0-.429.103.752.752 0 0 0-.273.27 1.26 1.26 0 0 0-.144.375 2.063 2.063 0 0 0-.042.417v.126c0 .143.014.283.042.421.028.138.075.263.141.375a.784.784 0 0 0 .273.27c.116.066.26.099.432.099Zm2.522-2.852v3.249h-.558v-3.249h.558Zm-.6-.862c0-.09.027-.166.081-.228.056-.062.138-.093.246-.093.106 0 .187.031.243.093a.321.321 0 0 1 .087.228.314.314 0 0 1-.087.223c-.056.06-.137.09-.243.09-.108 0-.19-.03-.246-.09a.328.328 0 0 1-.081-.223Zm1.345 2.522v-.069c0-.234.034-.451.102-.651.068-.202.166-.377.294-.526.128-.15.283-.266.466-.348.182-.084.386-.126.612-.126.228 0 .433.042.616.126.184.082.34.198.468.348.13.149.229.324.297.526.068.2.102.417.102.651v.069c0 .235-.034.452-.102.652-.068.2-.167.375-.297.525a1.363 1.363 0 0 1-.465.349 1.468 1.468 0 0 1-.613.123c-.228 0-.433-.041-.615-.123a1.388 1.388 0 0 1-.469-.349 1.586 1.586 0 0 1-.294-.525 2.012 2.012 0 0 1-.102-.652Zm.555-.069v.069c0 .163.019.316.057.46.038.142.095.268.172.378.078.11.175.197.291.261a.847.847 0 0 0 .405.093.822.822 0 0 0 .399-.093.84.84 0 0 0 .289-.261c.076-.11.133-.236.171-.378.04-.144.06-.297.06-.46v-.069c0-.16-.02-.311-.06-.453a1.167 1.167 0 0 0-.174-.381.83.83 0 0 0-.289-.264.798.798 0 0 0-.402-.097.808.808 0 0 0-.69.361c-.077.11-.134.237-.172.381a1.746 1.746 0 0 0-.057.453Zm3.654-.897v2.555h-.555v-3.249h.525l.03.694Zm-.132.807-.231-.009c.002-.222.035-.427.099-.615a1.55 1.55 0 0 1 .27-.496 1.222 1.222 0 0 1 .952-.441c.16 0 .304.022.432.066.128.042.237.11.328.204a.907.907 0 0 1 .21.367c.048.148.072.329.072.543v2.129h-.559v-2.135a.935.935 0 0 0-.075-.408.461.461 0 0 0-.219-.225.773.773 0 0 0-.354-.073.81.81 0 0 0-.378.088.897.897 0 0 0-.292.24 1.207 1.207 0 0 0-.255.765Zm4.891 1.192v-1.672a.677.677 0 0 0-.078-.333.51.51 0 0 0-.228-.222.818.818 0 0 0-.379-.079.871.871 0 0 0-.369.073.643.643 0 0 0-.246.189.414.414 0 0 0-.087.252h-.556c0-.116.03-.231.09-.345.06-.115.147-.218.259-.31a1.29 1.29 0 0 1 .408-.222c.16-.056.338-.084.534-.084.237 0 .445.04.625.12.182.08.324.201.426.363.104.161.156.362.156.604v1.513c0 .108.009.223.027.345.02.122.049.228.087.316v.048h-.579a1.034 1.034 0 0 1-.066-.256 2.057 2.057 0 0 1-.024-.3Zm.096-1.414.006.39h-.561c-.159 0-.3.013-.424.039a.967.967 0 0 0-.312.112.501.501 0 0 0-.258.45c0 .102.023.195.069.279a.502.502 0 0 0 .207.201.752.752 0 0 0 .345.072.92.92 0 0 0 .76-.372.568.568 0 0 0 .126-.303l.237.267a.806.806 0 0 1-.114.279 1.334 1.334 0 0 1-.615.526 1.2 1.2 0 0 1-.475.09c-.22 0-.413-.043-.579-.129a.995.995 0 0 1-.385-.346.913.913 0 0 1-.135-.489c0-.174.034-.327.102-.459a.892.892 0 0 1 .295-.334c.128-.09.282-.158.462-.204.18-.046.381-.069.603-.069h.646Zm3.381 1.339v-3.981h.558v4.612h-.51l-.048-.631Zm-2.186-.958v-.063c0-.248.03-.473.09-.675a1.65 1.65 0 0 1 .261-.526 1.18 1.18 0 0 1 .405-.336c.159-.08.335-.12.529-.12.204 0 .382.036.534.108.154.07.285.173.391.309.108.135.193.297.255.487s.105.405.129.645v.277a2.827 2.827 0 0 1-.129.642c-.062.19-.147.352-.255.486a1.073 1.073 0 0 1-.391.31c-.154.07-.334.105-.54.105-.19 0-.364-.041-.523-.123a1.235 1.235 0 0 1-.405-.346 1.681 1.681 0 0 1-.261-.522 2.3 2.3 0 0 1-.09-.658Zm.558-.063v.063c0 .163.016.315.048.457.034.142.086.267.156.375.071.108.16.193.268.255.108.06.237.09.387.09a.806.806 0 0 0 .453-.117.884.884 0 0 0 .289-.309c.072-.128.128-.267.168-.417v-.724a1.602 1.602 0 0 0-.105-.318.96.96 0 0 0-.175-.276.752.752 0 0 0-.261-.195.83.83 0 0 0-.363-.073.759.759 0 0 0-.393.097.777.777 0 0 0-.268.258c-.07.108-.122.234-.156.378a2.071 2.071 0 0 0-.048.456Zm2.904.063v-.069c0-.234.034-.451.102-.651.068-.202.166-.377.294-.526.128-.15.283-.266.465-.348.182-.084.387-.126.613-.126.228 0 .433.042.615.126.184.082.34.198.469.348.13.149.229.324.297.526.068.2.102.417.102.651v.069c0 .235-.034.452-.102.652-.068.2-.167.375-.297.525a1.377 1.377 0 0 1-.466.349 1.46 1.46 0 0 1-.612.123c-.228 0-.434-.041-.616-.123a1.394 1.394 0 0 1-.468-.349 1.586 1.586 0 0 1-.294-.525 2.012 2.012 0 0 1-.102-.652Zm.555-.069v.069c0 .163.019.316.057.46.038.142.095.268.171.378.078.11.175.197.291.261a.85.85 0 0 0 .406.093.822.822 0 0 0 .399-.093.838.838 0 0 0 .288-.261c.076-.11.133-.236.171-.378.04-.144.06-.297.06-.46v-.069c0-.16-.02-.311-.06-.453a1.167 1.167 0 0 0-.174-.381.798.798 0 0 0-.69-.361.812.812 0 0 0-.403.097.863.863 0 0 0-.288.264c-.076.11-.133.237-.171.381a1.746 1.746 0 0 0-.057.453Zm4.99.796a.467.467 0 0 0-.054-.222.458.458 0 0 0-.213-.189 1.755 1.755 0 0 0-.481-.15 3.642 3.642 0 0 1-.489-.136 1.483 1.483 0 0 1-.369-.189.796.796 0 0 1-.232-.261.728.728 0 0 1-.081-.351c0-.128.028-.249.084-.363a.97.97 0 0 1 .244-.304c.106-.088.233-.157.381-.207a1.54 1.54 0 0 1 .495-.075c.261 0 .483.046.667.138.184.092.325.215.423.37a.916.916 0 0 1 .147.507h-.555a.476.476 0 0 0-.081-.261.598.598 0 0 0-.231-.213.74.74 0 0 0-.37-.085.826.826 0 0 0-.375.073.481.481 0 0 0-.207.177.446.446 0 0 0-.033.39c.022.046.06.089.114.129.054.038.13.074.228.108s.223.068.375.102c.267.06.486.132.658.216.172.084.3.188.384.31.084.122.126.27.126.444a.877.877 0 0 1-.345.697c-.11.084-.242.15-.396.198a1.776 1.776 0 0 1-.514.069c-.286 0-.528-.051-.726-.153a1.128 1.128 0 0 1-.451-.397.947.947 0 0 1-.153-.513h.559a.574.574 0 0 0 .132.363c.08.088.178.151.294.189.116.036.231.054.345.054.152 0 .28-.02.382-.06a.53.53 0 0 0 .237-.165.382.382 0 0 0 .081-.24Zm4.726.306v-1.672a.678.678 0 0 0-.079-.333.51.51 0 0 0-.228-.222.813.813 0 0 0-.378-.079.871.871 0 0 0-.369.073.643.643 0 0 0-.246.189.41.41 0 0 0-.088.252h-.555c0-.116.03-.231.09-.345.06-.115.146-.218.258-.31.114-.094.25-.168.409-.222.16-.056.338-.084.534-.084.236 0 .444.04.624.12.183.08.325.201.427.363.104.161.156.362.156.604v1.513c0 .108.009.223.027.345.02.122.049.228.087.316v.048h-.579a1.034 1.034 0 0 1-.066-.256 2.057 2.057 0 0 1-.024-.3Zm.096-1.414.006.39h-.562c-.158 0-.299.013-.423.039a.967.967 0 0 0-.312.112.501.501 0 0 0-.259.45c0 .102.023.195.069.279a.505.505 0 0 0 .208.201.752.752 0 0 0 .345.072.937.937 0 0 0 .759-.372.563.563 0 0 0 .127-.303l.237.267a.806.806 0 0 1-.114.279c-.062.102-.145.2-.25.294-.102.093-.224.17-.366.232-.14.06-.298.09-.474.09-.22 0-.414-.043-.58-.129a.992.992 0 0 1-.384-.346.913.913 0 0 1-.135-.489c0-.174.034-.327.102-.459a.889.889 0 0 1 .294-.334c.128-.09.282-.158.463-.204.18-.046.381-.069.603-.069h.646Zm1.185.381v-.069c0-.234.035-.451.103-.651.068-.202.166-.377.294-.526.128-.15.283-.266.465-.348.182-.084.386-.126.613-.126.228 0 .433.042.615.126.184.082.34.198.468.348.131.149.23.324.298.526.068.2.102.417.102.651v.069c0 .235-.034.452-.102.652-.068.2-.167.375-.298.525a1.363 1.363 0 0 1-.465.349 1.46 1.46 0 0 1-.612.123c-.229 0-.434-.041-.616-.123a1.394 1.394 0 0 1-.468-.349 1.586 1.586 0 0 1-.294-.525 2.012 2.012 0 0 1-.103-.652Zm.556-.069v.069c0 .163.019.316.057.46.038.142.095.268.171.378.078.11.175.197.291.261a.85.85 0 0 0 .406.093.822.822 0 0 0 .399-.093.838.838 0 0 0 .288-.261c.076-.11.133-.236.171-.378.04-.144.06-.297.06-.46v-.069c0-.16-.02-.311-.06-.453a1.167 1.167 0 0 0-.174-.381.798.798 0 0 0-.69-.361.812.812 0 0 0-.403.097.863.863 0 0 0-.288.264c-.076.11-.133.237-.171.381a1.746 1.746 0 0 0-.057.453Zm7.347.268h.576c-.03.276-.109.523-.237.741a1.39 1.39 0 0 1-.544.52c-.234.126-.526.189-.876.189a1.556 1.556 0 0 1-1.237-.553 1.91 1.91 0 0 1-.348-.639 2.703 2.703 0 0 1-.121-.835v-.435c0-.306.04-.584.121-.832.082-.25.199-.464.351-.642.154-.178.339-.316.555-.412.216-.096.46-.144.73-.144.33 0 .609.062.837.186.229.124.406.297.532.517.128.218.207.471.237.759h-.576a1.606 1.606 0 0 0-.156-.525.82.82 0 0 0-.325-.342c-.14-.08-.323-.12-.549-.12a1.14 1.14 0 0 0-.514.111 1.033 1.033 0 0 0-.369.315 1.466 1.466 0 0 0-.222.489c-.05.19-.075.402-.075.634v.441c0 .214.022.415.066.604.046.188.115.353.207.495.092.142.209.254.351.336.143.08.311.12.505.12.246 0 .442-.039.588-.117a.765.765 0 0 0 .33-.336 1.68 1.68 0 0 0 .163-.525Zm3.197.834v-1.672a.677.677 0 0 0-.078-.333.51.51 0 0 0-.228-.222.813.813 0 0 0-.378-.079.873.873 0 0 0-.37.073.643.643 0 0 0-.246.189.414.414 0 0 0-.087.252h-.555c0-.116.03-.231.09-.345.06-.115.146-.218.258-.31a1.29 1.29 0 0 1 .408-.222 1.61 1.61 0 0 1 .535-.084c.236 0 .444.04.624.12.182.08.324.201.426.363.104.161.157.362.157.604v1.513c0 .108.009.223.027.345.02.122.049.228.087.316v.048h-.58a1.034 1.034 0 0 1-.066-.256 2.057 2.057 0 0 1-.024-.3Zm.096-1.414.006.39h-.561a2.09 2.09 0 0 0-.424.039.967.967 0 0 0-.312.112.501.501 0 0 0-.258.45c0 .102.023.195.069.279a.502.502 0 0 0 .207.201.752.752 0 0 0 .345.072.937.937 0 0 0 .76-.372.568.568 0 0 0 .126-.303l.237.267a.806.806 0 0 1-.114.279 1.334 1.334 0 0 1-.615.526c-.14.06-.298.09-.475.09-.22 0-.413-.043-.579-.129a.992.992 0 0 1-.384-.346.913.913 0 0 1-.135-.489c0-.174.034-.327.102-.459a.889.889 0 0 1 .294-.334c.128-.09.282-.158.462-.204.18-.046.382-.069.604-.069h.645Zm1.889-.768v2.738h-.556v-3.249h.541l.015.511Zm1.014-.529-.003.517a1.403 1.403 0 0 0-.27-.024.892.892 0 0 0-.339.06.702.702 0 0 0-.249.168.808.808 0 0 0-.162.258 1.24 1.24 0 0 0-.075.324l-.157.09c0-.196.019-.38.057-.552.041-.172.102-.324.184-.457a.896.896 0 0 1 .312-.312.877.877 0 0 1 .702-.072Zm1.117-1.345v4.612h-.558v-4.612h.558Zm.745 3.023v-.069c0-.234.034-.451.102-.651.068-.202.166-.377.294-.526.128-.15.283-.266.466-.348.182-.084.386-.126.612-.126.228 0 .433.042.615.126a1.3 1.3 0 0 1 .469.348c.13.149.229.324.297.526.068.2.102.417.102.651v.069c0 .235-.034.452-.102.652-.068.2-.167.375-.297.525a1.358 1.358 0 0 1-1.078.472c-.228 0-.433-.041-.615-.123a1.388 1.388 0 0 1-.469-.349 1.586 1.586 0 0 1-.294-.525 2.012 2.012 0 0 1-.102-.652Zm.555-.069v.069c0 .163.019.316.057.46.038.142.095.268.171.378.079.11.176.197.292.261a.847.847 0 0 0 .405.093.822.822 0 0 0 .399-.093.85.85 0 0 0 .289-.261c.076-.11.133-.236.171-.378.04-.144.06-.297.06-.46v-.069c0-.16-.02-.311-.06-.453a1.167 1.167 0 0 0-.174-.381.839.839 0 0 0-.289-.264.798.798 0 0 0-.402-.097.808.808 0 0 0-.691.361c-.076.11-.133.237-.171.381a1.746 1.746 0 0 0-.057.453Zm4.99.796a.467.467 0 0 0-.054-.222.458.458 0 0 0-.213-.189 1.746 1.746 0 0 0-.48-.15 3.617 3.617 0 0 1-.49-.136 1.483 1.483 0 0 1-.369-.189.793.793 0 0 1-.231-.261.728.728 0 0 1-.081-.351c0-.128.028-.249.084-.363a.966.966 0 0 1 .243-.304c.106-.088.233-.157.381-.207.148-.05.313-.075.496-.075.26 0 .482.046.666.138.184.092.325.215.423.37a.909.909 0 0 1 .148.507h-.556a.476.476 0 0 0-.081-.261.598.598 0 0 0-.231-.213.735.735 0 0 0-.369-.085.828.828 0 0 0-.376.073.481.481 0 0 0-.207.177.446.446 0 0 0-.033.39c.022.046.06.089.114.129.054.038.13.074.228.108s.224.068.376.102c.266.06.485.132.657.216.172.084.3.188.384.31.085.122.127.27.127.444 0 .142-.03.272-.09.39a.89.89 0 0 1-.256.307c-.11.084-.242.15-.396.198a1.769 1.769 0 0 1-.513.069c-.287 0-.529-.051-.727-.153a1.125 1.125 0 0 1-.45-.397.947.947 0 0 1-.153-.513h.558a.574.574 0 0 0 .132.363c.08.088.178.151.294.189.116.036.232.054.346.054.152 0 .279-.02.381-.06a.53.53 0 0 0 .237-.165.382.382 0 0 0 .081-.24Z"/><rect width="53.417" height="18.062" x="176.2" y="216.948" stroke="#D8DBDF" stroke-width=".384" rx="2.882"/><path fill="#6B727B" d="M190.344 223.594c-.433 0-.726.143-.878.429-.153.281-.229.758-.229 1.431 0 .669.076 1.146.229 1.432.152.286.445.429.878.429.337 0 .574-.092.713-.277.143-.184.219-.451.228-.802l.761.035c-.037.595-.18 1.044-.429 1.349-.245.304-.669.456-1.273.456-.788 0-1.333-.23-1.632-.692a2.302 2.302 0 0 1-.326-.802 6.121 6.121 0 0 1-.089-1.128c0-.442.03-.816.089-1.12.065-.309.173-.579.326-.81.299-.461.844-.691 1.632-.691.567 0 .975.127 1.224.38.249.254.402.627.457 1.121l-.761.117c-.028-.276-.113-.488-.256-.636-.143-.148-.364-.221-.664-.221Zm3.936.332c1.005 0 1.508.459 1.508 1.376v2.677h-.602l-.263-.484c-.369.387-.8.581-1.293.581-.351 0-.618-.097-.803-.29-.18-.199-.27-.462-.27-.789 0-.332.104-.6.312-.802.207-.203.595-.346 1.162-.429l.83-.125v-.332c0-.447-.212-.671-.636-.671-.402 0-.639.203-.713.609l-.719-.215c.175-.737.671-1.106 1.487-1.106Zm-.353 3.472c.314 0 .625-.154.934-.463v-.713l-.664.118c-.3.051-.498.131-.595.242a.551.551 0 0 0-.145.373c0 .139.041.247.124.326a.486.486 0 0 0 .346.117Zm3.823-3.016c.434-.304.876-.456 1.328-.456.457 0 .787.113.99.339.202.221.304.528.304.92v2.794h-.927v-2.698c0-.235-.044-.401-.131-.498-.083-.096-.231-.145-.443-.145a1.55 1.55 0 0 0-.927.311v3.03h-.927v-3.956h.436l.297.359Zm4.552.588c-.115.222-.173.565-.173 1.031 0 .466.058.809.173 1.031.12.221.326.332.616.332.295 0 .505-.06.63-.18.129-.12.198-.309.207-.567l.726.034c-.027.47-.166.826-.415 1.065-.244.24-.648.36-1.21.36-.66 0-1.109-.214-1.349-.643a2.273 2.273 0 0 1-.242-.65 4.327 4.327 0 0 1-.062-.782c0-.3.02-.563.062-.789.046-.23.127-.447.242-.65.235-.424.685-.636 1.349-.636.558 0 .959.115 1.203.346.245.226.383.564.415 1.016l-.719.097c-.009-.258-.078-.447-.207-.567-.125-.12-.335-.18-.63-.18-.29 0-.496.111-.616.332Zm4.38 3.106c-.636 0-1.091-.171-1.363-.512-.272-.346-.408-.867-.408-1.563 0-1.384.581-2.075 1.743-2.075.669 0 1.126.207 1.37.622.212.355.318.816.318 1.384v.249h-2.532c.005.433.077.74.215.92.138.175.366.263.685.263.512 0 .784-.185.816-.554l.761.028c-.074.825-.609 1.238-1.605 1.238Zm.533-3.21c-.116-.152-.305-.228-.568-.228-.262 0-.456.074-.581.222-.12.142-.198.373-.235.691h1.598c-.028-.309-.099-.537-.214-.685Zm2.922 3.113h-.927v-5.202l.927-.124v5.326Zm2.693-4.053c1.005 0 1.508.459 1.508 1.376v2.677h-.602l-.263-.484c-.369.387-.8.581-1.293.581-.351 0-.618-.097-.803-.29-.18-.199-.27-.462-.27-.789 0-.332.104-.6.312-.802.207-.203.595-.346 1.162-.429l.83-.125v-.332c0-.447-.212-.671-.637-.671-.401 0-.638.203-.712.609l-.719-.215c.175-.737.671-1.106 1.487-1.106Zm-.353 3.472c.314 0 .625-.154.934-.463v-.713l-.664.118c-.3.051-.498.131-.595.242a.551.551 0 0 0-.145.373c0 .139.041.247.124.326a.485.485 0 0 0 .346.117Zm4.017.581h-.927v-3.956h.436l.366.615c.318-.452.768-.689 1.349-.712v.795c-.544.014-.952.18-1.224.498v2.76Z"/><rect width="53.802" height="18.446" x="235.959" y="216.756" fill="#1A96D4" rx="3.074"/><path fill="#fff" d="M254.412 225.109c.471.119.807.29 1.01.511.203.222.305.554.305.997 0 .442-.153.797-.457 1.065-.304.263-.752.394-1.342.394-.59 0-1.017-.124-1.28-.373-.262-.254-.424-.621-.484-1.1l.754-.118c.028.272.12.484.277.636.161.148.385.222.671.222.613 0 .92-.233.92-.699 0-.198-.058-.348-.173-.449-.115-.102-.337-.194-.664-.277l-.394-.097c-.462-.115-.791-.286-.99-.512-.198-.226-.297-.562-.297-1.01 0-.452.145-.809.436-1.072.29-.263.719-.394 1.286-.394.572 0 .983.127 1.232.38.253.249.41.614.47 1.093l-.747.118c-.06-.572-.355-.858-.885-.858-.291 0-.505.065-.644.194a.636.636 0 0 0-.207.498c0 .207.053.362.159.463.106.102.309.192.609.27l.435.118Zm3.656-1.183c1.006 0 1.508.459 1.508 1.376v2.677h-.601l-.263-.484c-.369.387-.8.581-1.294.581-.35 0-.618-.097-.802-.29-.18-.199-.27-.462-.27-.789 0-.332.104-.6.311-.802.208-.203.595-.346 1.162-.429l.831-.125v-.332c0-.447-.213-.671-.637-.671-.401 0-.639.203-.712.609l-.72-.215c.175-.737.671-1.106 1.487-1.106Zm-.352 3.472c.313 0 .625-.154.934-.463v-.713l-.665.118c-.299.051-.498.131-.594.242a.553.553 0 0 0-.146.373c0 .139.042.247.125.326a.485.485 0 0 0 .346.117Zm4.016.581h-.926v-5.202l.926-.124v5.326Zm3.053 0h-1.031l-1.342-3.956h.934l.92 2.863.927-2.863h.934l-1.342 3.956Zm3.41-4.053c1.005 0 1.508.459 1.508 1.376v2.677h-.602l-.263-.484c-.369.387-.8.581-1.294.581-.35 0-.618-.097-.802-.29-.18-.199-.27-.462-.27-.789 0-.332.104-.6.311-.802.208-.203.595-.346 1.163-.429l.83-.125v-.332c0-.447-.213-.671-.637-.671-.401 0-.638.203-.712.609l-.72-.215c.176-.737.671-1.106 1.488-1.106Zm-.353 3.472c.313 0 .625-.154.934-.463v-.713l-.664.118c-.3.051-.499.131-.595.242a.553.553 0 0 0-.146.373c0 .139.042.247.125.326a.485.485 0 0 0 .346.117Zm4.017.581h-.927v-3.956h.435l.367.615c.318-.452.768-.689 1.349-.712v.795c-.544.014-.952.18-1.224.498v2.76Z"/></svg>